**ABCDEFGHIJKLMNOPQRSTUVWXYZabcdefghijklmnopqrstuvwxyz**************************
**PARASOLID !"#$%&'()*+,-./:;<=>?@[\]^_`{|}~0123456789**************************
**PART1;
MC=x64/Windows NT;
MC_MODEL=genuineintel family 6 model 14 stepping 3, intel(r) core(tm) i7-6700 cpu @ 3.40ghz;
MC_ID=robotic-pc;
OS=windows nt (x64);
OS_RELEASE=6.1 windows 7 professional (build 7601) service pack 1;
FRU=mdc_ugii_v7.0_djl_can_vrh;
APPL=unigraphics;
SITE=unknown;
USER=Robotic;
FORMAT=text;
GUISE=transmit;
KEY=hand cover;
FILE=C:\Users\Robotic\Desktop\robot_solid\hand cover.x_t;
DATE=2-feb-2018;
**PART2;
SCH=SCH_2900123_28101;
USFLD_SIZE=0;
**PART3;
**END_OF_HEADER*****************************************************************
T51 : TRANSMIT FILE created by modeller version 290012323 SCH_2900123_28101_1300
6203 0 10 19 CCCCCCCI4 mesh1006 0 I8 polyline1008 0 CCCCCCCCCCZ1 2 0 0 0 0 0 0 0
 0 0 1e3 1e-8 0 0 0 1 0 1 2 11 255 2 1 0 1 3 4 1 0 0 0 0 12 33 CCCCCCI4 mesh1006
 0 I8 polyline1008 0 CCCCCCCDI5 owner1040 0 CCCCCCI13 boundary_mesh1006 0 I17 bo
undary_polyline1008 0 CCCA16 index_map_offset0 0 1 dA9 index_map82 0 A17 node_id
_index_map82 0 A20 schema_embedding_map82 0 A5 child12 0 A14 lowest_node_id0 0 1
 dZ3 1161 5 6 0 0 0 0 0 0 1e3 1e-8 2 0 0 1 0 1 1 7 8 9 10 0 0 11 12 13 0 0 0 0 0
 0 100 255 4 2 2 0 0 -131720106751802e-29 1 1517559737136935e-30 .01935698244742
885 -1488826423257094e-30 .999812636062644 .999812636062643 149880108324396e-29
 -.01935698244742885 -.0649565013851507 -.099533797976483 .0855030907426856 1 3
 ?81 255 1 5 1161 14 3 15 0 0 0 16 70 11 CI9 list_type0 0 1 uI10 notransmit0 0 1
 lCCCDCCDI12 finger_index0 0 1 dI12 finger_block1012 0 CZ6 0 4 T3 0 0 6 20 1 17
 17 13 255 7 3 0 3 0 18 0 0 19 0 51 255 8 68 0 20 21 0 0 +-.043 .040200020453033
6 .0001481380478845286 2275568086271285e-31 -.896630132720613 .442780312454626 .
018 0 -.4427803124546265 -.896630132720613 30 255 9 1079 0 3 22 0 23 +-.00300000
000000004 .0401446729139768 .0113283409373638 -1 0 0 29 255 10 875 0 13 24 0 -.0
328 .03073005652041035 .0159775342181374 19 8 CCCCCCCA5 owner12 0 Z11 1 0 3 19 0
 25 V0 16 255 12 556 26 ?27 0 28 29 0 0 3 18 255 13 872 0 30 0 31 10 ?3 17 255 3
0 0 32 33 34 13 35 36 0 37 -18 31 570 0 38 13 39 24 ?3 17 38 0 40 41 35 31 42 43
 0 44 +18 39 543 0 45 31 46 47 ?3 29 24 572 0 31 47 10 -.043 .0329439580826835 .
02046068488174045 29 47 545 0 39 48 24 -.02803337045290425 .0401446729139768 .01
13283409373638 29 48 314 0 46 49 47 -.043 .0049713118433626 .02479439718989015 1
8 46 311 0 50 39 51 48 ?3 29 49 300 0 51 52 48 -.043 .0355286881566373 -.0047943
971898902 18 51 297 0 53 46 54 49 ?3 29 52 123 0 54 55 49 -.043 .033978957063046
15 -.00793260265441232 18 54 121 0 56 51 57 52 ?3 29 55 55 0 58 59 52 -.043 .008
27002517114962 .0359912043410864 18 58 45 0 60 61 62 55 ?3 29 59 56 0 62 63 55 -
.043 -.00767006607721691 .003712519563144355 18 62 47 0 64 58 65 59 ?3 29 63 12
 0 57 66 59 -.043 .0481700660772169 .01628748043685555 18 57 10 0 67 54 61 63 ?3
 29 66 7 0 61 68 63 -.043 .03222997482885035 -.0159912043410865 18 61 5 0 69 57
 58 66 ?3 29 68 238 0 65 70 66 -.043 .04283456331213865 .01 18 65 185 0 71 62 72
 68 ?3 29 70 239 0 72 73 68 -.043 .00652104293695381 .0279326026544123 18 72 182
 0 74 65 75 70 ?3 29 73 240 0 75 76 70 -.043 -.002334563312138685 .01 18 75 187
 0 77 72 78 73 ?3 29 76 453 0 78 79 73 -.043 -.00257809248398873 .01402376608943
14 18 78 416 0 80 75 81 76 ?3 29 79 454 0 81 82 76 -.043 .003178051577921395 .02
56799578147994 18 81 412 0 83 78 84 79 ?3 29 82 455 0 84 85 79 -.043 -.000784832
218547521 .01313820546452216 18 84 417 0 86 81 87 82 ?3 29 85 457 0 87 88 82 -.0
43 .03732194842207855 -.00567995781479945 18 87 410 0 89 84 90 85 ?3 29 88 458 0
 90 91 85 -.043 .04307809248398865 .00597623391056852 18 90 414 0 92 87 93 88 ?3
 29 91 459 0 93 94 88 -.043 .04128483221854745 .00686179453547777 18 93 415 0 95
 90 96 91 ?3 29 94 771 0 96 97 91 -.03305012562893385 .0329439580826835 .0204606
8488174045 18 96 690 0 98 93 99 94 ?3 29 97 773 0 99 100 94 -.02803337045290425
 .03073005652041035 .0159775342181374 18 99 694 0 101 96 102 97 ?3 29 100 776 0
 102 103 97 -.03305012562893385 .04235857447624995 .01581149160096685 18 102 696
 0 104 99 105 100 ?3 29 103 777 0 105 106 100 -.043 .04235857447624995 .01581149
160096685 18 105 697 0 107 102 108 103 ?3 29 106 779 0 108 109 103 -.043 .030730
05652041035 .0159775342181374 18 108 686 0 35 105 110 106 ?3 29 109 780 0 110 11
1 106 -.043 .0401446729139768 .0113283409373638 18 110 698 0 112 108 113 109 ?3
 29 111 1025 0 113 114 109 -.0328 .0401446729139768 .0113283409373638 18 113 956
 0 115 110 116 111 ?3 29 114 1031 0 116 117 111 -.0328 .03397895706304615 -.0079
3260265441232 18 116 963 0 118 113 119 114 ?3 29 117 1032 0 119 120 114 -.0328 .
04283456331213865 .01 18 119 957 0 121 116 122 117 ?3 29 120 1033 0 122 123 117
 -.0328 .00652104293695381 .0279326026544123 18 122 961 0 124 119 125 120 ?3 29
 123 1034 0 125 0 120 -.0328 -.002334563312138685 .01 18 125 958 0 126 122 0 123
 ?3 17 126 0 127 128 77 125 129 130 0 131 -15 255 127 204 0 126 132 0 17 128 0 1
27 133 126 116 131 134 0 0 -17 77 0 127 126 133 75 135 136 0 129 +17 129 0 137 1
38 139 75 126 130 0 140 +16 130 151 141 ?129 142 136 143 0 0 3 17 131 0 144 145
 146 125 128 134 0 139 +15 144 993 0 145 147 0 17 145 0 144 37 131 122 139 148 0
 0 +17 146 0 144 131 149 116 150 151 0 128 +16 134 926 152 ?131 43 151 153 0 0 3
 17 139 0 137 129 124 125 145 148 0 0 -15 137 316 0 154 155 0 17 124 0 137 139 7
4 122 156 157 0 33 -16 148 916 158 ?145 159 0 160 0 0 3 81 1 158 1092 161 148 0
 0 162 163 164 16 159 912 165 ?149 166 148 167 166 168 3 30 160 1022 0 148 0 167
 0 +-.0328 -.002334563312138685 .01 0 .442780312454625 .896630132720613 30 167 1
021 0 168 160 169 0 +-.0328 .00652104293695381 .0279326026544123 0 .896630132720
613 -.442780312454626 16 168 920 162 ?37 151 166 167 159 166 3 30 169 1020 0 151
 167 153 0 +-.0328 .04283456331213865 .01 0 -.4427803124546245 -.896630132720613
 16 151 922 170 ?146 134 168 169 0 0 3 30 153 1019 0 134 169 171 0 +-.0328 .0339
7895706304615 -.00793260265441233 0 -.896630132720613 .442780312454626 30 171 76
5 0 43 153 172 0 +-.043 .03073005652041035 .0159775342181374 0 .4427803124546265
 .896630132720612 16 43 677 173 ?38 174 134 171 0 0 3 30 172 764 0 174 171 175 0
 +-.043 .0329439580826835 .02046068488174045 0 .896630132720613 -.44278031245462
65 16 174 681 176 ?177 178 43 172 0 0 3 30 175 763 0 178 172 179 0 +-.043 .04235
857447624995 .01581149160096685 0 -.4427803124546285 -.896630132720612 16 178 66
9 180 ?181 182 174 175 0 0 3 30 179 762 0 183 175 184 0 --.003 .0423585744762499
5 .01581149160096685 -1 0 0 16 183 636 185 ?186 187 188 179 0 0 3 30 184 761 0 1
87 179 189 0 --.003 .0329439580826835 .02046068488174045 -1 0 0 16 187 643 190 ?
41 36 183 184 0 0 3 31 255 189 758 0 191 184 192 0 --.043 .0357168697894305 .002
362039610157675 0 .896630132720612 -.4427803124546285 0 .4427803124546285 .89663
0132720612 .018 16 191 652 193 ?104 194 195 189 0 0 3 31 192 757 0 194 189 196 0
 --.043 .0263022533958641 .00701123289093125 0 -.896630132720612 .44278031245462
65 0 -.4427803124546265 -.896630132720613 .018 16 194 645 197 ?198 199 191 192 0
 0 3 30 196 450 0 199 192 200 0 --.043 .065493845802004 -.00509327390079715 2275
568086271285e-31 -.896630132720613 .442780312454626 16 199 388 201 ?92 202 194 1
96 203 203 3 30 200 449 0 202 196 204 0 +-.043 .0597377017400939 -.0167494656261
651 2275568086271285e-31 -.896630132720613 .442780312454626 16 202 382 205 ?53 2
06 199 200 207 207 3 31 204 448 0 206 200 208 0 +-.043 .0402000204530336 .000148
1380478845252 2220446049250315e-31 -.896630132720613 .4427803124546265 0 -.44278
03124546265 -.896630132720613 .0065 16 206 405 209 ?210 211 202 204 0 0 3 31 208
 447 0 211 204 212 0 +-.043 .00209323981240754 .01896630132720615 0 .89663013272
0613 -.442780312454625 0 .442780312454625 .896630132720614 .0065 16 211 402 213
 ?86 203 206 208 0 0 3 31 212 446 0 214 208 215 0 +-.043 .000299979546966339 .01
98518619521154 2220446049250315e-31 -.896630132720613 .4427803124546265 0 -.4427
803124546265 -.896630132720613 .0065 16 214 396 216 ?83 217 207 212 0 0 3 30 215
 232 0 218 212 219 0 +-.043 -.002334563312138685 .01 0 .442780312454625 .8966301
32720613 16 218 165 220 ?138 221 217 215 217 217 3 30 219 231 0 222 215 223 0 +-
.043 .00652104293695381 .0279326026544123 0 .896630132720613 -.442780312454626 1
6 222 169 224 ?34 225 221 219 221 221 3 30 223 230 0 226 219 227 0 +-.043 .04283
456331213865 .01 0 -.4427803124546245 -.896630132720613 16 226 173 228 ?229 136
 225 223 225 225 3 30 227 229 0 136 223 230 0 +-.043 .03397895706304615 -.007932
60265441233 0 -.896630132720613 .442780312454626 16 136 177 231 ?77 130 226 227
 0 0 3 30 230 224 0 142 227 232 0 --.043 .03397895706304615 -.00793260265441232
 1 0 0 16 142 163 233 ?133 234 130 230 0 0 3 30 232 223 0 234 230 235 0 --.043 .
04283456331213865 .01 1 0 0 16 234 159 236 ?237 157 142 232 0 0 3 30 235 222 0 1
57 232 143 0 --.043 .00652104293695381 .0279326026544123 1 0 0 16 157 155 238 ?1
56 239 234 235 0 0 3 30 143 221 0 130 235 240 0 --.043 -.002334563312138685 .01
 1 0 0 30 240 9 0 241 143 242 0 +-.043 .0402000204530336 .0001481380478845322 0
 -.4427803124546245 -.896630132720613 16 241 6 243 ?244 245 246 240 246 246 3 31
 242 14 0 245 240 247 0 +-.043 .0402000204530336 .0001481380478845286 2220446049
250315e-31 -.896630132720613 .4427803124546265 1 1665334536937735e-31 -138777878
0781446e-31 .018 16 245 11 248 ?249 250 241 242 0 0 3 31 247 53 0 239 242 251 0
 +-.043 .000299979546966346 .0198518619521154 2220446049250315e-31 -.89663013272
0613 .4427803124546265 1 1665334536937735e-31 -1387778780781446e-31 .018 16 239
 41 252 ?253 254 157 247 0 0 3 30 251 52 0 255 247 256 0 +-.043 .008270025171149
59 .03599120434108645 -3854941057726235e-31 -.442780312454625 -.896630132720613
 16 255 39 257 ?258 246 254 251 254 254 3 30 256 70 0 250 251 259 0 --.043 .0481
700660772169 .01628748043685555 2275568086271285e-31 -.896630132720613 .44278031
2454626 16 250 58 260 ?261 262 245 256 0 0 3 30 259 71 0 262 256 263 0 +-.043 .0
3222997482885035 -.0159912043410865 2275568086271285e-31 -.896630132720613 .4427
80312454626 16 262 59 264 ?265 266 250 259 0 0 3 31 263 303 0 266 259 267 0 +-.0
43 .03840676018759235 .001033698672793786 0 -.896630132720614 .4427803124546245
 0 -.4427803124546245 -.896630132720614 .0065 16 266 301 268 ?95 28 262 263 0 0
 3 30 267 552 0 28 263 29 0 +-.03305012562893385 .046841725139853 .0135975900386
9372 2275568086271285e-31 -.896630132720613 .442780312454626 16 28 550 269 ?98 1
2 266 267 0 0 3 30 29 558 0 12 267 270 0 --.02803337045290425 .0446278235775799
 .00911443937509066 2275568086271285e-31 -.896630132720613 .442780312454626 30 2
70 805 0 182 29 271 0 --.00300000000000004 .0401446729139768 .0113283409373638 -
1 0 0 16 182 869 272 ?45 188 178 270 0 0 3 30 271 806 0 195 270 273 0 --.003 .03
073005652041035 .0159775342181374 -1 0 0 16 195 629 274 ?101 191 36 271 0 0 3 13
3 255 273 1047 0 36 271 275 0 +275 -.0328 .03073005652041035 .0159775342181374 -
.043 .03073005652041035 .0159775342181374 .0298 .04 16 36 625 276 ?35 195 187 27
3 0 0 3 30 275 1048 0 3 273 22 277 +-.003 .03073005652041035 .0159775342181374 -
1 0 0 133 22 1078 0 188 275 9 0 +9 -.0328 .0401446729139768 .0113283409373638 -.
043 .0401446729139768 .0113283409373638 .0298 .04 141 255 277 273 277 277 275 16
 188 650 278 ?112 183 182 22 0 0 3 81 1 278 1089 161 188 0 0 276 152 279 17 112
 0 280 71 115 110 281 188 0 181 +15 280 196 0 121 282 0 17 71 0 280 121 112 65 2
83 221 0 237 +17 115 0 280 112 121 113 149 159 0 284 -17 281 0 285 45 181 113 11
2 188 0 0 -17 181 0 285 281 107 110 286 178 0 283 +15 285 740 0 104 287 0 17 107
 0 285 181 104 105 186 183 0 177 -17 286 0 288 289 283 105 181 178 0 0 -17 283 0
 288 286 290 110 71 221 0 0 -15 288 579 0 286 291 0 17 290 0 288 283 292 65 229
 226 0 0 -16 221 567 293 ?71 222 218 219 222 222 3 81 1 293 825 161 221 0 0 197
 180 294 80 255 1 161 295 296 9000 1 1 1 1 1 1 1 1 0 FFFFTFTFFFFFFF3 81 1 197 82
3 161 194 0 0 269 293 297 81 1 180 826 161 178 0 0 293 298 299 84 255 32 294 fe6
5443db37e8a8dac15796fa0d1df2781 1 298 827 161 20 0 300 180 301 302 84 32 299 89a
dd188175d56019069eff69a9d2e3914 255 20 64 303 ?304 291 305 7 8 +0 0 304 291 25 8
1 1 300 1135 306 20 298 303 307 308 309 81 1 301 830 161 291 0 307 298 310 311 8
4 32 302 a82abdd43a3316ffc5bd02172b2b845614 291 62 312 ?20 313 288 7 21 +313 313
 20 313 25 81 1 307 1133 306 291 301 312 314 300 315 81 1 310 832 161 316 0 317
 301 238 318 84 32 311 31b0325cb55d46a2676168c8620290f714 316 733 319 ?287 320 3
21 7 322 -0 0 287 320 25 81 1 317 1155 306 316 310 319 323 324 325 81 1 238 1082
 161 157 0 0 310 141 326 84 32 318 7ea89b097d4eaaaa666506717d09831c81 1 141 1083
 161 130 0 0 238 233 327 84 32 326 1974ceb6b8450ab7155bb8f81c80702c81 1 233 1084
 161 142 0 0 141 236 328 84 32 327 25f050d6b3ae77bf133b62f28b794a2081 1 236 1085
 161 234 0 0 233 272 329 84 32 328 47c3eff0d1752864140312bffd6fb62281 1 272 1086
 161 182 0 0 236 274 330 84 32 329 7e3e13f4b77225be3d085e2ae8b7199081 1 274 1087
 161 195 0 0 272 276 331 84 32 330 6fe953e74cbb5a353b31c7e62d11602d81 1 276 1088
 161 36 0 0 274 278 332 84 32 331 6b19a033f97918818aa3f0da9dd4efe684 32 332 44c7
b3529c8d79c37861fece46a538a680 1 306 333 334 8015 0 0 0 0 3 5 0 0 0 FFFFTFFFFFFF
FF2 81 1 319 1156 335 316 317 0 336 337 338 81 1 323 1153 306 320 339 336 340 31
7 341 81 1 324 1157 306 287 342 337 317 343 344 83 255 1 325 0 14 287 737 337 ?1
47 316 285 7 345 -0 0 147 316 25 81 1 342 1101 161 287 0 324 339 346 347 81 1 33
7 1158 335 287 324 0 319 348 349 81 1 343 1159 306 147 350 348 324 0 351 83 1 34
4 0 14 147 990 348 ?0 287 144 7 352 +0 0 0 287 25 81 1 350 1104 161 147 0 343 35
3 0 354 81 1 348 1160 335 147 343 0 337 0 355 83 1 351 0 80 1 335 0 356 8001 0 0
 0 0 3 5 0 0 0 FFFFTFTFFFFFFF2 83 3 355 .0470588 .0470588 .0470588 79 255 15 356
 SDL/TYSA_COLOUR81 1 353 1103 161 282 0 357 346 350 358 84 32 354 ec0b9a758a54fd
e19fc36477ed6bf2b714 282 593 359 ?313 18 280 7 360 +361 361 313 18 25 81 1 357 1
129 306 282 353 359 362 314 363 81 1 346 1102 161 18 0 362 342 353 364 84 32 358
 3d3f210f8a50a8cd2e2f258ef2a066d314 18 723 365 ?282 0 366 7 367 -0 0 282 0 25 81
 1 362 1127 306 18 346 365 0 357 368 84 32 364 a070959d4b257c34165f3956bdc821a38
1 1 365 1128 335 18 362 0 0 359 369 83 1 368 0 81 1 359 1130 335 282 357 0 365 3
70 371 83 3 369 .0470588 .0470588 .0470588 81 1 370 1132 335 313 314 0 359 312 3
72 83 3 371 .0470588 .0470588 .0470588 14 313 349 370 ?291 282 373 7 21 +291 291
 291 282 25 81 1 314 1131 306 313 374 370 357 307 375 81 1 312 1134 335 291 307
 0 370 303 376 83 3 372 .0470588 .0470588 .0470588 81 1 303 1136 335 20 300 0 31
2 377 378 83 3 376 .0470588 .0470588 .0470588 81 1 377 1138 335 304 308 0 303 37
9 380 83 3 378 .0470588 .0470588 .0470588 14 304 19 377 ?381 20 382 7 383 -0 0 3
81 20 25 81 1 308 1137 306 304 384 377 300 385 386 81 1 379 1140 335 381 385 0 3
77 387 388 83 3 380 .0470588 .0470588 .0470588 14 381 35 379 ?155 304 389 7 390
 +0 0 155 304 25 81 1 385 1139 306 381 391 379 308 392 393 81 1 387 1142 335 155
 392 0 379 394 395 83 3 388 .0470588 .0470588 .0470588 14 155 189 387 ?361 381 1
37 7 396 +0 0 361 381 25 81 1 392 1141 306 155 397 387 385 398 399 81 1 394 1144
 335 361 398 0 387 400 401 83 3 395 .0470588 .0470588 .0470588 14 361 193 394 ?4
02 155 32 7 360 +282 282 402 155 25 81 1 398 1143 306 361 403 394 392 404 405 81
 1 400 1146 335 402 404 0 394 406 407 83 3 401 .0470588 .0470588 .0470588 14 402
 197 400 ?132 361 408 7 409 +0 0 132 361 25 81 1 404 1145 306 402 410 400 398 41
1 412 81 1 406 1148 335 132 411 0 400 413 414 83 3 407 .0470588 .0470588 .047058
8 14 132 201 406 ?415 402 127 7 416 +0 0 415 402 25 81 1 411 1147 306 132 417 40
6 404 418 419 81 1 413 1150 335 415 418 0 406 420 421 83 3 414 .0470588 .0470588
 .0470588 14 415 425 413 ?422 132 423 7 424 -422 422 422 132 25 81 1 418 1149 30
6 415 425 413 411 340 426 81 1 420 1152 335 422 340 0 413 336 427 83 3 421 .0470
588 .0470588 .0470588 14 422 429 420 ?320 415 428 7 424 -415 415 320 415 25 81 1
 340 1151 306 422 429 420 418 323 430 81 1 336 1154 335 320 323 0 420 319 431 83
 3 427 .0470588 .0470588 .0470588 14 320 729 336 ?316 422 40 7 432 -0 0 316 422
 25 83 3 431 .0470588 .0470588 .0470588 15 40 732 0 198 320 0 50 255 432 752 0 3
20 322 367 0 +-.003 .03073005652041035 .0159775342181374 0 -.896630132720612 .44
27803124546265 0 -.4427803124546265 -.896630132720613 13 25 73 0 0 0 0 0 0 11 18
 50 322 753 0 316 345 432 0 +-.003 .0329439580826835 .02046068488174045 0 .44278
03124546265 .896630132720613 0 -.896630132720613 .4427803124546265 50 367 751 0
 18 432 424 0 +-.003 .03162668665313095 .01553475390568275 0 -.442780312454626 -
.896630132720613 0 .896630132720613 -.442780312454626 51 424 443 0 422 367 416 0
 +-.043 .0626157737710489 -.01092136976348112 2275568086271285e-31 -.89663013272
0613 .442780312454626 .0065 0 -.442780312454626 -.896630132720613 50 416 218 0 1
32 424 409 0 +-.043 .03397895706304615 -.00793260265441233 0 .442780312454626 .8
96630132720613 0 -.896630132720613 .442780312454626 50 409 217 0 402 416 360 0 +
-.043 .04283456331213865 .01 0 -.896630132720614 .4427803124546245 0 -.442780312
4546245 -.896630132720614 50 360 216 0 361 409 396 0 +-.043 .00652104293695381 .
0279326026544123 0 -.442780312454626 -.896630132720613 0 .896630132720613 -.4427
80312454626 50 396 215 0 155 360 383 0 +-.043 -.002334563312138685 .01 0 .896630
132720613 -.442780312454625 0 .442780312454625 .896630132720614 50 383 20 0 304
 396 390 0 +-.043 .0402000204530336 .0001481380478845286 2220446049250315e-31 -.
896630132720613 .4427803124546265 0 -.4427803124546265 -.896630132720613 50 390
 51 0 381 383 21 0 +-.043 .000299979546966346 .0198518619521154 2220446049250315
e-31 -.896630132720613 .4427803124546265 0 -.4427803124546265 -.896630132720613
 50 21 67 0 291 390 8 0 +-.043 .0481700660772169 .0162874804368556 -1 -333450909
174026e-31 446403306047019e-30 446403306047019e-30 0 1 50 345 754 0 287 352 322
 0 +-.003 .04235857447624995 .01581149160096685 0 .896630132720612 -.44278031245
46285 0 .4427803124546285 .896630132720612 50 352 1005 0 147 0 345 0 +-.0328 0 0
 -1 0 0 0 0 1 17 198 0 40 433 41 99 434 194 0 435 +17 433 0 40 35 198 13 101 195
 0 0 -17 41 0 40 198 38 96 44 187 0 434 +17 434 0 305 436 435 96 198 194 0 0 -17
 435 0 305 434 437 99 27 12 0 0 -15 305 557 0 435 20 438 17 437 0 305 435 436 39
 104 191 0 0 -17 27 0 366 439 101 39 435 12 0 437 +15 366 877 0 440 18 0 17 439
 0 366 440 27 113 45 182 0 281 -17 101 0 366 27 440 99 433 195 0 198 +17 440 0 3
66 101 439 13 284 166 0 433 -17 284 0 144 149 37 113 440 166 0 439 +16 166 905 1
63 ?284 168 159 167 168 159 3 81 1 163 1093 161 166 0 0 158 170 441 81 1 170 109
4 161 151 0 0 163 165 442 84 32 441 6d9595f2b6012e384a3f43e39134664d81 1 165 109
5 161 159 0 0 170 397 443 84 32 442 8b545f9017f8475c7db7a934435d3f8881 1 397 109
6 161 155 0 392 165 403 444 84 32 443 b4cae58ea7b7bf1e0f0be2d875fe7c9181 1 403 1
097 161 361 0 398 397 417 445 84 32 444 47675fdf9193900b7175f757b473431281 1 417
 1098 161 132 0 411 403 410 446 84 32 445 d82aac75f7198f6b0a3741b8606f702d81 1 4
10 1099 161 402 0 404 417 339 447 84 32 446 51c29cc037b32585432f309ec6bdea1981 1
 339 1100 161 320 0 323 410 342 448 84 32 447 61f07c68a5bcd59183be4a3f1932db3e84
 32 448 c60345c4471006127203e5baed2ece3f17 149 0 144 146 284 119 115 159 0 150 +
17 37 0 144 284 145 13 33 168 0 440 +17 33 0 32 156 30 122 37 168 0 145 -15 32 5
87 0 30 361 0 17 156 0 32 34 33 72 124 157 0 449 +17 34 0 32 30 156 108 449 222
 0 0 +17 449 0 288 450 42 72 34 222 0 0 -17 450 0 288 451 449 46 74 217 0 0 -17
 42 0 288 449 289 108 38 43 0 34 -17 289 0 288 42 286 31 177 174 0 0 -17 177 0 3
21 186 44 105 289 174 0 286 +15 321 736 0 98 316 0 17 186 0 321 98 177 102 107 1
83 0 436 +17 44 0 321 177 98 31 41 187 0 289 -17 98 0 321 44 186 96 436 28 0 41
 +17 436 0 305 437 434 102 98 28 0 0 -17 451 0 288 452 450 81 50 203 0 258 -17 7
4 0 137 124 154 72 450 217 0 156 +16 217 312 453 ?74 218 214 215 218 218 3 81 1
 453 509 161 217 0 0 268 228 454 81 1 268 508 161 266 0 0 257 453 455 81 1 228 5
10 161 226 0 0 453 209 456 84 32 454 1eedd228f3c8f4ecfa8d3f66a7b5d8d481 1 209 51
1 161 206 0 0 228 213 457 84 32 456 29a5fc3c0300e4c1e02ad150494d0abd81 1 213 512
 161 211 0 0 209 216 458 84 32 457 4836477f6f1a8d0f3a19e69dcbe2b76e81 1 216 513
 161 214 0 0 213 374 459 84 32 458 0fbde913dc4b8f9ff28002bb9fbd98f081 1 374 514
 161 313 0 314 216 384 460 84 32 459 a0cae43e2fe5457dbeaed406a14993e681 1 384 51
5 161 304 0 308 374 391 461 84 32 460 7748277f3b950c49387033430c72234281 1 391 5
16 161 381 0 385 384 425 462 84 32 461 314375728ae4a8d89b93fce35e8c055b81 1 425
 519 161 415 0 418 391 429 463 84 32 462 ab7c858463285c3c716561fca4093c9381 1 42
9 521 161 422 0 340 425 224 464 84 32 463 d4954ca45ebbfed26b52081491ef481b81 1 2
24 809 161 222 0 0 429 185 465 84 32 464 97da91968e48eea36fd1267f37415ab681 1 18
5 812 161 183 0 0 224 190 466 84 32 465 616bc53d7db918b7f98cc68fec0d6fc881 1 190
 813 161 187 0 0 185 176 467 84 32 466 98f680ad77c89b914346d7d31a9e171b81 1 176
 816 161 174 0 0 190 173 468 84 32 467 9438d91d9a4f7ce5a47a397cc973ec8b81 1 173
 817 161 43 0 0 176 26 469 84 32 468 942b3a274a611dbdea16184a77aa005281 1 26 818
 161 12 0 0 173 193 470 84 32 469 14478365629943bd457af147ba6f1b1981 1 193 820 1
61 191 0 0 26 269 471 84 32 470 005d44210db7a518b52fec6d2531153e81 1 269 822 161
 28 0 0 193 197 472 84 32 471 544dd0f18d0691a3420ada21ad5d7c2684 32 472 0093ae98
b1b699bd31fb3d19679a6b3281 1 257 507 161 255 0 0 473 268 474 84 32 455 37761c928
0c291ec69cfab9dc98e4c5281 1 473 506 161 207 0 0 205 257 475 84 32 474 b94fc99822
c1feec25ff3787d5ce6c2116 207 393 473 ?80 214 203 200 202 202 3 81 1 205 505 161
 202 0 0 201 473 476 84 32 475 0e6fb7b793c32cfb5fea3729babc95ac81 1 201 504 161
 199 0 0 243 205 477 84 32 476 4edc7a859f7b242cfa6172617c828f9681 1 243 503 161
 241 0 0 478 201 479 84 32 477 a148767ee1974fe12c9d19b745b25dc881 1 478 502 161
 203 0 0 480 243 481 84 32 479 1d6aad6210d13cdc7a8c69675a794df316 203 399 478 ?5
0 207 211 196 199 199 3 81 1 480 501 161 225 0 0 220 478 482 84 32 481 2f7f30a51
8b1f91dd44f4a4d5096d95716 225 298 480 ?56 226 222 223 226 226 3 81 1 220 500 161
 218 0 0 483 480 484 84 32 482 55c2de397bcbddb2afa798cc2ebd95f581 1 483 499 161
 246 0 0 485 220 486 84 32 484 bdb55008e13dcd6b9c6de6e47f4e6f9e16 246 338 483 ?6
9 241 255 240 241 241 3 81 1 485 498 161 254 0 0 231 483 487 84 32 486 48f615845
9d275e89d886e1073e7467c16 254 325 485 ?64 255 239 251 255 255 3 81 1 231 255 161
 136 0 0 264 485 488 84 32 487 7b879b957ceb7911d144e443e25fa2b281 1 264 100 161
 262 0 0 260 231 489 84 32 488 67126c967e8d5d638084a4600bd9c06881 1 260 99 161 2
50 0 0 248 264 490 84 32 489 32f0af5abf168a633416852d1446c7ca81 1 248 98 161 245
 0 0 252 260 491 84 32 490 3d1e7079b5fdbd68e930ddc85991893f81 1 252 97 161 239 0
 0 0 248 492 84 32 491 c49bbed971556f2b0b026abe3340bf5a84 32 492 8bccbf7cda19c42
b56f30dbe0afbe8d017 64 0 389 253 493 62 494 254 0 265 +15 389 329 0 493 381 0 17
 253 0 389 258 64 58 495 239 0 0 +17 493 0 389 64 258 78 83 214 0 494 -17 494 0
 373 496 265 78 64 254 0 0 -17 265 0 373 494 69 62 497 262 0 495 +15 373 360 0 4
98 313 0 17 69 0 373 265 498 61 499 246 0 497 +17 497 0 438 249 495 61 265 262 0
 500 -17 495 0 438 497 60 62 253 239 0 0 -15 438 63 0 495 20 0 17 60 0 438 495 2
49 58 261 250 0 452 -17 249 0 438 60 497 57 500 245 0 0 +17 261 0 288 244 452 57
 60 250 0 249 +17 452 0 288 261 451 58 258 255 0 253 -17 258 0 389 493 253 81 45
2 255 0 0 +17 244 0 288 292 261 90 67 241 0 0 +17 292 0 288 290 244 93 92 199 0
 229 -17 67 0 382 500 210 57 244 241 0 261 -15 382 18 0 499 304 0 17 500 0 382 4
99 67 61 249 245 0 0 -17 210 0 382 67 499 90 89 206 0 244 +17 499 0 382 210 500
 87 69 246 0 0 -17 89 0 423 53 92 87 210 206 0 498 -15 423 428 0 53 415 0 17 53
 0 423 95 89 51 498 202 0 501 +17 92 0 423 89 95 90 292 199 0 210 +17 498 0 373
 69 502 87 53 202 0 499 -17 502 0 373 498 135 51 56 225 0 0 -17 135 0 373 502 14
0 54 77 136 0 0 -17 56 0 408 118 501 54 502 225 0 133 +15 408 302 0 501 402 0 17
 118 0 408 150 56 116 133 142 0 146 -17 501 0 408 56 229 51 95 266 0 502 -17 133
 0 127 77 128 54 118 142 0 135 +17 229 0 408 501 237 93 290 226 0 0 +17 95 0 423
 92 53 93 501 266 0 292 +17 237 0 408 229 150 65 121 234 0 290 +17 150 0 408 237
 118 119 146 151 0 0 -17 121 0 280 115 71 119 237 234 0 149 -17 140 0 373 135 49
6 75 138 218 0 0 -17 496 0 373 140 494 84 80 207 0 138 -17 138 0 137 154 129 84
 140 218 0 0 +17 154 0 137 74 138 46 86 211 0 450 -17 86 0 428 80 50 84 154 211
 0 496 +15 428 432 0 83 422 0 17 80 0 428 83 86 78 496 207 0 493 +17 50 0 428 86
 83 46 451 203 0 154 +17 83 0 428 50 80 81 493 214 0 451 +17 45 0 285 104 281 39
 439 182 0 27 +17 104 0 285 107 45 102 437 191 0 186 +17 35 0 40 38 433 108 30 3
6 0 42 +83 1 430 0 83 1 426 0 83 1 419 0 83 1 412 0 83 1 405 0 83 1 399 0 83 1 3
93 0 83 1 386 0 83 1 375 0 83 1 363 0 83 3 349 .0470588 .0470588 .0470588 84 32
 347 98412124507a6890f35f8dafe03cda8c83 1 341 0 83 3 338 .0470588 .0470588 .0470
588 79 21 334 SDL/TYSA_TRANSLUCENCY83 1 315 0 83 1 309 0 84 32 297 4a5a14bb2423a
4a307f01da71c8f6aad79 15 296 UGS/ObjectState81 1 152 1090 161 134 0 0 278 162 50
3 84 32 279 1fc9a90396576e52c22637eaafe288cf81 1 162 1091 161 168 0 0 152 158 50
4 84 32 503 a88f03d7e36f1b3468678555e8bac66484 32 504 e658eef2792b2e2fba65733c2d
9e341d84 32 164 c21b295490d9ab0544684a7169d03c9d19 19 74 0 3 0 11 7 S0 141 23 22
 23 23 9 74 4 CI16 index_map_offset0 0 1 dCCZ20 17 6 0 0 350 505 15 343 348 5 0
 0 0 0 0 0 0 0 0 0 0 0 0 0 81 2 505 1081 506 3 0 15 0 0 507 508 81 1 15 1125 509
 3 505 5 0 0 510 80 1 509 511 512 9000 0 0 0 0 3 5 0 0 0 FFTFFFFFFFFFFF1 82 255
 1 510 -1 79 19 512 UG2/PMARK_ATTRIBUTE80 2 506 513 514 8004 0 0 0 0 3 5 0 0 0 F
FTFFFFFFFFFFF2 3 83 1 507 7830.64 84 8 508 Kg/Cu M 79 16 514 SDL/TYSA_DENSITY80
 1 14 515 516 9000 0 0 0 0 3 5 0 0 0 FFTFFFFFFFFFFF1 82 1 16 210 79 24 516 UG2/B
ODY_COLOR_ATTRIBUTE1 0 
