**ABCDEFGHIJKLMNOPQRSTUVWXYZabcdefghijklmnopqrstuvwxyz**************************
**PARASOLID !"#$%&'()*+,-./:;<=>?@[\]^_`{|}~0123456789**************************
**PART1;
MC=x64/Windows NT;
MC_MODEL=genuineintel family 6 model 14 stepping 3, intel(r) core(tm) i7-6700 cpu @ 3.40ghz;
MC_ID=robotic-pc;
OS=windows nt (x64);
OS_RELEASE=6.1 windows 7 professional (build 7601) service pack 1;
FRU=mdc_ugii_v7.0_djl_can_vrh;
APPL=unigraphics;
SITE=unknown;
USER=Robotic;
FORMAT=text;
GUISE=transmit;
KEY=mouth;
FILE=C:\Users\Robotic\Desktop\robot_solid\mouth.x_t;
DATE=30-jan-2018;
**PART2;
SCH=SCH_2900123_28101;
USFLD_SIZE=0;
**PART3;
**END_OF_HEADER*****************************************************************
T51 : TRANSMIT FILE created by modeller version 290012317 SCH_2400000_200000 10
 1 2 0 0 0 0 0 0 0 1e3 1e-8 0 0 0 1 0 1 2 11 2 1 0 1 3 4 1 0 0 0 0 12 3 240 5 6
 0 0 0 0 1e3 1e-8 2 0 0 1 0 1 1 7 8 9 10 11 12 13 0 0 0 0 100 4 2 2 0 0 .0038125
42016942955 .999992732235275 114040768638308e-33 -.999992732235275 .003812542016
942955 631454142023515e-35 587971030555573e-35 -1140640142713148e-34 1 -.0491113
4492768 .01494707457431084 .2053118617365525 1 3 ?81 1 5 240 14 3 15 0 0 0 16 70
 6 0 4 T3 0 0 4 20 1 17 17 13 7 5 0 3 0 18 0 0 19 0 51 8 143 0 20 21 0 22 +-.002
5 .47025 -.0265 0 -1 0 .0015 0 0 -1 30 9 159 0 23 24 0 0 +-.004 .47025 -.0265 0
 -1 0 29 10 134 0 13 25 0 -.004 .0375 -.0265 19 11 2 0 3 19 0 26 V16 12 46 27 ?2
8 0 29 30 0 0 3 18 13 86 0 31 0 32 10 ?3 17 31 0 33 34 35 13 36 23 0 37 +18 32 8
8 0 38 13 39 25 ?3 17 38 0 40 41 42 32 43 44 0 45 +18 39 90 0 46 32 47 48 ?3 29
 25 133 0 32 48 10 -.004 .0375 -.0274262379331651 29 48 132 0 39 49 25 -.0025 .0
375 -.0289262379331651 29 49 131 0 47 50 48 .0025 .0375 -.0289262379331651 18 47
 92 0 51 39 52 49 ?3 29 50 130 0 52 53 49 .004 .0375 -.0274262379331651 18 52 94
 0 54 47 55 50 ?3 29 53 129 0 55 56 50 .004 .0375 -.0265 18 55 96 0 57 52 58 53
 ?3 29 56 128 0 58 59 53 .0025 .0375 -.025 18 58 98 0 60 55 61 56 ?3 29 59 127 0
 61 62 56 -.0025 .0375 -.025 18 61 100 0 63 58 64 59 ?3 29 62 126 0 64 65 59 -.0
04 .03857527022372515 -.0274262379331651 18 64 102 0 43 61 66 62 ?3 29 65 125 0
 66 67 62 -.0025 .037593520173481 -.0289262379331651 18 66 103 0 68 64 69 65 ?3
 29 67 124 0 69 70 65 .0025 .037593520173481 -.0289262379331651 18 69 104 0 71 6
6 72 67 ?3 29 70 123 0 72 73 67 .004 .03857527022372515 -.0274262379331651 18 72
 105 0 74 69 75 70 ?3 29 73 122 0 75 76 70 .004 .0392173431022556 -.0265 18 75 1
06 0 77 72 78 73 ?3 29 76 121 0 78 79 73 .0025 .04031128874149275 -.025 18 78 10
7 0 80 75 81 76 ?3 29 79 120 0 81 82 76 -.004 .03921734310225515 -.0265 18 81 10
8 0 36 78 83 79 ?3 29 82 119 0 83 0 79 -.0025 .04031128874149275 -.025 18 83 109
 0 84 81 0 82 ?3 17 84 0 33 35 34 83 63 85 0 86 -15 33 41 0 35 20 0 17 35 0 33 3
1 84 81 87 88 0 0 -17 34 0 33 84 31 61 37 89 0 90 -17 63 0 91 92 86 61 84 85 0 3
4 +16 85 64 93 ?63 23 94 24 0 0 3 17 86 0 91 63 80 83 95 96 0 87 -15 91 25 0 86
 97 0 17 80 0 91 86 92 78 60 94 0 98 -17 95 0 99 100 87 78 86 96 0 0 +16 96 84 1
01 ?95 102 88 103 0 0 3 17 87 0 99 95 104 83 35 88 0 0 +15 99 9 0 105 18 0 17 10
4 0 99 87 105 81 42 106 0 35 +16 88 85 107 ?87 96 0 108 0 0 3 81 1 107 190 109 8
8 0 0 110 111 112 38 108 151 0 88 103 113 0 +8 114 115 116 117 31 103 150 0 96 1
18 108 0 --693889390390722e-31 0 -.025 277555756156289e-29 0 1 1 0 -277555756156
289e-29 .0403887360535088 30 113 152 0 44 108 119 0 +-.004 .47025 -.027426237933
1651 0 -1 0 53 114 135 0 18 120 121 122 -0 0 0 .0475 -.777145961456971 -.6293203
91049837 0 .629320391049837 -.777145961456971 0 40 6 115 0 1 6 .0001432334917506
446 .3883675985986295 ??-.00399999998666667 .039217207958582 -.0265002 -.0038666
1306886803 .03964139249340645 -.0258816402988558 -.003492657188082775 .040001728
861355 -.02537544155023065 -.00308908583387307 .0401953636245617 -.0251205153569
7925 -.00259640569499931 .04030327042051235 -.02500310122520865 -.0024998 .04031
13011361992 -.0250000000133333 41 1 116 L-.00399999998666667 .039217207958582 -.
0265002 41 1 117 L-.0024998 .0403113011361992 -.0250000000133333 14 18 6 123 ?12
4 0 99 7 114 -0 0 0 125 26 50 120 110 0 125 0 114 0 +-.0025 .0375 -.027426237933
1651 0 -1 0 0 0 -1 51 121 136 0 126 114 127 128 +-.0025 .47025 -.027426237933165
1 0 -1 0 .0015 0 0 -1 141 122 129 130 131 114 38 129 145 0 132 133 134 0 +121 11
4 135 136 137 141 130 108 138 122 114 141 131 139 122 138 114 38 139 147 0 140 1
34 141 0 +142 114 143 144 145 141 138 118 131 130 114 38 118 149 0 102 141 103 0
 +146 114 147 148 149 16 102 83 110 ?100 150 96 118 0 0 3 31 141 148 0 150 139 1
18 0 -.004 0 -374574051410093e-32 1 0 -936435128525226e-30 -936435128525226e-30
 0 -1 .0473312792981555 51 146 140 0 151 152 153 154 +.0025 .47025 -.0265 0 -1 0
 .0015 0 0 -1 40 6 147 0 1 6 956064227203218e-19 .3516190598503805 ??.0024998 .0
403113011361992 -.0250000000133333 .002945245892915195 .04023916894921985 -.0250
676047700295 .0033337579427656 .04009262752999825 -.02525306467975465 .003661001
19912489 .03987522001522825 -.0255502230705947 .003905675223146135 .039575477068
2083 -.0259764762020375 .00399999998666667 .039217207958582 -.0265002 41 1 148 L
.0024998 .0403113011361992 -.0250000000133333 41 1 149 L.00399999998666667 .0392
17207958582 -.0265002 14 151 34 155 ?20 156 157 7 146 +0 0 20 156 26 50 152 139
 0 158 142 146 0 +.004 .47025 -.0274262379331651 1 0 -936435128525226e-30 -93643
5128525226e-30 0 -1 50 153 141 0 97 146 21 0 +.0025 .47025 -.025 277555756156289
e-29 0 1 1 0 -277555756156289e-29 141 154 118 154 154 146 14 97 22 159 ?126 158
 91 7 153 +0 0 126 158 26 50 21 142 0 124 153 8 0 +-.004 .47025 -.0265 -1 0 9364
35128525229e-30 936435128525229e-30 0 1 14 124 10 160 ?161 18 40 7 21 +0 0 161 0
 26 81 1 160 231 162 124 163 0 123 164 165 14 161 14 164 ?158 124 166 7 127 +0 0
 158 124 26 15 40 13 0 42 124 0 13 26 3 0 0 0 0 0 0 11 124 17 42 0 40 38 36 64 1
04 106 0 105 -17 36 0 40 42 41 81 31 23 0 104 -16 106 78 167 ?104 44 132 133 0 0
 3 17 105 0 99 104 168 64 169 132 0 0 +17 168 0 99 105 170 66 171 172 0 0 +17 16
9 0 173 46 43 66 105 132 0 168 -16 132 79 174 ?105 106 172 129 0 0 3 81 1 174 17
6 109 132 0 0 175 101 176 16 172 80 177 ?168 132 140 134 0 0 3 81 1 177 174 109
 172 0 0 178 175 179 16 140 81 180 ?170 172 150 139 0 0 3 31 134 146 0 172 129 1
39 0 --4014321921148185e-32 0 -.0289262379331651 -1387778780781446e-30 0 -1 -1 0
 1387778780781446e-30 .03767655450056335 81 1 180 172 109 140 0 0 181 178 182 17
 170 0 99 168 183 69 184 140 0 0 +16 150 82 111 ?183 140 102 141 0 0 3 81 1 111
 191 109 150 0 0 107 93 185 17 183 0 99 170 100 72 186 150 0 0 +17 100 0 99 183
 95 75 98 102 0 0 +17 186 0 187 57 74 75 183 150 0 100 -15 187 21 0 186 158 0 17
 57 0 187 188 186 55 77 189 0 190 +17 74 0 187 186 188 72 54 191 0 184 -17 188 0
 187 74 57 52 192 193 0 194 -17 54 0 195 196 184 52 74 191 0 188 +16 191 70 197
 ?54 189 198 199 0 0 3 17 184 0 195 54 71 72 170 140 0 183 -15 195 33 0 184 156
 0 17 71 0 195 184 196 69 51 198 0 171 -17 196 0 195 71 54 47 194 200 0 201 -17
 51 0 166 202 171 47 71 198 0 196 +16 198 72 203 ?51 191 204 205 0 0 3 17 171 0
 166 51 68 69 168 172 0 170 -15 166 17 0 171 161 0 17 68 0 166 171 202 66 46 204
 0 169 -17 202 0 166 68 51 39 201 206 0 207 -17 46 0 173 45 169 39 68 204 0 202
 +16 204 74 208 ?46 198 44 119 0 0 3 81 1 208 186 109 204 0 0 209 210 211 16 44
 76 210 ?38 204 106 113 0 0 3 30 119 153 0 204 113 205 0 +-.0025 .47025 -.028926
2379331651 0 -1 0 30 205 154 0 198 119 199 0 +.0025 .47025 -.0289262379331651 0
 -1 0 30 199 155 0 191 205 212 0 +.004 .47025 -.0274262379331651 0 -1 0 30 212 1
56 0 189 199 213 0 +.004 .47025 -.0265 0 -1 0 16 189 68 181 ?57 94 191 212 0 0 3
 30 213 157 0 94 212 24 0 +.0025 .47025 -.025 0 -1 0 16 94 66 214 ?60 85 189 213
 0 0 3 30 24 158 0 85 213 9 0 +-.0025 .47025 -.025 0 -1 0 81 1 214 188 109 94 0
 0 210 110 215 17 60 0 157 190 98 58 80 94 0 92 +15 157 37 0 98 151 0 17 190 0 1
57 77 60 55 216 217 0 192 -17 98 0 157 60 77 78 100 102 0 95 -17 92 0 91 80 63 5
8 90 218 0 216 -17 90 0 219 37 216 61 92 218 0 0 +16 218 58 220 ?90 217 89 221 0
 0 3 17 216 0 219 90 192 58 190 217 0 0 +15 219 45 0 28 125 0 17 192 0 219 216 1
94 55 188 193 0 0 +16 217 56 178 ?216 193 218 222 0 0 3 81 1 178 173 109 217 0 0
 180 177 223 16 193 54 224 ?192 200 217 225 0 0 3 31 222 113 0 217 221 225 0 +.0
025 .0375 -.0265 0 -1 0 1 0 -612323399573677e-31 .0015 30 221 112 0 218 226 222
 0 +.0025 .0375 -.025 -1 0 277555756156289e-29 30 225 114 0 193 222 227 0 +.004
 .0375 -.0274262379331651 936435128525226e-30 0 1 31 227 115 0 200 225 228 0 +.0
025 .0375 -.0274262379331651 0 -1 0 1 0 -612323399573677e-31 .0015 16 200 52 229
 ?194 206 193 227 0 0 3 30 228 116 0 206 227 230 0 +-.0025 .0375 -.0289262379331
651 1 0 -1387778780781446e-30 16 206 50 231 ?201 29 200 228 0 0 3 31 230 117 0 2
9 228 30 0 +-.0025 .0375 -.0274262379331651 0 -1 0 1 0 -612323399573677e-31 .001
5 16 29 48 232 ?207 12 206 230 0 0 3 30 30 118 0 12 230 133 0 +-.004 .0375 -.026
5 -936435128525229e-30 0 -1 31 133 144 0 106 30 129 0 --.004 0 374574051410089e-
32 -1 0 936435128525229e-30 936435128525229e-30 0 1 .0473312792981555 81 1 232 1
82 109 29 0 0 203 220 233 17 207 0 219 201 28 39 45 29 0 0 +17 201 0 219 194 207
 47 202 206 0 0 +17 28 0 219 207 37 32 41 12 0 0 +17 45 0 173 43 46 32 207 29 0
 28 -15 173 29 0 169 126 0 17 43 0 173 169 45 64 38 44 0 42 -14 126 26 234 ?156
 97 173 7 121 +0 0 156 97 26 81 1 234 235 162 126 235 0 159 236 237 14 156 30 23
6 ?151 126 195 7 142 +0 0 151 126 26 81 1 236 236 162 156 238 0 234 155 239 51 1
42 138 0 156 127 152 240 +.0025 .47025 -.0274262379331651 0 -1 0 .0015 0 0 -1 50
 127 137 0 161 121 142 0 +-.0025 .47025 -.0289262379331651 -1387778780781446e-30
 0 -1 -1 0 1387778780781446e-30 141 240 139 240 240 142 80 1 162 0 241 8001 0 0
 0 0 3 5 0 0 0 FFFFTFTFFFFFFF2 81 1 238 198 109 156 0 236 242 163 243 81 1 155 2
37 162 151 244 0 236 245 246 83 3 239 1 .6 .6 81 1 244 200 109 151 0 155 163 247
 248 81 1 245 238 162 20 249 0 155 250 251 83 3 246 1 .6 .6 14 20 38 245 ?125 15
1 33 7 8 +0 0 125 151 26 81 1 249 202 109 20 0 245 247 0 252 81 1 250 239 162 12
5 253 0 245 0 254 83 3 251 1 .6 .6 14 125 42 250 ?0 20 219 7 120 +0 0 18 20 26 8
1 1 253 194 109 125 0 250 255 256 257 83 3 254 1 .6 .6 80 1 109 258 259 9000 1 1
 1 1 1 1 1 1 0 FFFFTFTFFFFFFF3 81 1 255 193 109 158 0 260 93 253 261 81 1 256 19
5 109 161 0 164 253 235 262 84 32 257 a0a88934a59355631cd92039193318ae81 1 164 2
32 162 161 256 0 160 260 263 81 1 235 196 109 126 0 234 256 242 264 84 32 262 3f
2d4166e7e209aa0ac78586aa9994fd81 1 242 197 109 18 0 123 235 238 265 84 32 264 20
f4fbbd18ee30f77c64979732750b7181 1 123 230 162 18 242 0 0 160 266 84 32 265 7c74
d29f34452f0fc319e0074290ff4783 3 266 1 .6 .6 81 1 260 233 162 158 255 0 164 159
 267 83 3 263 1 .6 .6 14 158 18 260 ?97 161 187 7 152 +0 0 97 161 26 81 1 159 23
4 162 97 247 0 260 234 268 83 3 267 1 .6 .6 81 1 247 201 109 97 0 159 244 249 26
9 83 3 268 1 .6 .6 84 32 269 e822663e1d94b83179c16b5b18f3f60d81 1 93 192 109 85
 0 0 111 255 270 84 32 261 57a722b4fe21ff0c2dc50c9c054ef9c384 32 270 fc45f088dfb
ebb0a83fde42f97e5c73179 15 259 UGS/ObjectState84 32 252 92342a37bf2e64aba4337efd
8c89ffc281 1 163 199 109 124 0 160 238 244 271 84 32 248 83c629d4c59de63146c3034
307e2538684 32 271 643d5027f77e258474f1e47f2644570984 32 243 d09357f632926296d63
3e27dbe628d2879 15 241 SDL/TYSA_COLOUR83 3 237 1 .6 .6 17 37 0 219 28 90 13 34 8
9 0 41 +17 41 0 40 36 38 13 28 12 0 0 -16 89 60 209 ?37 218 23 226 0 0 3 81 1 20
9 185 109 89 0 0 231 208 272 16 23 62 175 ?31 89 85 9 0 0 3 31 226 111 0 89 0 22
1 0 +-.0025 .0375 -.0265 0 -1 0 1 0 -612323399573677e-31 .0015 81 1 175 175 109
 23 0 0 177 174 273 84 32 273 a141a8c7376a9debfe5ec6f38fbad0c581 1 231 184 109 2
06 0 0 220 209 274 84 32 272 1a40c598dc94c863cd9c937cbd89c8a581 1 220 183 109 21
8 0 0 232 231 275 84 32 274 c3279dadb56b775f238251752e834b8984 32 275 327a4cbdf4
8bb76d0fe077d76a6d1acb17 194 0 219 192 201 52 196 200 0 0 +81 1 203 181 109 198
 0 0 229 232 276 84 32 233 2ab7ae8b46342af65a7068bb3f46a73881 1 229 180 109 200
 0 0 167 203 277 84 32 276 c784fd221a95d1c2e1c4fc2642c7990181 1 167 179 109 106
 0 0 197 229 278 84 32 277 b314520a4c847d4da8cc6f5f30887b5281 1 197 178 109 191
 0 0 101 167 279 84 32 278 ee5b43a7f20cf3f221b854fe1a90978981 1 101 177 109 96 0
 0 174 197 280 84 32 279 7780b017a45f0674d85c7ba004c285de84 32 280 0ed4972560c7d
d843cfae24e67228a4681 1 224 170 109 193 0 0 27 181 281 81 1 27 169 109 12 0 0 0
 224 282 81 1 181 171 109 189 0 0 224 180 283 84 32 281 c4931a4532953ce8714ab269
86da136984 32 283 17d843e41b2a6556595e0efa6d376adf84 32 282 0faaf9e035d3909b4e99
1502f0b61a7a84 32 223 c6096a640a89a691a946b7b3afb11d9617 77 0 157 98 190 75 57 1
89 0 186 -81 1 210 187 109 44 0 0 208 214 284 81 1 110 189 109 102 0 0 214 107 2
85 84 32 215 16e452083380e62db0dd5cd7aef9dbc984 32 285 5f4a18741025a786ffe5ababc
740ca5484 32 284 3008dc20737ecbd3892883b9fc8a61a884 32 211 de2f7959fecc61d3b73c7
c4bdbd477ba84 32 185 f3c5fdc91c8ecd73de48c53bccbc270f84 32 182 f8a9a6a409ca3c91e
06de5bc336d627784 32 179 353bf0c953af9a20195c0ba9444f421184 32 176 9148387103673
b82867d6bfdafc16f5183 3 165 1 .6 .6 40 6 143 0 1 6 .0001366856088129524 .3904368
086645425 ??.003999999986666665 .0385754124202873 -.0274260379331651 .0038685980
5360276 .0381448763550115 -.0280401918139043 .00357473037894907 .037852082464222
6 -.02847263872280735 .00320856648228006 .0376760997257658 -.0287483323095956 .0
0274813858762583 .03759209599791075 -.02890557131051145 .0024998 .03759353348337
035 -.02892623791983175 41 1 144 L.003999999986666665 .0385754124202873 -.027426
0379331651 41 1 145 L.0024998 .03759353348337035 -.02892623791983175 40 7 135 0
 1 7 903391369799497e-19 .3483584792679465 ??-.0024998 .03759353348337035 -.0289
2623791983175 -.002917816133734215 .03760904128728925 -.0288668730980807 -.00329
266139600879 .0377059146592743 -.0286996930408455 -.00360627793366482 .037874200
4930336 -.02843922812733595 -.003856292624160755 .038126462579085 -.028066917508
02845 -.003992536141205385 .03846935125499235 -.0275756898223995 -.0039999999866
66705 .0385754124202873 -.0274260379331651 41 1 136 L-.0024998 .0375935334833703
5 -.02892623791983175 41 1 137 L-.003999999986666705 .0385754124202873 -.0274260
379331651 141 128 129 128 128 121 84 32 112 8e971720871bf390762b07501edba1a419 1
9 4 0 3 0 11 7 S141 22 108 22 22 8 74 20 17 4 0 0 249 15 250 5 0 0 0 0 0 0 0 0 0
 0 0 0 0 0 0 0 81 2 15 203 286 3 0 5 0 0 287 288 80 2 286 289 290 8004 0 0 0 0 3
 5 0 0 0 FFTFFFFFFFFFFF2 3 83 1 287 7830.64 84 8 288 Kg/Cu M 79 16 290 SDL/TYSA_
DENSITY80 1 14 291 292 9000 0 0 0 0 3 5 0 0 0 FFTFFFFFFFFFFF1 82 1 16 75 79 24 2
92 UG2/BODY_COLOR_ATTRIBUTE1 0 
