**ABCDEFGHIJKLMNOPQRSTUVWXYZabcdefghijklmnopqrstuvwxyz**************************
**PARASOLID !"#$%&'()*+,-./:;<=>?@[\]^_`{|}~0123456789**************************
**PART1;
MC=x64/Windows NT;
MC_MODEL=genuineintel family 6 model 14 stepping 3, intel(r) core(tm) i7-6700 cpu @ 3.40ghz;
MC_ID=robotic-pc;
OS=windows nt (x64);
OS_RELEASE=6.1 windows 7 professional (build 7601) service pack 1;
FRU=mdc_ugii_v7.0_djl_can_vrh;
APPL=unigraphics;
SITE=unknown;
USER=Robotic;
FORMAT=text;
GUISE=transmit;
KEY=neck_1;
FILE=C:\Users\Robotic\Desktop\robot_solid\neck_1.x_t;
DATE=30-jan-2018;
**PART2;
SCH=SCH_2900123_28101;
USFLD_SIZE=0;
**PART3;
**END_OF_HEADER*****************************************************************
T51 : TRANSMIT FILE created by modeller version 290012317 SCH_2400000_200000 10
 1 2 0 0 0 0 0 0 0 1e3 1e-8 0 0 0 1 0 1 2 11 2 1 0 1 3 4 1 0 0 0 0 12 3 1863 5 6
 0 0 0 0 1e3 1e-8 2 0 0 1 0 1 1 7 8 9 10 11 12 13 0 0 0 0 100 4 2 2 0 0 .0038125
42016942955 .999992732235275 114040768638308e-33 -.999992732235275 .003812542016
942955 631454142023515e-35 587971030555573e-35 -1140640142713148e-34 1 -.0491113
4492768 .01494707457431084 .2053118617365525 1 3 ?81 1 5 1863 14 3 15 0 0 0 16 7
0 6 0 4 T3 0 0 6 20 1 17 17 13 7 3 0 3 0 18 0 0 19 0 51 8 1510 0 20 21 0 0 +-.00
887552632937434 -.01699999992304925 -.0294139671971717 -.999999984609855 .000175
4431265789655 0 .001 -.0001754431265789655 -.999999984609855 0 31 9 1689 0 22 23
 0 0 +3469446951953615e-32 -.0233 -.0203 0 1 0 0 0 1 5e-4 29 10 1464 0 13 24 0 .
008925 -.01600312288770115 -.0294139671971717 19 11 1 0 3 19 0 25 V16 12 1477 26
 ?27 0 28 29 0 0 3 18 13 1462 0 30 0 31 10 ?3 17 30 0 32 33 34 13 35 28 0 36 +18
 31 1459 0 37 13 38 24 ?3 17 37 0 39 40 36 31 41 42 0 43 +18 38 1449 0 27 31 44
 45 ?3 29 24 1461 0 31 45 10 -.008875 -.016 -.0294139671971717 29 45 1451 0 38 4
6 24 -.008875 -.01700000001539015 -.0284139671971717 29 46 1448 0 44 47 45 .0089
25 -.0170031229030913 -.0284139671971717 18 44 1446 0 35 38 48 46 ?3 29 47 1382
 0 48 49 46 .008925 -.0253 -.0264139671971717 18 48 1380 0 50 44 51 47 ?3 29 49
 1371 0 51 52 47 -.008875 -.0253 -.0264139671971717 18 51 1369 0 53 48 54 49 ?3
 29 52 1361 0 54 55 49 .008925 -.0233 -.0284139671971717 18 54 1359 0 56 51 57 5
2 ?3 29 55 1358 0 57 58 52 -.008875 -.0233 -.0284139671971717 18 57 1356 0 59 54
 60 55 ?3 29 58 1282 0 60 61 55 -.008875 -.0213 -.0244139671971717 18 60 1280 0
 62 57 63 58 ?3 29 61 1279 0 63 64 58 .008925 -.0213 -.0244139671971717 18 63 12
77 0 65 60 66 61 ?3 29 64 1271 0 66 67 61 -.008875 -.0233 -.0224139671971717 18
 66 1269 0 68 63 69 64 ?3 29 67 1268 0 69 70 64 .008925 -.0233 -.022413967197171
7 18 69 1266 0 71 66 72 67 ?3 29 70 1174 0 72 73 67 -.008875 -.016 -.02469154776
07633 18 72 1172 0 74 69 75 70 ?3 29 73 1165 0 75 76 70 -.008875 -.0174641016376
705 -.0244139671971717 18 75 1163 0 77 72 78 73 ?3 29 76 1154 0 78 79 73 .008925
 -.01746722452537165 -.0244139671971717 18 78 1152 0 80 75 81 76 ?3 29 79 1146 0
 81 82 76 .008925 -.01600312288770115 -.0246915477607633 18 81 1144 0 83 78 84 7
9 ?3 29 82 959 0 84 85 79 .008925 -.01400312285692088 -.0264139671971717 18 84 9
56 0 86 81 87 82 ?3 29 85 671 0 87 88 82 .008925 -.01600312288770115 -.026413967
1971717 18 87 668 0 89 84 90 85 ?3 29 88 17 0 90 91 85 -.008875 -.014 -.02641396
71971717 18 90 15 0 92 87 93 88 ?3 29 91 12 0 93 94 88 .008925 -.014 -.026413967
1971717 18 93 10 0 95 90 96 91 ?3 29 94 256 0 96 97 91 .008925 -.016003122887701
15 -.0344139671971717 18 96 208 0 33 93 98 94 ?3 29 97 257 0 98 99 94 -.008875 -
.016 -.0344139671971717 18 98 206 0 40 96 100 97 ?3 29 99 258 0 100 101 97 -.008
875 -.014 -.0344139671971717 18 100 204 0 102 98 103 99 ?3 29 101 259 0 103 104
 99 .008925 -.014 -.0344139671971717 18 103 202 0 105 100 106 101 ?3 29 104 577
 0 107 108 101 .008925 -.0233 -.0131 18 107 522 0 109 110 111 104 ?3 29 108 578
 0 111 112 104 -.008875 -.0233 -.0131 18 111 527 0 113 107 114 108 ?3 29 112 581
 0 106 115 108 .008925 -.0253 -.0131 18 106 523 0 116 103 110 112 ?3 29 115 582
 0 110 117 112 -.008875 -.0253 -.0131 18 110 521 0 118 106 107 115 ?3 29 117 883
 0 114 119 115 -.008875 -.016 -.0264139671971717 18 114 817 0 120 111 121 117 ?3
 29 119 1091 0 121 122 117 -.00887464911374685 -.0140000000307803 -.026413967197
1717 18 121 1034 0 123 114 124 119 ?3 29 122 1092 0 124 0 119 .00892535088625316
 -.01400312291848146 -.0264139671971717 18 124 1037 0 125 121 0 122 ?3 17 125 0
 126 83 89 124 127 128 0 129 -15 126 1056 0 125 130 0 17 83 0 126 89 125 81 131
 132 0 133 +17 89 0 126 125 83 87 133 134 0 135 +17 127 0 136 137 129 87 125 128
 0 0 +16 128 991 138 ?127 139 140 141 0 0 3 17 129 0 136 127 137 124 86 140 0 13
1 -15 136 1042 0 137 142 0 17 137 0 136 129 127 84 135 143 0 0 -17 86 0 144 145
 131 84 129 140 0 146 +16 140 1018 147 ?86 128 148 149 150 150 3 17 131 0 144 86
 151 124 83 132 0 0 -15 144 1206 0 152 153 0 17 151 0 144 131 154 81 80 155 0 0
 -16 132 1147 156 ?83 155 150 157 0 0 3 81 1 156 1250 158 132 0 0 159 160 161 16
 155 1155 162 ?80 163 132 164 0 0 3 16 150 964 165 ?145 132 166 149 140 140 3 31
 157 1149 0 132 167 164 0 -.00892474313343501 -.0174672244803062 -.0284139671971
717 -.999999984609855 .0001754431265789205 0 -.0001754431265789205 -.99999998460
9855 0 .004 32 167 335 0 168 169 157 0 +.004025 -.0160022632163677 -.03118186173
64574 -.0001754431265789655 -.999999984609855 0 -.999999984609855 .0001754431265
789655 0 .001000000015390146 .001 32 164 1157 0 155 157 170 0 +.008925 -.0174672
2452537165 -.0284139671971717 1 0 0 0 -1 -2221947943025165e-27 .0040000000615605
8 .004 30 170 1168 0 163 164 171 0 --3064229722130645e-21 -.0174656581578448 -.0
244139671971717 .999999984609855 -.0001754431265789655 0 16 163 1166 160 ?172 17
3 155 170 0 0 3 32 171 1177 0 173 170 174 0 +-.008875 -.0174641016376705 -.02841
39671971717 -1 0 0 0 -1 -2221947943025165e-27 .00400000006156058 .004 16 173 117
5 175 ?74 176 163 171 0 0 3 31 174 1185 0 176 171 177 0 --.008875256866565 -.017
464101592605 -.0284139671971717 .999999984609855 -.0001754431265789205 0 .000175
4431265789205 .999999984609855 0 .004 16 176 1183 159 ?123 178 173 174 0 0 3 30
 177 1274 0 178 174 179 0 +24999999999999e-18 -.0233 -.0224139671971717 -1 0 0 1
6 178 1272 180 ?181 182 176 177 0 0 3 30 179 1285 0 182 177 183 0 -0 -.0213 -.02
44139671971717 -1 0 0 16 182 1283 184 ?65 185 178 179 0 0 3 31 183 1303 0 185 17
9 186 0 --.008875 -.0213 -.0224139671971717 -1 0 0 0 0 1 .002 16 185 1289 187 ?6
2 188 182 183 0 0 3 31 186 1304 0 188 183 189 0 -.008925 -.0213 -.02241396719717
17 1 0 0 0 0 -1 .002 16 188 1296 190 ?71 191 185 186 0 0 3 30 189 1364 0 191 186
 192 0 +-.008875 -.0233 -.0284139671971717 -1 0 0 16 191 1362 193 ?194 195 188 1
89 0 0 3 31 192 1374 0 195 189 196 0 +-.008875 -.0233 -.0264139671971717 -1 0 0
 0 0 1 .002 16 195 1372 197 ?53 198 191 192 0 0 3 30 196 1385 0 198 192 199 0 -.
008925 -.0253 -.0264139671971717 -1 0 0 16 198 1383 200 ?50 201 195 196 0 0 3 31
 199 1390 0 201 196 202 0 +.008925 -.0233 -.0264139671971717 1 0 0 0 0 -1 .002 1
6 201 1388 203 ?56 204 198 199 0 0 3 30 202 1454 0 204 199 205 0 +.0089248245568
7342 -.017003122872311 -.0284139671971717 .999999984609855 -.0001754431265789655
 0 16 204 1452 206 ?207 42 201 202 0 0 3 30 205 1467 0 42 202 208 0 --.008875 -.
016 -.0294139671971717 .999999984609855 -.0001754431265789655 0 16 42 1465 209 ?
37 28 204 205 0 0 3 32 208 1484 0 28 205 29 0 -.008925 -.0170031229030913 -.0294
139671971717 1 0 0 0 1 0 .001000000015390146 .001 16 28 1470 210 ?30 12 42 208 0
 0 3 32 29 1485 0 12 208 23 0 --.008875 -.01700000001539015 -.0294139671971717 -
1 0 0 0 1 0 .001000000015390146 .001 31 23 1682 0 211 29 9 0 +3729655473350135e-
32 -.0233 -.0059 0 1 0 0 0 1 5e-4 16 211 1744 212 ?213 22 214 23 0 0 3 81 1 212
 1797 158 211 0 0 215 216 217 17 213 0 218 213 213 0 219 211 0 0 +16 22 1716 215
 ?220 221 211 9 0 0 3 16 214 1719 222 ?223 211 224 225 0 0 3 81 1 222 1799 158 2
14 0 0 216 226 227 17 223 0 228 223 223 0 229 214 0 0 +16 224 1747 216 ?230 214
 0 231 0 0 3 31 225 1781 0 214 0 231 0 +3469446951953615e-32 -.0253 -.0203 -1026
41042406379e-29 -1 -1166302995033782e-30 -1 102641042406379e-29 183697019872104e
-30 5e-4 31 231 1779 0 224 225 232 0 +3729655473350135e-32 -.0253 -.0059 -102641
042406379e-29 -1 -1166302995033782e-30 -1 102641042406379e-29 183697019872104e-3
0 5e-4 31 232 1585 0 148 231 233 0 +24999999999999e-18 -.0233 -.0131 0 -1 0 1 0
 -612323399573677e-31 .0035 16 148 1558 234 ?235 140 221 232 0 0 3 31 233 1584 0
 221 232 149 0 +24999999999999e-18 -.0253 -.0131 0 -1 0 1 0 -612323399573677e-31
 .0035 16 221 1562 236 ?237 148 22 233 0 0 3 30 149 1083 0 140 233 238 0 +.00892
535088625316 -.01400312291848146 -.0264139671971717 -.999999984609855 .000175443
1265789655 584738241330054e-30 30 238 1073 0 139 149 141 0 +-.00887464911374685
 -.0140000000307803 -.0264139671971717 -.0001754431265789205 -.999999984609855 -
1758248361615975e-31 16 139 1002 239 ?240 241 128 238 0 0 3 30 141 1072 0 128 23
8 242 0 +.00892535088625316 -.01400312291848146 -.0264139671971717 -.00017544312
65789205 -.999999984609855 -1758248361615975e-31 30 242 879 0 241 141 243 0 +.00
8925 -.01600312288770115 -.0244139671971717 0 -1 0 16 241 1153 244 ?245 246 139
 242 0 0 3 30 243 877 0 246 242 247 0 +-.008875 -.0233 -.0244139671971717 0 1 0
 16 246 1281 248 ?77 134 241 243 0 0 3 30 247 871 0 249 243 250 0 +-.008875 -.01
6 -.0244139671971717 0 0 -1 16 249 1173 251 ?120 252 134 247 0 0 3 30 250 868 0
 134 247 253 0 +.008925 -.01600312288770115 -.0244139671971717 0 0 -1 16 134 114
5 254 ?89 249 246 250 0 0 3 30 253 573 0 255 250 256 0 +-.008875 -.0253 -.028413
9671971717 0 0 1 16 255 1370 257 ?118 258 259 253 0 0 3 31 256 572 0 258 253 260
 0 +24999999999999e-18 -.0253 -.0131 0 1 0 1 0 612323399573677e-31 .0089 16 258
 497 261 ?262 263 255 256 0 0 3 30 260 571 0 263 256 264 0 +.008925 -.0253 -.013
1 0 0 -1 16 263 501 265 ?266 267 258 260 0 0 3 30 264 569 0 252 260 268 0 +-.008
875 -.0233 -.0284139671971717 0 0 1 16 252 1270 269 ?113 270 249 264 0 0 3 31 26
8 568 0 270 264 271 0 +24999999999999e-18 -.0233 -.0131 0 1 0 1 0 61232339957367
7e-31 .0089 16 270 516 272 ?273 259 252 268 0 0 3 30 271 567 0 259 268 274 0 +.0
08925 -.0233 -.0131 0 0 -1 16 259 509 275 ?276 255 270 271 0 0 3 30 274 564 0 26
7 271 277 0 +.008925 -.0253 -.0131 0 1 0 16 267 499 278 ?109 279 263 274 0 0 3 3
0 277 563 0 279 274 280 0 +-.008875 -.0253 -.0131 0 1 0 16 279 495 281 ?282 283
 267 277 0 0 3 31 280 429 0 284 277 285 0 +.004025 -.014 -.0311818617364574 0 1
 0 -1 0 -183697019872103e-30 .001 16 284 367 286 ?287 288 283 280 0 0 3 31 285 4
27 0 283 280 289 0 +-.004 -.014 -.0311818617364617 -102641042406379e-29 -1 -1166
302995033782e-30 -1 102641042406379e-29 183697019872104e-30 .001 16 283 393 290
 ?291 284 279 285 0 0 3 30 289 251 0 292 285 293 0 +.008925 -.014 -.034413967197
1717 -1 0 0 16 292 170 294 ?295 296 168 289 0 0 3 30 293 250 0 296 289 297 0 +-.
008875 -.014 -.0344139671971717 0 -1 0 16 296 174 298 ?299 300 292 293 0 0 3 30
 297 249 0 300 293 301 0 +-.008875 -.016 -.0344139671971717 .999999984609855 -.0
001754431265789655 0 16 300 178 302 ?303 304 296 297 0 0 3 30 301 248 0 304 297
 305 0 +.008925 -.01600312288770115 -.0344139671971717 0 1 0 16 304 182 306 ?307
 308 300 301 0 0 3 30 305 243 0 308 301 309 0 +.008925 -.01600312288770115 -.034
4139671971717 0 0 1 16 308 180 310 ?36 311 304 305 0 0 3 30 309 242 0 311 305 31
2 0 +-.008875 -.016 -.0344139671971717 0 0 1 16 311 176 313 ?43 314 308 309 0 0
 3 30 312 14 0 314 309 315 0 +.008925 -.014 -.0284139671971717 0 0 1 16 314 11 3
16 ?317 318 311 312 0 0 3 30 315 19 0 319 312 320 0 +.008925 -.014 -.02641396719
71717 -1 0 389825500219507e-30 16 319 16 321 ?322 323 318 315 318 318 3 30 320 2
2 0 323 315 324 0 +-.008875 -.014 -.0264139671971717 0 0 -1 16 323 20 325 ?102 3
26 319 320 0 0 3 30 324 87 0 327 320 328 0 +-.008875 -.014 -.0264139671971717 0
 -1 0 16 327 71 329 ?330 143 326 324 0 0 3 30 328 88 0 331 324 332 0 +.008925 -.
014 -.0264139671971717 0 -1 0 16 331 72 333 ?334 166 143 328 143 143 3 30 332 89
 0 166 328 335 0 -.008925 -.014 -.0284139671971717 0 -1 0 16 166 1360 336 ?34 15
0 331 332 0 0 3 30 335 90 0 326 332 169 0 --.008875 -.014 -.0284139671971717 0 -
1 0 16 326 1357 337 ?338 327 323 335 0 0 3 32 169 328 0 288 335 167 0 --.004 -.0
1600085528525525 -.0311818617364617 -.0001754431265789655 -.999999984609855 0 -.
999999984609855 .0001754431265789655 0 .001000000015390146 .001 16 288 390 339 ?
340 168 284 169 0 0 3 81 1 339 446 158 288 0 0 341 286 342 17 340 0 343 340 340
 0 344 288 0 0 +16 168 364 341 ?345 292 288 167 0 0 3 81 1 341 445 158 168 0 0 2
90 339 346 17 345 0 347 345 345 0 348 168 0 0 +15 347 379 0 345 349 350 17 348 0
 351 348 348 0 345 168 0 0 -15 351 334 0 348 352 0 14 352 218 353 ?354 355 343 7
 356 +0 0 354 355 25 81 1 353 1822 357 352 358 0 359 360 361 14 354 82 360 ?362
 352 363 7 364 +0 0 362 352 25 14 355 24 359 ?352 365 366 7 367 -0 0 352 365 25
 15 343 326 0 340 352 39 50 356 236 0 352 368 367 0 +-.008875 -.016 -.0344139671
971717 -.0001754431265789655 -.999999984609855 0 .999999984609855 -.000175443126
5789655 0 13 25 91 0 0 0 0 0 0 11 18 14 18 966 369 ?365 0 370 7 371 +372 372 365
 0 25 81 1 369 1816 357 18 373 0 0 374 375 14 365 550 374 ?355 18 376 7 377 +0 0
 355 18 25 15 370 970 0 378 18 0 50 371 84 0 372 379 380 0 +.008925 -.014 -.0264
139671971717 389825500219507e-30 0 1 1 0 -389825500219507e-30 14 372 78 381 ?382
 362 383 7 371 +18 18 382 362 25 81 1 381 1828 357 372 384 0 385 386 387 14 382
 76 386 ?388 372 389 7 379 +0 0 388 372 25 14 362 80 385 ?372 354 32 7 380 +0 0
 372 354 25 15 383 965 0 146 372 0 17 146 0 383 95 322 84 145 150 0 334 -17 95 0
 383 322 146 93 334 331 0 317 -17 322 0 383 146 95 121 390 319 0 391 +17 145 0 1
44 392 86 121 146 150 0 0 +17 334 0 32 135 317 84 95 331 0 137 +15 32 686 0 266
 362 0 17 135 0 32 133 334 87 137 143 0 127 +17 317 0 32 334 307 93 105 314 0 39
0 +17 307 0 32 317 33 103 393 304 0 394 +17 105 0 395 295 390 103 317 314 0 307
 -17 390 0 395 105 391 93 322 319 0 0 -15 395 23 0 105 355 396 17 391 0 395 390
 397 121 92 318 0 378 -17 397 0 395 391 295 90 102 323 0 0 -17 92 0 370 330 378
 90 391 318 0 398 +16 318 961 399 ?92 319 314 315 319 319 3 17 378 0 370 92 330
 121 240 139 0 145 -17 330 0 370 378 92 114 398 327 0 240 +17 240 0 400 401 123
 114 378 139 0 0 +15 400 1048 0 401 402 0 17 401 0 400 123 240 72 120 249 0 392
 -17 123 0 400 240 401 121 392 176 0 322 +17 392 0 144 152 145 72 123 176 0 0 -1
7 152 0 144 154 392 75 74 173 0 0 -17 154 0 144 151 152 78 172 163 0 0 -17 74 0
 389 120 77 72 152 173 0 401 +15 389 655 0 403 382 0 17 120 0 389 398 74 114 401
 249 0 330 +17 77 0 389 74 62 75 404 246 0 172 +17 62 0 389 77 405 60 68 185 0 4
04 +17 404 0 406 65 172 60 77 246 0 407 -17 172 0 406 404 408 75 154 163 0 152 +
15 406 856 0 404 409 0 17 408 0 406 172 65 78 245 241 0 154 -17 65 0 406 408 404
 63 407 182 0 245 +17 245 0 32 71 80 63 408 241 0 410 +17 71 0 32 411 245 69 410
 188 0 276 +17 80 0 32 245 133 78 151 155 0 408 +17 410 0 412 407 413 63 71 188
 0 0 -15 412 1319 0 410 414 0 17 407 0 412 68 410 60 65 182 0 0 -17 413 0 412 41
0 68 69 181 178 0 0 -17 68 0 412 413 407 66 62 185 0 181 -17 181 0 415 113 276 6
6 413 178 0 405 +15 415 553 0 276 365 0 17 113 0 415 273 181 111 405 252 0 282 +
17 276 0 415 181 273 69 411 259 0 413 +17 405 0 389 62 282 66 113 252 0 0 -17 28
2 0 389 405 118 111 416 279 0 417 +17 118 0 389 282 53 110 418 255 0 416 +17 416
 0 419 262 417 110 282 279 0 420 -17 417 0 419 416 109 111 273 270 0 0 -15 419 5
37 0 417 421 0 17 109 0 419 417 262 107 116 267 0 411 +17 273 0 415 276 113 107
 417 270 0 0 +17 262 0 419 109 416 106 420 258 0 422 +17 116 0 32 266 411 106 10
9 267 0 262 -17 411 0 32 116 71 107 276 259 0 273 -17 266 0 32 56 116 48 422 263
 0 423 +17 56 0 32 34 266 54 423 201 0 424 +17 422 0 425 420 50 106 266 263 0 0
 -17 423 0 426 427 428 48 56 201 0 0 -15 426 1409 0 423 429 0 17 427 0 426 59 42
3 51 50 198 0 0 -17 428 0 426 423 59 54 194 191 0 0 -17 59 0 426 428 427 57 53 1
95 0 194 -17 194 0 363 338 424 57 428 191 0 403 +15 363 705 0 338 354 0 17 338 0
 363 207 194 38 403 326 0 430 +17 424 0 363 194 207 54 34 166 0 428 -17 403 0 38
9 53 27 57 338 326 0 0 -17 53 0 389 118 403 51 59 195 0 418 +17 27 0 389 403 43
 38 431 12 0 338 +17 43 0 389 27 299 31 40 311 0 431 +17 431 0 432 41 430 31 27
 12 0 0 -15 432 1499 0 431 20 0 17 41 0 432 35 431 13 37 42 0 0 -17 430 0 432 43
1 35 38 207 204 0 0 -17 35 0 432 430 41 44 30 28 0 207 -17 207 0 363 424 338 44
 430 204 0 34 +17 34 0 32 30 56 44 424 166 0 0 +14 20 1498 433 ?434 429 432 7 8
 -0 0 434 429 25 81 1 433 1856 357 20 435 0 436 437 438 14 434 1566 437 ?439 20
 440 7 441 -0 0 439 20 25 14 429 1408 436 ?20 414 426 7 21 +0 0 20 414 25 81 1 4
36 1854 357 429 442 0 443 433 444 14 414 1318 443 ?429 153 412 7 445 -0 0 429 15
3 25 51 21 1420 0 429 445 8 0 +-.008875 -.0233 -.0264139671971717 1 0 0 .002 0 0
 -1 51 445 1330 0 414 446 21 0 +24999999999999e-18 -.0213 -.0224139671971717 -1
 0 0 .002 0 0 1 51 446 1223 0 153 364 445 0 +-306422972214103e-20 -.017465658157
8448 -.0284139671971717 .999999984609855 -.0001754431265789655 -389825494220036e
-30 .004 .0001754431265789655 .999999984609855 0 14 153 1205 447 ?414 130 144 7
 446 +0 0 414 130 25 50 364 86 0 354 380 446 0 +-.008875 -.014 -.028413967197171
7 0 0 -1 -1 0 0 50 380 85 0 362 371 364 0 +.008925 -.014 -.0284139671971717 1 0
 0 0 0 -1 81 1 447 1850 357 153 448 0 449 443 450 14 130 1053 449 ?153 402 126 7
 451 -0 0 153 402 25 81 1 449 1848 357 130 452 0 453 447 454 14 402 1045 453 ?13
0 142 400 7 455 -0 0 130 142 25 50 451 1068 0 130 441 455 0 +.00892535088625316
 -.01400312291848146 -.0244139671971717 -.999999984609855 .0001754431265789205 0
 -.0001754431265789205 -.999999984609855 0 51 441 1581 0 434 456 451 0 +24999999
999999e-18 -.0233 -.0131 0 -1 0 .0035 0 0 -1 50 455 1066 0 402 451 457 0 +-.0088
7464911374685 -.0140000000307803 -.0264139671971717 .999999984609855 -.000175443
1265789205 0 .0001754431265789205 .999999984609855 0 50 457 1065 0 142 455 458 0
 +.00892535088625316 -.01400312291848146 -.0264139671971717 584707385071861e-30
 -175927421760917e-30 1 1 0 -584707385071861e-30 14 142 1043 459 ?402 409 136 7
 457 -0 0 402 409 25 50 458 866 0 409 457 460 0 +0 0 -.0244139671971717 0 0 -1 -
1 0 0 14 409 853 461 ?142 462 406 7 458 -0 0 142 462 25 50 460 561 0 462 458 377
 0 +24999999999999e-18 -.0253 -.0131 0 1 0 0 0 1 14 462 546 463 ?409 421 464 7 4
60 -0 0 409 421 25 50 377 560 0 365 460 465 0 +24999999999999e-18 -.0233 -.0131
 0 1 0 0 0 1 51 465 557 0 421 377 466 0 +24999999999999e-18 -.0253 -.0131 0 1 0
 .0089 0 0 1 14 421 534 467 ?462 349 419 7 465 +0 0 462 349 25 51 466 424 0 349
 465 468 0 +.004025 -.018 -.0311818617364574 0 1 0 .001 0 0 1 14 349 376 469 ?42
1 470 347 7 466 -0 0 421 470 25 51 468 421 0 470 466 368 0 --.004 -.018 -.031181
8617364617 0 1 0 .001 0 0 1 14 470 404 471 ?349 388 472 7 468 +0 0 349 388 25 50
 368 239 0 388 468 356 0 +0 0 -.0344139671971717 0 0 1 1 0 0 14 388 226 473 ?470
 382 474 7 368 -0 0 470 382 25 81 1 473 1832 357 388 475 0 386 471 476 15 474 22
9 0 394 388 0 17 394 0 474 393 477 103 295 292 0 0 -17 393 0 474 478 394 96 307
 304 0 0 -17 477 0 474 394 478 100 299 296 0 295 -17 295 0 395 397 105 100 394 2
92 0 0 +17 478 0 474 477 393 98 303 300 0 0 -17 299 0 389 43 102 98 477 296 0 47
8 +17 102 0 389 299 398 100 397 323 0 477 +17 398 0 389 102 120 90 330 327 0 397
 -17 303 0 39 36 40 96 478 300 0 393 +15 39 221 0 36 352 351 17 36 0 39 37 303 1
3 33 308 0 41 +17 40 0 39 303 37 98 43 311 0 299 -17 33 0 32 307 30 96 36 308 0
 303 -80 1 357 0 479 8001 0 0 0 0 3 5 0 0 0 FFFFTFTFFFFFFF2 81 1 475 1831 480 38
8 481 473 482 483 484 81 1 386 1830 357 382 482 0 381 473 485 81 1 471 1834 357
 470 483 0 473 469 486 83 3 476 .0470588 .0470588 .0470588 81 1 483 1833 480 470
 487 471 475 488 489 81 1 469 1836 357 349 488 0 471 467 490 83 3 486 .0470588 .
0470588 .0470588 81 1 488 1835 480 349 491 469 483 492 493 81 1 467 1838 357 421
 492 0 469 463 494 83 3 490 .0470588 .0470588 .0470588 81 1 492 1837 480 421 495
 467 488 496 497 81 1 463 1840 357 462 496 0 467 461 498 83 3 494 .0470588 .0470
588 .0470588 81 1 496 1839 480 462 499 463 492 500 501 81 1 461 1842 357 409 500
 0 463 459 502 83 3 498 .0470588 .0470588 .0470588 81 1 500 1841 480 409 503 461
 496 504 505 81 1 459 1844 357 142 504 0 461 453 506 83 3 502 .0470588 .0470588
 .0470588 81 1 504 1843 480 142 507 459 500 508 509 81 1 453 1846 357 402 508 0
 459 449 510 83 3 506 .0470588 .0470588 .0470588 81 1 508 1845 480 402 511 453 5
04 452 512 83 3 510 .0470588 .0470588 .0470588 80 1 480 513 514 8015 0 0 0 0 3 5
 0 0 0 FFFFTFFFFFFFFF2 81 1 511 1262 158 402 0 508 515 516 517 81 1 452 1847 480
 130 516 449 508 448 518 83 1 512 0 81 1 516 1263 158 130 0 452 511 519 520 81 1
 448 1849 480 153 519 447 452 521 522 83 1 518 0 81 1 519 1264 158 153 0 448 516
 269 523 81 1 521 1851 480 414 524 443 448 442 525 83 1 522 0 81 1 524 1354 158
 414 0 521 503 265 526 81 1 443 1852 357 414 521 0 447 436 527 81 1 442 1853 480
 429 528 436 521 435 529 83 1 525 0 81 1 528 1444 158 429 0 442 197 337 530 81 1
 435 1855 480 20 531 433 442 532 533 83 1 529 0 81 1 531 1534 158 20 0 435 534 2
36 535 81 1 532 1857 480 434 536 437 435 537 538 83 1 533 0 81 1 536 1601 158 43
4 0 532 234 215 539 81 1 437 1858 357 434 532 0 433 540 541 81 1 537 1859 480 43
9 542 540 532 543 544 83 1 538 0 14 439 1756 540 ?545 434 218 7 456 -0 0 545 434
 25 81 1 542 1802 158 439 0 537 499 546 547 81 1 540 1860 357 439 537 0 437 548
 549 81 1 543 1861 480 545 546 548 537 0 550 83 1 544 0 14 545 1728 548 ?0 439 5
51 7 552 -0 0 0 439 25 81 1 546 1803 158 545 0 543 542 0 553 81 1 548 1862 357 5
45 543 0 540 0 554 83 1 550 0 83 3 554 .0470588 .0470588 .0470588 80 1 158 555 5
56 9000 1 1 1 1 1 1 1 1 0 FFFFTFTFFFFFFF3 84 32 553 8dbc38a5016fbe7649439d8b6dc6
b9ec79 15 556 UGS/ObjectState15 551 1731 0 220 545 228 51 552 1776 0 545 0 456 0
 +3469446951953615e-32 -.0213 -.0203 0 -1 0 5e-4 0 0 -1 51 456 1773 0 439 552 44
1 0 +3729655473350135e-32 -.0213 -.0059 0 -1 0 5e-4 0 0 -1 17 220 0 551 220 220
 0 557 22 0 0 +15 228 1732 0 223 545 0 17 557 0 376 557 557 0 220 22 0 0 -15 376
 1688 0 557 365 558 15 558 1681 0 219 365 559 17 219 0 558 219 219 0 213 211 0 0
 -15 559 1548 0 235 365 415 17 235 0 559 235 235 0 560 148 0 0 +17 560 0 440 560
 560 0 235 148 0 0 -15 440 1569 0 560 434 561 15 561 1570 0 237 434 0 17 237 0 5
61 237 237 0 562 221 0 0 +17 562 0 563 562 562 0 237 221 0 0 -15 563 1543 0 562
 462 425 15 425 549 0 418 462 0 17 418 0 425 50 420 51 118 255 0 427 -17 50 0 42
5 422 418 48 427 198 0 266 +17 420 0 425 418 422 110 262 258 0 0 -83 3 549 .0470
588 .0470588 .0470588 81 1 499 1801 158 462 0 496 226 542 564 84 32 547 9f0e9395
9c4ea9b2f8364fe96bccc62881 1 226 1800 158 365 0 565 222 499 566 84 32 564 f61277
2626baa32f0d192d7c2beaddb281 1 565 1817 480 365 226 374 373 567 568 84 32 566 8d
e314f4947137696623bb698450575381 1 374 1818 357 365 565 0 369 359 569 81 1 373 1
815 480 18 570 369 0 565 571 81 1 567 1819 480 355 572 359 565 358 573 83 1 568
 0 81 1 572 1258 158 355 0 567 570 507 574 81 1 359 1820 357 355 567 0 374 353 5
75 81 1 358 1821 480 352 534 353 567 576 577 83 1 573 0 81 1 534 1533 158 352 0
 358 578 531 579 81 1 576 1823 480 354 580 360 358 581 582 83 1 577 0 81 1 580 1
531 158 354 0 576 583 578 584 81 1 360 1824 357 354 576 0 353 385 585 81 1 581 1
825 480 362 583 385 576 384 586 83 1 582 0 81 1 583 1530 158 362 0 581 210 580 5
87 81 1 385 1826 357 362 581 0 360 381 588 81 1 384 1827 480 372 515 381 581 482
 589 83 1 586 0 81 1 515 1261 158 372 0 384 507 511 590 81 1 482 1829 480 382 57
8 386 384 475 591 83 1 589 0 81 1 578 1532 158 382 0 482 580 534 592 83 1 591 0
 84 32 592 00ec2080769f373ec39f1c1a18b93c5581 1 507 1260 158 142 0 504 572 515 5
93 84 32 590 ae5333240a047691aa8dca51c25b7f2e84 32 593 6516131b16d1f3054bebb4257
39f83c783 3 588 .0470588 .0470588 .0470588 81 1 210 1529 158 28 0 0 209 583 594
 84 32 587 291b3f78f116cbe8cde4721e93b7a56681 1 209 1528 158 42 0 0 26 210 595 8
4 32 594 855582a226e793da82eaaf5defa3c9d481 1 26 1527 158 12 0 0 206 209 596 84
 32 595 63097b92b7bf9efc89053ad63c4953a081 1 206 1526 158 204 0 0 313 26 597 84
 32 596 7998d71b94ceb130545abe69afbed7b581 1 313 1525 158 311 0 0 310 206 598 84
 32 597 5855021dbcbc6ba9a07e7655b28d889f81 1 310 1524 158 308 0 0 336 313 599 84
 32 598 6fd6d8318dac52885730f364c3ad1a5c81 1 336 1523 158 166 0 0 337 310 600 84
 32 599 738db1b821812282c0f7ccdfe6e4546581 1 337 1522 158 326 0 0 528 336 601 84
 32 600 3a9d0bccc2248a087ab71cc6e5d3317e84 32 601 716a24eddc50d029ef850bd3243cdd
5183 3 585 .0470588 .0470588 .0470588 84 32 584 254a5444b438807a645cf047e5938e3a
84 32 579 1ea693140f7b1929e0d0e83b1cf6920d83 3 575 .0470588 .0470588 .0470588 81
 1 570 1257 158 18 0 373 147 572 602 84 32 574 978c0b9d35a2f22e7ac0682338eb76198
1 1 147 1254 158 140 0 0 175 570 603 84 32 602 38233fbde59b9590ef68dc87f4b688938
1 1 175 1253 158 173 0 0 162 147 604 84 32 603 10ee46ff514b2fda2a2af5b143bbcfbd8
1 1 162 1252 158 155 0 0 160 175 605 84 32 604 ff77b87525bfcb1f91e808c5877a43b88
1 1 160 1251 158 163 0 0 156 162 606 84 32 605 3f02aea8eb78b96c27511aa939ecc22d8
4 32 606 24b4d55f3cd25c230f083cc267e7cb2383 1 571 0 83 3 569 .0470588 .0470588 .
0470588 15 218 1759 0 213 439 607 15 607 1760 0 230 439 0 17 230 0 607 230 230 0
 608 224 0 0 +17 608 0 609 608 608 0 230 224 0 0 -15 609 1695 0 608 462 563 83 3
 541 .0470588 .0470588 .0470588 81 1 234 1598 158 148 0 0 236 536 610 81 1 215 1
796 158 22 0 0 536 212 611 84 32 539 6f400ea28d3661092104b541dcf75b5384 32 611 8
18a775decf6ad9f929c84a4dcaa0e1981 1 236 1597 158 221 0 0 531 234 612 84 32 610 4
37f83e2012636139f657704005a2cd784 32 612 af4aa6675b6953c2e3a4a756181fed9284 32 5
35 ef80b438b4d6db50c706317243c3d45b81 1 197 1439 158 195 0 0 193 528 613 84 32 5
30 a9bd37d6f4a23b03670135e17a8062d981 1 193 1438 158 191 0 0 203 197 614 84 32 6
13 1f3bccb2fa15ac5ed3eefc47ade7cfc781 1 203 1437 158 201 0 0 200 193 615 84 32 6
14 70506f760dc37700d718018e1c144a0f81 1 200 1436 158 198 0 0 257 203 616 84 32 6
15 75e3d334716aa4a178c9528f9f908ef581 1 257 1434 158 255 0 0 265 200 617 84 32 6
16 089528095fdab2e8ce9d1a592727775c81 1 265 1432 158 263 0 0 524 257 618 84 32 6
17 dcf77c29c911c65ce3ececab00a5728284 32 618 43e3230abd336c756404f9069589ec3a83
 3 527 .0470588 .0470588 .0470588 81 1 503 1353 158 409 0 500 190 524 619 84 32
 526 7ce4c057981f35b7007ac6e5c1c2916081 1 190 1349 158 188 0 0 180 503 620 84 32
 619 ae2bafc96091e1cd7722b9e98848a41e81 1 180 1348 158 178 0 0 184 190 621 84 32
 620 9f873dc9abdd99a9bc66d624adff301281 1 184 1347 158 182 0 0 187 180 622 84 32
 621 af406258f384685b00c461594d723bdc81 1 187 1346 158 185 0 0 248 184 623 84 32
 622 e90e26d9fd79e9a4b0f2db97215e300581 1 248 1345 158 246 0 0 244 187 624 84 32
 623 ee271e3238c3ba550869b53393d32f5681 1 244 1344 158 241 0 0 275 248 625 84 32
 624 76a12090a130fb08cf29b590c6cebc1081 1 275 1343 158 259 0 0 269 244 626 84 32
 625 c6e29cf59a1685383a4f066f153ac32681 1 269 1342 158 252 0 0 519 275 627 84 32
 626 e988bb828321a2355dcfe8f5b119d52c84 32 627 987c4affdabec217011e3e1fa2f348cd8
4 32 523 e109ca2af661903498e6fc0f1251200284 32 520 b4bbae0415b0070b9ac355a78a59d
3da84 32 517 5c62737b5f4f718602a69c960964ad3d79 21 514 SDL/TYSA_TRANSLUCENCY83 1
 509 0 83 1 505 0 83 1 501 0 81 1 495 618 158 421 0 492 272 329 628 83 1 497 0 8
1 1 272 615 158 270 0 0 281 495 629 81 1 329 1116 158 327 0 0 495 399 630 84 32
 628 c507d1ab71ea95f587cf4e6100ad812681 1 399 1238 158 318 0 0 329 333 631 84 32
 630 9609b126d177bf6ffad963cfd23d6fca81 1 333 1239 158 331 0 0 399 138 632 84 32
 631 32c0d5b159b31e657d909f5e9067f72381 1 138 1242 158 128 0 0 333 321 633 84 32
 632 da3d6fd160c5fc50c4e13a27d44a071181 1 321 1243 158 319 0 0 138 239 634 84 32
 633 4078725fb3f940d7da04ca6cf2a21f2c81 1 239 1244 158 139 0 0 321 635 636 84 32
 634 e1b4eac9cd9f3a933cf6682d01e3f1b781 1 635 1245 158 143 0 0 239 254 637 84 32
 636 08e00e6b3b52380271d328734052f7a316 143 957 635 ?135 331 327 328 331 331 3 8
1 1 254 1246 158 134 0 0 635 251 638 84 32 637 805ce9a5e8d4e8f7fdd9aface29df5a78
1 1 251 1247 158 249 0 0 254 165 639 84 32 638 0c63a3c746af77acab6d12aa0466bd3d8
1 1 165 1248 158 150 0 0 251 159 640 84 32 639 3be73a63fee1938efabe46480f193fae8
1 1 159 1249 158 176 0 0 165 156 641 84 32 640 479325d9094b9ad578b8d0c23975eeac8
4 32 641 f186dc28748cf07fc87d2f0872cf32be81 1 281 608 158 279 0 0 278 272 642 84
 32 629 5c85d55bc05adacdb00fc56419a8bd3781 1 278 607 158 267 0 0 261 281 643 84
 32 642 e5801447d5c1a4b67d2931ff526947fe81 1 261 606 158 258 0 0 491 278 644 84
 32 643 64aee860822f0bab45d0bda9474ac3eb81 1 491 451 158 349 0 488 487 261 645 8
4 32 644 ca24ee2d1e4f5a5f07f44b49a50d4f3781 1 487 450 158 470 0 483 286 491 646
 84 32 645 fa6d150841767f3529ec9cffb2eec93181 1 286 447 158 284 0 0 339 487 647
 84 32 646 929087910c68b0e78a18917dbcd1267b84 32 647 0a250ab94d434aa8bbe13f3f7d4
20aed83 1 493 0 83 1 489 0 83 3 485 .0470588 .0470588 .0470588 81 1 481 297 158
 388 0 475 298 290 648 83 1 484 0 81 1 298 290 158 296 0 0 294 481 649 81 1 290
 444 158 283 0 0 481 341 650 84 32 648 e38778b08833ec5fbc2ba54709bdaf6684 32 650
 87a8e5d206b34b5e9f3721f10b721e4181 1 294 288 158 292 0 0 306 298 651 84 32 649
 0fc4f61e0ff465a402f8cbdba11e571181 1 306 286 158 304 0 0 302 294 652 84 32 651
 618b967eadd2bfee54bf832c15c80fe181 1 302 285 158 300 0 0 316 306 653 84 32 652
 8a400f730a1267081c94fac503dfe98381 1 316 282 158 314 0 0 325 302 654 84 32 653
 9020e38ba0b9b12e1e618849d9ea3c1281 1 325 281 158 323 0 0 0 316 655 84 32 654 2f
e2af7e148e15c0189f5d3354d0379184 32 655 19e8852f79764165a161a7cbc653fedb79 15 47
9 SDL/TYSA_COLOUR15 472 407 0 344 470 656 17 344 0 472 344 344 0 340 288 0 0 -15
 656 408 0 657 470 0 17 657 0 656 657 657 0 291 283 0 0 -17 291 0 366 291 291 0
 657 283 0 0 +15 366 340 0 291 355 395 15 464 1701 0 229 462 609 17 229 0 464 22
9 229 0 223 214 0 0 -83 3 454 .0470588 .0470588 .0470588 83 3 450 .0470588 .0470
588 .0470588 83 3 444 .0470588 .0470588 .0470588 83 3 438 .0470588 .0470588 .047
0588 17 133 0 32 80 135 81 89 134 0 151 -15 396 348 0 658 355 0 17 658 0 396 658
 658 0 287 284 0 0 -17 287 0 350 287 287 0 658 284 0 0 +15 350 380 0 287 349 0 5
0 379 83 0 382 367 371 0 +-.008875 -.014 -.0264139671971717 -1 0 0 0 0 1 50 367
 25 0 355 356 379 0 +0 -.014 0 0 -1 0 0 0 -1 83 3 387 .0470588 .0470588 .0470588
 83 3 375 .0470588 .0470588 .0470588 83 3 361 .0470588 .0470588 .0470588 84 32 3
46 393ddd6e3ee687eb19bd021614c53f0384 32 342 bbde17de187d6248757d35fb20dac46a81
 1 216 1798 158 224 0 0 212 222 659 84 32 659 6ceabf62e09c49faa8a558a12c112a8c84
 32 227 193b9521ed9799aa768fd1d09aa1da3784 32 217 4ce25d28acfe07aa7f3a8cda3294ec
9184 32 161 91530bd8987f05f6d7a999d411e4b2d619 19 92 0 3 0 11 7 S74 20 17 6 0 0
 546 660 15 543 548 5 0 0 0 0 0 0 0 0 0 0 0 0 0 0 81 2 660 1795 661 3 0 15 0 0 6
62 663 81 1 15 1813 664 3 660 5 0 0 665 80 1 664 666 667 9000 0 0 0 0 3 5 0 0 0
 FFTFFFFFFFFFFF1 82 1 665 -1 79 19 667 UG2/PMARK_ATTRIBUTE80 2 661 668 669 8004
 0 0 0 0 3 5 0 0 0 FFTFFFFFFFFFFF2 3 83 1 662 7830.64 84 8 663 Kg/Cu M 79 16 669
 SDL/TYSA_DENSITY80 1 14 670 671 9000 0 0 0 0 3 5 0 0 0 FFTFFFFFFFFFFF1 82 1 16
 210 79 24 671 UG2/BODY_COLOR_ATTRIBUTE1 0 
