**ABCDEFGHIJKLMNOPQRSTUVWXYZabcdefghijklmnopqrstuvwxyz**************************
**PARASOLID !"#$%&'()*+,-./:;<=>?@[\]^_`{|}~0123456789**************************
**PART1;
MC=x64/Windows NT;
MC_MODEL=genuineintel family 6 model 14 stepping 3, intel(r) core(tm) i7-6700 cpu @ 3.40ghz;
MC_ID=robotic-pc;
OS=windows nt (x64);
OS_RELEASE=6.1 windows 7 professional (build 7601) service pack 1;
FRU=mdc_ugii_v7.0_djl_can_vrh;
APPL=unigraphics;
SITE=unknown;
USER=Robotic;
FORMAT=text;
GUISE=transmit;
KEY=servo;
FILE=C:\Users\Robotic\Desktop\robot_solid\servo.x_t;
DATE=30-jan-2018;
**PART2;
SCH=SCH_2900123_28101;
USFLD_SIZE=0;
**PART3;
**END_OF_HEADER*****************************************************************
T51 : TRANSMIT FILE created by modeller version 290012317 SCH_2400000_200000 10
 1 2 0 0 0 0 0 0 0 1e3 1e-8 0 0 0 1 0 1 2 11 2 1 0 1 3 4 1 0 0 0 0 12 3 1985 5 6
 0 0 0 0 1e3 1e-8 2 0 0 1 0 1 1 7 8 9 10 11 12 13 0 0 0 0 100 4 2 2 0 0 -3969047
313034925e-30 -1435751380610926e-31 1 321784631930857e-29 -1 -14357513806108e-29
 1 3217846319308565e-30 396904731303493e-29 -.03315000022351695 -.00939420000000
017 -.0726 1 3 ?81 1 5 1985 14 3 15 0 0 0 16 70 6 0 4 T3 0 0 6 20 1 17 17 13 7 9
1 0 3 0 18 0 0 19 0 50 8 90 0 20 21 0 0 +.04 0 .02 -1 0 0 0 0 1 30 9 86 0 22 23
 0 0 +.04 0 .02 0 0 -1 29 10 67 0 24 25 0 0 0 0 19 11 1 0 3 19 0 26 V16 12 385 2
7 ?28 0 29 30 0 0 3 18 13 15 0 31 0 32 33 ?3 17 31 0 34 35 36 13 37 38 0 39 +18
 32 10 0 36 13 40 41 ?3 29 33 17 0 13 41 42 0 0 .02 29 41 12 0 32 43 33 0 .0405
 .02 29 42 70 0 44 33 45 .04 0 0 18 44 60 0 46 47 0 42 ?3 29 45 69 0 47 42 25 .0
4 .0405 0 18 47 58 0 48 49 44 45 ?3 29 25 68 0 49 45 10 0 .0405 0 18 49 56 0 50
 24 47 25 ?3 17 50 0 51 52 53 49 48 54 0 55 +18 24 54 0 56 57 49 10 ?3 17 56 0 5
8 39 55 24 59 60 0 61 +18 57 2 0 35 40 24 62 ?3 17 35 0 34 63 31 57 64 65 0 66 +
18 40 5 0 67 32 57 43 ?3 29 62 4 0 57 0 43 .04 0 .02 29 43 7 0 40 62 41 .04 .040
5 .02 17 67 0 51 53 52 40 36 68 0 63 -15 51 79 0 50 69 70 17 53 0 51 50 67 47 71
 72 0 73 +17 52 0 51 67 50 32 55 74 0 37 -17 36 0 34 31 63 32 67 68 0 52 +16 68
 11 75 ?36 38 76 77 0 0 3 17 63 0 34 36 35 40 78 76 0 71 +15 34 23 0 63 79 0 17
 78 0 80 81 71 57 63 76 0 0 -16 76 6 82 ?63 68 83 84 0 0 3 17 71 0 80 78 73 40 5
3 72 0 0 -15 80 81 0 73 20 0 17 73 0 80 71 81 47 85 86 0 0 +16 72 73 87 ?53 29 7
4 23 0 0 3 81 1 87 1837 88 72 0 0 89 90 91 16 29 179 92 ?93 12 72 94 0 0 3 16 74
 72 95 ?55 72 96 97 0 0 3 30 23 85 0 72 97 9 0 +.04 .0405 .02 0 0 -1 30 97 84 0
 74 98 23 0 +0 .0405 .02 0 0 -1 30 98 83 0 96 99 97 0 +0 0 .02 0 0 -1 16 96 71 1
00 ?61 74 22 98 0 0 3 30 99 63 0 83 101 98 0 +0 0 0 1 0 0 16 83 46 102 ?46 76 60
 99 0 0 3 30 101 64 0 60 103 99 0 +0 .0405 0 0 -1 0 16 60 48 104 ?56 83 54 101 0
 0 3 30 103 65 0 54 105 101 0 +.04 .0405 0 -1 0 0 16 54 50 106 ?50 60 86 103 0 0
 3 30 105 66 0 86 107 103 0 +.04 0 0 0 1 0 16 86 52 89 ?73 54 108 105 0 0 3 30 1
07 22 0 65 109 105 0 +0 0 .02 1 0 0 16 65 20 90 ?35 22 38 107 0 0 3 30 109 19 0
 38 77 107 0 +0 .0405 .02 0 -1 0 16 38 16 110 ?31 65 68 109 0 0 3 30 77 14 0 68
 84 109 0 +.04 .0405 .02 -1 0 0 30 84 9 0 76 111 77 0 +.04 0 .02 0 1 0 31 111 15
6 0 112 113 84 0 +.03 0 .01 0 1 0 1 0 612323399573677e-31 .0065 16 112 134 114 ?
115 108 116 111 0 0 3 31 113 157 0 108 94 111 0 +.03 -.001 .01 0 1 0 1 0 6123233
99573677e-31 .0065 16 108 132 117 ?118 86 112 113 0 0 3 31 94 216 0 29 119 113 0
 +.03 .0405 .01 0 1 0 1 0 612323399573677e-31 .0065 31 119 217 0 116 120 94 0 +.
03 .0415 .01 0 1 0 1 0 612323399573677e-31 .0065 16 116 196 121 ?122 112 123 119
 0 0 3 31 120 283 0 123 124 119 0 +.03 .0415 .01 0 -1 0 1 0 -612323399573677e-31
 .0045 16 123 261 125 ?126 116 127 120 0 0 3 31 124 284 0 127 128 120 0 +.03 .04
32 .01 0 -1 0 1 0 -612323399573677e-31 .0045 16 127 318 129 ?130 123 131 124 0 0
 3 31 128 349 0 132 133 124 0 +.03 .0432 .01 0 1 0 1 0 612323399573677e-31 .01 1
6 132 321 134 ?135 131 136 128 0 0 3 31 133 350 0 131 30 128 0 +.03 .0452 .01 0
 1 0 1 0 612323399573677e-31 .01 16 131 323 137 ?138 127 132 133 0 0 3 31 30 424
 0 12 139 133 0 +.03 -.001 .01 0 -1 0 1 0 -612323399573677e-31 .0045 31 139 425
 0 136 140 30 0 +.03 -.0045 .01 0 -1 0 1 0 -612323399573677e-31 .0045 16 136 404
 141 ?142 132 143 139 0 0 3 31 140 495 0 144 145 139 0 +.03 -.0045 .01 0 1 0 1 0
 612323399573677e-31 .01 16 144 469 146 ?147 143 148 140 0 0 3 31 145 496 0 143
 149 140 0 +.03 -.0065 .01 0 1 0 1 0 612323399573677e-31 .01 16 143 464 150 ?151
 136 144 145 0 0 3 31 149 624 0 152 153 145 0 +.03 -.0065 .017 0 -1 0 1 0 -61232
3399573677e-31 .00147782604588 16 152 599 154 ?155 148 156 149 0 0 3 31 153 625
 0 148 157 149 0 +.03 -.0045 .017 0 -1 0 1 0 -612323399573677e-31 .0014778260458
8 16 148 595 158 ?159 144 152 153 0 0 3 31 157 679 0 160 161 153 0 +.023 -.0065
 .01 0 -1 0 1224646799147352e-31 0 1 .00147782604588 16 160 654 162 ?163 156 164
 157 0 0 3 31 161 680 0 156 165 157 0 +.023 -.0045 .01 0 -1 0 1224646799147352e-
31 0 1 .00147782604588 16 156 650 166 ?167 152 160 161 0 0 3 31 165 734 0 168 16
9 161 0 +.03 -.0065 .00299999999999993 0 -1 0 -1 0 183697019872103e-30 .00147782
604588 16 168 709 170 ?171 164 172 165 0 0 3 31 169 735 0 164 173 165 0 +.03 -.0
045 .00299999999999993 0 -1 0 -1 0 183697019872103e-30 .00147782604588 16 164 70
5 174 ?175 160 168 169 0 0 3 31 173 789 0 176 177 169 0 +.037 -.0065 .01 0 -1 0
 0 0 -1 .00147782604588 16 176 764 178 ?179 172 180 173 0 0 3 31 177 790 0 172 1
81 173 0 +.037 -.0045 .01 0 -1 0 0 0 -1 .00147782604588 16 172 760 182 ?183 168
 176 177 0 0 3 31 181 944 0 184 185 177 0 +.03 .0452 .017 0 -1 0 1 0 -6123233995
73677e-31 .00147782604588 16 184 915 186 ?187 180 188 181 0 0 3 31 185 945 0 180
 189 181 0 +.03 .0432 .017 0 -1 0 1 0 -612323399573677e-31 .00147782604588 16 18
0 919 190 ?191 176 184 185 0 0 3 31 189 999 0 192 193 185 0 +.023 .0452 .01 0 -1
 0 1224646799147352e-31 0 1 .00147782604588 16 192 970 194 ?195 188 196 189 0 0
 3 31 193 1000 0 188 197 189 0 +.023 .0432 .01 0 -1 0 1224646799147352e-31 0 1 .
00147782604588 16 188 974 198 ?199 184 192 193 0 0 3 31 197 1054 0 200 201 193 0
 +.03 .0452 .00299999999999993 0 -1 0 -1 0 183697019872103e-30 .00147782604588 1
6 200 1025 202 ?203 196 204 197 0 0 3 31 201 1055 0 196 205 197 0 +.03 .0432 .00
299999999999993 0 -1 0 -1 0 183697019872103e-30 .00147782604588 16 196 1029 206
 ?207 192 200 201 0 0 3 31 205 1109 0 208 209 201 0 +.037 .0452 .01 0 -1 0 0 0 -
1 .00147782604588 16 208 1080 210 ?211 204 212 205 0 0 3 31 209 1110 0 204 213 2
05 0 +.037 .0432 .01 0 -1 0 0 0 -1 .00147782604588 16 204 1084 214 ?215 200 208
 209 0 0 3 31 213 1266 0 216 217 209 0 +.0232 0 .002 0 -1 0 1 0 -612323399573677
e-31 79e-5 16 216 1241 218 ?219 212 220 213 0 0 3 31 217 1267 0 212 221 213 0 -.
0232 .005 .002 0 -1 0 1 0 -612323399573677e-31 79e-5 16 212 1239 222 ?223 208 21
6 217 0 0 3 31 221 1305 0 224 225 217 0 +.0098 0 .003518253741410405 0 -1 0 1 0
 -612323399573677e-31 79e-5 16 224 1280 226 ?227 220 228 221 0 0 3 31 225 1306 0
 220 229 221 0 -.0098 .005 .003518253741410405 0 -1 0 1 0 -612323399573677e-31 7
9e-5 16 220 1278 230 ?231 216 224 225 0 0 3 31 229 1344 0 232 233 225 0 +.0028 0
 .0100430152254788 0 -1 0 1 0 -612323399573677e-31 79e-5 16 232 1319 234 ?235 22
8 236 229 0 0 3 31 233 1345 0 228 237 229 0 -.0028 .005 .0100430152254788 0 -1 0
 1 0 -612323399573677e-31 79e-5 16 228 1317 238 ?239 224 232 233 0 0 3 31 237 13
83 0 240 241 233 0 +.0098 0 .0175182537414104 0 -1 0 1 0 -612323399573677e-31 79
e-5 16 240 1358 242 ?243 236 244 237 0 0 3 31 241 1384 0 236 245 237 0 -.0098 .0
05 .0175182537414104 0 -1 0 1 0 -612323399573677e-31 79e-5 16 236 1356 246 ?247
 232 240 241 0 0 3 31 245 1422 0 248 249 241 0 +.0232 0 .01721 0 -1 0 1 0 -61232
3399573677e-31 79e-5 16 248 1397 250 ?251 244 252 245 0 0 3 31 249 1423 0 244 25
3 245 0 -.0232 .005 .01721 0 -1 0 1 0 -612323399573677e-31 79e-5 16 244 1395 254
 ?255 240 248 249 0 0 3 31 253 1621 0 256 257 249 0 +.0175 .0405 .0025 0 -1 0 1
 0 -612323399573677e-31 79e-5 16 256 1594 258 ?259 252 260 253 0 0 3 31 257 1622
 0 252 261 253 0 -.0175 .0355 .0025 0 -1 0 1 0 -612323399573677e-31 79e-5 16 252
 1598 262 ?263 248 256 257 0 0 3 31 261 1660 0 264 265 257 0 +.0025 .0405 .0025
 0 -1 0 1 0 -612323399573677e-31 79e-5 16 264 1633 266 ?267 260 268 261 0 0 3 31
 265 1661 0 260 269 261 0 -.0025 .0355 .0025 0 -1 0 1 0 -612323399573677e-31 79e
-5 16 260 1637 270 ?271 256 264 265 0 0 3 31 269 1699 0 272 273 265 0 +.0025 .04
05 .0175 0 -1 0 1 0 -612323399573677e-31 79e-5 16 272 1672 274 ?275 268 276 269
 0 0 3 31 273 1700 0 268 277 269 0 -.0025 .0355 .0175 0 -1 0 1 0 -61232339957367
7e-31 79e-5 16 268 1676 278 ?279 264 272 273 0 0 3 31 277 1738 0 280 281 273 0 +
.0175 .0405 .0175 0 -1 0 1 0 -612323399573677e-31 79e-5 16 280 1711 282 ?283 276
 0 277 0 0 3 31 281 1739 0 276 0 277 0 -.0175 .0355 .0175 0 -1 0 1 0 -6123233995
73677e-31 79e-5 16 276 1715 284 ?285 272 280 281 0 0 3 81 1 284 1823 88 276 0 0
 282 258 286 17 285 0 287 285 285 0 288 276 0 0 +15 287 1727 0 285 289 0 17 288
 0 290 288 288 0 285 276 0 0 -15 290 1721 0 288 291 292 14 291 1717 293 ?289 294
 290 7 295 +0 0 289 294 26 15 292 1722 0 296 291 0 17 296 0 292 296 296 0 283 28
0 0 0 -17 283 0 297 283 283 0 296 280 0 0 +15 297 1702 0 283 69 298 14 69 80 299
 ?20 300 297 7 21 -0 0 20 300 26 15 298 1663 0 275 69 301 17 275 0 298 275 275 0
 302 272 0 0 +15 301 1624 0 267 69 303 17 267 0 301 267 267 0 304 264 0 0 +15 30
3 1585 0 259 69 51 17 259 0 303 259 259 0 305 256 0 0 +17 305 0 306 305 305 0 25
9 256 0 0 -15 306 1605 0 305 307 0 14 307 1600 308 ?309 310 311 7 312 +0 0 309 3
10 26 81 1 308 1970 313 307 314 0 315 316 317 14 309 1606 316 ?318 307 319 7 320
 -0 0 318 307 26 14 310 1407 315 ?307 321 322 7 323 +0 0 307 321 26 15 311 1604
 0 324 307 306 51 312 1618 0 307 320 323 0 -.0175 .0355 .0025 0 1 0 79e-5 0 0 1
 13 26 3 0 0 0 0 0 0 11 18 14 18 76 325 ?326 0 327 7 328 -0 0 326 0 26 81 1 325
 1898 313 18 329 0 0 330 331 14 326 333 330 ?332 18 333 7 334 +0 0 332 18 26 15
 327 1348 0 335 18 336 50 328 87 0 18 337 338 0 +0 0 .02 0 1 0 0 0 1 50 337 62 0
 339 340 328 0 +0 0 0 0 0 1 1 0 0 50 338 88 0 341 328 21 0 +0 .0405 .02 1 0 0 0
 0 -1 14 341 78 342 ?79 20 58 7 338 -0 0 79 20 26 50 21 89 0 69 338 8 0 +.04 .04
05 .02 0 -1 0 0 0 -1 81 1 342 1916 313 341 343 0 344 345 346 14 79 24 345 ?339 3
41 34 7 340 +0 0 339 341 26 14 20 82 344 ?341 69 80 7 8 -0 0 341 69 26 15 58 77
 0 56 341 0 81 1 344 1914 313 20 347 0 299 342 348 80 1 313 0 349 8001 0 0 0 0 3
 5 0 0 0 FFFFTFTFFFFFFF2 81 1 347 1913 350 20 351 344 352 343 353 81 1 299 1912
 313 69 352 0 354 344 355 83 3 348 .0470588 .0470588 .0470588 81 1 352 1911 350
 69 356 299 357 347 358 81 1 354 1910 313 300 357 0 359 299 360 83 3 355 .047058
8 .0470588 .0470588 14 300 204 354 ?69 361 362 7 363 +0 0 69 361 26 81 1 357 190
9 350 300 364 354 365 352 366 81 1 359 1908 313 361 365 0 367 354 368 83 3 360 .
0470588 .0470588 .0470588 14 361 144 359 ?300 369 370 7 371 -0 0 300 369 26 81 1
 365 1907 350 361 372 359 373 357 374 81 1 367 1906 313 369 373 0 375 359 376 83
 3 368 .0470588 .0470588 .0470588 14 369 484 367 ?361 377 378 7 379 +0 0 361 377
 26 81 1 373 1905 350 369 380 367 381 365 382 81 1 375 1904 313 377 381 0 383 36
7 384 83 3 376 .0470588 .0470588 .0470588 14 377 479 375 ?369 332 385 7 386 -0 0
 369 332 26 81 1 381 1903 350 377 387 375 388 373 389 81 1 383 1902 313 332 388
 0 330 375 390 83 3 384 .0470588 .0470588 .0470588 14 332 338 383 ?377 326 391 7
 392 -0 0 377 326 26 81 1 388 1901 350 332 393 383 394 381 395 81 1 330 1900 313
 326 394 0 325 383 396 83 3 390 .0470588 .0470588 .0470588 81 1 394 1899 350 326
 397 330 329 388 398 83 3 396 .0470588 .0470588 .0470588 80 1 350 399 400 8015 0
 0 0 0 3 5 0 0 0 FFFFTFFFFFFFFF2 81 1 397 1854 88 326 0 394 393 401 402 81 1 329
 1897 350 18 403 325 0 394 404 83 1 398 0 81 1 403 1843 88 18 0 329 405 351 406
 83 1 404 0 80 1 88 407 408 9000 1 1 1 1 1 1 1 1 0 FFFFTFTFFFFFFF3 81 1 405 1842
 88 341 0 343 409 403 410 81 1 351 1844 88 20 0 347 403 411 412 84 32 406 ebc07a
290d1332a8d14ca480046c453581 1 411 1845 88 79 0 413 351 356 414 84 32 412 db59eb
fa17b95421003ad41a24db817b81 1 413 1917 350 79 411 345 343 415 416 81 1 356 1846
 88 69 0 352 411 372 417 84 32 414 7310dd7048f15bb8dd22f83d9e42a98b81 1 372 1847
 88 361 0 365 356 418 419 84 32 417 e422484b283b8c21567a4ac49faeab4e81 1 418 184
8 88 420 0 421 372 422 423 84 32 419 b7e1055c903451397fb76e7cd2f9d3d314 420 138
 424 ?425 339 426 7 427 +0 0 425 339 26 81 1 421 1921 350 420 418 424 415 428 42
9 81 1 422 1849 88 425 0 428 418 364 430 84 32 423 bc535cc099ccb3fcf3774ad8287b0
7fd14 425 198 431 ?432 420 433 7 434 -0 0 432 420 26 81 1 428 1923 350 425 422 4
31 421 435 436 81 1 364 1850 88 300 0 357 422 437 438 84 32 430 6fdc89696983180c
d44f99dd5363654381 1 437 1851 88 432 0 435 364 439 440 84 32 438 ac472a9ec30f2e7
2dc1af1c9b848bcee14 432 265 441 ?442 425 443 7 444 +0 0 442 425 26 81 1 435 1925
 350 432 437 441 428 445 446 81 1 439 1852 88 442 0 445 437 393 447 84 32 440 3a
172098cf0ee2817da79e53ef214a6414 442 327 448 ?449 432 450 7 451 -0 0 449 432 26
 81 1 445 1927 350 442 439 448 435 452 453 81 1 393 1853 88 332 0 388 439 397 45
4 84 32 447 324f8173fb8e65202f24900921c1e13d84 32 454 8bc7ddb0008eeb3955eb03347c
4d75ba81 1 448 1928 313 442 445 0 441 455 456 81 1 452 1929 350 449 401 455 445
 457 458 83 1 453 0 14 449 406 455 ?459 442 460 7 461 -0 0 459 442 26 81 1 401 1
855 88 449 0 452 397 462 463 81 1 455 1930 313 449 452 0 448 464 465 81 1 457 19
31 350 459 462 464 452 466 467 83 1 458 0 14 459 473 464 ?468 449 469 7 470 +0 0
 468 449 26 81 1 462 1856 88 459 0 457 401 380 471 81 1 464 1932 313 459 457 0 4
55 472 473 81 1 466 1933 350 468 474 472 457 475 476 83 1 467 0 14 468 603 472 ?
477 459 478 7 479 -0 0 477 459 26 81 1 474 1862 88 468 0 466 480 481 482 81 1 47
2 1934 313 468 466 0 464 483 484 81 1 475 1935 350 477 485 483 466 486 487 83 1
 476 0 14 477 658 483 ?488 468 489 7 490 -0 0 488 468 26 81 1 485 1859 88 477 0
 475 387 491 492 81 1 483 1936 313 477 475 0 472 493 494 81 1 486 1937 350 488 4
80 493 475 495 496 83 1 487 0 14 488 713 493 ?497 477 498 7 499 -0 0 497 477 26
 81 1 480 1861 88 488 0 486 491 474 500 81 1 493 1938 313 488 486 0 483 501 502
 81 1 495 1939 350 497 491 501 486 503 504 83 1 496 0 14 497 768 501 ?505 488 50
6 7 507 -0 0 505 488 26 81 1 491 1860 88 497 0 495 485 480 508 81 1 501 1940 313
 497 495 0 493 509 510 81 1 503 1941 350 505 481 509 495 511 512 83 1 504 0 14 5
05 923 509 ?513 497 514 7 515 +0 0 513 497 26 81 1 481 1863 88 505 0 503 474 516
 517 81 1 509 1942 313 505 503 0 501 518 519 81 1 511 1943 350 513 520 518 503 5
21 522 83 1 512 0 14 513 978 518 ?523 505 524 7 525 +0 0 523 505 26 81 1 520 186
6 88 513 0 511 526 527 528 81 1 518 1944 313 513 511 0 509 529 530 81 1 521 1945
 350 523 526 529 511 531 532 83 1 522 0 14 523 1033 529 ?533 513 534 7 535 +0 0
 533 513 26 81 1 526 1865 88 523 0 521 516 520 536 81 1 529 1946 313 523 521 0 5
18 537 538 81 1 531 1947 350 533 516 537 521 539 540 83 1 532 0 14 533 1088 537
 ?541 523 542 7 543 +0 0 541 523 26 81 1 516 1864 88 533 0 531 481 526 544 81 1
 537 1948 313 533 531 0 529 545 546 81 1 539 1949 350 541 547 545 531 548 549 83
 1 540 0 14 541 1245 545 ?550 533 551 7 552 -0 0 550 533 26 81 1 547 1870 88 541
 0 539 553 554 555 81 1 545 1950 313 541 539 0 537 556 557 81 1 548 1951 350 550
 558 556 539 559 560 83 1 549 0 14 550 1251 556 ?561 541 562 7 563 +0 0 561 541
 26 81 1 558 1872 88 550 0 548 554 564 565 81 1 556 1952 313 550 548 0 545 566 5
67 81 1 559 1953 350 561 568 566 548 569 570 83 1 560 0 14 561 1284 566 ?571 550
 572 7 573 -0 0 571 550 26 81 1 568 1874 88 561 0 559 564 574 575 81 1 566 1954
 313 561 559 0 556 576 577 81 1 569 1955 350 571 527 576 559 578 579 83 1 570 0
 14 571 1290 576 ?580 561 581 7 582 +0 0 580 561 26 81 1 527 1867 88 571 0 569 5
20 583 584 81 1 576 1956 313 571 569 0 566 585 586 81 1 578 1957 350 580 553 585
 569 587 588 83 1 579 0 14 580 1323 585 ?589 571 590 7 591 -0 0 589 571 26 81 1
 553 1869 88 580 0 578 583 547 592 81 1 585 1958 313 580 578 0 576 593 594 81 1
 587 1959 350 589 574 593 578 595 596 83 1 588 0 14 589 1329 593 ?597 580 598 7
 599 +0 0 597 580 26 81 1 574 1875 88 589 0 587 568 600 601 81 1 593 1960 313 58
9 587 0 585 602 603 81 1 595 1961 350 597 600 602 587 604 605 83 1 596 0 14 597
 1362 602 ?606 589 607 7 608 -0 0 606 589 26 81 1 600 1876 88 597 0 595 574 609
 610 81 1 602 1962 313 597 595 0 593 611 612 81 1 604 1963 350 606 583 611 595 6
13 614 83 1 605 0 14 606 1368 611 ?321 597 615 7 616 +0 0 321 597 26 81 1 583 18
68 88 606 0 604 527 553 617 81 1 611 1964 313 606 604 0 602 618 619 81 1 613 196
5 350 321 564 618 604 620 621 83 1 614 0 14 321 1401 618 ?310 606 622 7 623 -0 0
 310 606 26 81 1 564 1873 88 321 0 613 558 568 624 81 1 618 1966 313 321 613 0 6
11 315 625 81 1 620 1967 350 310 554 315 613 314 626 83 1 621 0 81 1 554 1871 88
 310 0 620 547 558 627 81 1 315 1968 313 310 620 0 618 308 628 81 1 314 1969 350
 307 629 308 620 630 631 83 1 626 0 81 1 629 1880 88 307 0 314 632 633 634 81 1
 630 1971 350 309 635 316 314 636 637 83 1 631 0 81 1 635 1878 88 309 0 630 609
 632 638 81 1 316 1972 313 309 630 0 308 639 640 81 1 636 1973 350 318 632 639 6
30 641 642 83 1 637 0 14 318 1639 639 ?643 309 644 7 645 +0 0 643 309 26 81 1 63
2 1879 88 318 0 636 635 629 646 81 1 639 1974 313 318 636 0 316 647 648 81 1 641
 1975 350 643 633 647 636 649 650 83 1 642 0 14 643 1645 647 ?651 318 652 7 653
 -0 0 651 318 26 81 1 633 1881 88 643 0 641 629 654 655 81 1 647 1976 313 643 64
1 0 639 656 657 81 1 649 1977 350 651 658 656 641 659 660 83 1 650 0 14 651 1678
 656 ?294 643 661 7 662 +0 0 294 643 26 81 1 658 1883 88 651 0 649 654 663 664 8
1 1 656 1978 313 651 649 0 647 665 666 81 1 659 1979 350 294 609 665 649 667 668
 83 1 660 0 14 294 1684 665 ?291 651 669 7 670 -0 0 291 651 26 81 1 609 1877 88
 294 0 659 600 635 671 81 1 665 1980 313 294 659 0 656 293 672 81 1 667 1981 350
 291 654 293 659 673 674 83 1 668 0 81 1 654 1882 88 291 0 667 633 658 675 81 1
 293 1982 313 291 667 0 665 676 677 81 1 673 1983 350 289 663 676 667 0 678 83 1
 674 0 14 289 1723 676 ?0 291 287 7 679 -0 0 0 291 26 81 1 663 1884 88 289 0 673
 658 0 680 81 1 676 1984 313 289 673 0 293 0 681 83 1 678 0 83 3 681 .0470588 .0
470588 .0470588 84 32 680 4a75d8a89ba4ef27118baa96d10e7fae50 679 1737 0 289 0 29
5 0 +.0175 .0355 .0175 0 -1 0 0 0 -1 51 295 1735 0 291 679 670 0 -.0175 .0355 .0
175 0 1 0 79e-5 0 0 1 50 670 1698 0 294 295 662 0 +.0025 .0355 .0175 0 -1 0 0 0
 -1 51 662 1696 0 651 670 653 0 -.0025 .0355 .0175 0 1 0 79e-5 0 0 1 50 653 1659
 0 643 662 645 0 +.0025 .0355 .0025 0 -1 0 0 0 -1 51 645 1657 0 318 653 320 0 -.
0025 .0355 .0025 0 1 0 79e-5 0 0 1 50 320 1620 0 309 645 312 0 +.0175 .0355 .002
5 0 -1 0 0 0 -1 83 3 677 .0470588 .0470588 .0470588 84 32 675 8a6e86c7985e57ebf0
6b7d93e6f2eeab83 3 672 .0470588 .0470588 .0470588 84 32 671 50a69ec15e8255d43ba9
829dfafe311c15 669 1688 0 279 294 0 17 279 0 669 279 279 0 682 268 0 0 +17 682 0
 661 682 682 0 279 268 0 0 -15 661 1682 0 682 651 683 15 683 1683 0 302 651 0 17
 302 0 683 302 302 0 275 272 0 0 -83 3 666 .0470588 .0470588 .0470588 84 32 664
 b6327971ab2deabfe86deb6b4354d07e83 3 657 .0470588 .0470588 .0470588 84 32 655 d
58d8e8ee59351c4558d36087cb7d59015 652 1649 0 271 643 0 17 271 0 652 271 271 0 68
4 260 0 0 +17 684 0 644 684 684 0 271 260 0 0 -15 644 1643 0 684 318 685 15 685
 1644 0 304 318 0 17 304 0 685 304 304 0 267 264 0 0 -83 3 648 .0470588 .0470588
 .0470588 84 32 646 1fc386a8c50e353bc4aa6b9714e66adc83 3 640 .0470588 .0470588 .
0470588 84 32 638 5d811c25b87caca5dc41a995e9a313f284 32 634 86fd527a07f695f58c54
ec1861ed7cab83 3 628 .0470588 .0470588 .0470588 84 32 627 03a48ee0fe395ccb00f9e7
e16ac708ec83 3 625 .0470588 .0470588 .0470588 84 32 624 90750768d1abc373da656a7e
f519494615 622 1405 0 255 321 686 51 623 1419 0 321 323 616 0 +.0232 .005 .01721
 0 -1 0 79e-5 0 0 -1 50 323 1421 0 310 312 623 0 +.0232 .005 .01721 0 -1 0 0 0 -
1 50 616 1382 0 606 623 608 0 +.0098 .005 .0175182537414104 0 -1 0 0 0 -1 51 608
 1380 0 597 616 599 0 +.0098 .005 .0175182537414104 0 -1 0 79e-5 0 0 -1 50 599 1
343 0 589 608 591 0 +.0028 .005 .0100430152254788 0 -1 0 0 0 -1 51 591 1341 0 58
0 599 582 0 +.0028 .005 .0100430152254788 0 -1 0 79e-5 0 0 -1 50 582 1304 0 571
 591 573 0 +.0098 .005 .003518253741410405 0 -1 0 0 0 -1 51 573 1302 0 561 582 5
63 0 +.0098 .005 .003518253741410405 0 -1 0 79e-5 0 0 -1 50 563 1265 0 550 573 5
52 0 +.0232 .005 .002 0 -1 0 0 0 -1 51 552 1263 0 541 563 543 0 +.0232 .005 .002
 0 -1 0 79e-5 0 0 -1 51 543 1106 0 533 552 535 0 -.037 .0432 .01 0 1 0 .00147782
604588 0 0 1 51 535 1051 0 523 543 525 0 -.03 .0432 .00299999999999993 0 1 0 .00
147782604588 0 0 1 51 525 996 0 513 535 515 0 -.023 .0432 .01 0 1 0 .00147782604
588 0 0 1 51 515 941 0 505 525 507 0 -.03 .0432 .017 0 1 0 .00147782604588 0 0 1
 51 507 786 0 497 515 499 0 +.037 -.0045 .01 0 -1 0 .00147782604588 0 0 -1 51 49
9 731 0 488 507 490 0 +.03 -.0045 .00299999999999993 0 -1 0 .00147782604588 0 0
 -1 51 490 676 0 477 499 479 0 +.023 -.0045 .01 0 -1 0 .00147782604588 0 0 -1 51
 479 621 0 468 490 386 0 +.03 -.0045 .017 0 -1 0 .00147782604588 0 0 -1 50 386 4
94 0 377 479 379 0 +.03 -.0065 .01 0 1 0 0 0 1 50 379 493 0 369 386 470 0 +.03 -
.0045 .01 0 1 0 0 0 1 51 470 492 0 459 379 461 0 +.03 -.0065 .01 0 1 0 .01 0 0 1
 51 461 421 0 449 470 334 0 -.03 -.0045 .01 0 1 0 .0045 0 0 1 50 334 348 0 326 4
61 392 0 +.03 .0452 .01 0 1 0 0 0 1 50 392 347 0 332 334 451 0 +.03 .0432 .01 0
 1 0 0 0 1 51 451 346 0 442 392 444 0 -.03 .0452 .01 0 -1 0 .01 0 0 -1 51 444 28
0 0 432 451 363 0 +.03 .0432 .01 0 -1 0 .0045 0 0 -1 50 363 215 0 300 444 434 0
 +.03 .0415 .01 0 1 0 0 0 1 51 434 213 0 425 363 371 0 -.03 .0415 .01 0 -1 0 .00
65 0 0 -1 50 371 155 0 361 434 427 0 +.03 -.001 .01 0 1 0 0 0 1 51 427 153 0 420
 371 340 0 +.03 -.001 .01 0 1 0 .0065 0 0 1 50 340 25 0 79 427 337 0 +0 0 .02 0
 0 1 1 0 0 17 255 0 622 255 255 0 687 244 0 0 +15 686 1406 0 251 321 0 17 251 0
 686 251 251 0 688 248 0 0 +17 688 0 689 688 688 0 251 248 0 0 -15 689 1387 0 68
8 18 0 17 687 0 322 687 687 0 255 244 0 0 -15 322 1411 0 687 310 0 83 3 619 .047
0588 .0470588 .0470588 84 32 617 bdd2d96d98486ab1135f831c7ef6b25515 615 1372 0 6
90 606 0 17 690 0 615 690 690 0 247 236 0 0 -17 247 0 607 247 247 0 690 236 0 0
 +15 607 1366 0 247 597 691 15 691 1367 0 243 597 0 17 243 0 691 243 243 0 335 2
40 0 0 +17 335 0 327 335 335 0 243 240 0 0 -83 3 612 .0470588 .0470588 .0470588
 84 32 610 eef525e3fee8c8942b2d194d43c8e7e283 3 603 .0470588 .0470588 .0470588 8
4 32 601 980ba8e6f30100856a124596f35fec0115 598 1333 0 692 589 0 17 692 0 598 69
2 692 0 239 228 0 0 -17 239 0 590 239 239 0 692 228 0 0 +15 590 1327 0 239 580 6
93 15 693 1328 0 235 580 0 17 235 0 693 235 235 0 694 232 0 0 +17 694 0 695 694
 694 0 235 232 0 0 -15 695 1309 0 694 18 689 83 3 594 .0470588 .0470588 .0470588
 84 32 592 7487b5831b104419d5fefefb235d52bc83 3 586 .0470588 .0470588 .0470588 8
4 32 584 0487f1516191f2c51ef079d3800534cd15 581 1294 0 696 571 0 17 696 0 581 69
6 696 0 231 220 0 0 -17 231 0 572 231 231 0 696 220 0 0 +15 572 1288 0 231 561 6
97 15 697 1289 0 227 561 0 17 227 0 697 227 227 0 698 224 0 0 +17 698 0 336 698
 698 0 227 224 0 0 -15 336 1270 0 698 18 699 15 699 75 0 46 18 700 17 46 0 699 6
6 61 44 701 83 0 81 +15 700 120 0 115 18 702 17 115 0 700 115 115 0 703 112 0 0
 +15 702 1231 0 704 18 695 17 704 0 702 704 704 0 219 216 0 0 -17 219 0 705 219
 219 0 704 216 0 0 +15 705 1250 0 219 541 0 17 703 0 706 703 703 0 115 112 0 0 -
15 706 143 0 703 420 0 17 66 0 699 64 46 57 81 22 0 78 -17 61 0 699 46 64 24 39
 96 0 701 +17 701 0 707 59 85 24 46 83 0 0 -17 81 0 80 73 78 44 66 22 0 85 +16 2
2 74 708 ?81 96 65 9 0 0 3 17 85 0 707 701 48 44 73 86 0 0 -15 707 45 0 85 339 0
 17 48 0 707 85 59 47 50 54 0 53 -17 59 0 707 48 701 49 56 60 0 0 -14 339 42 709
 ?420 79 707 7 337 -0 0 420 79 26 81 1 709 1920 313 339 415 0 345 424 710 81 1 4
15 1919 350 339 409 709 413 421 711 81 1 345 1918 313 79 413 0 342 709 712 81 1
 424 1922 313 420 421 0 709 431 713 83 3 710 .0470588 .0470588 .0470588 81 1 431
 1924 313 425 428 0 424 441 714 83 3 713 .0470588 .0470588 .0470588 81 1 441 192
6 313 432 435 0 431 448 715 83 3 714 .0470588 .0470588 .0470588 83 3 715 .047058
8 .0470588 .0470588 83 3 712 .0470588 .0470588 .0470588 81 1 409 1841 88 339 0 4
15 75 405 716 83 1 711 0 81 1 75 1840 88 68 0 0 110 409 717 84 32 716 ba04ac7994
d47b270c9048729b5b32f181 1 110 1839 88 38 0 0 90 75 718 84 32 717 875eb64979ae74
4cf54592191055919581 1 90 1838 88 65 0 0 87 110 719 84 32 718 dc0f4fa258042ab63e
28f28e75bcc9e684 32 719 5400fcf48465e5223f4156abb5d37a1c81 1 708 1829 88 22 0 0
 266 102 720 81 1 266 1828 88 264 0 0 278 708 721 81 1 102 1830 88 83 0 0 708 10
0 722 84 32 720 5beccfdcc4c992f096bc7c070b0b2aeb81 1 100 1831 88 96 0 0 102 82 7
23 84 32 722 bd790aa05e468048de44cf41544a3fcb81 1 82 1832 88 76 0 0 100 95 724 8
4 32 723 d36020be1e3a19d11a9cbe79e9090a3b81 1 95 1833 88 74 0 0 82 104 725 84 32
 724 6fafea01ab426340f4f0207241d7a70d81 1 104 1834 88 60 0 0 95 106 726 84 32 72
5 7551bb48d302c420b48899e1c4d6132c81 1 106 1835 88 54 0 0 104 89 727 84 32 726 7
cefa60048e643ead1a670373d85f90281 1 89 1836 88 86 0 0 106 87 728 84 32 727 eda49
9229cb2bb1d4d7656c51b530dc484 32 728 34e19da52943b139b9de0b99c494adf681 1 278 18
27 88 268 0 0 274 266 729 84 32 721 fd4eb3eb1a48d73f08dfd6a907808de281 1 274 182
6 88 272 0 0 262 278 730 84 32 729 6b0004863185fbe25f05d3ac5f1ec1e681 1 262 1825
 88 252 0 0 258 274 731 84 32 730 8443d8cbf1ef542303a03932b37431cf81 1 258 1824
 88 256 0 0 284 262 732 84 32 731 006d747567f6a30d83ac1a9df94bd1a984 32 732 cf5e
e84775ef4739126305b9b2554ebd17 64 0 699 61 66 13 35 65 0 0 -17 39 0 58 37 56 13
 61 96 0 64 -17 37 0 58 55 39 32 31 38 0 0 -17 55 0 58 56 37 49 52 74 0 59 +83 3
 577 .0470588 .0470588 .0470588 84 32 575 17953720d23293e36b18e5679178d0b683 3 5
67 .0470588 .0470588 .0470588 84 32 565 e323940b6a14b817ce4f1d67178d2b5d15 562 1
255 0 733 550 0 17 733 0 562 733 733 0 223 212 0 0 -17 223 0 551 223 223 0 733 2
12 0 0 +15 551 1249 0 223 541 705 83 3 557 .0470588 .0470588 .0470588 84 32 555
 d90e7d773b8479be11d4e90e2362045b83 3 546 .0470588 .0470588 .0470588 84 32 544 9
ce6e1f195abd778390d5db5fd2bb0c315 542 1092 0 215 533 734 17 215 0 542 215 215 0
 735 204 0 0 +15 734 1093 0 736 533 0 17 736 0 734 736 736 0 211 208 0 0 -17 211
 0 737 211 211 0 736 208 0 0 +15 737 1067 0 211 326 0 17 735 0 738 735 735 0 215
 204 0 0 -15 738 1059 0 735 332 0 83 3 538 .0470588 .0470588 .0470588 84 32 536
 3682f6933713a359491bda1e62dd7a8415 534 1037 0 207 523 739 17 207 0 534 207 207
 0 740 196 0 0 +15 739 1038 0 741 523 0 17 741 0 739 741 741 0 203 200 0 0 -17 2
03 0 333 203 203 0 741 200 0 0 +15 333 1012 0 203 326 742 15 742 902 0 187 326 7
43 17 187 0 742 187 187 0 744 184 0 0 +15 743 337 0 138 326 745 17 138 0 743 138
 138 0 746 131 0 0 +15 745 957 0 195 326 737 17 195 0 745 195 195 0 747 192 0 0
 +17 747 0 748 747 747 0 195 192 0 0 -15 748 983 0 747 513 0 17 746 0 450 746 74
6 0 138 131 0 0 -15 450 331 0 746 442 749 15 749 332 0 135 442 0 17 135 0 749 13
5 135 0 750 132 0 0 +17 750 0 751 750 750 0 135 132 0 0 -15 751 343 0 750 332 75
2 15 752 949 0 753 332 738 17 753 0 752 753 753 0 199 188 0 0 -17 199 0 524 199
 199 0 753 188 0 0 +15 524 982 0 199 513 748 17 744 0 754 744 744 0 187 184 0 0
 -15 754 928 0 744 505 0 17 740 0 391 740 740 0 207 196 0 0 -15 391 1004 0 740 3
32 755 15 755 894 0 756 332 757 17 756 0 755 756 756 0 191 180 0 0 -15 757 342 0
 758 332 751 17 758 0 757 758 758 0 130 127 0 0 -17 130 0 443 130 130 0 758 127
 0 0 +15 443 269 0 130 432 759 15 759 270 0 760 432 0 17 760 0 759 760 760 0 126
 123 0 0 -17 126 0 761 126 126 0 760 123 0 0 +15 761 245 0 126 300 0 17 191 0 51
4 191 191 0 756 180 0 0 +15 514 927 0 191 505 754 83 3 530 .0470588 .0470588 .04
70588 84 32 528 dc2c01e2caede03b8dbd0a7680bc6e2e83 3 519 .0470588 .0470588 .0470
588 84 32 517 416e457d76bcbdcf94d9351119f12cff83 3 510 .0470588 .0470588 .047058
8 84 32 508 202c5179c0f27145104a3efbdd66402a15 506 772 0 762 497 763 17 762 0 50
6 762 762 0 183 172 0 0 -15 763 773 0 179 497 0 17 179 0 763 179 179 0 764 176 0
 0 +17 764 0 765 764 764 0 179 176 0 0 -15 765 748 0 764 377 0 17 183 0 766 183
 183 0 762 172 0 0 +15 766 738 0 183 369 0 83 3 502 .0470588 .0470588 .0470588 8
4 32 500 bf0267ee198eb1567d1cd4dd26ce307015 498 717 0 767 488 768 17 767 0 498 7
67 767 0 175 164 0 0 -15 768 718 0 171 488 0 17 171 0 768 171 171 0 769 168 0 0
 +17 769 0 385 769 769 0 171 168 0 0 -15 385 693 0 769 377 770 15 770 583 0 771
 377 772 17 771 0 770 771 771 0 155 152 0 0 -15 772 483 0 773 377 774 17 773 0 7
72 773 773 0 151 143 0 0 -15 774 638 0 775 377 765 17 775 0 774 775 775 0 163 16
0 0 0 -17 163 0 776 163 163 0 775 160 0 0 +15 776 663 0 163 477 0 17 151 0 469 1
51 151 0 773 143 0 0 +15 469 477 0 151 459 777 15 777 478 0 778 459 0 17 778 0 7
77 778 778 0 147 144 0 0 -17 147 0 779 147 147 0 778 144 0 0 +15 779 489 0 147 3
69 780 15 780 628 0 167 369 766 17 167 0 780 167 167 0 781 156 0 0 +17 781 0 489
 781 781 0 167 156 0 0 -15 489 662 0 781 477 776 17 155 0 782 155 155 0 771 152
 0 0 +15 782 608 0 155 468 0 17 175 0 378 175 175 0 767 164 0 0 +15 378 683 0 17
5 369 783 15 783 573 0 159 369 784 17 159 0 783 159 159 0 785 148 0 0 +15 784 48
8 0 142 369 779 17 142 0 784 142 142 0 786 136 0 0 +17 786 0 460 786 786 0 142 1
36 0 0 -15 460 410 0 786 449 787 15 787 411 0 28 449 0 17 28 0 787 28 28 0 788 1
2 0 0 +17 788 0 789 788 788 0 28 12 0 0 -15 789 387 0 788 361 0 17 785 0 478 785
 785 0 159 148 0 0 -15 478 607 0 785 468 782 83 3 494 .0470588 .0470588 .0470588
 81 1 387 1858 88 377 0 381 380 485 790 84 32 492 e3a12381ac8415b01abc928c5b254e
1481 1 380 1857 88 369 0 373 462 387 791 84 32 790 51de85eaef5dd72ca943beb466f9c
85684 32 791 392a85954a8210a3d5e002557e9f0a2983 3 484 .0470588 .0470588 .0470588
 84 32 482 21597c18181fb745d7f3d5ea890cec4d83 3 473 .0470588 .0470588 .0470588 8
4 32 471 f4dcbccb7aed98c062774c56b7715b7483 3 465 .0470588 .0470588 .0470588 84
 32 463 5f9f4ee8ad0d1fe2351b76c208be546383 3 456 .0470588 .0470588 .0470588 83 1
 446 0 83 1 436 0 15 433 202 0 792 425 793 17 792 0 433 792 792 0 122 116 0 0 -1
5 793 203 0 93 425 0 17 93 0 793 93 93 0 794 29 0 0 +17 794 0 70 794 794 0 93 29
 0 0 -15 70 181 0 794 69 0 17 122 0 362 122 122 0 792 116 0 0 +15 362 208 0 122
 300 761 83 1 429 0 15 426 142 0 118 420 706 17 118 0 426 118 118 0 795 108 0 0
 +17 795 0 370 795 795 0 118 108 0 0 -15 370 148 0 795 361 789 81 1 343 1915 350
 341 405 342 347 413 796 83 1 416 0 83 1 796 0 84 32 410 c902925a852c795e4893851
582588a7a79 15 408 UGS/ObjectState84 32 402 fd5d8ea300de2b88588be5335415a0e279 2
1 400 SDL/TYSA_TRANSLUCENCY83 1 395 0 83 1 389 0 83 1 382 0 83 1 374 0 83 1 366
 0 83 1 358 0 83 1 353 0 79 15 349 SDL/TYSA_COLOUR83 3 346 .0470588 .0470588 .04
70588 83 3 331 .0470588 .0470588 .0470588 17 324 0 311 324 324 0 263 252 0 0 -17
 263 0 319 263 263 0 324 252 0 0 +15 319 1610 0 263 309 0 83 3 317 .0470588 .047
0588 .0470588 81 1 282 1822 88 280 0 0 270 284 797 84 32 286 7cac4f15216d4335736
ca5f2114ff50781 1 270 1821 88 260 0 0 238 282 798 84 32 797 6d7852286aaf6d673b15
7239c20e3a4d81 1 238 1820 88 228 0 0 222 270 799 84 32 798 44a58532c4fc521e4c2e0
a251a21a29681 1 222 1819 88 212 0 0 218 238 800 84 32 799 ea275f037f56f5a41ca178
33fb0fa18281 1 218 1818 88 216 0 0 246 222 801 84 32 800 00a9c4685e4144b0f4916d9
5b2532e6081 1 246 1817 88 236 0 0 234 218 802 84 32 801 f9b0bed517c903b81690fe34
c6e56c7d81 1 234 1816 88 232 0 0 242 246 803 84 32 802 194a08f637202ef8f431044a5
f21a6d581 1 242 1815 88 240 0 0 226 234 804 84 32 803 4c3d451892720d26861062b8ba
58037c81 1 226 1814 88 224 0 0 254 242 805 84 32 804 3dc3ef410ebcefd2ac45fb2b343
02ed781 1 254 1813 88 244 0 0 230 226 806 84 32 805 5365908b7a3b29300e366c37470e
e7bb81 1 230 1812 88 220 0 0 250 254 807 84 32 806 adb6bf167895536a56bb6428816e2
2ce81 1 250 1811 88 248 0 0 214 230 808 84 32 807 811df614564d55a6805abab7840898
c981 1 214 1810 88 204 0 0 198 250 809 84 32 808 875e9e238db303c83160101cf7f0839
b81 1 198 1809 88 188 0 0 202 214 810 84 32 809 248c12d406b5e593f17297f67276484d
81 1 202 1808 88 200 0 0 190 198 811 84 32 810 9b4081a9ce6d2ca202ed205c550485638
1 1 190 1807 88 180 0 0 210 202 812 84 32 811 20e40f8b692d9a13b11e79cbed5def2c81
 1 210 1806 88 208 0 0 194 190 813 84 32 812 b0d0e4dbd1760770cbb27ef076c6041f81
 1 194 1805 88 192 0 0 186 210 814 84 32 813 47f1b257619916bb812d57c61442ae8281
 1 186 1804 88 184 0 0 206 194 815 84 32 814 96ba0b8fea2e73ea32908338366b1c6781
 1 206 1803 88 196 0 0 174 186 816 84 32 815 ade29994fce5923def9a388a554e349a81
 1 174 1802 88 164 0 0 182 206 817 84 32 816 5e73c0551b63b124ce1506e7d9e3914e81
 1 182 1801 88 172 0 0 166 174 818 84 32 817 4a32c329e6e1a155fe87a88400502dcd81
 1 166 1800 88 156 0 0 170 182 819 84 32 818 3317c3bb2cf5c0a0599be17a0718374581
 1 170 1799 88 168 0 0 158 166 820 84 32 819 af83d48dad873dc33ed0bf4415e045e081
 1 158 1798 88 148 0 0 178 170 821 84 32 820 fe489968fb5957060a38222361d59a2f81
 1 178 1797 88 176 0 0 162 158 822 84 32 821 6995117a5f9e5b617de397f329b4c0fa81
 1 162 1796 88 160 0 0 154 178 823 84 32 822 f428808bc262f7d2e4039c996e55e08881
 1 154 1795 88 152 0 0 150 162 824 84 32 823 f14b553966cc5d1840444ec7d7206cc481
 1 150 1794 88 143 0 0 146 154 825 84 32 824 902252fb3417044b5ef82d0c89349fa481
 1 146 1793 88 144 0 0 141 150 826 84 32 825 66bcced83cd92a8661dac81da1a6a8fd81
 1 141 1792 88 136 0 0 27 146 827 84 32 826 51e00d64d9e50a38caf7a8c4bf55445481 1
 27 1791 88 12 0 0 134 141 828 84 32 827 d3c06c40ab6ef3c8368e7381ed7f3f0e81 1 13
4 1790 88 132 0 0 129 27 829 84 32 828 ea10354906862a4ac29b5b7f9c30bb8881 1 129
 1789 88 127 0 0 137 134 830 84 32 829 8fec085ec6b8e67a999e9c64f993823e81 1 137
 1788 88 131 0 0 125 129 831 84 32 830 ad3b8868411b69efda166f5d09b38e7581 1 125
 1787 88 123 0 0 121 137 832 84 32 831 561d8b21f022ded2fa9f7afc97d92c7b81 1 121
 1786 88 116 0 0 92 125 833 84 32 832 51e0b89f1187a0b40ed9bc10183399fe81 1 92 17
85 88 29 0 0 117 121 834 84 32 833 7660b859c408474f6d786851cfe795d981 1 117 1784
 88 108 0 0 114 92 835 84 32 834 d8419f42efee90c34b1b2483c6c57b7081 1 114 1783 8
8 112 0 0 0 117 836 84 32 835 9e716ca215251907a728018c807054a784 32 836 64442a4b
fda5b9de9c5dd7fdb9fd864a84 32 91 d893fea4f07c4018b496cd1269af699419 19 92 0 3 0
 11 7 S74 20 17 6 0 0 837 663 15 673 676 5 0 0 0 0 0 0 0 0 0 0 0 0 0 0 81 2 837
 1770 838 3 0 15 0 0 839 840 81 1 15 1895 841 3 837 5 0 0 842 80 1 841 843 844 9
000 0 0 0 0 3 5 0 0 0 FFTFFFFFFFFFFF1 82 1 842 -1 79 19 844 UG2/PMARK_ATTRIBUTE8
0 2 838 845 846 8004 0 0 0 0 3 5 0 0 0 FFTFFFFFFFFFFF2 3 83 1 839 7830.64 84 8 8
40 Kg/Cu M 79 16 846 SDL/TYSA_DENSITY80 1 14 847 848 9000 0 0 0 0 3 5 0 0 0 FFTF
FFFFFFFFFF1 82 1 16 210 79 24 848 UG2/BODY_COLOR_ATTRIBUTE1 0 
