**ABCDEFGHIJKLMNOPQRSTUVWXYZabcdefghijklmnopqrstuvwxyz**************************
**PARASOLID !"#$%&'()*+,-./:;<=>?@[\]^_`{|}~0123456789**************************
**PART1;
MC=x64/Windows NT;
MC_MODEL=genuineintel family 6 model 14 stepping 3, intel(r) core(tm) i7-6700 cpu @ 3.40ghz;
MC_ID=robotic-pc;
OS=windows nt (x64);
OS_RELEASE=6.1 windows 7 professional (build 7601) service pack 1;
FRU=mdc_ugii_v7.0_djl_can_vrh;
APPL=unigraphics;
SITE=unknown;
USER=Robotic;
FORMAT=text;
GUISE=transmit;
KEY=small servo;
FILE=C:\Users\Robotic\Desktop\robot_solid\small servo.x_t;
DATE=1-feb-2018;
**PART2;
SCH=SCH_2900123_28101;
USFLD_SIZE=0;
**PART3;
**END_OF_HEADER*****************************************************************
T51 : TRANSMIT FILE created by modeller version 290012323 SCH_2900123_28101_1300
6203 0 10 19 CCCCCCCI4 mesh1006 0 I8 polyline1008 0 CCCCCCCCCCZ1 2 0 0 0 0 0 0 0
 0 0 1e3 1e-8 0 0 0 1 0 1 2 11 255 2 1 0 1 3 4 1 0 0 0 0 12 33 CCCCCCI4 mesh1006
 0 I8 polyline1008 0 CCCCCCCDI5 owner1040 0 CCCCCCI13 boundary_mesh1006 0 I17 bo
undary_polyline1008 0 CCCA16 index_map_offset0 0 1 dA9 index_map82 0 A17 node_id
_index_map82 0 A20 schema_embedding_map82 0 A5 child12 0 A14 lowest_node_id0 0 1
 dZ3 1244 5 6 0 0 0 0 0 0 1e3 1e-8 2 0 0 1 0 1 1 7 8 9 10 0 0 11 12 13 0 0 0 0 0
 0 100 255 4 2 2 0 0 .0038125420169427 .999992732235275 -3537282636726865e-32 -.
999992732235274 .003812542016942685 298506698118673e-31 299853132510054e-31 3525
87623529973e-31 1 -.0516845431814203 .02102689015082105 .1110000000000906 1 3 ?8
1 255 1 5 1244 14 3 15 0 0 0 16 70 11 CI9 list_type0 0 1 uI10 notransmit0 0 1 lC
CCDCCDI12 finger_index0 0 1 dI12 finger_block1012 0 CZ6 0 4 T3 0 0 6 20 1 17 17
 13 255 7 91 0 3 0 18 0 0 19 0 50 255 8 86 0 20 21 0 0 +-367087878044419e-33 .01
21 .02125 1 303378411606958e-31 0 -303378411606958e-31 1 0 31 255 9 1069 0 22 23
 0 0 +.00605 .01305 .02785 0 0 1 1 0 0 5e-4 29 255 10 676 0 13 24 0 .02321 55e-5
 .0184 19 8 CCCCCCCA5 owner12 0 Z11 1 0 3 19 0 25 V0 16 255 12 416 26 ?27 0 28 2
9 0 0 3 18 255 13 674 0 30 0 31 10 ?3 17 255 30 0 32 33 34 13 35 36 0 37 -18 31
 671 0 33 13 38 24 ?3 17 33 0 32 39 30 31 37 40 0 41 -18 38 665 0 34 31 42 43 ?3
 29 24 673 0 31 43 10 .02321 .01155 .0184 29 43 667 0 38 44 24 .02321 55e-5 .016
8 29 44 299 0 42 45 43 .00605 0 .02125 18 42 296 0 46 38 47 44 ?3 29 45 295 0 47
 48 44 0 .00605 .02125 18 47 292 0 49 42 50 45 ?3 29 48 139 0 50 51 45 -22626661
73581785e-34 55e-5 .0184 18 50 137 0 52 47 53 48 ?3 29 51 67 0 54 55 48 .02321 .
0121 0 18 54 54 0 56 57 58 51 ?3 29 55 68 0 58 59 51 .02321 0 0 18 58 56 0 60 54
 61 55 ?3 29 59 69 0 61 62 55 481482486096809e-49 0 0 18 61 58 0 63 58 64 59 ?3
 29 62 70 0 64 65 59 -367087878044419e-33 .0121 0 18 64 60 0 66 61 67 62 ?3 29 6
5 17 0 53 68 62 .02321 .0121 .02125 18 53 15 0 69 50 70 65 ?3 29 68 12 0 70 71 6
5 .02321 0 .02125 18 70 10 0 72 53 73 68 ?3 29 71 7 0 73 74 68 481482486096809e-
49 0 .02125 18 73 5 0 75 70 57 71 ?3 29 74 4 0 57 76 71 -367087878044419e-33 .01
21 .02125 18 57 2 0 77 73 54 74 ?3 29 76 244 0 78 79 74 -1408212606862402e-34 .0
1155 .0184 18 78 199 0 80 81 82 76 ?3 29 79 245 0 82 83 76 -1408212606862402e-34
 .01155 .0168 18 82 197 0 84 78 85 79 ?3 29 83 246 0 85 86 79 -2262666173581785e
-34 55e-5 .0168 18 85 195 0 87 82 88 83 ?3 29 86 248 0 67 89 83 -.004645 .01155
 .0184 18 67 200 0 90 64 91 86 ?3 29 89 249 0 91 92 86 -.004645 .01155 .0168 18
 91 198 0 93 67 94 89 ?3 29 92 250 0 94 95 89 -.004645 55e-5 .0168 18 94 196 0 9
6 91 81 92 ?3 29 95 251 0 81 97 92 -.004645 55e-5 .0184 18 81 194 0 98 94 78 95
 ?3 29 97 365 0 88 99 95 .00605 .0121 .02125 18 88 342 0 100 85 101 97 ?3 29 99
 776 0 102 103 97 .02321 .01155 .0168 18 102 725 0 39 104 0 99 ?3 29 103 779 0 1
01 105 99 .027855 .01155 .0184 18 101 730 0 106 88 107 103 ?3 29 105 780 0 107 1
08 103 .027855 .01155 .0168 18 107 729 0 109 101 110 105 ?3 29 108 781 0 110 111
 105 .027855 55e-5 .0168 18 110 726 0 112 107 104 108 ?3 29 111 782 0 104 0 108
 .027855 55e-5 .0184 18 104 731 0 113 110 102 111 ?3 17 113 0 114 115 106 104 11
6 117 0 118 +15 255 114 752 0 115 119 0 17 115 0 114 109 113 110 120 121 0 122 +
17 106 0 114 113 109 101 123 124 0 125 +17 116 0 126 127 118 101 113 117 0 0 -16
 117 723 128 ?113 129 124 130 0 0 3 17 118 0 126 116 37 104 131 129 0 120 -15 12
6 748 0 37 132 0 17 37 0 126 118 127 13 33 40 0 131 +17 131 0 133 35 120 13 118
 129 0 0 +16 129 697 134 ?131 135 117 136 0 0 3 17 120 0 133 131 122 104 115 121
 0 0 -15 133 736 0 35 137 0 17 122 0 133 120 35 110 138 139 0 0 -16 121 717 140
 ?115 141 40 142 0 0 3 81 1 140 803 143 121 0 0 128 134 144 16 141 719 145 ?109
 124 121 146 0 0 3 16 40 711 147 ?37 121 148 149 0 0 3 30 255 142 774 0 121 150
 146 0 +.027855 55e-5 .0184 0 -338813178901721e-30 -1 31 150 962 0 151 152 142 0
 +.025855 .00605 .0184 0 0 1 -183697019872103e-30 -1 0 .001 30 146 773 0 141 142
 153 0 +.027855 55e-5 .0168 0 1 -630808536718839e-30 30 153 772 0 124 146 130 0
 +.027855 .01155 .0168 0 0 1 16 124 721 154 ?106 117 141 153 0 0 3 30 130 771 0
 117 153 155 0 +.027855 .01155 .0184 0 -1 0 30 155 770 0 36 130 156 0 +.02321 55
e-5 .0184 0 -338813178901721e-30 -1 16 36 693 157 ?35 158 159 155 0 0 3 30 156 7
69 0 158 155 160 0 +.02321 55e-5 .0168 0 1 -630808536718839e-30 16 158 699 161 ?
162 148 36 156 0 0 3 30 160 768 0 148 156 149 0 +.02321 .01155 .0168 0 0 1 16 14
8 705 163 ?41 40 158 160 0 0 3 30 149 767 0 40 160 164 0 +.02321 .01155 .0184 0
 -1 0 30 164 766 0 135 149 165 0 +.027855 .01155 .0184 -1 0 0 16 135 715 166 ?12
7 167 129 164 0 0 3 30 165 765 0 167 164 168 0 +.027855 .01155 .0168 -1 0 0 16 1
67 709 169 ?170 139 135 165 0 0 3 30 168 764 0 139 165 136 0 +.027855 55e-5 .016
8 -1 0 0 16 139 703 171 ?138 172 167 168 0 0 3 30 136 763 0 129 168 173 0 +.0278
55 55e-5 .0184 -1 0 0 31 173 644 0 174 136 175 0 +-.002645 .00605 .0168 0 0 1 -1
83697019872103e-30 -1 0 .001 16 174 612 176 ?177 178 172 173 0 0 3 31 175 643 0
 172 173 179 0 +-.002645 .00605 .0184 0 0 1 -183697019872103e-30 -1 0 .001 16 17
2 616 180 ?181 174 139 175 0 0 3 31 179 505 0 182 175 183 0 +.00605 .00605 .0293
5 0 0 1 1 0 0 .0089 16 182 478 184 ?185 186 178 179 0 0 3 31 183 504 0 178 179 1
87 0 +.00605 .00605 .02785 0 0 1 1 0 0 .0089 16 178 476 188 ?189 182 174 183 0 0
 3 31 187 450 0 186 183 29 0 +.00605 .00605 .02785 0 0 1 1 0 0 .0019333514881864
85 16 186 431 190 ?191 192 182 187 0 0 3 31 29 449 0 12 187 193 0 +.00605 .00605
 .02485 0 0 1 1 0 0 .001933351488186485 31 193 362 0 194 29 195 0 +.00605 .00605
 .02485 0 0 1 1 0 0 .00605 16 194 340 196 ?197 198 192 193 0 0 3 31 195 361 0 19
2 193 199 0 +.00605 .00605 .02125 0 0 1 1 0 0 .00605 16 192 328 200 ?201 194 186
 195 28 202 3 30 199 243 0 203 195 204 0 +-.004645 55e-5 .0184 -300926553810506e
-46 -338813178901721e-30 -1 16 203 162 205 ?206 207 208 199 0 0 3 30 204 242 0 2
07 199 209 0 +-.004645 55e-5 .0168 776775969744894e-32 1 -630808536718839e-30 16
 207 166 210 ?211 212 203 204 0 0 3 30 209 241 0 212 204 213 0 +-.004645 .01155
 .0168 0 0 1 16 212 170 214 ?215 216 207 209 0 0 3 30 213 240 0 216 209 217 0 +-
.004645 .01155 .0184 -776775969744894e-32 -1 0 16 216 174 218 ?219 220 212 213 0
 0 3 30 217 239 0 198 213 221 0 +-2262666173581785e-34 55e-5 .0184 -300926553810
506e-46 -338813178901721e-30 -1 16 198 178 222 ?223 224 194 217 0 0 3 30 221 238
 0 224 217 225 0 +-2262666173581785e-34 55e-5 .0168 776775969744894e-32 1 -63080
8536718839e-30 16 224 182 226 ?227 228 198 221 0 0 3 30 225 237 0 228 221 229 0
 +-1408212606862402e-34 .01155 .0168 0 0 1 16 228 186 230 ?231 208 224 225 0 0 3
 30 229 236 0 208 225 232 0 +-1408212606862402e-34 .01155 .0184 -776775969744894
e-32 -1 0 16 208 190 233 ?234 203 228 229 0 0 3 30 232 235 0 235 229 236 0 +-.00
4645 .01155 .0184 1 0 0 16 235 172 237 ?80 238 220 232 0 0 3 30 236 234 0 238 23
2 239 0 +-.004645 .01155 .0168 1 0 0 16 238 168 240 ?84 241 235 236 0 0 3 30 239
 233 0 241 236 242 0 +-.004645 55e-5 .0168 1 0 0 16 241 164 243 ?87 244 238 239
 0 0 3 30 242 232 0 220 239 245 0 +-.004645 55e-5 .0184 1 0 0 16 220 176 246 ?24
7 235 216 242 0 0 3 30 245 9 0 248 242 249 0 +-367087878044419e-33 .0121 .02125
 303378411606958e-31 -1 0 16 248 6 250 ?251 252 253 245 253 253 3 30 249 14 0 25
4 245 255 0 +0 0 .02125 1 0 0 16 254 11 256 ?257 258 252 249 252 252 3 30 255 19
 0 258 249 259 0 +.02321 0 .02125 0 1 0 16 258 16 260 ?69 261 254 255 0 0 3 30 2
59 22 0 262 255 263 0 +.02321 .0121 .02125 -1 -149480695904938e-30 0 16 262 20 2
64 ?100 265 261 259 261 261 3 30 263 66 0 244 259 266 0 +-367087878044419e-33 .0
121 0 303378411606958e-31 -1 0 16 244 52 267 ?268 269 241 263 0 0 3 30 266 65 0
 269 263 270 0 +0 0 0 1 0 0 16 269 50 271 ?60 272 244 266 0 0 3 30 270 64 0 272
 266 273 0 +.02321 0 0 0 1 0 16 272 48 274 ?56 275 269 270 0 0 3 30 273 63 0 275
 270 276 0 +.02321 .0121 0 -1 -149480695904938e-30 0 16 275 46 277 ?66 253 272 2
73 0 0 3 30 276 87 0 278 273 279 0 +.02321 .0121 .02125 0 0 -1 16 278 71 280 ?28
1 282 265 276 0 0 3 30 279 88 0 282 276 283 0 +.02321 0 .02125 0 0 -1 16 282 72
 284 ?285 286 278 279 0 0 3 30 283 89 0 286 279 287 0 +481482486096809e-49 0 .02
125 0 0 -1 16 286 73 288 ?289 202 282 283 0 0 3 30 287 90 0 265 283 23 0 +-36708
7878044419e-33 .0121 .02125 0 0 -1 16 265 74 290 ?291 278 262 287 0 0 3 31 23 10
62 0 292 287 9 0 +.00605 -.000950000000000015 .02785 0 0 1 1 0 0 5e-4 16 292 112
2 293 ?294 22 295 23 0 0 3 81 1 293 1178 143 292 0 0 296 297 298 17 294 0 299 29
4 294 0 300 292 0 0 +16 22 1094 296 ?301 151 292 9 0 0 3 16 295 1099 297 ?302 29
2 303 304 0 0 3 81 1 297 1179 143 295 0 0 293 305 306 17 302 0 307 302 302 0 308
 295 0 0 +16 303 1127 309 ?310 295 0 311 0 0 3 31 304 1161 0 295 0 311 0 +.00605
 .01305 .02935 0 0 1 1 0 0 5e-4 31 311 1159 0 303 304 152 0 +.00605 -.0009500000
00000015 .02935 0 0 1 -1 1224646799147352e-31 0 5e-4 31 152 963 0 159 311 150 0
 +.025855 .00605 .0168 0 0 1 -183697019872103e-30 -1 0 .001 16 159 907 312 ?313
 36 151 152 0 0 3 81 1 312 976 143 159 0 0 314 315 316 17 313 0 317 313 313 0 31
8 159 0 0 +16 151 911 314 ?319 159 22 150 0 0 3 81 1 314 975 143 151 0 0 320 312
 321 17 319 0 322 319 319 0 323 151 0 0 +15 322 919 0 319 324 0 17 323 0 325 323
 323 0 319 151 0 0 -15 325 888 0 323 132 126 14 255 132 745 326 ?119 327 325 7 3
28 -0 0 119 327 25 81 1 326 1235 329 132 330 0 331 332 333 14 119 749 332 ?324 1
32 114 7 334 +0 0 324 132 25 14 327 741 331 ?132 335 336 7 337 -0 0 132 335 25 5
0 328 760 0 132 334 337 0 +.027855 .01155 .0184 0 0 -1 -1 0 0 13 25 3 0 0 0 0 0
 0 11 18 14 18 78 338 ?339 0 340 7 341 -0 0 339 0 25 81 1 338 1189 329 18 342 0
 0 343 344 14 339 311 343 ?345 18 346 7 347 +345 348 345 18 25 15 340 77 0 56 18
 32 50 341 84 0 18 349 21 0 +.02321 0 .02125 -1 0 0 0 0 1 50 349 83 0 350 351 34
1 0 +.02321 .0121 .02125 149480695904938e-30 -1 0 1 149480695904938e-30 0 50 21
 85 0 352 341 8 0 +0 0 .02125 0 1 0 0 0 1 14 352 80 353 ?350 20 354 7 21 -0 0 35
0 20 25 81 1 353 1197 329 352 355 0 356 357 358 14 350 76 357 ?348 352 359 7 349
 -0 0 348 352 25 14 20 82 356 ?352 345 360 7 8 -0 0 352 345 25 15 354 79 0 60 35
2 0 17 60 0 354 361 289 58 63 269 0 285 +17 361 0 354 362 60 70 285 282 0 363 -1
7 289 0 354 60 364 61 365 286 0 268 +17 63 0 366 367 368 61 60 269 0 289 -17 285
 0 340 56 363 58 361 282 0 368 +17 56 0 340 369 285 54 368 272 0 281 +17 363 0 3
40 285 369 70 69 258 0 0 -17 368 0 366 63 370 58 56 272 0 0 -15 366 45 0 367 371
 0 17 370 0 366 368 367 54 66 275 0 0 -17 367 0 366 370 63 64 268 244 0 0 -17 66
 0 359 372 281 64 370 275 0 291 +15 359 75 0 66 350 0 17 372 0 359 373 66 57 291
 265 0 374 -17 281 0 359 66 375 54 369 278 0 370 +17 291 0 376 268 374 64 372 26
5 0 367 +15 376 81 0 268 20 0 17 268 0 376 365 291 61 367 244 0 0 +17 374 0 376
 291 377 57 251 248 0 0 -17 377 0 376 374 365 47 75 253 0 251 -17 251 0 346 378
 77 47 374 248 0 201 +15 346 315 0 378 339 0 17 378 0 346 77 251 88 201 192 0 37
9 -17 77 0 346 251 378 57 373 261 0 372 +17 201 0 380 381 379 47 378 192 0 0 +15
 380 349 0 201 382 0 17 381 0 380 379 201 42 49 28 0 0 +17 379 0 380 201 381 88
 46 202 0 0 +17 46 0 383 72 100 42 379 202 0 362 -16 202 304 384 ?379 28 286 195
 192 28 3 81 1 384 400 143 202 0 0 385 386 387 16 28 309 386 ?381 12 202 195 202
 192 3 81 1 386 401 143 28 0 0 384 200 388 80 255 1 143 389 390 9000 1 1 1 1 1 1
 1 1 0 FFFFTFTFFFFFFF3 81 1 200 402 143 192 0 0 386 391 392 84 255 32 388 5cea2f
501071fd65db25697fdbf2d34b81 1 391 403 143 350 0 393 200 394 395 84 32 392 e1c45
ccc318767ca896548bf9db8ff5b81 1 393 1198 396 350 391 357 355 397 398 81 1 394 40
4 143 20 0 399 391 400 401 84 32 395 958aaa25141b0968d736d364ba25868b81 1 399 11
94 396 20 394 356 402 355 403 81 1 400 405 143 345 0 402 394 404 405 84 32 401 a
36658bf2574a19d6ab1167eef0c4bf814 345 306 406 ?20 339 407 7 347 +348 339 20 339
 25 81 1 402 1192 396 345 400 406 408 399 409 81 1 404 406 143 352 0 355 400 410
 411 84 32 405 158f45f451df7e4ff1554678ab875ae381 1 355 1196 396 352 404 353 399
 393 412 81 1 410 408 143 382 0 413 404 414 415 84 32 411 6f9b51a3c96cee1ea880c9
3b007b870f14 382 345 416 ?417 418 419 7 420 -0 0 417 418 25 81 1 413 1214 396 38
2 410 416 421 422 423 81 1 414 409 143 339 0 408 410 424 425 84 32 415 8f2044caa
88df675681b44e6475029b381 1 408 1190 396 339 414 343 342 402 426 81 1 424 410 14
3 348 0 397 414 26 427 84 32 425 afa131725f0d063f863e77ac4c86e12114 348 24 428 ?
371 350 383 7 347 +339 345 371 350 25 81 1 397 1200 396 348 424 428 393 429 430
 81 1 26 461 143 12 0 0 424 431 432 84 32 427 7a13a52e313576d80a61ca13c56c13e681
 1 431 463 143 417 0 422 26 184 433 84 32 432 11e164fb6d9b3753fe23550cfd7d6ebe14
 417 350 434 ?435 382 436 7 437 +0 0 435 382 25 81 1 422 1216 396 417 431 434 41
3 438 439 81 1 184 515 143 182 0 0 431 190 440 84 32 433 437fc5109236358736bda69
35564b62a81 1 190 516 143 186 0 0 184 188 441 84 32 440 072674cee5d7786ca6756917
4b12a5b881 1 188 517 143 178 0 0 190 442 443 84 32 441 c412a67578cc6b15c5dda8d71
37a089481 1 442 518 143 435 0 438 188 444 445 84 32 443 ffb9f334ed03c2a0ea88870a
4d0c85d214 435 433 446 ?447 417 448 7 449 -0 0 447 417 25 81 1 438 1218 396 435
 442 446 422 450 451 81 1 444 521 143 447 0 450 442 180 452 84 32 445 8ff6b1b72e
ef25bbeffeaea0eb0d190814 447 485 453 ?454 435 455 7 456 -0 0 454 435 25 81 1 450
 1220 396 447 444 453 438 457 458 81 1 180 658 143 172 0 0 444 176 459 84 32 452
 dcd282a77f134170e0550351389f9a3381 1 176 659 143 174 0 0 180 460 461 84 32 459
 acd7d35d60f637388bef6b3c4215ad4981 1 460 660 143 462 0 463 176 464 465 84 32 46
1 f575e9255c7c880ad52bf4c21e07399214 462 214 466 ?418 467 468 7 469 +0 0 418 467
 25 81 1 463 1210 396 462 460 466 470 421 471 81 1 464 661 143 472 0 473 460 474
 475 84 32 465 db1a6285c816c2195b59f9efe07544f314 472 206 476 ?467 477 478 7 479
 +0 0 467 477 25 81 1 473 1206 396 472 464 476 480 470 481 81 1 474 662 143 482
 0 483 464 154 484 84 32 475 042ebe7719d841827b1d5e654829e68f14 482 620 485 ?137
 486 487 7 488 -0 0 137 486 25 81 1 483 1226 396 482 474 485 489 490 491 81 1 15
4 793 143 124 0 0 474 147 492 84 32 484 6bbd08ea0f183115a57e65e7b2ba3c6b81 1 147
 794 143 40 0 0 154 145 493 84 32 492 979056bd20b4605dce703662c4e5acc581 1 145 7
95 143 141 0 0 147 163 494 84 32 493 50cfbf39f7d402d5384b5a9823a4a9e681 1 163 79
6 143 148 0 0 145 166 495 84 32 494 e68a9eaf9f00b140c9910984d4f0076c81 1 166 797
 143 135 0 0 163 161 496 84 32 495 6ec4eb7b27dc500fd96adc6e7d21ea0681 1 161 798
 143 158 0 0 166 169 497 84 32 496 043028e2d0fa9b0adf73d3d80c77281e81 1 169 799
 143 167 0 0 161 157 498 84 32 497 702229ea4673b201a0c07e1d5c7a87ff81 1 157 800
 143 36 0 0 169 171 499 84 32 498 ff688ea52f5bb9b22dd1f0dc2780fbbf81 1 171 801 1
43 139 0 0 157 128 500 84 32 499 1f471e89c55f859e95961c97eabc6cfd81 1 128 802 14
3 117 0 0 171 140 501 84 32 500 35f3deb27f555af73457e42871f156b284 32 501 452e7e
ab0246cbf977229011993fa59480 1 396 502 503 8015 0 0 0 0 3 5 0 0 0 FFFFTFFFFFFFFF
2 81 1 485 1227 329 482 483 0 504 505 506 81 1 489 1224 396 486 305 504 457 483
 507 81 1 490 1228 396 137 508 505 483 509 510 83 255 1 491 0 14 137 733 505 ?33
5 482 133 7 511 -0 0 335 482 25 81 1 508 808 143 137 0 490 512 320 513 81 1 505
 1229 329 137 490 0 485 514 515 81 1 509 1230 396 335 516 514 490 517 518 83 1 5
10 0 14 335 737 514 ?327 137 317 7 519 -0 0 327 137 25 81 1 516 978 143 335 0 50
9 315 520 521 81 1 514 1231 329 335 509 0 505 331 522 81 1 517 1232 396 327 320
 331 509 330 523 83 1 518 0 81 1 320 810 143 327 0 517 508 314 524 81 1 331 1233
 329 327 517 0 514 326 525 81 1 330 1234 396 132 315 326 517 526 527 83 1 523 0
 81 1 315 977 143 132 0 330 312 516 528 81 1 526 1236 396 119 512 332 330 529 53
0 83 1 527 0 81 1 512 807 143 119 0 526 531 508 532 81 1 332 1237 329 119 526 0
 326 533 534 81 1 529 1238 396 324 520 533 526 535 536 83 1 530 0 14 324 915 533
 ?537 119 538 7 539 -0 0 537 119 25 81 1 520 979 143 324 0 529 516 309 540 81 1
 533 1239 329 324 529 0 332 541 542 81 1 535 1240 396 537 543 541 529 544 545 83
 1 536 0 14 537 1136 541 ?546 324 547 7 548 -0 0 546 324 25 81 1 543 1183 143 53
7 0 535 549 0 550 81 1 541 1241 329 537 535 0 533 551 552 81 1 544 1242 396 546
 549 551 535 0 553 83 1 545 0 14 546 1108 551 ?0 537 307 7 554 -0 0 0 537 25 81
 1 549 1182 143 546 0 544 555 543 556 81 1 551 1243 329 546 544 0 541 0 557 83 1
 553 0 80 1 329 0 558 8001 0 0 0 0 3 5 0 0 0 FFFFTFTFFFFFFF2 83 3 557 1 .6 0 79
 255 15 558 SDL/TYSA_COLOUR81 1 555 1181 143 454 0 457 305 549 559 84 32 556 9ae
030e0f23eac94ea2ba72efdd6769614 454 490 560 ?486 447 561 7 562 +0 0 486 447 25 8
1 1 457 1222 396 454 555 560 450 489 563 81 1 305 1180 143 486 0 489 297 555 564
 84 32 559 d1f9eb5b44b43d51f10ac3a91d955ee914 486 494 504 ?482 454 565 7 566 -0
 0 482 454 25 84 32 564 195affca2e54e4a84950879f5bdb3e3981 1 504 1225 329 486 48
9 0 560 485 567 15 565 1067 0 301 486 299 50 566 502 0 486 562 456 0 +.00605 .00
605 .02785 0 0 1 1 0 0 50 562 503 0 454 488 566 0 +.00605 .00605 .02935 0 0 1 1
 0 0 51 255 456 501 0 447 566 449 0 -.00605 .00605 .02935 0 0 -1 .0089 -1 0 0 51
 449 446 0 435 456 437 0 -.00605 .00605 .02785 0 0 -1 .001933351488186485 -1 0 0
 50 437 360 0 417 449 420 0 +.00605 .00605 .02485 0 0 1 1 0 0 51 420 358 0 382 4
37 568 0 -.00605 .00605 .02485 0 0 -1 .00605 -1 0 0 50 568 231 0 418 420 469 0 +
-.004645 1790770661087485e-51 633079052364072e-65 1 -776775969744894e-32 -274608
3602501325e-47 776775969744894e-32 1 0 14 418 218 569 ?382 462 570 7 568 -0 0 38
2 462 25 50 469 229 0 462 568 571 0 +-.004645 .01155 .0184 0 0 1 1 0 0 50 571 22
8 0 467 469 479 0 +-.004645 .01155 .0168 0 1 0 0 0 1 14 467 210 572 ?462 472 573
 7 571 +0 0 462 472 25 50 479 227 0 472 571 574 0 +-.004645 55e-5 .0168 0 -63080
8536718839e-30 -1 0 1 -630808536718839e-30 50 574 226 0 477 479 347 0 +-.004645
 55e-5 .0184 0 -1 338813178901721e-30 0 -338813178901721e-30 -1 14 477 202 575 ?
472 371 576 7 574 +0 0 472 371 25 50 347 25 0 348 574 351 0 +0 0 .02125 0 0 1 1
 0 0 50 351 62 0 371 347 349 0 +0 0 0 0 0 1 1 0 0 14 371 42 577 ?477 348 366 7 3
51 -0 0 477 348 25 81 1 577 1203 329 371 429 0 428 575 578 81 1 429 1202 396 371
 579 577 397 480 580 81 1 428 1201 329 348 397 0 357 577 581 81 1 575 1205 329 4
77 480 0 577 476 582 83 3 578 1 .6 0 81 1 480 1204 396 477 583 575 429 473 584 8
1 1 476 1207 329 472 473 0 575 572 585 83 3 582 1 .6 0 81 1 572 1209 329 467 470
 0 476 466 586 83 3 585 1 .6 0 81 1 470 1208 396 467 587 572 473 463 588 81 1 46
6 1211 329 462 463 0 572 569 589 83 3 586 1 .6 0 81 1 569 1213 329 418 421 0 466
 416 590 83 3 589 1 .6 0 81 1 421 1212 396 418 591 569 463 413 592 81 1 416 1215
 329 382 413 0 569 434 593 83 3 590 1 .6 0 81 1 434 1217 329 417 422 0 416 446 5
94 83 3 593 1 .6 0 81 1 446 1219 329 435 438 0 434 453 595 83 3 594 1 .6 0 81 1
 453 1221 329 447 450 0 446 560 596 83 3 595 1 .6 0 81 1 560 1223 329 454 457 0
 453 504 597 83 3 596 1 .6 0 83 3 597 1 .6 0 81 1 591 277 143 418 0 421 587 583
 598 83 1 592 0 81 1 587 275 143 467 0 470 205 591 599 81 1 583 278 143 477 0 48
0 591 196 600 84 32 598 064d36ca34dea8c5a33ae7397d31bc1481 1 196 393 143 194 0 0
 583 256 601 84 32 600 a341c4d5f9b9ee7807826caff33e0dda81 1 256 394 143 254 0 0
 196 602 603 84 32 601 f961e95d5680d284f9a25ca2a66c7ac381 1 602 395 143 253 0 0
 256 604 605 84 32 603 8f937001937a004df30eea83ceaaa19c16 253 293 602 ?75 248 27
5 245 248 248 3 81 1 604 396 143 261 0 0 602 250 606 84 32 605 4d7af8bef5d154d38
0afd9c924af738416 261 301 604 ?77 262 258 259 262 262 3 81 1 250 397 143 248 0 0
 604 264 607 84 32 606 da15b6edac6e84f35668254bfef8492081 1 264 398 143 262 0 0
 250 385 608 84 32 607 ae9945294f42e2dfe5d39c865a02219281 1 385 399 143 252 0 0
 264 384 609 84 32 608 6df4f2747424ada271f1d077745f323716 252 297 385 ?72 254 24
8 249 254 254 3 84 32 609 3a08460f5afae2466770dfecc2e167c617 72 0 383 69 46 70 3
62 252 0 361 +15 383 305 0 46 348 0 17 69 0 383 100 72 53 363 258 0 369 +17 362
 0 354 364 361 42 72 252 0 257 -17 364 0 354 289 362 73 257 254 0 365 -17 257 0
 407 49 75 42 364 254 0 381 +15 407 310 0 49 345 0 17 49 0 407 75 257 47 381 28
 0 377 -17 75 0 407 257 49 73 377 253 0 364 +17 365 0 376 377 268 73 289 286 0 0
 -17 100 0 383 46 69 88 375 262 0 373 +17 369 0 340 363 56 53 281 278 0 375 -17
 375 0 359 281 373 53 100 262 0 0 -17 373 0 359 375 372 88 77 261 0 378 -81 1 20
5 273 143 203 0 0 222 587 610 84 32 599 427da8d9bf89472dc8018c5dfa2d4c0981 1 222
 272 143 198 0 0 243 205 611 84 32 610 66b2ff43af293841e0477eeb5b6edd3281 1 243
 271 143 241 0 0 240 222 612 84 32 611 bc10f7a9c0e29d356c637c34ec718afe81 1 240
 270 143 238 0 0 226 243 613 84 32 612 84ac4c1e11f0740e043da0b9a96aefd581 1 226
 269 143 224 0 0 237 240 614 84 32 613 627289ced2754040f522787c010afd3081 1 237
 268 143 235 0 0 210 226 615 84 32 614 f96604f2854439a83912512a79067e7181 1 210
 267 143 207 0 0 233 237 616 84 32 615 31c29a39bfcd9662c79f3c2e0aef6c2981 1 233
 266 143 208 0 0 230 210 617 84 32 616 b69505cc689b9b0ff2b2969492d5b4b181 1 230
 265 143 228 0 0 214 233 618 84 32 617 e9a41bcc0a6f50647923d8dd7ee8e07f81 1 214
 264 143 212 0 0 218 230 619 84 32 618 8f59a5bcdb2ced9818424ebddc1cef2781 1 218
 263 143 216 0 0 246 214 620 84 32 619 1063bd160b8ded125e63696fa49d04b281 1 246
 262 143 220 0 0 579 218 621 84 32 620 e9cdc30e4e1d0a1f84a7b33533614e7b81 1 579
 126 143 371 0 429 288 246 622 84 32 621 02e8104fdbb4c937d4e4c6d7ae67f13081 1 28
8 123 143 286 0 0 267 579 623 84 32 622 f9fad16af9f7a57aa69e6d77ffd6200381 1 267
 122 143 244 0 0 284 288 624 84 32 623 384073f94c54e3f8cd30fa130b8db9a181 1 284
 120 143 282 0 0 271 267 625 84 32 624 87c14bc0b5e64f27b11544815447682981 1 271
 119 143 269 0 0 280 284 626 84 32 625 6d7e4745d27f72a4b9217477022e1b7c81 1 280
 117 143 278 0 0 274 271 627 84 32 626 339b62fafe888a73278c5fd140da0b5681 1 274
 116 143 272 0 0 277 280 628 84 32 627 e5afc0714ff6f06584dc9854c3feb5a181 1 277
 115 143 275 0 0 260 274 629 84 32 628 1872f9b9ed2de156588c5f21134c64ef81 1 260
 114 143 258 0 0 290 277 630 84 32 629 38c01dfab7cf31a49be778272510ebd081 1 290
 113 143 265 0 0 0 260 631 84 32 630 a11a36b87860c15c5d74c267805b3ea284 32 631 2
b2d6dba004e7d814557805621c410c983 1 588 0 83 1 584 0 81 1 357 1199 329 350 393 0
 353 428 632 83 3 581 1 .6 0 83 3 632 1 .6 0 83 1 580 0 15 576 205 0 52 477 0 17
 52 0 576 98 87 50 223 198 0 247 -17 98 0 576 206 52 81 247 220 0 219 -17 87 0 5
76 52 206 85 96 241 0 633 +17 223 0 360 227 234 85 52 198 0 0 +17 247 0 634 635
 219 50 98 220 0 234 +15 634 217 0 635 462 0 17 635 0 634 90 247 78 234 208 0 23
1 -17 219 0 634 247 90 81 636 216 0 637 +17 234 0 360 223 231 50 635 208 0 0 +15
 360 135 0 234 20 376 17 231 0 360 234 227 78 638 228 0 0 +17 227 0 360 231 223
 82 633 224 0 0 +17 638 0 573 93 80 82 231 228 0 227 -15 573 213 0 638 467 0 17
 93 0 573 215 638 91 84 238 0 211 -17 80 0 573 638 215 78 90 235 0 635 +17 215 0
 573 80 93 67 639 212 0 636 +17 90 0 634 219 635 67 80 235 0 215 -17 639 0 570 6
40 636 91 215 212 0 0 -17 636 0 570 639 637 67 219 216 0 0 -15 570 221 0 637 418
 0 17 637 0 570 636 640 81 206 203 0 0 -17 640 0 570 637 639 94 211 207 0 206 -1
7 206 0 576 87 98 94 637 203 0 0 +17 211 0 641 84 96 91 640 207 0 639 +15 641 20
9 0 633 472 0 17 84 0 641 633 211 82 93 238 0 638 +17 96 0 641 211 633 94 87 241
 0 640 -17 633 0 641 96 84 85 227 224 0 223 -51 488 637 0 482 511 562 0 +-.00264
5 .00605 .0168 0 0 1 .001 1 0 0 50 511 757 0 137 519 488 0 +.027855 55e-5 .0184
 0 1 -338813178901721e-30 0 338813178901721e-30 1 50 519 758 0 335 337 511 0 +.0
27855 55e-5 .0168 0 630808536718839e-30 1 0 -1 630808536718839e-30 50 337 759 0
 327 328 519 0 +.027855 .01155 .0168 0 -1 0 0 0 -1 17 301 0 565 301 301 0 642 22
 0 0 +15 299 1060 0 294 486 643 15 643 497 0 191 486 644 17 191 0 643 191 191 0
 645 186 0 0 +15 644 498 0 646 486 0 17 646 0 644 646 646 0 189 178 0 0 -17 189
 0 647 189 189 0 646 178 0 0 +15 647 489 0 189 447 0 17 645 0 448 645 645 0 191
 186 0 0 -15 448 436 0 645 435 648 15 648 437 0 27 435 0 17 27 0 648 27 27 0 649
 12 0 0 +17 649 0 436 649 649 0 27 12 0 0 -15 436 418 0 649 417 650 15 650 353 0
 197 417 0 17 197 0 650 197 197 0 651 194 0 0 +17 651 0 419 651 651 0 197 194 0
 0 -15 419 348 0 651 382 380 17 642 0 652 642 642 0 301 22 0 0 -15 652 1107 0 64
2 546 0 83 3 567 1 .6 0 83 1 563 0 15 561 1081 0 308 454 653 17 308 0 561 308 30
8 0 302 295 0 0 -15 653 1075 0 654 454 655 17 654 0 653 654 654 0 310 303 0 0 -1
5 655 493 0 185 454 0 17 185 0 655 185 185 0 656 182 0 0 +17 656 0 455 656 656 0
 185 182 0 0 -15 455 488 0 656 447 647 17 310 0 547 310 310 0 654 303 0 0 +15 54
7 1134 0 310 537 657 15 657 1135 0 300 537 0 17 300 0 657 300 300 0 294 292 0 0
 -15 307 1106 0 302 546 652 51 554 1156 0 546 0 548 0 +.00605 .01305 .02775 0 0
 1 5e-4 1 0 0 51 548 1153 0 537 554 539 0 +.00605 -.000950000000000015 .02775 0
 0 1 5e-4 1 0 0 51 539 957 0 324 548 334 0 +.025855 .00605 .0168 0 0 1 .001 1 0
 0 50 334 762 0 119 539 328 0 +.027855 0 0 1 0 0 0 0 -1 83 3 552 1 .6 0 84 32 55
0 ca3b014d47faa950fc95e563003cf27b83 3 542 1 .6 0 81 1 309 1176 143 303 0 0 520
 296 658 84 32 540 1633610672cd3f6b4d0bf1a695ddfa9781 1 296 1177 143 22 0 0 309
 293 659 84 32 658 52b2ecafe2119226efcbccc03083620284 32 659 a2c4ba8d6615882998a
658afbc37d0dd15 538 918 0 318 324 322 17 318 0 538 318 318 0 313 159 0 0 -83 3 5
34 1 .6 0 81 1 531 805 143 18 0 342 134 512 660 84 32 532 c10745592ea95807271b86
db311f935881 1 342 1188 396 18 531 338 0 408 661 81 1 134 804 143 129 0 0 140 53
1 662 84 32 660 0c8ed8595e56253de05eac4039271bbf84 32 662 555c06f19c161e0155a508
b1226ccb6283 1 661 0 84 32 528 4d2a18db42480e92f86258204b77c6cf83 3 525 1 .6 0 8
4 32 524 b981e9d0673347053141cbf3230bba2383 3 522 1 .6 0 84 32 521 e6eff481f320d
08855592e9d6cec61ee15 317 893 0 313 335 663 15 663 740 0 162 335 0 17 162 0 663
 664 138 102 34 158 0 170 +17 664 0 663 112 162 107 170 167 0 123 -17 138 0 663
 162 112 38 122 139 0 35 +17 34 0 32 30 39 38 162 158 0 138 -17 170 0 336 41 123
 102 664 167 0 0 +15 336 744 0 41 327 0 17 41 0 336 125 170 31 39 148 0 127 +17
 123 0 336 170 125 107 106 124 0 0 -17 125 0 336 123 41 101 127 135 0 116 -17 12
7 0 126 37 116 31 125 135 0 0 +17 39 0 32 34 33 102 41 148 0 162 -15 32 678 0 30
 18 0 17 112 0 663 138 664 110 109 141 0 115 -17 35 0 133 122 131 38 30 36 0 0 +
17 109 0 114 106 115 107 112 141 0 664 +83 3 515 1 .6 0 84 32 513 ccb32ce8088c9a
e65a14a23a9ac885e883 1 507 0 83 3 506 1 .6 0 79 21 503 SDL/TYSA_TRANSLUCENCY15 4
87 623 0 665 482 666 17 665 0 487 665 665 0 177 174 0 0 -15 666 624 0 181 482 0
 17 181 0 666 181 181 0 667 172 0 0 +17 667 0 468 667 667 0 181 172 0 0 -15 468
 579 0 667 462 634 17 177 0 478 177 177 0 665 174 0 0 +15 478 584 0 177 472 641
 83 1 481 0 83 1 471 0 83 1 458 0 83 1 451 0 83 1 439 0 83 1 430 0 81 1 343 1191
 329 339 408 0 338 406 668 83 1 426 0 81 1 406 1193 329 345 402 0 343 356 669 83
 3 668 1 .6 0 81 1 356 1195 329 20 399 0 406 353 670 83 3 669 1 .6 0 83 3 670 1
 .6 0 83 1 423 0 83 1 412 0 83 1 409 0 83 1 403 0 83 1 398 0 79 15 390 UGS/Objec
tState84 32 387 ea74258f226cf66c102205ab6487f69783 3 358 1 .6 0 83 3 344 1 .6 0
 83 3 333 1 .6 0 84 32 321 6c085e790719dac702750bc200295a3584 32 316 8f9ca1779c3
90ca2ba401364cfca088d84 32 306 896e2bfadb04d61dc16b501d8681c1d184 32 298 e0ab01d
1c03626bd548c4660eb8866f984 32 144 b16671cdcb75040f6e0d93fba8aa415c19 19 92 0 3
 0 11 7 S0 74 4 CI16 index_map_offset0 0 1 dCCZ20 17 6 0 0 543 671 15 544 551 5
 0 0 0 0 0 0 0 0 0 0 0 0 0 0 81 2 671 1175 672 3 0 15 0 0 673 674 81 1 15 1186 6
75 3 671 5 0 0 676 80 1 675 677 678 9000 0 0 0 0 3 5 0 0 0 FFTFFFFFFFFFFF1 82 25
5 1 676 -1 79 19 678 UG2/PMARK_ATTRIBUTE80 2 672 679 680 8004 0 0 0 0 3 5 0 0 0
 FFTFFFFFFFFFFF2 3 83 1 673 7830.64 84 8 674 Kg/Cu M 79 16 680 SDL/TYSA_DENSITY8
0 1 14 681 682 9000 0 0 0 0 3 5 0 0 0 FFTFFFFFFFFFFF1 82 1 16 78 79 24 682 UG2/B
ODY_COLOR_ATTRIBUTE1 0 
