**ABCDEFGHIJKLMNOPQRSTUVWXYZabcdefghijklmnopqrstuvwxyz**************************
**PARASOLID !"#$%&'()*+,-./:;<=>?@[\]^_`{|}~0123456789**************************
**PART1;
MC=x64/Windows NT;
MC_MODEL=genuineintel family 6 model 14 stepping 3, intel(r) core(tm) i7-6700 cpu @ 3.40ghz;
MC_ID=robotic-pc;
OS=windows nt (x64);
OS_RELEASE=6.1 windows 7 professional (build 7601) service pack 1;
FRU=mdc_ugii_v7.0_djl_can_vrh;
APPL=unigraphics;
SITE=unknown;
USER=Robotic;
FORMAT=text;
GUISE=transmit;
KEY=switch;
FILE=C:\Users\Robotic\Desktop\robot_solid\switch.x_t;
DATE=2-feb-2018;
**PART2;
SCH=SCH_2900123_28101;
USFLD_SIZE=0;
**PART3;
**END_OF_HEADER*****************************************************************
T51 : TRANSMIT FILE created by modeller version 290012323 SCH_2900123_28101_1300
6203 0 12 33 CCCCCCI4 mesh1006 0 I8 polyline1008 0 CCCCCCCDI5 owner1040 0 CCCCCC
I13 boundary_mesh1006 0 I17 boundary_polyline1008 0 CCCA16 index_map_offset0 0 1
 dA9 index_map82 0 A17 node_id_index_map82 0 A20 schema_embedding_map82 0 A5 chi
ld12 0 A14 lowest_node_id0 0 1 dZ1 193 2 3 0 0 0 0 0 0 1e3 1e-8 0 0 0 1 0 1 1 4
 5 6 0 0 0 7 8 0 0 0 0 0 0 0 81 255 1 2 193 9 1 10 0 0 0 11 70 11 CI9 list_type0
 0 1 uI10 notransmit0 0 1 lCCCDCCDI12 finger_index0 0 1 dI12 finger_block1012 0
 CZ3 0 4 T1 0 0 6 20 1 12 12 13 255 4 3 0 1 0 13 0 0 14 0 52 255 5 41 0 13 15 0
 0 +-.0565 .0732881169884322 .056 1 0 0 .011 .766044443118978 .64278760968654 0
 0 -1 31 255 6 40 0 8 16 0 0 +-.0585 .0732881169884322 .056 1 0 0 0 0 -1 .008616
49281481158 19 8 CCCCCCCA5 owner12 0 Z7 1 0 1 14 0 17 V0 16 255 8 2 18 ?19 0 20
 6 0 0 1 81 1 18 51 21 8 0 0 0 22 23 17 255 19 0 24 19 19 0 25 8 0 0 +16 20 21 2
2 ?26 8 27 16 0 0 1 81 1 22 52 21 20 0 0 18 28 29 17 26 0 30 26 26 0 31 20 0 0 +
16 27 72 32 ?33 20 34 35 0 0 1 31 16 39 0 20 36 6 0 +-.0565 .0732881169884322 .0
56 1 0 0 0 0 -1 .011 31 36 94 0 34 35 16 0 +-.0565 .0732881169884322 .056 -1 0 0
 0 0 1 .009 16 34 74 37 ?38 27 0 36 0 0 1 31 35 95 0 27 0 36 0 +-.0395 .07328811
69884322 .056 -1 0 0 0 0 1 .009 81 1 37 105 21 34 0 0 39 32 40 17 38 0 41 38 38
 0 42 34 0 0 +15 255 41 62 0 38 43 30 17 42 0 44 42 42 0 38 34 0 0 -15 44 82 0 4
2 45 0 14 255 45 78 46 ?47 43 48 4 49 +0 0 47 43 17 81 1 46 191 50 45 51 0 52 53
 54 14 47 83 53 ?0 45 55 4 56 -0 0 0 45 17 14 43 17 52 ?45 57 41 4 15 +0 0 45 57
 17 15 48 81 0 33 45 44 51 255 49 91 0 45 56 58 0 +-.0395 .0732881169884322 .056
 -1 0 0 .009 0 0 1 13 17 30 0 0 0 0 0 0 7 13 14 13 26 59 ?57 0 24 4 5 +0 0 57 0
 17 81 1 59 188 50 13 39 0 0 60 61 14 57 6 60 ?43 13 62 4 58 -0 0 43 13 17 15 24
 25 0 19 13 63 15 63 27 0 31 13 0 17 31 0 63 31 31 0 26 20 0 0 -81 1 60 189 50 5
7 28 0 59 52 64 15 62 5 0 25 57 0 50 255 58 7 0 57 49 15 0 +-.0585 .073288116988
4322 .056 1 0 0 0 0 -1 50 15 23 0 43 58 5 0 +-.0565 .0732881169884322 .056 1 0 0
 0 0 -1 17 25 0 62 25 25 0 19 8 0 0 -80 255 1 50 0 65 8001 0 0 0 0 3 5 0 0 0 FFF
FTFTFFFFFFF2 81 1 28 54 21 57 0 60 22 39 66 81 1 52 190 50 43 67 0 60 46 68 83 2
55 3 64 .3372549 .6941176 1 81 1 67 107 21 43 0 52 32 51 69 83 3 68 .3372549 .69
41176 1 80 1 21 70 71 9000 1 1 1 1 1 1 1 1 0 FFFFTFTFFFFFFF3 81 1 32 106 21 27 0
 0 37 67 72 81 1 51 108 21 45 0 46 67 73 74 84 255 32 69 7873f8155941fa6fabcf266
c214ea91381 1 73 109 21 47 0 53 51 0 75 84 32 74 6d95ac9ace2e0ce8d657c6bd533c166
581 1 53 192 50 47 73 0 46 0 76 84 32 75 e95e485d00900f6137402f97a681fddf83 3 76
 .3372549 .6941176 1 84 32 72 31496ecb0ae24cad0d5aa9d952abe18479 255 15 71 UGS/O
bjectState81 1 39 55 21 13 0 59 28 37 77 84 32 66 98e3852616aa22b39421e84297a5df
c884 32 77 86bf116073ba503ce73783283cb6c8fe79 15 65 SDL/TYSA_COLOUR83 3 61 .3372
549 .6941176 1 50 56 93 0 47 0 49 0 +-.0395 .0732881169884322 .056 -1 0 0 0 0 1
 17 33 0 48 33 33 0 78 27 0 0 +17 78 0 55 78 78 0 33 27 0 0 -15 55 86 0 78 47 0
 83 3 54 .3372549 .6941176 1 15 30 20 0 26 43 0 84 32 40 c2de5557fb04746af3f3f80
f223c938484 32 29 8a257dfdac70940a0cc35ef7e53a2ccf84 32 23 f31204dac007bebceef00
380bae6e29619 14 31 0 1 0 7 4 S0 74 4 CI16 index_map_offset0 0 1 dCCZ20 12 6 0 0
 73 79 80 10 53 2 0 0 0 0 0 0 0 0 0 0 0 0 0 0 81 2 79 104 81 1 0 80 0 0 82 83 81
 1 80 185 84 1 79 10 0 0 85 81 1 10 187 70 1 80 2 0 0 86 80 1 70 87 88 9000 0 0
 0 0 3 5 0 0 0 FFTFFFFFFFFFFF1 82 255 1 86 1848 79 7 88 body_id80 1 84 89 90 900
0 0 0 0 0 3 5 0 0 0 FFTFFFFFFFFFFF1 82 1 85 -1 79 19 90 UG2/PMARK_ATTRIBUTE80 2
 81 91 92 8004 0 0 0 0 3 5 0 0 0 FFTFFFFFFFFFFF2 3 83 1 82 7830.64 84 8 83 Kg/Cu
 M 79 16 92 SDL/TYSA_DENSITY80 1 9 93 94 9000 0 0 0 0 3 5 0 0 0 FFTFFFFFFFFFFF1
 82 1 11 205 79 24 94 UG2/BODY_COLOR_ATTRIBUTE1 0 
