**ABCDEFGHIJKLMNOPQRSTUVWXYZabcdefghijklmnopqrstuvwxyz**************************
**PARASOLID !"#$%&'()*+,-./:;<=>?@[\]^_`{|}~0123456789**************************
**PART1;
MC=x64/Windows NT;
MC_MODEL=genuineintel family 6 model 14 stepping 3, intel(r) core(tm) i7-6700 cpu @ 3.40ghz;
MC_ID=robotic-pc;
OS=windows nt (x64);
OS_RELEASE=6.1 windows 7 professional (build 7601) service pack 1;
FRU=mdc_ugii_v7.0_djl_can_vrh;
APPL=unigraphics;
SITE=unknown;
USER=Robotic;
FORMAT=text;
GUISE=transmit;
KEY=Mechanical_up;
FILE=C:\Users\Robotic\Desktop\Mechanical arm\mechanical arm\Solidworks\Mechanical_up.x_t;
DATE=5-oct-2017;
**PART2;
SCH=SCH_2900123_28101;
USFLD_SIZE=0;
**PART3;
**END_OF_HEADER*****************************************************************
T51 : TRANSMIT FILE created by modeller version 290012323 SCH_2900123_28101_1300
6203 0 12 33 CCCCCCI4 mesh1006 0 I8 polyline1008 0 CCCCCCCDI5 owner1040 0 CCCCCC
I13 boundary_mesh1006 0 I17 boundary_polyline1008 0 CCCA16 index_map_offset0 0 1
 dA9 index_map82 0 A17 node_id_index_map82 0 A20 schema_embedding_map82 0 A5 chi
ld12 0 A14 lowest_node_id0 0 1 dZ1 2097 2 3 0 0 0 0 0 0 1e3 1e-8 0 0 0 1 0 1 1 4
 5 6 7 0 0 8 9 10 0 0 0 0 0 0 81 255 1 2 2097 11 1 12 0 0 0 13 70 11 CI9 list_ty
pe0 0 1 uI10 notransmit0 0 1 lCCCDCCDI12 finger_index0 0 1 dI12 finger_block1012
 0 CZ3 0 4 T1 0 0 5 20 1 14 14 13 255 4 73 0 1 0 15 0 0 16 0 51 255 5 656 0 17 1
8 0 19 +0 .02294999999999585 .067 1 0 0 .012 0 0 -1 30 255 6 1814 0 9 20 0 0 +.0
3106104701993945 .00999999999999586 .047 513992141030165e-30 -1 0 29 255 7 1820
 0 10 21 0 .03706104701993945 .01584999999999585 .055 19 8 CCCCCCCA5 owner12 0 Z
8 1 0 1 16 0 22 V0 16 255 9 1812 23 ?24 0 25 6 0 0 1 18 255 10 1818 0 26 0 27 7
 ?1 17 255 26 0 28 29 30 10 31 32 0 33 -18 27 1800 0 34 10 35 21 ?1 17 34 0 36 3
7 38 27 39 40 0 41 -18 35 611 0 42 27 43 44 ?1 29 21 1802 0 27 44 7 .03106104701
993945 .01584999999999585 .047 29 44 614 0 35 45 21 .0534116362188092 .022949999
99999585 .055 29 45 610 0 43 46 44 -.0334116362188091 .02294999999999585 .055 18
 43 607 0 47 35 48 45 ?1 29 46 599 0 48 49 45 -.0278123016913043 .03494999999999
59 .067 18 48 596 0 50 43 51 46 ?1 29 49 595 0 51 52 46 .0478123016913044 .03494
999999999585 .067 18 51 592 0 53 48 54 49 ?1 29 52 523 0 54 55 49 .0528335167735
994 -.00475000000000415 .055 18 54 520 0 56 51 57 52 ?1 29 55 519 0 57 58 52 -.0
3283351677359935 -.00475000000000415 .055 18 57 516 0 59 54 60 55 ?1 29 58 508 0
 60 61 55 .0465610470199395 -.01675000000000415 .067 18 60 505 0 62 57 63 58 ?1
 29 61 504 0 63 64 58 -.0265610470199394 -.0167500000000041 .067 18 63 501 0 65
 60 66 61 ?1 29 64 12 0 66 67 61 .0478123016913044 .03494999999999585 .105 18 66
 10 0 68 63 69 64 ?1 29 67 307 0 69 70 64 -.0265610470199394 -.0167500000000041
 .105 18 69 203 0 71 66 72 67 ?1 29 70 408 0 72 73 67 -.0278123016913043 .034949
9999999959 .105 18 72 387 0 74 69 75 70 ?1 29 73 479 0 75 76 70 .046561047019939
5 -.01675000000000425 .105 18 75 459 0 77 72 78 73 ?1 29 76 1980 0 78 79 73 .031
06104701993945 .002349999999995855 .047 18 78 1908 0 80 75 81 76 ?1 29 79 1981 0
 81 82 76 .03706104701993945 .00234999999999585 .047 18 81 1910 0 83 78 84 79 ?1
 29 82 1983 0 84 85 79 .03706104701993945 .01584999999999585 .047 18 84 1912 0 3
7 81 86 82 ?1 29 85 1985 0 86 87 82 .03706104701993945 .00234999999999585 .055 1
8 86 1911 0 30 84 88 85 ?1 29 87 1986 0 88 89 85 .03106104701993945 .00234999999
9995855 .055 18 88 1909 0 90 86 91 87 ?1 29 89 1987 0 91 0 87 .03106104701993945
 .01584999999999585 .055 18 91 1914 0 39 88 0 89 ?1 17 39 0 92 93 41 91 34 40 0
 38 +15 255 92 1923 0 39 94 0 17 93 0 92 95 39 88 96 97 0 98 -17 41 0 92 39 95 2
7 24 9 0 99 -16 40 1856 100 ?39 101 102 103 0 0 1 17 38 0 36 34 33 91 104 102 0
 96 -15 36 1935 0 33 105 0 17 33 0 36 38 37 10 29 101 0 104 +17 104 0 106 31 96
 10 38 102 0 0 +16 102 1888 107 ?104 40 32 108 0 0 1 17 96 0 106 104 98 91 93 97
 0 0 +15 106 1834 0 96 109 110 17 98 0 106 96 31 88 111 112 0 0 +16 97 1861 113
 ?96 112 0 114 0 0 1 81 1 113 2018 115 97 0 0 23 116 117 16 112 1870 118 ?98 32
 97 119 0 0 1 30 114 1975 0 97 0 119 0 -.03106104701993945 .01584999999999585 .0
55 513992141030165e-30 -1 0 30 119 1974 0 112 114 120 0 -.03106104701993945 .002
349999999995855 .055 1 -115648231731787e-29 0 30 120 1973 0 32 119 108 0 -.03706
104701993945 .00234999999999585 .055 -513992141030165e-30 1 0 16 32 1879 121 ?31
 102 112 120 0 0 1 30 108 1972 0 102 120 122 0 -.03706104701993945 .015849999999
99585 .055 -1 0 0 30 122 1971 0 101 108 123 0 +.03706104701993945 .0158499999999
9585 .03 0 0 1 16 101 1883 124 ?33 125 40 122 0 0 1 30 123 1970 0 125 122 126 0
 +.03706104701993945 .00234999999999585 .03 0 0 1 16 125 1874 127 ?30 128 101 12
3 0 0 1 30 126 1969 0 128 123 103 0 +.03106104701993945 .002349999999995855 .03
 0 0 1 16 128 1865 129 ?90 130 125 126 0 0 1 30 103 1968 0 40 126 131 0 +.031061
04701993945 .01584999999999585 .03 0 0 1 31 255 131 1758 0 132 103 133 0 -.01 -.
0207500000000033 .092 -964506252643105e-28 1 0 -1 -964506252643105e-28 0 .0035 1
6 132 1711 134 ?135 136 130 131 0 0 1 31 133 1757 0 136 131 137 0 -.01 -.0167500
0000000415 .092 0 -1 0 0 0 -1 .0035 16 136 1708 138 ?139 140 132 133 0 0 1 31 13
7 1756 0 140 133 141 0 -.01 .03494999999999585 .092 0 1 0 0 0 1 .0035 16 140 170
5 142 ?143 144 136 137 0 0 1 31 141 1619 0 144 137 145 0 -.01000000000000162 .03
89499999999967 .092 -964506252643105e-28 1 0 183697019872103e-30 252435489670724
e-43 -1 .01 16 144 1554 146 ?147 148 140 141 0 0 1 31 145 1618 0 149 141 150 0 +
.01 .0389499999999967 .085 -964506252643105e-28 1 0 -1 -964506252643105e-28 0 .0
0147782604588 16 149 1556 151 ?152 153 148 145 0 0 1 31 150 1617 0 153 145 154 0
 -.002999999999999925 .03894999999999605 .092 -964506252643105e-28 1 0 -1 -96450
6252643105e-28 0 .00147782604588 16 153 1562 155 ?156 157 149 150 0 0 1 31 154 1
616 0 157 150 158 0 -.017 .0389499999999974 .092 -964506252643105e-28 1 0 -1 -96
4506252643105e-28 0 .00147782604588 16 157 1559 159 ?160 161 153 154 0 0 1 31 15
8 1465 0 162 154 163 0 -.01000000000000162 -.0207500000000033 .092 -964506252643
105e-28 1 0 183697019872103e-30 252435489670724e-43 -1 .01 16 162 1412 164 ?165
 166 161 158 0 0 1 31 163 1464 0 167 158 168 0 +.01 -.0207500000000033 .085 -964
506252643105e-28 1 0 -1 -964506252643105e-28 0 .00147782604588 16 167 1409 169 ?
170 171 166 163 0 0 1 31 168 1463 0 171 163 172 0 +.002999999999999925 -.0207500
00000004 .092 -964506252643105e-28 1 0 -1 -964506252643105e-28 0 .00147782604588
 16 171 1406 173 ?174 175 167 168 0 0 1 31 172 1462 0 175 168 176 0 +.01 -.02075
00000000033 .099 -964506252643105e-28 1 0 -1 -964506252643105e-28 0 .00147782604
588 16 175 1403 177 ?178 179 171 172 0 0 1 31 176 952 0 180 172 181 0 +.01700000
000000165 -.01675000000000265 .092 -964506252643105e-28 1 0 183697019872103e-30
 252435489670724e-43 -1 .00147782604588 16 180 820 182 ?183 184 185 176 0 0 1 31
 181 950 0 185 176 186 0 +.01 -.01675000000000425 .085 0 -1 0 -1 0 1836970198721
03e-30 .00147782604588 16 185 843 187 ?188 180 189 181 0 0 1 31 186 948 0 189 18
1 190 0 +.002999999999999925 -.01675000000000425 .092 0 -1 0 1224646799147352e-3
1 0 1 .00147782604588 16 189 871 191 ?192 185 193 186 0 0 1 31 190 946 0 193 186
 194 0 +.01 -.01675000000000425 .099 0 -1 0 1 0 -612323399573677e-31 .0014778260
4588 16 193 899 195 ?196 189 197 190 0 0 1 31 194 476 0 184 190 198 0 +.01 -.016
7500000000042 .07825 -251470763888761e-29 -1 0 1 -251470763888761e-29 0 .0453020
160610344 16 184 448 199 ?200 201 180 194 0 0 1 31 198 404 0 201 194 202 0 -.01
 .03494999999999585 .08005 -2202106804464525e-30 -1 0 1 -2202106804464525e-30 0
 .0453020160610344 16 201 377 203 ?204 205 184 198 0 0 1 31 202 302 0 206 198 20
7 0 +.01 .00999999999999585 .055 0 0 1 1 0 0 .0453020160610344 16 206 521 208 ?2
09 210 205 202 205 205 1 31 207 301 0 210 202 211 0 +.017 .00999999999999588 .05
5 0 0 1 -183697019872103e-30 -1 0 .0015 16 210 198 212 ?213 214 206 207 0 0 1 31
 211 300 0 214 207 215 0 +.01 .01699999999999585 .055 0 0 1 1 0 0 .0015 16 214 1
96 216 ?217 218 210 211 0 0 1 31 215 299 0 218 211 219 0 +.01 .00299999999999583
 .055 0 0 1 -1 1224646799147352e-31 0 .0015 16 218 194 220 ?221 222 214 215 0 0
 1 31 219 298 0 222 215 223 0 +.01 .00999999999999585 .055 0 0 1 1 0 0 .0029 16
 222 200 224 ?225 226 218 219 0 0 1 31 223 297 0 226 219 227 0 +.003 .0099999999
9999584 .055 0 0 1 612323399573677e-31 1 0 .0015 16 226 192 228 ?229 230 222 223
 0 0 1 31 227 296 0 230 223 231 0 +.01 .00999999999999585 .047 0 0 1 1 0 0 .0029
 16 230 182 232 ?233 234 226 227 0 0 1 31 231 295 0 235 227 236 0 +.017 .0099999
9999999588 .047 0 0 1 -183697019872103e-30 -1 0 .0015 16 235 184 237 ?238 239 24
0 231 0 0 1 31 236 294 0 240 231 241 0 +.01 .01699999999999585 .047 0 0 1 1 0 0
 .0015 16 240 186 242 ?243 235 244 236 0 0 1 31 241 293 0 244 236 245 0 +.01 .00
299999999999583 .047 0 0 1 -1 1224646799147352e-31 0 .0015 16 244 188 246 ?247 2
40 234 241 0 0 1 31 245 292 0 234 241 248 0 +.003 .00999999999999584 .047 0 0 1
 612323399573677e-31 1 0 .0015 16 234 190 249 ?250 244 230 245 0 0 1 31 248 291
 0 239 245 251 0 +.01 .00999999999999585 .047 0 0 1 1 0 0 .0453020160610344 16 2
39 170 252 ?253 254 235 248 0 0 1 31 251 289 0 254 248 255 0 +.01 .0099999999999
9585 .105 0 0 1 1 0 0 .0453020160610344 16 254 176 256 ?257 258 239 251 0 0 1 30
 255 287 0 258 251 259 0 -.0465610470199395 -.01675000000000415 .105 0 0 -1 16 2
58 506 260 ?77 261 254 255 0 0 1 30 259 286 0 261 255 262 0 +-.0265610470199394
 -.0167500000000041 .105 0 0 -1 16 261 164 263 ?264 265 258 259 0 0 1 31 262 17
 0 265 259 266 0 +.01 .00999999999999585 .105 0 0 1 1 0 0 .0453020160610344 16 2
65 15 267 ?268 269 261 262 0 0 1 30 266 70 0 270 262 271 0 +.0478123016913044 .0
3494999999999585 .105 0 0 -1 16 270 58 272 ?273 274 269 266 0 0 1 30 271 72 0 26
9 266 275 0 --.0278123016913043 .0349499999999959 .105 0 0 -1 16 269 597 276 ?74
 270 265 271 0 0 1 30 275 511 0 274 271 277 0 +.0465610470199394 -.0167500000000
0415 .067 -1 0 0 16 274 509 278 ?279 280 270 275 0 0 1 30 277 526 0 280 275 281
 0 -.0135 -.00475000000000415 .055 -1 0 0 16 280 524 282 ?56 283 274 277 0 0 1 3
8 255 281 543 0 283 277 284 0 +285 18 286 287 288 16 283 529 289 ?290 291 280 28
1 0 0 1 38 284 544 0 291 281 292 0 +285 18 293 294 295 51 285 67 0 15 296 297 29
8 -.01 .00999999999999585 .105 0 0 -1 .0453020160610344 -1 0 0 51 18 565 0 299 2
97 5 300 +.0465610470199394 -.00475000000000415 .067 -1 0 0 .012 0 0 1 40 255 6
 286 0 1 6 .000745670934919674 .3561199342640035 ??-.0265610470199394 -.01675000
000000415 .067 -.0269333476763366 -.0162335755971861 .0635175451899836 -.0279093
571598849 -.0148022841472052 .0604462542447902 -.0293639880008238 -.012422067430
66754 .0577728996245107 -.0312035626515496 -.0088292082683846 .0557146085622529
 -.03283351677359935 -.00475000000000415 .055 41 3 CI8 term_use0 0 1 cCZ1 287 L?
-.0265610470199394 -.01675000000000415 .067 41 1 288 L?-.03283351677359935 -.004
75000000000415 .055 14 255 299 553 301 ?17 302 303 4 18 -0 0 17 302 22 50 255 29
7 68 0 304 285 18 0 +0 .03494999999999585 .105 0 1 0 0 0 1 141 255 300 281 305 3
05 18 141 305 284 300 300 18 14 304 64 306 ?307 308 309 4 297 -0 0 307 308 22 81
 1 306 2044 310 304 311 0 312 313 314 14 307 217 313 ?109 304 315 4 296 -0 0 109
 304 22 14 308 1160 312 ?304 316 317 4 318 -0 0 304 316 22 15 309 1687 0 319 304
 320 13 22 3 0 0 0 0 0 0 8 15 14 15 62 321 ?322 0 323 4 285 -0 0 322 0 22 81 1 3
21 2034 310 15 324 0 0 325 326 14 322 1268 325 ?327 15 328 4 329 -0 0 327 15 22
 15 323 216 0 253 15 330 17 253 0 323 253 253 0 331 239 0 0 +15 330 61 0 273 15
 332 17 273 0 330 42 333 51 68 270 0 0 +15 332 1380 0 334 15 335 17 334 0 332 33
4 334 0 336 179 0 0 +15 335 1535 0 337 15 0 17 337 0 335 337 337 0 338 161 0 0 -
17 338 0 339 338 338 0 337 161 0 0 +16 161 1565 340 ?338 162 157 341 0 0 1 81 1
 340 1644 115 161 0 0 151 342 343 38 341 1536 0 161 344 345 0 +285 346 347 348 3
48 31 344 1511 0 148 349 341 0 -.01 .0389499999999967 .099 -964506252643105e-28
 1 0 -1 -964506252643105e-28 0 .00147782604588 31 345 1667 0 130 341 350 0 -.01
 .0389499999999967 .092 -964506252643105e-28 1 0 -1 -964506252643105e-28 0 .0035
 51 346 1613 0 351 352 353 354 -.01000000000000162 .0632499999999967 .092 0 -1 0
 .01 0 0 -1 40 20 347 0 1 20 .000582784272121461 .345176295601842 ??.01000000000
000162 .0553020160610303 .082 .00673479412504689 .0551841907063523 .082548099101
5478 .0038384259272574 .054881039026965 .0841237696233486 .00158864800883801 .05
45142877835266 .0865917509598071 .000266036311159323 .0542438991285599 .08970872
28661073 546667754842318e-19 .0541968664754324 .0930441968460547 .00092564294167
0622 .0543838788657751 .0962019095632722 .00278085185630632 .0547231099016298 .0
989198193675399 .00548249830858378 .0550762114386502 .1009214448643724 .00871375
232454383 .0552837523413335 .1019169333423886 .01203018152033956 .05525650254038
99 .1017917497412096 .0150835767423954 .0550158850484806 .1006114602422698 .0176
1687602453425 .054657091920777 .0984794443918364 .0193391262474233 .054328922614
1189 .0955750134174181 .01999634103916415 .0541853575862251 .0922704918275205 .0
1954129617235085 .0542858479262319 .0890060615651764 .0180633582934858 .05457863
73975778 .0860854202997254 .01567071011197725 .0549456973026314 .083763310930602
2 .01259750054600712 .055227487771347 .0823432411796969 .01000000000000162 .0553
020160610303 .082 41 1 348 H?.01000000000000162 .0553020160610303 .082 14 351 15
98 355 ?356 357 358 4 346 +0 0 356 357 22 50 352 1614 0 356 359 346 0 +.01000000
000000162 .0389499999999967 .092 -964506252643105e-28 1 0 -1 -964506252643105e-2
8 0 50 353 1460 0 357 346 360 0 +.01000000000000162 -.0207500000000033 .092 -964
506252643105e-28 1 0 -1 -964506252643105e-28 0 141 354 341 354 354 346 14 357 14
53 361 ?351 362 363 4 353 -0 0 351 362 22 51 360 1459 0 362 353 318 364 +.010000
00000000162 -.0507500000000033 .092 0 1 0 .01 0 0 1 14 362 1444 365 ?357 366 367
 4 360 -0 0 357 366 22 51 318 1298 0 308 360 368 0 +.01 .0842499999999957 .099 0
 -1 0 .00147782604588 0 0 -1 141 364 349 364 364 360 38 349 1382 0 179 369 344 0
 +285 360 370 371 371 16 179 1400 372 ?334 373 175 349 0 0 1 31 369 1357 0 166 3
74 349 0 -.01700000000000165 -.02075000000000265 .092 -964506252643105e-28 1 0 -
1 -964506252643105e-28 0 .00147782604588 40 20 370 0 1 20 .00058278427212149 .34
5176295601839 ??.01000000000000162 -.03530201606103855 .102 .01326520587495636 -
.0351841907063604 .1014519008984522 .01616157407274585 -.03488103902697285 .0998
762303766514 .01841135199116525 -.0345142877835343 .0974082490401929 .0197339636
8884395 -.0342438991285675 .0942912771338926 .019945333224519 -.0341968664754399
5 .0909558031539452 .0190743570583326 -.03438387886578275 .0877980904367278 .017
21914814369695 -.03472310990163755 .0850801806324601 .0145175016914195 -.0350762
1143865815 .0830785551356276 .0112862476754594 -.0352837523413417 .0820830666576
114 .00796981847966363 -.03525650254039835 .0822082502587904 .00491642325760777
 -.0350158850484893 .0833885397577303 .00238312397546898 -.03465709192078585 .08
55205556081636 .000660873752579931 -.03432892261412785 .0884249865825819 3658960
839106775e-21 -.0341853575862341 .0917295081724795 .000458703827652413 -.0342858
4792624085 .0949939384348237 .001936641706517515 -.0345786373975867 .09791457970
02747 .00432928988802606 -.0349456973026401 .100236689069398 .00740249945399621
 -.03522748777135545 .101656758820303 .01000000000000162 -.03530201606103855 .10
2 41 1 371 H?.01000000000000162 -.03530201606103855 .102 16 166 1414 375 ?376 16
7 162 369 0 0 1 31 374 1071 0 197 377 369 0 +.01 .03494999999999585 .099 0 1 0 0
 0 1 .00147782604588 16 197 1138 378 ?379 193 380 374 0 0 1 31 377 1062 0 380 38
1 374 0 -.01 .03494999999999585 .085 0 1 0 0 0 1 .00147782604588 16 380 1177 382
 ?383 197 384 377 0 0 1 31 381 1053 0 384 385 377 0 +.002999999999999925 .034949
99999999585 .092 0 1 0 0 0 1 .00147782604588 16 384 1210 386 ?387 380 373 381 0
 0 1 31 385 1044 0 373 388 381 0 +.017 .03494999999999585 .092 0 1 0 0 0 1 .0014
7782604588 16 373 1246 389 ?390 384 179 385 0 0 1 38 388 635 0 391 392 385 0 +28
5 5 393 394 395 16 391 627 396 ?50 397 398 388 0 0 1 38 392 634 0 398 399 388 0
 +285 5 400 401 402 40 6 393 0 1 6 .000848980842178391 .358826615202835 ??-.0334
116362188091 .02294999999999585 .055 -.0319526276111119 .02709531209769065 .0557
387217593781 -.0303113338602073 .03067048672878675 .0578133746854156 -.028757256
06879675 .03345522886717885 .0611999856510432 -.02797317655701965 .0347044635918
982 .0645849253289718 -.02781230169130435 .03494999999999585 .067 41 1 394 L?-.0
334116362188091 .02294999999999585 .055 41 1 395 L?-.02781230169130435 .03494999
999999585 .067 16 398 620 403 ?42 391 404 392 0 0 1 30 399 617 0 404 292 392 0 -
.0135 .02294999999999585 .055 1 0 0 40 6 400 0 1 6 .000723263490416269 .35270808
84870035 ??.0478123016913044 .03494999999999585 .067 .0481620820940376 .03441163
96303475 .0634460139302535 .0490819736151473 .0329100850618012 .0603069658926909
 .0504349621217035 .0304275915714619 .0576146057999496 .0520780806182042 .026784
152962899 .05562901626696 .0534116362188092 .02294999999999585 .055 41 1 401 L?.
0478123016913044 .03494999999999585 .067 41 1 402 L?.0534116362188092 .022949999
99999585 .055 16 404 615 405 ?47 398 406 399 0 0 1 30 292 602 0 406 284 399 0 +0
 .03494999999999585 .067 1 0 0 16 406 600 407 ?408 404 291 292 0 0 1 81 1 407 67
4 115 406 0 0 276 405 409 17 408 0 410 68 411 51 412 406 0 273 +16 291 536 413 ?
62 406 283 284 0 0 1 81 1 413 584 115 291 0 0 289 278 414 17 62 0 330 77 415 60
 416 291 0 417 +17 77 0 330 71 62 75 417 258 0 418 +17 415 0 330 62 42 54 209 20
6 0 416 -17 416 0 303 419 420 54 62 291 0 0 -17 417 0 421 279 418 60 77 258 0 42
0 -15 421 221 0 417 307 422 17 279 0 421 423 417 63 420 274 0 264 +17 418 0 421
 417 423 75 200 184 0 257 -17 420 0 303 416 65 60 279 274 0 0 -15 303 554 0 416
 299 0 17 65 0 303 420 419 63 290 283 0 279 -17 419 0 303 65 416 57 56 280 0 0 -
17 290 0 330 424 264 57 65 283 0 419 +17 424 0 330 50 290 43 59 205 0 425 -17 26
4 0 330 290 71 63 423 261 0 0 +17 71 0 330 264 77 69 257 254 0 423 -17 423 0 421
 418 279 69 264 261 0 200 -17 200 0 426 257 257 69 418 184 0 0 +15 426 463 0 200
 302 0 17 257 0 426 200 200 75 71 254 0 0 +14 302 460 427 ?299 428 426 4 429 +0
 0 299 428 22 81 1 427 2064 310 302 430 0 431 301 432 14 428 389 431 ?302 433 43
4 4 435 +0 0 302 433 22 54 255 429 473 0 302 436 435 0 +.01 -.0167500000000042 .
105 -1 248181075232587e-29 0 -.02675 .0453020160610344 -248181075232587e-29 -1 0
 51 436 934 0 437 438 429 0 -.01 -.04175000000000425 .099 0 1 0 .00147782604588
 0 0 1 54 435 402 0 428 429 439 0 +.01 .03494999999999585 .105 1 -22454108914937
6e-29 0 -.02495 .0453020160610344 224541089149376e-29 1 0 50 439 285 0 109 435 4
40 0 +.0135 .00999999999999587 .055 0 0 1 1 0 0 14 109 226 441 ?442 307 106 4 43
9 +0 0 442 307 22 51 440 284 0 433 439 443 0 +.01 .00999999999999585 .047 0 0 1
 .0029 1 0 0 14 433 268 444 ?428 445 446 4 440 -0 0 428 445 22 51 443 283 0 445
 440 447 0 +.017 .00999999999999588 .047 0 0 1 .0015 1 0 0 14 445 262 448 ?433 4
49 450 4 443 -0 0 433 449 22 51 447 282 0 449 443 451 0 +.01 .01699999999999585
 .047 0 0 1 .0015 1 0 0 14 449 256 452 ?445 453 454 4 447 -0 0 445 453 22 51 451
 281 0 453 447 455 0 +.01 .00299999999999583 .047 0 0 1 .0015 1 0 0 14 453 250 4
56 ?449 457 458 4 451 -0 0 449 457 22 51 455 280 0 457 451 459 0 +.003 .00999999
999999584 .047 0 0 1 .0015 1 0 0 14 457 244 460 ?453 442 461 4 455 -0 0 453 442
 22 50 459 279 0 442 455 296 0 +.01 .00999999999999585 .047 0 0 1 1 0 0 14 442 2
35 462 ?457 109 463 4 459 -0 0 457 109 22 50 296 277 0 307 459 285 0 +.046561047
0199394 -.01675000000000415 .105 0 -1 0 0 0 -1 81 1 462 2050 310 442 464 0 441 4
60 465 15 463 1798 0 99 442 466 17 99 0 463 24 467 27 37 397 0 0 +15 466 238 0 2
33 442 468 17 233 0 466 233 233 0 469 230 0 0 +15 468 239 0 238 442 470 17 238 0
 468 238 238 0 471 235 0 0 +15 470 240 0 243 442 472 17 243 0 470 243 243 0 473
 240 0 0 +15 472 241 0 247 442 474 17 247 0 472 247 247 0 475 244 0 0 +15 474 24
2 0 250 442 476 17 250 0 474 250 250 0 477 234 0 0 +15 476 243 0 331 442 0 17 33
1 0 476 331 331 0 253 239 0 0 -17 477 0 461 477 477 0 250 234 0 0 -15 461 248 0
 477 457 478 15 478 249 0 229 457 0 17 229 0 478 229 229 0 479 226 0 0 +17 479 0
 480 479 479 0 229 226 0 0 -15 480 230 0 479 109 481 15 481 231 0 482 109 483 17
 482 0 481 482 482 0 225 222 0 0 -15 483 232 0 484 109 485 17 484 0 483 484 484
 0 221 218 0 0 -15 485 233 0 486 109 487 17 486 0 485 486 486 0 217 214 0 0 -15
 487 234 0 488 109 0 17 488 0 487 488 488 0 213 210 0 0 -17 213 0 489 213 213 0
 488 210 0 0 +15 489 267 0 213 445 0 17 217 0 490 217 217 0 486 214 0 0 +15 490
 261 0 217 449 0 17 221 0 491 221 221 0 484 218 0 0 +15 491 255 0 221 453 0 17 2
25 0 492 225 225 0 482 222 0 0 +15 492 273 0 225 433 0 17 475 0 458 475 475 0 24
7 244 0 0 -15 458 254 0 475 453 491 17 473 0 454 473 473 0 243 240 0 0 -15 454 2
60 0 473 449 490 17 471 0 450 471 471 0 238 235 0 0 -15 450 266 0 471 445 489 17
 469 0 446 469 469 0 233 230 0 0 -15 446 272 0 469 433 492 17 24 0 463 493 99 78
 41 9 0 0 +17 467 0 463 99 493 84 83 494 0 0 +17 37 0 36 33 34 84 99 397 0 29 -1
6 397 1801 495 ?99 494 391 350 0 0 1 81 1 495 2016 115 397 0 0 121 23 496 16 494
 1805 497 ?467 25 397 498 0 0 1 30 350 1803 0 397 345 498 0 +.01 .01584999999999
585 .047 -1 0 0 30 498 1807 0 494 350 20 0 +.03706104701993945 .0099999999999958
6 .047 -513992141030165e-30 1 0 30 20 1811 0 25 498 6 0 +.01 .00234999999999588
 .047 1 -115648231731787e-29 0 16 25 1809 499 ?493 9 494 20 0 0 1 81 1 499 2014
 115 25 0 0 107 121 500 17 493 0 463 467 24 81 80 25 0 0 +17 80 0 501 90 502 78
 493 25 0 95 -15 501 1927 0 90 503 0 17 90 0 501 111 80 88 95 128 0 93 +17 502 0
 501 80 111 81 30 125 0 493 -17 95 0 92 41 93 78 90 128 0 24 -17 111 0 501 502 9
0 86 98 112 0 31 -17 30 0 28 26 83 86 502 125 0 111 +15 28 1931 0 30 504 0 17 83
 0 28 30 29 81 467 494 0 502 -17 29 0 28 83 26 84 33 101 0 467 -14 504 1944 505
 ?105 503 28 4 506 -0 0 105 503 22 81 1 505 2094 310 504 507 0 508 509 510 14 10
5 1948 509 ?0 504 36 4 511 -0 0 0 504 22 14 503 1940 508 ?504 94 501 4 512 -0 0
 504 94 22 50 506 1964 0 504 511 512 0 +.03706104701993945 .00234999999999585 .0
3 1 513992141030165e-30 0 -513992141030165e-30 1 0 50 511 1965 0 105 0 506 0 +.0
3706104701993945 .01584999999999585 .03 0 1 0 0 0 1 50 512 1963 0 503 506 513 0
 +.03106104701993945 .002349999999995855 .03 -115648231731787e-29 -1 0 1 -115648
231731787e-29 0 50 513 1962 0 94 512 359 0 +.03106104701993945 .0158499999999958
5 .03 -1 -513992141030165e-30 0 513992141030165e-30 -1 0 14 94 1936 514 ?503 515
 92 4 513 -0 0 503 515 22 51 359 1753 0 516 513 352 0 -.01 .0632499999999957 .09
2 0 -1 0 .0035 0 0 -1 14 516 1718 517 ?515 356 518 4 359 +515 515 515 356 22 81
 1 517 2086 310 516 519 0 520 521 522 14 515 1738 521 ?94 516 523 4 359 +516 516
 94 516 22 14 356 1607 520 ?516 351 524 4 352 +0 0 516 351 22 15 518 1721 0 525
 516 526 17 525 0 518 525 525 0 527 130 0 0 -15 526 1722 0 143 516 0 17 143 0 52
6 143 143 0 319 140 0 0 +17 319 0 309 319 319 0 143 140 0 0 -17 527 0 524 527 52
7 0 525 130 0 0 +16 130 1702 528 ?527 132 128 345 0 0 1 81 1 528 1782 115 130 0
 0 529 142 530 80 255 1 115 531 532 9000 1 1 1 1 1 1 1 1 0 FFFFTFTFFFFFFF3 81 1
 529 1650 115 351 0 533 534 528 535 81 1 142 1783 115 140 0 0 528 134 536 84 255
 32 530 958e2cbcbc850069a80d23a33100a0b481 1 134 1784 115 132 0 0 142 138 537 84
 32 536 b9746a8408b0557e109669d8b919c4be81 1 138 1785 115 136 0 0 134 538 539 84
 32 537 58e3f5a20c17a8fac0f0adb27eae4fcd81 1 538 1786 115 307 0 540 138 541 542
 84 32 539 14074d52d255459bbe97019efc2bc59681 1 540 2045 543 307 538 313 311 544
 545 81 1 541 1787 115 304 0 311 538 546 547 84 32 542 129a009da4ab49ded24f562d7
59f609b81 1 311 2043 543 304 541 306 548 540 549 81 1 546 1788 115 357 0 550 541
 551 552 84 32 547 2b26f3aa24f9e2e43544e21ed63aceae81 1 550 2079 543 357 546 361
 553 533 554 81 1 551 1789 115 356 0 555 546 556 557 84 32 552 3276f76db592e1625
27e49f14eda0bcd81 1 555 2083 543 356 551 520 533 519 558 81 1 556 1790 115 516 0
 519 551 559 560 84 32 557 66b807406462302c8fae88d93e7a7efb81 1 519 2085 543 516
 556 517 555 561 562 81 1 559 1791 115 515 0 561 556 127 563 84 32 560 0920a7d59
82e4e7313155ba60c02c61181 1 561 2087 543 515 559 521 519 564 565 81 1 127 2007 1
15 125 0 0 559 129 566 84 32 563 92a0fd2b9fa6fa331860e5c6f2e9f69781 1 129 2008 1
15 128 0 0 127 100 567 84 32 566 6bcbf52e03f1b45ee445d2cd6ba2a13d81 1 100 2009 1
15 40 0 0 129 124 568 84 32 567 a07931a418b4690e7ab71cd7de2c7fb781 1 124 2010 11
5 101 0 0 100 497 569 84 32 568 c1e46df4d8666a7aef6714b33b21f77d81 1 497 2011 11
5 494 0 0 124 118 570 84 32 569 5fdae50fb5c7dc7000ebadef1c8c448781 1 118 2012 11
5 112 0 0 497 107 571 84 32 570 9e92c19e929bdc629ff4556188a3f2b481 1 107 2013 11
5 102 0 0 118 499 572 84 32 571 8fea75379b6392d3feab3872f62e5fcd84 32 572 a12563
6adecc22f64c6927e9d4caec6780 1 543 573 574 8015 0 0 0 0 3 5 0 0 0 FFFFTFFFFFFFFF
2 81 1 521 2088 310 515 561 0 517 514 575 81 1 564 2089 543 94 576 514 561 577 5
78 83 255 1 565 0 81 1 576 2021 115 94 0 564 579 580 581 81 1 514 2090 310 94 56
4 0 521 508 582 81 1 577 2091 543 503 580 508 564 507 583 83 1 578 0 81 1 580 20
22 115 503 0 577 576 584 585 81 1 508 2092 310 503 577 0 514 505 586 81 1 507 20
93 543 504 584 505 577 587 588 83 1 583 0 81 1 584 2023 115 504 0 507 580 589 59
0 81 1 587 2095 543 105 589 509 507 0 591 83 1 588 0 81 1 589 2024 115 105 0 587
 584 0 592 81 1 509 2096 310 105 587 0 505 0 593 83 1 591 0 80 1 310 0 594 8001
 0 0 0 0 3 5 0 0 0 FFFFTFTFFFFFFF2 83 3 593 1 .6 0 79 255 15 594 SDL/TYSA_COLOUR
84 32 592 8000ee1f95488f107143f6aefa9cae5a84 32 590 fe155fb93b5a0c98906badd1cfb8
ad9283 3 586 1 .6 0 84 32 585 c2374ac40e5024f0b27051301bcbb3f183 3 582 1 .6 0 81
 1 579 2020 115 109 0 544 116 576 595 84 32 581 d3c01b08d91b658c1e8de7e4696ce838
81 1 544 2047 543 109 579 441 540 464 596 81 1 116 2019 115 442 0 464 113 579 59
7 84 32 595 3b3169d14985bdc1022827297ffb997881 1 464 2049 543 442 116 462 544 59
8 599 84 32 597 acb3383962fbf62318ac8e412df9959e81 1 598 2051 543 457 600 460 46
4 601 602 83 1 599 0 81 1 600 352 115 457 0 598 603 604 605 81 1 460 2052 310 45
7 598 0 462 456 606 81 1 601 2053 543 453 603 456 598 607 608 83 1 602 0 81 1 60
3 351 115 453 0 601 609 600 610 81 1 456 2054 310 453 601 0 460 452 611 81 1 607
 2055 543 449 609 452 601 612 613 83 1 608 0 81 1 609 350 115 449 0 607 614 603
 615 81 1 452 2056 310 449 607 0 456 448 616 81 1 612 2057 543 445 614 448 607 6
17 618 83 1 613 0 81 1 614 349 115 445 0 612 216 609 619 81 1 448 2058 310 445 6
12 0 452 444 620 81 1 617 2059 543 433 604 444 612 621 622 83 1 618 0 81 1 604 3
53 115 433 0 617 600 267 623 81 1 444 2060 310 433 617 0 448 431 624 81 1 621 20
61 543 428 625 431 617 430 626 83 1 622 0 81 1 625 428 115 428 0 621 203 256 627
 81 1 431 2062 310 428 621 0 444 427 628 81 1 430 2063 543 302 629 427 621 630 6
31 83 1 626 0 81 1 629 499 115 302 0 430 199 263 632 81 1 630 2065 543 299 633 3
01 430 634 635 83 1 631 0 81 1 633 590 115 299 0 630 282 636 637 81 1 301 2066 3
10 299 630 0 427 638 639 81 1 634 2067 543 17 640 638 630 641 642 83 1 635 0 14
 17 644 638 ?437 299 643 4 5 -0 0 437 299 22 81 1 640 681 115 17 0 634 396 187 6
44 81 1 638 2068 310 17 634 0 301 645 646 81 1 641 2069 543 437 647 645 634 648
 649 83 1 642 0 14 437 913 645 ?650 17 651 4 436 +0 0 650 17 22 81 1 647 1493 11
5 437 0 641 652 653 654 81 1 645 2070 310 437 641 0 638 655 656 81 1 648 2071 54
3 650 657 655 641 658 659 83 1 649 0 14 650 885 655 ?660 437 661 4 438 +0 0 660
 437 22 81 1 657 1495 115 650 0 648 653 662 663 81 1 655 2072 310 650 648 0 645
 664 665 81 1 658 2073 543 660 652 664 648 666 667 83 1 659 0 14 660 857 664 ?36
6 650 668 4 669 +0 0 366 650 22 81 1 652 1492 115 660 0 658 375 647 670 81 1 664
 2074 310 660 658 0 655 671 672 81 1 666 2075 543 366 653 671 658 553 673 83 1 6
67 0 14 366 829 671 ?362 660 674 4 675 -0 0 362 660 22 81 1 653 1494 115 366 0 6
66 647 657 676 81 1 671 2076 310 366 666 0 664 365 677 81 1 553 2077 543 362 662
 365 666 550 678 83 1 673 0 81 1 662 1496 115 362 0 553 657 155 679 81 1 365 207
8 310 362 553 0 671 361 680 83 1 678 0 81 1 361 2080 310 357 550 0 365 355 681 8
3 3 680 1 .6 0 81 1 355 2082 310 351 533 0 361 520 682 83 3 681 1 .6 0 81 1 533
 2081 543 351 529 355 550 555 683 81 1 520 2084 310 356 555 0 355 517 684 83 3 6
82 1 .6 0 83 3 684 1 .6 0 83 1 683 0 81 1 155 1639 115 153 0 0 662 146 685 84 32
 679 307b1ad1c2e3ac7f52e9422f2c3ba14481 1 146 1640 115 144 0 0 155 159 686 84 32
 685 885098ac1e2c302636b1c8baa2c16b6d81 1 159 1641 115 157 0 0 146 687 688 84 32
 686 fab33419a3e9aa951f4f9f8946161f2d81 1 687 1642 115 148 0 0 159 151 689 84 32
 688 db612a9a9b5fae21d2d6e756b20747c716 148 1570 687 ?690 149 144 344 0 0 1 81 1
 151 1643 115 149 0 0 687 340 691 84 32 689 499df53398c2b3ed70360f3eec32855584 3
2 691 471695d8ae7be21d4a002f1636b7a94f17 690 0 692 690 690 0 693 148 0 0 +15 692
 1583 0 690 356 694 17 693 0 695 693 693 0 690 148 0 0 -15 695 1510 0 693 308 0
 15 694 1584 0 156 356 696 17 156 0 694 156 156 0 697 153 0 0 +15 696 1585 0 160
 356 0 17 160 0 696 160 160 0 698 157 0 0 +17 698 0 699 698 698 0 160 157 0 0 -1
5 699 1529 0 698 322 0 17 697 0 700 697 697 0 156 153 0 0 -15 700 1523 0 697 327
 0 14 327 1232 701 ?316 322 702 4 703 -0 0 316 322 22 81 1 701 2038 310 327 704
 0 325 705 706 14 316 1196 705 ?308 327 707 4 368 +0 0 308 327 22 15 702 1225 0
 708 327 700 51 703 1292 0 327 368 329 0 +.002999999999999925 .0842499999999957
 .092 0 -1 0 .00147782604588 0 0 -1 51 368 1295 0 316 318 703 0 -.01 .0842499999
999957 .085 0 -1 0 .00147782604588 0 0 -1 51 329 1289 0 322 703 675 0 +.017 .084
2499999999957 .092 0 -1 0 .00147782604588 0 0 -1 51 675 943 0 366 329 669 0 +.01
700000000000165 -.04175000000000265 .092 0 1 0 .00147782604588 0 0 1 51 669 940
 0 660 675 438 0 -.01 -.04175000000000425 .085 0 1 0 .00147782604588 0 0 1 51 43
8 937 0 650 669 436 0 -.002999999999999925 -.04175000000000425 .092 0 1 0 .00147
782604588 0 0 1 17 708 0 702 708 708 0 387 384 0 0 -17 387 0 709 387 387 0 708 3
84 0 0 +15 709 1051 0 387 304 710 15 710 1042 0 390 304 410 17 390 0 710 390 390
 0 711 373 0 0 +15 410 63 0 411 304 712 17 411 0 410 408 713 48 74 269 0 412 -15
 712 1061 0 714 304 0 17 714 0 712 714 714 0 383 380 0 0 -17 383 0 707 383 383 0
 714 380 0 0 +15 707 1189 0 383 316 715 15 715 1516 0 152 316 0 17 152 0 715 152
 152 0 716 149 0 0 +17 716 0 717 716 716 0 152 149 0 0 -15 717 1581 0 716 356 71
8 15 718 1582 0 719 356 692 17 719 0 718 719 719 0 147 144 0 0 -17 147 0 358 147
 147 0 719 144 0 0 +15 358 1576 0 147 351 339 15 339 1577 0 338 351 0 17 713 0 4
10 411 68 72 204 201 0 0 -17 74 0 330 333 50 72 411 269 0 268 +17 412 0 643 425
 53 48 408 406 0 0 -15 643 645 0 425 17 0 17 425 0 643 720 412 43 50 391 0 0 -17
 53 0 643 412 720 51 42 398 0 408 -17 720 0 643 53 425 35 47 404 0 0 -17 42 0 33
0 415 273 35 53 398 0 209 +17 209 0 110 47 56 35 415 206 0 720 +15 110 229 0 209
 109 480 17 47 0 110 59 209 43 720 404 0 424 +17 56 0 110 209 59 54 419 280 0 41
5 +17 59 0 110 56 47 57 424 205 0 290 +16 205 608 636 ?59 206 201 202 206 206 1
 81 1 636 670 115 205 0 0 633 208 721 81 1 208 671 115 206 0 0 636 272 722 84 32
 721 e7d61408e54f3039739dbb7be0710b2381 1 272 672 115 270 0 0 208 276 723 84 32
 722 45bc9cc876f76728bc620f2d3a6c12bf81 1 276 673 115 269 0 0 272 407 724 84 32
 723 3d90027c19aa2947ea2fcc3b8beee91484 32 724 c8da15c71eb01f75aef5bdd8fc93dc981
7 50 0 330 74 424 48 425 391 0 411 +17 333 0 330 273 74 66 268 265 0 204 -17 268
 0 434 204 204 72 333 265 0 713 +15 434 392 0 204 428 0 17 204 0 434 268 268 66
 713 201 0 0 +17 68 0 410 713 408 66 273 270 0 333 -17 711 0 328 711 711 0 390 3
73 0 0 -15 328 1261 0 711 322 699 81 1 705 2040 310 316 725 0 701 312 726 81 1 7
25 2039 543 316 727 705 704 548 728 81 1 312 2042 310 308 548 0 705 306 729 83 3
 726 1 .6 0 81 1 548 2041 543 308 730 312 725 311 731 83 3 729 1 .6 0 81 1 730 1
646 115 308 0 548 342 732 733 83 1 731 0 81 1 342 1645 115 15 0 324 340 730 734
 81 1 732 1647 115 322 0 735 730 727 736 84 32 733 a7f5e8abd9ccc966c488d0d7c5b3a
cbc81 1 735 2035 543 322 732 325 324 704 737 81 1 727 1648 115 316 0 725 732 534
 738 84 32 736 1b9aced6e01cf4b44d635cef59bacb2981 1 534 1649 115 327 0 704 727 5
29 739 84 32 738 c2154fcbdb20c02223ea9660e792237b81 1 704 2037 543 327 534 701 7
35 725 740 84 32 739 cbb87ab676b87f6dd827bb1d7200261a83 1 740 0 81 1 325 2036 31
0 322 735 0 321 701 741 81 1 324 2033 543 15 342 321 0 735 742 83 1 737 0 83 1 7
42 0 83 3 741 1 .6 0 84 32 734 4de1dc3f203017946b30a6e82afca22083 1 728 0 83 3 7
06 1 .6 0 83 3 677 1 .6 0 84 32 676 efdacfb959a56a3c83e1f8266fdf82a215 674 1355
 0 376 366 743 17 376 0 674 376 376 0 744 166 0 0 +15 743 827 0 183 366 0 17 183
 0 743 183 183 0 745 180 0 0 +17 745 0 422 745 745 0 183 180 0 0 -15 422 792 0 7
45 307 0 17 744 0 746 744 744 0 376 166 0 0 -15 746 1443 0 744 357 0 83 3 672 1
 .6 0 81 1 375 1490 115 166 0 0 173 652 747 84 32 670 896628315b8021f466aee4eeeb
eb4e2281 1 173 1489 115 171 0 0 372 375 748 84 32 747 de09e552f158afd69792d25d9c
b690ac81 1 372 1488 115 179 0 0 164 173 749 84 32 748 bf93b7df7f3cabe758c51650fc
d6a65781 1 164 1487 115 162 0 0 169 372 750 84 32 749 102fd8f5fa4284c201f383d4c8
91125881 1 169 1486 115 167 0 0 177 164 751 84 32 750 bab0b630addc1f9c9bce4c1b09
456ddc81 1 177 1485 115 175 0 0 378 169 752 84 32 751 3fefbf15d6785d3ae39ea20626
a6f38081 1 378 1335 115 197 0 0 386 177 753 84 32 752 c93a8b72ddaf27243b98285f8c
125f8881 1 386 1333 115 384 0 0 382 378 754 84 32 753 998afe088cb0534896a7989634
bb6eaa81 1 382 1332 115 380 0 0 389 386 755 84 32 754 e047d81578c2950ecb43507338
f1cf5d81 1 389 1330 115 373 0 0 191 382 756 84 32 755 0849bf7c0cbb19419d0934a531
a2aad281 1 191 978 115 189 0 0 182 389 757 84 32 756 d83b321a99e532fe477550a5846
0e9b281 1 182 975 115 180 0 0 195 191 758 84 32 757 d72a37dc42d6a1cfd552f9484bb8
faa381 1 195 974 115 193 0 0 187 182 759 84 32 758 4fbeb30829af5b82ac564b673f639
90e81 1 187 972 115 185 0 0 640 195 760 84 32 759 293fd2a4e3d2a54818f4de86054a86
9984 32 760 b43d0375f244ef2805880a571383d85815 668 1363 0 761 660 762 17 761 0 6
68 761 761 0 170 167 0 0 -15 762 855 0 763 660 0 17 763 0 762 763 763 0 188 185
 0 0 -17 188 0 764 188 188 0 763 185 0 0 +15 764 783 0 188 307 765 15 765 775 0
 192 307 766 17 192 0 765 192 192 0 767 189 0 0 +15 766 767 0 196 307 421 17 196
 0 766 196 196 0 768 193 0 0 +17 768 0 769 768 768 0 196 193 0 0 -15 769 911 0 7
68 437 0 17 767 0 770 767 767 0 192 189 0 0 -15 770 883 0 767 650 0 17 170 0 771
 170 170 0 761 167 0 0 +15 771 1441 0 170 357 772 15 772 1442 0 165 357 746 17 1
65 0 772 165 165 0 773 162 0 0 +17 773 0 367 773 773 0 165 162 0 0 -15 367 1422
 0 773 362 774 15 774 1423 0 336 362 0 17 336 0 774 336 336 0 334 179 0 0 -83 3
 665 1 .6 0 84 32 663 fe135d7de920da9c553eda5d39df864615 661 1369 0 775 650 770
 17 775 0 661 775 775 0 174 171 0 0 -17 174 0 776 174 174 0 775 171 0 0 +15 776
 1440 0 174 357 771 83 3 656 1 .6 0 84 32 654 f235b06e02610479edd86847499324cb15
 651 1375 0 777 437 769 17 777 0 651 777 777 0 178 175 0 0 -17 178 0 778 178 178
 0 777 175 0 0 +15 778 1439 0 178 357 776 83 3 646 1 .6 0 81 1 396 677 115 391 0
 0 403 640 779 84 32 644 2d99e085e230be47e74df4198624364d81 1 403 676 115 398 0
 0 405 396 780 84 32 779 82f8b20b466c29a3ee73363f03ffd05081 1 405 675 115 404 0
 0 407 403 781 84 32 780 e97c6bf9c08e839a7eeee09ecf556a4484 32 781 e17502b1b27ae
7a36e35e18fee32fc9583 3 639 1 .6 0 81 1 282 586 115 280 0 0 278 633 782 84 32 63
7 017e5405b70e11d260706231098044a781 1 278 585 115 274 0 0 413 282 783 84 32 782
 45a144a916062adda60f54f4048d452e84 32 783 f34e4d89185a23e7e551fa5b93e3ee4e81 1
 199 496 115 184 0 0 256 629 784 81 1 263 580 115 261 0 0 629 260 785 84 32 632
 3d854b2417810808a7bfdf475ff0a41081 1 260 581 115 258 0 0 263 289 786 84 32 785
 36ff6cc25d92703c39ade76340f8735c81 1 289 583 115 283 0 0 260 413 787 84 32 786
 a90d301d62373063d0698ec47b43f97784 32 787 ec217ccd3e3b39498768e55665b6ddc681 1
 256 495 115 254 0 0 625 199 788 84 32 784 c42dcfe01e3af7d4ea8b3bae61f8905c84 32
 788 639a9b61e85f6e6bf9b409aca1daf88483 3 628 1 .6 0 81 1 203 425 115 201 0 0 26
7 625 789 84 32 627 5abf1c3e7434b52e1e840e1d68b2f3ac81 1 267 424 115 265 0 0 604
 203 790 84 32 789 a23576ad0b123ed6c328aa65baddb46a84 32 790 b0f4274c1f7bfdc6bd7
9f9289453c75583 3 624 1 .6 0 84 32 623 ce42329eeff3d9c0a5fc7b293e7f5b2d83 3 620
 1 .6 0 81 1 216 336 115 214 0 0 224 614 791 84 32 619 024fa28f7f6e184e3a1eaf4f1
cf8dc1281 1 224 335 115 222 0 0 212 216 792 84 32 791 b425c4369414a52e2aedbcfb64
79fa7481 1 212 334 115 210 0 0 220 224 793 84 32 792 c0815c1c2035e31bc7395eebed8
dbef981 1 220 333 115 218 0 0 228 212 794 84 32 793 4e4dfa32e20016d9d8d712a2dec7
4aea81 1 228 332 115 226 0 0 232 220 795 84 32 794 7fe85714375500d6d8e5463763c1f
70081 1 232 331 115 230 0 0 249 228 796 84 32 795 5c98da1836867efec1ac6a5bcc8f25
7381 1 249 330 115 234 0 0 237 232 797 84 32 796 caa5637599b6b954daa6c8516ee2378
881 1 237 329 115 235 0 0 246 249 798 84 32 797 6b4c2108715bb7790b4c91152e84dc27
81 1 246 328 115 244 0 0 242 237 799 84 32 798 985d90d70a866d26c95b6a049ac40ca88
1 1 242 327 115 240 0 0 252 246 800 84 32 799 7e6beb887222da43fb20485a33c16a3c81
 1 252 326 115 239 0 0 0 242 801 84 32 800 0ff9bc248abc4f7d6925fa2ede2797c484 32
 801 92ffc37f14d945a4bf7e31a603f6c34583 3 616 1 .6 0 84 32 615 a1abafdc8fb41b887
acb8e623b9cf80283 3 611 1 .6 0 84 32 610 9a02fd1e26d5959b9c0f0b70aab6197683 3 60
6 1 .6 0 84 32 605 ba84c81f2634577c1ee97a80352c4ea681 1 441 2048 310 109 544 0 3
13 462 802 83 1 596 0 81 1 313 2046 310 307 540 0 306 441 803 83 3 802 1 .6 0 83
 3 803 1 .6 0 83 3 575 1 .6 0 79 21 574 SDL/TYSA_TRANSLUCENCY83 1 562 0 83 1 558
 0 83 1 554 0 83 1 549 0 83 1 545 0 84 32 535 ab1c31273f3ee750f821d51fb861dc0079
 15 532 UGS/ObjectState15 524 1665 0 527 356 717 15 523 1726 0 135 515 804 17 13
5 0 523 135 135 0 805 132 0 0 +15 804 1727 0 139 515 0 17 139 0 804 139 139 0 80
6 136 0 0 +17 806 0 315 806 806 0 139 136 0 0 -15 315 1679 0 806 307 764 17 805
 0 363 805 805 0 135 132 0 0 -15 363 1673 0 805 357 778 83 3 522 1 .6 0 83 3 510
 1 .6 0 17 31 0 106 98 104 86 26 32 0 0 +81 1 121 2015 115 32 0 0 499 495 807 84
 32 500 8adf9af10eedc85ead953cf9197a9bc484 32 807 2071615480c43dc1a7afba9a366abd
6a81 1 23 2017 115 9 0 0 495 113 808 84 32 496 b8adf36e9b7f50e0171ba96d3f5da94a8
4 32 808 7e7549a777437639fc2074558a05b55f83 3 465 1 .6 0 83 3 432 1 .6 0 84 32 4
14 b981e55dc27bc7cf66ea4c1b5d7cbb6784 32 409 c0e4cb56c1cf5b59cae3b6d2fd4923f017
 379 0 320 379 379 0 809 197 0 0 +15 320 1069 0 379 304 709 17 809 0 317 809 809
 0 379 197 0 0 -15 317 1153 0 809 308 695 84 32 343 eddb0e459a900107648f377fff76
8f9c83 3 326 1 .6 0 83 3 314 1 .6 0 141 298 281 810 811 285 141 810 341 812 298
 285 141 811 284 298 813 285 141 813 392 811 814 285 141 814 388 813 812 285 141
 812 349 814 810 285 40 6 293 0 1 6 .000904152835838559 .36722843545278 ??.05283
35167735994 -.00475000000000415 .055 .051145920429405 -.00895483820061395 .05576
08124979297 .0492838962904806 -.01256209545749632 .0578911491085302 .04753796518
21326 -.01536087201141625 .0613955914533797 .0467228947186526 -.0165273757216427
 .0646992564003439 .0465610470199394 -.01675000000000415 .067 41 1 294 L?.052833
5167735994 -.00475000000000415 .055 41 1 295 L?.0465610470199394 -.0167500000000
0415 .067 84 32 117 62a9d044017b19d98f837ea57b3e0f0119 16 74 0 1 0 8 4 S0 141 19
 392 815 815 5 141 815 388 19 19 5 74 4 CI16 index_map_offset0 0 1 dCCZ20 14 5 0
 0 589 12 587 509 2 0 0 0 0 0 0 0 0 0 0 0 0 0 0 0 81 2 12 2029 816 1 0 2 0 0 817
 818 80 2 816 819 820 8004 0 0 0 0 3 5 0 0 0 FFTFFFFFFFFFFF2 3 83 1 817 7830.64
 84 8 818 Kg/Cu M 79 16 820 SDL/TYSA_DENSITY80 1 11 821 822 9000 0 0 0 0 3 5 0 0
 0 FFTFFFFFFFFFFF1 82 255 1 13 78 79 24 822 UG2/BODY_COLOR_ATTRIBUTE1 0 
