**ABCDEFGHIJKLMNOPQRSTUVWXYZabcdefghijklmnopqrstuvwxyz**************************
**PARASOLID !"#$%&'()*+,-./:;<=>?@[\]^_`{|}~0123456789**************************
**PART1;
MC=x64/Windows NT;
MC_MODEL=genuineintel family 6 model 14 stepping 3, intel(r) core(tm) i7-6700 cpu @ 3.40ghz;
MC_ID=robotic-pc;
OS=windows nt (x64);
OS_RELEASE=6.1 windows 7 professional (build 7601) service pack 1;
FRU=mdc_ugii_v7.0_djl_can_vrh;
APPL=unigraphics;
SITE=unknown;
USER=Robotic;
FORMAT=text;
GUISE=transmit;
KEY=mechanical_down;
FILE=C:\Users\Robotic\Desktop\Mechanical arm\mechanical arm\Solidworks\mechanical_down.x_t;
DATE=5-oct-2017;
**PART2;
SCH=SCH_2900123_28101;
USFLD_SIZE=0;
**PART3;
**END_OF_HEADER*****************************************************************
T51 : TRANSMIT FILE created by modeller version 290012323 SCH_2900123_28101_1300
6203 0 12 33 CCCCCCI4 mesh1006 0 I8 polyline1008 0 CCCCCCCDI5 owner1040 0 CCCCCC
I13 boundary_mesh1006 0 I17 boundary_polyline1008 0 CCCA16 index_map_offset0 0 1
 dA9 index_map82 0 A17 node_id_index_map82 0 A20 schema_embedding_map82 0 A5 chi
ld12 0 A14 lowest_node_id0 0 1 dZ1 2707 2 3 0 0 0 0 0 0 1e3 1e-8 0 0 0 1 0 1 1 4
 5 6 7 0 0 8 9 10 0 0 0 0 0 0 81 255 1 2 2707 11 1 12 0 0 0 13 70 11 CI9 list_ty
pe0 0 1 uI10 notransmit0 0 1 lCCCDCCDI12 finger_index0 0 1 dI12 finger_block1012
 0 CZ3 0 4 T1 0 0 6 20 1 14 14 13 255 4 3 0 1 15 16 0 0 17 0 51 255 5 1569 0 18
 19 0 0 +.002000000000000025 .02 .0355 1171455364582524e-30 1 0 .005 -1 11714553
64582524e-30 0 31 255 6 2284 0 20 21 0 0 -.01 .00999999999999585 -.006 0 0 -1 -1
 0 0 .0065 29 255 7 2404 0 10 22 0 -.0244285714285714 .02614285714285715 -.008 1
9 8 CCCCCCCA5 owner12 0 Z8 1 0 1 23 0 24 V0 16 255 9 1977 25 ?26 0 27 21 0 0 1 1
8 255 10 2402 0 28 0 29 7 ?1 17 255 28 0 30 31 32 10 33 34 0 35 +18 29 2382 0 36
 10 37 22 ?1 17 36 0 38 39 40 29 41 42 0 43 +18 37 1965 0 44 29 45 46 ?1 29 22 2
384 0 29 46 7 -.0164285714285714 .02614285714285715 -.006 29 46 1968 0 37 47 22
 .00900000000000232 -.003 .004 29 47 1519 0 45 48 46 -.003 .02299999999999585 .0
355 18 45 1517 0 49 37 50 47 ?1 29 48 1509 0 50 51 47 -.003 -.003 .0355 18 50 15
07 0 52 45 53 48 ?1 29 51 1496 0 53 54 48 0 0 .04008257569495585 18 53 1494 0 55
 50 56 51 ?1 29 54 1488 0 56 57 51 2342910729164595e-32 .01999999999999615 .0400
8257569495585 18 56 1486 0 58 53 59 54 ?1 29 57 1475 0 59 60 54 .002000000000000
03 .02299999999999635 .0405 18 59 1472 0 61 56 62 57 ?1 29 60 1471 0 62 63 57 .0
02000000000000025 .01999999999999635 .0405 18 62 1468 0 64 59 65 60 ?1 29 63 146
7 0 65 66 60 .002 0 .0405 18 65 1464 0 67 62 68 63 ?1 29 66 1463 0 68 69 63 .002
 -.003 .0405 18 68 1460 0 70 65 71 66 ?1 29 69 1283 0 71 72 66 .053 .03300000000
000125 -.006 18 71 1281 0 73 68 74 69 ?1 29 72 1279 0 74 75 69 .053 -.013 -.006
 18 74 1277 0 76 71 77 72 ?1 29 75 955 0 77 78 72 -.013 .0329999999999949 -.006
 18 77 953 0 79 74 80 75 ?1 29 78 949 0 80 81 75 -.013 -.013 -.006 18 80 947 0 8
2 77 83 78 ?1 29 81 929 0 83 84 78 -.003 -.003 .004 18 83 927 0 85 80 86 81 ?1 2
9 84 919 0 86 87 81 .043 -.003 .0305 18 86 917 0 88 83 89 84 ?1 29 87 916 0 89 9
0 84 .043 -.003 .004 18 89 914 0 91 86 92 87 ?1 29 90 897 0 92 93 87 -.003 .0229
9999999999585 .004 18 92 895 0 94 89 95 90 ?1 29 93 894 0 95 96 90 .043 .0230000
000000003 .0305 18 95 892 0 97 92 98 93 ?1 29 96 891 0 98 99 93 .043 .0230000000
000003 .004 18 98 889 0 100 95 101 96 ?1 29 99 878 0 101 102 96 .04 .02 .0376414
2842854285 18 101 876 0 103 98 104 99 ?1 29 102 870 0 104 105 99 .04 0 .03764142
842854285 18 104 868 0 106 101 107 102 ?1 29 105 860 0 107 108 102 .033 0 .0405
 18 107 857 0 109 104 110 105 ?1 29 108 856 0 110 111 105 .033 .0199999999999993
5 .0405 18 110 853 0 112 107 113 108 ?1 29 111 852 0 113 114 108 .033 -.003 .040
5 18 113 849 0 115 110 116 111 ?1 29 114 848 0 116 117 111 .033 .022999999999999
35 .0405 18 116 845 0 118 113 119 114 ?1 29 117 112 0 119 120 114 .022 .01800000
00000003 -.006 18 119 110 0 121 116 122 117 ?1 29 120 108 0 122 123 117 .04 .018
0000000000003 -.006 18 122 106 0 124 119 125 120 ?1 29 123 101 0 125 126 120 .04
 .002000000000000285 -.006 18 125 99 0 127 122 128 123 ?1 29 126 659 0 128 129 1
23 .00900000000000011 .022999999999997 .0125 18 128 407 0 130 125 131 126 ?1 29
 129 660 0 131 132 126 .0090000000000001 0 .0125 18 131 414 0 133 128 134 129 ?1
 29 132 661 0 134 135 129 .0205000000000025 .0199999999999981 .0125 18 134 401 0
 136 131 137 132 ?1 29 135 666 0 137 138 132 .04 .02 0 18 137 398 0 139 134 140
 135 ?1 29 138 667 0 140 141 135 .04 0 0 18 140 386 0 142 137 143 138 ?1 29 141
 668 0 143 144 138 2342910729164595e-32 .01999999999999615 0 18 143 389 0 145 14
0 146 141 ?1 29 144 673 0 146 147 141 308148791101958e-47 0 0 18 146 387 0 148 1
43 149 144 ?1 29 147 674 0 149 150 144 .00900000000000039 .01999999999999755 .00
4 18 149 405 0 151 146 152 147 ?1 29 150 675 0 152 153 147 .00900000000000232 0
 .004 18 152 408 0 154 149 155 150 ?1 29 153 676 0 155 156 150 .0205000000000004
 .0199999999999981 .004 18 155 403 0 157 152 158 153 ?1 29 156 677 0 158 159 153
 .0205000000000023 0 .004 18 158 410 0 160 155 161 156 ?1 29 159 678 0 161 162 1
56 .0205000000000023 0 .0125 18 161 412 0 163 158 164 159 ?1 29 162 679 0 164 16
5 159 .00900000000000039 .01999999999999755 .0125 18 164 400 0 166 161 167 162 ?
1 29 165 680 0 167 168 162 .0205 .02299999999999815 .0125 18 167 402 0 169 164 1
70 165 ?1 29 168 681 0 170 171 165 .0205 .02299999999999815 .004 18 170 404 0 17
2 167 173 168 ?1 29 171 682 0 173 174 168 .0090000000000001 .022999999999997 .00
4 18 173 406 0 175 170 176 171 ?1 29 174 691 0 177 178 171 .022 .018000000000000
3 -.003 18 177 416 0 179 180 181 174 ?1 29 178 692 0 180 182 174 .04 .0180000000
000003 -.003 18 180 418 0 183 176 177 178 ?1 29 182 693 0 176 184 178 .04 .00200
0000000000285 -.003 18 176 421 0 185 173 180 182 ?1 29 184 694 0 181 186 182 .02
2 .00200000000000029 -.003 18 181 423 0 187 177 188 184 ?1 29 186 695 0 188 189
 184 .022 .00200000000000029 -.006 18 188 417 0 190 181 191 186 ?1 29 189 2196 0
 191 192 186 .0090000000000001 -.003 .0125 18 191 2102 0 193 188 194 189 ?1 29 1
92 2200 0 194 195 189 .0205000000000023 -.003 .004 18 194 2111 0 196 191 197 192
 ?1 29 195 2202 0 197 198 192 .0205000000000023 -.003 .0125 18 197 2101 0 199 19
4 200 195 ?1 29 198 2564 0 200 201 195 -.02442857142857145 -.007 -.008 18 200 24
93 0 202 197 203 198 ?1 29 201 2565 0 203 204 198 -.01642857142857145 -.007 -.00
8 18 203 2495 0 205 200 206 201 ?1 29 204 2567 0 206 207 201 -.0164285714285714
 .02614285714285715 -.008 18 206 2497 0 31 203 208 204 ?1 29 207 2569 0 208 209
 204 -.01642857142857145 -.007 -.006 18 208 2496 0 40 206 210 207 ?1 29 209 2570
 0 210 211 207 -.02442857142857145 -.007 -.006 18 210 2494 0 212 208 213 209 ?1
 29 211 2571 0 213 0 209 -.0244285714285714 .02614285714285715 -.006 18 213 2499
 0 33 210 0 211 ?1 17 33 0 214 215 35 213 28 34 0 32 -15 255 214 2519 0 35 216 0
 17 215 0 214 217 33 210 218 219 0 220 +17 35 0 214 33 217 10 221 222 0 223 +16
 34 2457 224 ?28 225 226 227 0 0 1 17 32 0 30 28 43 213 228 226 0 218 +15 30 253
1 0 31 229 0 17 43 0 30 32 31 29 39 225 0 228 -17 228 0 230 41 218 29 32 226 0 0
 -16 226 2484 231 ?32 34 42 232 0 0 1 17 218 0 230 228 220 213 215 219 0 0 -15 2
30 2380 0 220 233 234 17 220 0 230 218 41 210 235 236 0 0 -16 219 2472 237 ?215
 236 0 238 0 0 1 81 1 237 2592 239 219 0 0 240 241 242 16 236 2476 243 ?235 42 2
19 244 0 0 1 30 255 238 2559 0 219 0 244 0 +-.0244285714285714 .0261428571428571
5 -.006 -1674905425081055e-30 -1 0 30 244 2558 0 236 238 245 0 +-.02442857142857
145 -.007 -.006 1 325260651745651e-30 0 30 245 2557 0 42 244 232 0 +-.0164285714
2857145 -.007 -.006 1360860657878358e-30 1 0 16 42 2480 246 ?36 226 236 245 0 0
 1 30 232 2556 0 226 245 247 0 +-.0164285714285714 .02614285714285715 -.006 -1 0
 0 30 247 2555 0 225 232 248 0 --.0164285714285714 .02614285714285715 -.031 0 0
 1 16 225 2450 249 ?39 250 34 247 0 0 1 30 248 2554 0 250 247 251 0 --.016428571
42857145 -.007 -.031 0 0 1 16 250 2443 240 ?252 253 225 248 0 0 1 30 251 2553 0
 253 248 227 0 --.02442857142857145 -.007 -.031 0 0 1 16 253 2436 241 ?217 254 2
50 251 0 0 1 30 227 2552 0 34 251 255 0 --.0244285714285714 .02614285714285715 -
.031 0 0 1 30 255 2551 0 254 227 256 0 +.01 .02614285714285715 -.008 1 0 0 16 25
4 2459 257 ?31 258 253 255 0 0 1 30 256 2550 0 258 255 259 0 +-.0164285714285714
5 .00999999999999588 -.008 -1360860657878358e-30 -1 0 16 258 2452 260 ?205 261 2
54 256 0 0 1 30 259 2549 0 261 256 262 0 +.01 -.007 -.008 -1 -325260651745651e-3
0 0 16 261 2445 263 ?202 222 258 259 0 0 1 30 262 2548 0 222 259 264 0 +-.024428
57142857145 .0099999999999959 -.008 1674905425081055e-30 1 0 16 222 2438 265 ?35
 20 261 262 0 0 1 31 264 2353 0 266 262 267 0 -.01 .00999999999999585 -.008 0 0
 -1 -1 0 0 .0065 16 266 2308 268 ?269 270 20 264 0 0 1 30 267 2182 0 270 264 271
 0 +.0205000000000023 -.003 0 0 0 -1 16 270 2047 272 ?273 274 266 267 0 0 1 30 2
71 2180 0 274 267 275 0 +.00900000000000231 -.003 -73470641335507e-31 8163404592
83201e-30 0 1 16 274 2027 276 ?277 278 270 271 0 0 1 31 275 1912 0 279 271 280 0
 +.01150582750330986 .0477695087809603 -.006 0 0 1 612323399573677e-31 1 0 .002
 16 279 1812 281 ?282 283 284 275 0 0 1 31 280 1910 0 284 275 285 0 +.0115058275
0330986 -.0241114277445721 -.006 0 0 1 612323399573677e-31 1 0 .002 16 284 1840
 286 ?287 279 278 280 0 0 1 31 285 1908 0 278 280 288 0 +-.0297290467889748 .011
81886817847002 -.006 0 0 1 1 0 0 .002 16 278 1868 289 ?290 284 274 285 0 0 1 31
 288 1907 0 283 285 291 0 +-.0297290467889748 .01181886817847002 -.008 0 0 -1 -1
 0 0 .002 16 283 1865 292 ?293 294 279 288 0 0 1 31 291 1906 0 294 288 295 0 +.0
1150582750330986 -.0241114277445721 -.008 0 0 -1 -1 0 0 .002 16 294 1837 296 ?29
7 298 283 291 0 0 1 31 295 1905 0 298 291 299 0 +.01150582750330986 .04776950878
09603 -.008 0 0 -1 -1 0 0 .002 16 298 1809 300 ?301 302 294 295 0 0 1 30 299 657
 0 303 295 304 0 -.022 .00200000000000029 -.003 0 0 -1 16 303 380 305 ?187 306 3
07 299 0 0 1 30 304 656 0 308 299 309 0 -.022 .0180000000000003 -.003 0 0 -1 16
 308 356 310 ?179 311 312 304 0 0 1 30 309 655 0 312 304 313 0 -.04 .01800000000
00003 -.003 0 0 -1 16 312 364 314 ?183 308 306 309 0 0 1 30 313 654 0 306 309 31
5 0 -.04 .002000000000000285 -.003 0 0 -1 16 306 372 316 ?185 312 303 313 0 0 1
 30 315 653 0 317 313 318 0 +.022 -763278329429795e-32 -.006 3469446951953615e-3
1 1 0 16 317 352 319 ?320 321 322 315 0 0 1 30 318 652 0 321 315 323 0 +78062556
4189576e-32 .0180000000000003 -.006 1 -433680868994202e-30 0 16 321 360 324 ?325
 326 317 318 0 0 1 30 323 651 0 326 318 327 0 +.04 0 -.006 0 -1 0 16 326 368 328
 ?329 330 321 323 0 0 1 30 327 650 0 330 323 331 0 +578241158659021e-33 .0020000
00000000295 -.006 -1 289120579329468e-30 0 16 330 376 332 ?333 334 326 327 0 0 1
 30 331 649 0 334 327 335 0 -.022 -763278329429795e-32 -.003 3469446951953615e-3
1 1 0 16 334 358 336 ?337 338 330 331 0 0 1 30 335 648 0 307 331 339 0 -57824115
8659021e-33 .002000000000000295 -.003 -1 289120579329468e-30 0 16 307 382 340 ?3
41 303 342 335 0 0 1 30 339 647 0 342 335 343 0 -.04 0 -.003 0 -1 0 16 342 374 3
44 ?345 307 338 339 0 0 1 30 343 646 0 338 339 346 0 -780625564189576e-32 .01800
00000000003 -.003 1 -433680868994202e-30 0 16 338 366 347 ?348 342 334 343 0 0 1
 31 346 645 0 311 343 349 0 +.01 .00999999999999585 -.003 0 0 -1 -1 0 0 .011 16
 311 224 350 ?351 352 308 346 0 0 1 31 349 644 0 353 346 354 0 +.01 .00999999999
999585 -.006 0 0 -1 -1 0 0 .011 16 353 141 355 ?356 357 358 349 0 0 1 30 354 635
 0 352 349 359 0 +.0090000000000001 .022999999999997 .0125 -816340459283202e-30
 0 -1 16 352 234 360 ?361 362 311 354 0 0 1 30 359 634 0 362 354 363 0 +.0090000
000000001 .022999999999997 .004 1 968428236154009e-28 603382078600629e-30 16 362
 236 364 ?172 365 352 359 0 0 1 30 363 633 0 365 359 366 0 +.0205 .0229999999999
9815 .004 0 0 1 16 365 238 367 ?368 369 362 363 0 0 1 30 366 632 0 369 363 370 0
 +.0205 .02299999999999815 .0125 -1 -968428236154009e-28 0 16 369 232 371 ?372 3
73 365 366 0 0 1 30 370 631 0 374 366 375 0 -.0205000000000025 -.002000000000001
88 .0125 -964506252643105e-28 1 0 16 374 337 376 ?199 377 378 370 0 0 1 30 375 6
30 0 379 370 380 0 -.0205000000000025 -.00200000000000188 .004 -964506252643105e
-28 1 0 16 379 332 381 ?196 382 377 375 0 0 1 30 380 629 0 383 375 384 0 -.00900
000000000251 -.002000000000002995 .004 -964506252643105e-28 1 0 16 383 327 385 ?
44 386 382 380 0 0 1 30 384 628 0 387 380 388 0 -.00900000000000252 -.0020000000
00002995 .0125 -964506252643105e-28 1 0 16 387 322 389 ?193 378 373 384 0 0 1 30
 388 627 0 386 384 390 0 +0 0 .0125 1 0 0 16 386 335 391 ?163 392 383 388 0 0 1
 30 390 626 0 392 388 393 0 +.0205000000000023 0 0 0 0 -1 16 392 330 394 ?160 39
5 386 390 0 0 1 30 393 625 0 395 390 396 0 +-2413528314402505e-33 0 .004 -1 0 -6
03382078600629e-30 16 395 325 397 ?154 398 392 393 0 0 1 30 396 624 0 398 393 39
9 0 +.00900000000000231 0 -73470641335507e-31 816340459283202e-30 0 1 16 398 320
 400 ?401 402 395 396 0 0 1 31 399 623 0 403 396 404 0 -.01 .00999999999999585 0
 0 0 -1 1 1224646799147352e-31 0 .0065 16 403 298 405 ?406 407 402 399 0 0 1 31
 404 622 0 402 399 408 0 -.01 .00999999999999585 -.003 0 0 -1 1 1224646799147352
e-31 0 .0065 16 402 222 409 ?410 403 398 404 0 0 1 30 408 621 0 411 404 412 0 +-
.003 .02299999999999585 0 0 0 1 16 411 896 413 ?414 415 416 408 0 0 1 30 412 620
 0 417 408 418 0 +-.003 -.003 0 0 0 1 16 417 928 419 ?420 421 422 412 0 0 1 30 4
18 619 0 415 412 423 0 +.043 -.003 0 0 0 1 16 415 915 424 ?425 422 411 418 0 0 1
 30 423 618 0 416 418 426 0 +.043 .0230000000000003 0 0 0 1 16 416 890 427 ?428
 411 429 423 0 0 1 30 426 616 0 422 423 430 0 +0 -.003 .0405 1 0 0 16 422 1461 4
31 ?115 417 415 426 0 0 1 30 430 614 0 429 426 432 0 +.04 .023 .0405 -1 -9645062
52643105e-28 0 16 429 846 433 ?434 416 435 430 0 0 1 30 432 613 0 435 430 436 0
 +2342910729164595e-32 .01999999999999615 0 -1171455364582524e-30 -1 0 16 435 29
0 437 ?438 429 439 432 0 0 1 30 436 612 0 439 432 440 0 +0 0 0 1 0 0 16 439 292
 441 ?442 435 443 436 0 0 1 30 440 611 0 444 436 445 0 +.04 0 0 -346944695195361
5e-31 1 0 16 444 294 446 ?447 448 449 440 0 0 1 30 445 610 0 450 440 451 0 +.04
 .02 0 -1 -964506252643105e-28 0 16 450 296 452 ?453 454 455 445 0 0 1 30 451 60
8 0 448 445 456 0 +0 0 .0405 1 0 0 16 448 1465 457 ?109 443 444 451 0 0 1 30 456
 606 0 407 451 458 0 +.04 .02 .0405 -1 -964506252643105e-28 0 16 407 854 459 ?46
0 455 403 456 0 0 1 30 458 605 0 455 456 461 0 +.04 .02 0 0 0 1 16 455 248 462 ?
463 450 407 458 0 0 1 30 461 604 0 449 458 464 0 +.04 0 0 0 0 1 16 449 288 465 ?
466 444 454 461 0 0 1 30 464 603 0 443 461 467 0 +308148791101958e-47 0 0 0 0 1
 16 443 243 468 ?469 439 448 464 0 0 1 30 467 602 0 454 464 470 0 +2342910729164
595e-32 .01999999999999615 0 0 0 1 16 454 283 471 ?472 449 450 467 0 0 1 30 470
 601 0 421 467 473 0 +.04 .02 .0125 -1 -964506252643105e-28 0 16 421 300 474 ?16
6 475 417 470 0 0 1 30 473 600 0 475 470 476 0 +.0205000000000004 .0199999999999
981 0 0 0 1 16 475 305 477 ?478 479 421 473 0 0 1 30 476 599 0 479 473 480 0 +.0
4 .02 .004 1 964506252643105e-28 603382078600629e-30 16 479 310 481 ?157 482 475
 476 0 0 1 30 480 598 0 482 476 483 0 +.00900000000000038 .019999999999997 25306
55423777895e-32 -816340459283202e-30 -787365477264192e-43 -1 16 482 315 484 ?151
 485 479 480 0 0 1 30 483 597 0 377 480 486 0 -.0205000000000025 -.0020000000000
0188 .004 -964506252643105e-28 1 0 16 377 307 487 ?488 379 374 483 0 0 1 30 486
 596 0 373 483 489 0 -.00900000000000252 -.002000000000002995 .0125 -96450625264
3105e-28 1 0 16 373 317 490 ?491 387 369 486 0 0 1 30 489 595 0 378 486 492 0 -.
0205000000000025 -.00200000000000188 .0125 -964506252643105e-28 1 0 16 378 302 4
93 ?136 374 387 489 0 0 1 30 492 594 0 382 489 494 0 -.00900000000000251 -.00200
0000000002995 .004 -964506252643105e-28 1 0 16 382 312 495 ?496 383 379 492 0 0
 1 31 494 78 0 485 492 497 0 +.01 .00999999999999585 -.006 0 0 -1 -1 0 0 .052616
4928148116 16 485 61 498 ?499 500 482 494 0 0 1 31 497 77 0 500 494 501 0 +.01 .
00999999999999585 .047 0 0 -1 -1 0 0 .04327116283726295 16 500 60 502 ?503 504 4
85 497 0 0 1 31 501 24 0 504 497 505 0 +.01 .00999999999999585 -.008 0 0 -1 1 12
24646799147352e-31 0 .055 16 504 21 506 ?507 358 500 501 0 0 1 31 505 37 0 358 5
01 508 0 +.01 .00999999999999585 .047 0 0 -1 -1 0 0 .0453020160610344 16 358 2 5
09 ?510 353 504 505 0 0 1 30 508 862 0 357 505 511 0 +.033 .02 .0405 -3469446951
953615e-31 1 0 16 357 861 512 ?118 513 353 508 0 0 1 30 511 865 0 513 508 514 0
 +.033 .02 .0405 -3469446951953615e-31 1 0 16 513 863 515 ?516 517 357 511 0 0 1
 31 514 873 0 517 511 518 0 -.033 0 .0305 0 -1 0 0 0 -1 .01 16 517 871 519 ?106
 520 513 514 0 0 1 30 518 881 0 520 514 521 0 -.04 0 .03764142842854285 34694469
51953615e-31 -1 0 16 520 879 522 ?103 523 517 518 0 0 1 31 521 886 0 523 518 524
 0 -.033 .01999999999999935 .0305 -964506252643105e-28 1 0 -1 -964506252643105e-
28 0 .01 16 523 884 525 ?112 526 520 521 0 0 1 30 524 899 0 526 521 527 0 +.04 .
023 .004 -1 -964506252643105e-28 0 16 526 898 528 ?94 529 523 524 0 0 1 30 527 9
02 0 529 524 530 0 +.04 .023 .004 -1 -964506252643105e-28 0 16 529 900 531 ?532
 533 526 527 0 0 1 31 530 909 0 533 527 534 0 +.033 .02299999999999935 .0305 -96
4506252643105e-28 1 0 -1 -964506252643105e-28 0 .01 16 533 907 535 ?97 536 529 5
30 0 0 1 30 534 922 0 536 530 537 0 +.043 1040834085586084e-33 .0305 34694469519
53615e-31 -1 0 16 536 920 538 ?88 539 533 534 0 0 1 30 537 932 0 540 534 541 0 +
0 -.003 .004 1 0 0 16 540 930 542 ?543 544 545 537 539 545 1 31 541 939 0 544 53
7 546 0 +.033 -.003 .0305 0 -1 0 0 0 -1 .01 16 544 937 547 ?548 549 540 541 0 0
 1 30 546 950 0 549 541 550 0 -.01 -.013 -.006 1 0 0 16 549 948 551 ?82 552 544
 546 0 0 1 30 550 956 0 552 546 553 0 --.013 .00999999999999588 -.006 -117145536
4582524e-30 -1 0 16 552 954 554 ?79 555 549 550 0 0 1 30 553 960 0 555 550 556 0
 -.00999999999999778 .0329999999999971 -.006 -1 -964506252643105e-28 0 16 555 95
8 557 ?73 558 552 553 0 0 1 30 556 970 0 558 553 559 0 +-.003 .01999999999999615
 .004 -1171455364582524e-30 -1 0 16 558 968 560 ?85 561 555 556 0 0 1 32 255 559
 1192 0 302 556 562 0 +-.013 .0329999999999949 .004 -.707106781186514 -.70710678
1186581 0 .707106781186581 -.707106781186514 0 .01414213562373026 .01 16 302 117
7 563 ?564 322 298 559 0 0 1 32 562 1191 0 322 559 565 0 +-.013 -.013 .004 .7071
06781186547 -.707106781186548 0 .707106781186548 .707106781186547 0 .01414213562
373096 .01 16 322 1170 566 ?567 317 302 562 0 0 1 30 565 1272 0 561 562 568 0 +.
043 1040834085586084e-33 .004 -3469446951953615e-31 1 0 16 561 1270 569 ?570 571
 558 565 0 0 1 30 568 1284 0 571 565 572 0 -.053 .00999999999999586 -.006 -34694
46951953615e-31 1 0 16 571 1282 573 ?574 575 561 568 0 0 1 32 572 1392 0 575 568
 576 0 -.053 .03300000000000125 .004 -.707106781186582 .707106781186513 0 -.7071
06781186513 -.707106781186582 0 .01414213562373162 .01 16 575 1292 577 ?578 579
 571 572 0 0 1 32 576 1393 0 579 572 580 0 +.053 -.013 .004 .707106781186547 .70
7106781186548 0 .707106781186548 -.707106781186547 0 .01414213562373094 .01 16 5
79 1296 581 ?582 583 575 576 0 0 1 30 580 1478 0 583 576 584 0 +.002000000000000
025 .02 .0405 -1171455364582524e-30 -1 0 16 583 1476 585 ?70 586 579 580 0 0 1 3
0 584 1483 0 586 580 587 0 +.002000000000000025 .02 .0405 -1171455364582524e-30
 -1 0 16 586 1481 588 ?589 590 583 584 0 0 1 31 587 1491 0 590 584 591 0 -.00200
0000000000025 .01999999999999635 .0355 -964506252643105e-28 1 0 -1 -964506252643
105e-28 0 .005 16 590 1489 592 ?58 593 586 587 0 0 1 30 591 1499 0 593 587 594 0
 -2342910729164595e-32 .01999999999999615 .04008257569495585 1171455364582524e-3
0 1 0 16 593 1497 595 ?55 596 590 591 0 0 1 31 594 1504 0 596 591 597 0 -.002 0
 .0355 0 -1 0 0 0 -1 .005 16 596 1502 598 ?67 599 593 594 0 0 1 31 597 1512 0 59
9 594 600 0 +.002 -.003 .0355 0 -1 0 0 0 -1 .005 16 599 1510 601 ?52 602 596 597
 0 0 1 30 600 1522 0 602 597 603 0 +-.003 .01999999999999615 .0355 1171455364582
524e-30 1 0 16 602 1520 604 ?49 27 599 600 0 0 1 31 603 1529 0 27 600 21 0 +.002
000000000000025 .02299999999999635 .0355 -964506252643105e-28 1 0 -1 -9645062526
43105e-28 0 .005 16 27 1527 605 ?61 9 602 603 0 0 1 30 21 1979 0 9 603 6 0 +0 -.
003 .0125 1 0 0 81 1 605 1606 239 27 0 0 598 606 607 17 61 0 608 609 414 59 610
 27 0 434 +15 608 435 0 414 611 0 17 609 0 608 97 61 116 434 429 0 612 -17 414 0
 608 61 94 45 613 411 0 610 +17 610 0 614 615 616 45 61 27 0 0 -17 434 0 617 589
 118 59 609 429 0 616 +15 617 1477 0 434 618 0 17 589 0 617 619 434 62 616 586 0
 460 +17 118 0 617 434 619 116 620 357 0 609 +17 616 0 614 610 64 59 589 586 0 0
 -15 614 1550 0 610 18 0 17 64 0 614 616 621 62 58 590 0 589 -17 621 0 614 64 62
2 56 55 593 0 0 -17 58 0 623 145 460 56 64 590 0 472 +15 623 444 0 460 624 625 1
7 145 0 623 626 58 143 472 454 0 627 -17 460 0 623 58 112 62 619 407 0 0 +17 472
 0 628 55 627 56 145 454 0 621 +15 628 472 0 472 629 0 17 55 0 628 630 472 53 62
1 593 0 469 +17 627 0 628 472 630 143 438 435 0 453 -17 630 0 628 627 55 146 469
 443 0 438 -17 438 0 631 442 453 146 627 435 0 0 +17 453 0 631 438 447 143 626 4
50 0 0 +15 631 480 0 438 632 633 17 447 0 631 453 442 137 634 444 0 0 +17 626 0
 623 463 145 137 453 450 0 447 -17 463 0 623 112 626 101 139 455 0 635 +17 112 0
 623 460 463 110 635 523 0 619 +17 139 0 636 634 103 137 463 455 0 626 -17 635 0
 637 638 620 101 112 523 0 0 -15 637 1126 0 639 640 0 17 638 0 637 641 635 104 1
03 520 0 0 -17 620 0 637 635 612 110 118 357 0 0 -17 612 0 637 620 642 116 97 53
3 0 0 -17 642 0 637 612 639 95 88 536 0 0 -17 97 0 608 643 609 95 612 533 0 428
 +17 643 0 608 532 97 98 428 416 0 644 -17 428 0 645 88 570 95 643 416 0 642 +15
 645 468 0 646 647 0 17 88 0 645 646 428 86 642 536 0 425 +17 570 0 645 428 646
 98 648 561 0 643 +17 646 0 645 570 88 89 425 415 0 648 -17 648 0 649 650 100 89
 570 561 0 0 -15 649 1403 0 650 651 0 17 650 0 649 652 648 74 582 579 0 0 -17 10
0 0 649 648 652 98 578 575 0 570 -17 652 0 649 100 650 71 574 571 0 0 -17 578 0
 653 654 644 71 100 575 0 652 +15 653 1163 0 644 655 0 17 654 0 653 564 578 77 7
3 555 0 656 -17 644 0 653 578 172 98 532 529 0 0 -17 172 0 653 644 657 170 658 3
62 0 532 +17 532 0 608 368 643 170 644 529 0 659 +17 368 0 608 372 532 167 660 3
65 0 0 +17 659 0 661 658 157 170 488 377 0 660 -15 661 504 0 157 662 0 17 658 0
 661 496 659 173 172 362 0 361 -17 157 0 661 659 496 155 663 479 0 488 +17 488 0
 664 478 660 155 659 377 0 665 +17 660 0 664 488 169 170 368 365 0 0 -15 664 498
 0 478 666 0 17 169 0 664 660 478 167 136 378 0 667 -17 478 0 664 169 488 134 66
5 475 0 668 +17 136 0 669 166 667 134 169 378 0 478 +17 667 0 669 136 670 167 37
2 369 0 368 -15 669 492 0 166 671 0 17 670 0 669 667 166 128 491 373 0 372 -17 3
72 0 608 361 368 128 667 369 0 0 +17 361 0 608 94 372 173 130 352 0 657 +17 94 0
 608 414 361 92 657 526 0 613 +17 130 0 672 491 175 128 361 352 0 670 -17 657 0
 653 172 564 173 94 526 0 0 -17 564 0 653 657 654 92 656 302 0 0 +17 656 0 673 6
74 675 77 564 302 0 0 -15 673 1161 0 567 676 0 17 674 0 673 567 656 80 79 552 0
 0 -17 675 0 673 656 567 92 85 558 0 564 -17 567 0 673 675 674 83 677 322 0 0 +1
7 85 0 678 420 613 83 675 558 0 679 +15 678 456 0 420 680 0 17 420 0 678 49 85 5
0 679 417 0 615 +17 613 0 678 85 49 92 414 411 0 675 -17 679 0 681 543 52 83 420
 417 0 682 -15 681 462 0 543 16 0 17 543 0 681 277 679 37 682 540 0 0 +17 52 0 6
81 679 683 50 684 599 0 420 +17 682 0 685 677 686 83 543 540 0 567 -15 685 1159
 0 76 687 0 17 677 0 685 76 682 80 567 322 0 674 -17 686 0 685 682 688 37 689 54
5 0 543 -17 688 0 685 686 582 194 91 539 0 0 -17 689 0 690 691 44 194 686 545 0
 273 +16 545 1966 692 ?689 540 539 537 540 539 1 81 1 692 2257 239 545 0 0 276 6
93 694 16 539 1970 693 ?91 545 536 537 545 540 1 81 1 693 2258 239 539 0 0 692 6
95 696 17 91 0 681 425 273 89 688 539 0 582 +17 425 0 681 548 91 86 646 415 0 63
9 +17 273 0 681 91 26 194 697 270 0 688 +17 582 0 685 688 76 89 650 579 0 646 +1
7 76 0 685 582 677 74 82 549 0 574 -17 82 0 698 79 574 80 76 549 0 677 +17 574 0
 698 82 73 74 652 571 0 650 +15 698 121 0 73 233 699 17 73 0 698 574 79 71 654 5
55 0 578 +17 79 0 698 73 82 77 674 552 0 654 +14 255 233 69 700 ?701 702 230 4 7
03 -704 705 701 702 24 15 699 71 0 706 233 0 17 706 0 699 706 706 0 499 485 0 0
 -17 499 0 707 499 499 0 706 485 0 0 +15 707 65 0 499 702 0 14 702 62 708 ?233 7
09 710 4 711 -0 0 233 709 24 81 1 708 2622 712 702 713 0 714 700 715 14 709 17 7
14 ?702 716 717 4 718 +0 0 702 716 24 15 710 64 0 719 702 707 52 255 711 75 0 70
2 720 703 0 +.01 .00999999999999585 -.00834729635533386 0 0 -1 .0530303844939756
 .17364817766693 .984807753012208 1 1224646799147352e-31 0 13 24 30 0 0 0 0 0 0
 8 16 14 16 457 721 ?618 0 681 4 722 +0 0 618 0 24 81 1 721 2612 712 16 723 0 0
 724 725 14 618 1479 724 ?726 16 617 4 720 +727 727 726 16 24 50 255 722 577 0 1
6 728 729 0 +0 -.003 0 0 -1 0 0 0 -1 50 728 578 0 680 730 722 0 +-.003 .01999999
999999615 0 -1 1171455364582524e-30 0 -1171455364582524e-30 -1 0 50 729 576 0 64
7 722 731 0 +.043 1040834085586084e-33 0 1 3469446951953615e-31 0 -3469446951953
615e-31 1 0 14 647 463 732 ?629 680 645 4 729 +0 0 629 680 24 50 731 575 0 611 7
29 733 0 +.04 .023 0 -964506252643105e-28 1 0 -1 -964506252643105e-28 0 14 611 4
29 734 ?735 701 608 4 731 +0 0 735 701 24 50 733 574 0 624 731 736 0 +.04 .02 0
 -964506252643105e-28 1 0 -1 -964506252643105e-28 0 14 624 441 737 ?727 735 623
 4 733 -0 0 727 735 24 50 736 573 0 738 733 739 0 +.04 0 0 1 3469446951953615e-3
1 0 -3469446951953615e-31 1 0 14 738 473 740 ?632 629 636 4 736 -0 0 632 629 24
 50 739 572 0 735 736 741 0 +0 0 0 0 -1 0 0 0 -1 14 735 436 742 ?624 611 743 4 7
39 -0 0 624 611 24 50 741 571 0 629 739 720 0 +2342910729164595e-32 .01999999999
999615 0 -1 1171455364582524e-30 0 -1171455364582524e-30 -1 0 14 629 469 744 ?73
8 647 628 4 741 -0 0 738 647 24 50 720 570 0 727 741 711 0 -.04 .02 .0405 0 0 -1
 -1 -964506252643105e-28 0 14 727 446 745 ?680 624 746 4 720 +618 618 680 624 24
 81 1 745 2634 712 727 747 0 737 748 749 14 680 451 748 ?647 727 678 4 728 +0 0
 647 727 24 15 746 450 0 750 727 0 17 750 0 746 70 516 65 109 448 0 751 -17 70 0
 746 115 750 68 751 583 0 683 +17 516 0 746 750 115 107 752 513 0 0 +17 109 0 74
3 106 67 107 750 448 0 641 +17 751 0 614 622 684 65 70 583 0 0 -17 622 0 614 621
 751 53 67 596 0 0 -17 684 0 614 751 615 68 52 599 0 0 -17 615 0 614 684 610 50
 49 602 0 0 -17 49 0 678 613 420 45 615 602 0 414 +17 67 0 743 109 469 65 622 59
6 0 750 +15 743 439 0 469 735 753 17 469 0 743 67 148 53 630 443 0 622 +17 148 0
 743 469 142 146 442 439 0 630 -17 142 0 743 148 106 140 466 449 0 634 -17 442 0
 631 447 438 140 148 439 0 0 +17 106 0 743 142 109 104 641 517 0 466 +17 466 0 6
36 103 634 104 142 449 0 638 +17 634 0 636 466 139 140 447 444 0 442 -15 636 476
 0 466 738 0 17 103 0 636 139 466 101 638 520 0 463 +17 641 0 637 752 638 107 10
6 517 0 516 -17 752 0 637 639 641 113 516 513 0 0 -17 639 0 637 642 752 86 548 5
44 0 0 -17 548 0 681 683 425 113 639 544 0 752 +17 683 0 681 52 548 68 115 422 0
 684 -17 115 0 746 516 70 113 683 422 0 548 +15 753 440 0 754 735 0 17 754 0 753
 755 756 152 401 398 0 0 -17 755 0 753 757 754 158 154 395 0 0 -17 756 0 753 754
 757 131 163 386 0 0 -17 401 0 758 193 759 131 754 398 0 756 +15 758 516 0 401 7
60 0 17 193 0 758 761 401 191 133 387 0 762 +17 759 0 758 401 761 152 44 383 0 7
54 -17 761 0 758 759 193 37 277 274 0 686 -17 44 0 690 689 154 37 759 383 0 761
 +15 690 522 0 154 763 0 17 154 0 690 44 691 152 755 395 0 759 +17 691 0 690 154
 689 158 196 379 0 755 -17 196 0 764 697 160 194 691 379 0 689 +15 764 528 0 160
 765 0 17 697 0 764 766 196 197 273 270 0 26 -17 160 0 764 196 766 158 757 392 0
 691 +17 766 0 764 160 697 161 199 374 0 757 -17 757 0 753 756 755 161 160 392 0
 0 -17 199 0 767 762 163 197 766 374 0 697 +15 767 534 0 163 768 0 17 762 0 767
 133 199 191 26 9 0 277 -17 163 0 767 199 133 161 756 386 0 766 +17 133 0 767 16
3 762 131 193 387 0 401 -17 26 0 681 273 277 197 762 9 0 0 +17 277 0 681 26 543
 191 761 274 0 0 +14 768 529 769 ?770 765 767 4 771 +671 671 770 765 24 81 1 769
 2662 712 768 772 0 773 774 775 14 770 543 774 ?704 768 776 4 777 -0 0 704 768 2
4 14 765 523 773 ?768 763 764 4 778 +666 666 768 763 24 50 771 585 0 768 777 778
 0 +.0205000000000025 -.00200000000000188 .0125 0 0 -1 -1 0 0 14 671 487 779 ?66
6 780 669 4 771 +768 768 666 780 24 81 1 779 2648 712 671 781 0 782 783 784 14 6
66 493 783 ?662 671 664 4 778 +765 765 662 671 24 14 780 482 782 ?671 632 785 4
 786 -0 0 671 632 24 81 1 782 2646 712 780 787 0 788 779 789 14 632 477 788 ?780
 738 631 4 730 +0 0 780 738 24 15 785 485 0 406 780 790 51 786 581 0 780 791 792
 0 +.01 .00999999999999585 0 0 0 -1 .0065 -1 0 0 50 791 582 0 760 793 786 0 +.00
900000000000252 -.002000000000002995 .0125 1 964506252643105e-28 -81634045928320
2e-30 -964506252643105e-28 1 0 50 792 580 0 701 786 730 0 +0 0 -.003 0 0 1 1 0 0
 14 701 424 794 ?611 233 795 4 792 -0 0 611 233 24 50 730 579 0 632 792 728 0 +0
 0 0 0 0 1 1 0 0 81 1 794 2626 712 701 796 0 700 734 797 15 795 427 0 410 701 79
8 17 410 0 795 410 410 0 799 402 0 0 +15 798 428 0 351 701 0 17 351 0 798 351 35
1 0 800 311 0 0 +17 800 0 776 800 800 0 351 311 0 0 -15 776 546 0 800 770 801 15
 801 547 0 356 770 0 17 356 0 801 356 356 0 802 353 0 0 +17 802 0 803 802 802 0
 356 353 0 0 -15 803 143 0 802 704 0 14 704 144 804 ?640 770 805 4 703 -705 233
 640 770 24 81 1 804 2666 712 704 806 0 774 807 808 14 640 1125 807 ?687 704 637
 4 809 +0 0 687 704 24 15 805 2283 0 810 704 803 50 703 74 0 233 711 811 0 +.01
 .00999999999999585 -.006 0 0 -1 -1 0 0 14 705 117 812 ?0 813 814 15 703 -233 70
4 0 813 815 81 1 812 2706 712 705 816 0 817 0 818 14 813 548 817 ?705 819 820 15
 821 -0 0 705 819 815 15 814 115 0 190 705 0 13 15 702 0 1 0 822 0 0 17 0 13 815
 703 0 0 0 0 0 0 23 822 19 23 704 0 1 17 8 815 V0 14 822 564 823 ?824 0 825 15 8
26 +0 0 824 0 815 81 1 823 2696 712 822 827 0 828 829 830 14 824 560 829 ?831 82
2 832 15 833 -0 0 831 822 815 15 825 567 0 834 822 0 50 826 593 0 822 835 821 0
 +0 0 -.003 0 0 -1 -1 0 0 51 835 1896 0 836 837 826 0 +-.0297290467889748 .01181
886817847002 -.011 0 0 1 .002 1 0 0 50 821 592 0 813 826 838 0 +.022 .0050000000
0000029 -.003 -1 3469446951953615e-31 0 -3469446951953615e-31 -1 0 50 838 591 0
 819 821 839 0 +.025 .0180000000000003 -.003 433680868994202e-30 1 0 -1 43368086
8994202e-30 0 14 819 552 840 ?813 831 841 15 838 -0 0 813 831 815 50 839 590 0 8
31 838 833 0 +.04 .0150000000000003 -.003 1 0 0 0 0 -1 14 831 556 842 ?819 824 8
43 15 839 -0 0 819 824 815 50 833 589 0 824 839 777 0 +.037 .002000000000000285
 -.003 -289120579329468e-30 -1 0 1 -289120579329468e-30 0 51 777 588 0 770 833 7
71 0 +.01 .00999999999999585 -.003 0 0 -1 .011 -1 0 0 81 1 842 2700 712 831 844
 0 829 840 845 15 843 559 0 329 831 0 17 329 0 843 185 846 125 124 326 0 847 +17
 185 0 843 345 329 176 847 306 0 848 +17 846 0 843 329 345 122 183 312 0 325 -17
 124 0 814 121 127 122 329 326 0 846 -17 847 0 832 333 341 125 185 306 0 0 -15 8
32 563 0 333 824 0 17 333 0 832 187 847 188 127 330 0 0 +17 341 0 832 847 187 17
6 849 307 0 0 +17 187 0 832 341 333 181 850 303 0 849 +17 849 0 825 834 848 181
 341 307 0 337 -17 834 0 825 851 849 177 337 334 0 0 -17 848 0 825 849 851 176 3
45 342 0 341 -17 337 0 820 850 179 181 834 334 0 0 +15 820 551 0 320 813 0 17 85
0 0 820 320 337 188 187 303 0 333 -17 179 0 820 337 320 177 852 308 0 348 +17 32
0 0 820 179 850 119 190 317 0 0 +17 852 0 841 325 348 119 179 308 0 320 -17 348
 0 841 852 183 177 851 338 0 834 +15 841 555 0 325 819 0 17 183 0 841 348 325 18
0 846 312 0 851 +17 851 0 825 848 834 180 348 338 0 345 -17 345 0 843 846 185 18
0 848 342 0 0 +17 325 0 841 183 852 122 121 321 0 0 +17 121 0 814 190 124 119 32
5 321 0 852 -17 190 0 814 127 121 188 320 317 0 850 -17 127 0 814 124 190 125 33
3 330 0 329 -80 255 1 712 0 853 8001 0 0 0 0 3 5 0 0 0 FFFFTFTFFFFFFF2 81 1 844
 2699 854 831 855 842 856 857 858 81 1 829 2698 712 824 856 0 823 842 859 81 1 8
40 2702 712 819 857 0 842 817 860 83 255 3 845 1 .6 0 81 1 857 2701 854 819 861
 840 844 862 863 81 1 817 2704 712 813 862 0 840 812 864 83 3 860 1 .6 0 81 1 86
2 2703 854 813 865 817 857 816 866 83 3 864 1 .6 0 80 1 854 867 868 8015 0 0 0 0
 3 5 0 0 0 FFFFTFFFFFFFFF2 81 1 865 819 239 813 0 862 869 861 870 81 1 816 2705
 854 705 871 812 862 0 872 83 1 866 0 81 1 871 823 239 705 0 816 855 465 873 83
 1 872 0 80 1 239 874 875 9000 1 1 1 1 1 1 1 1 0 FFFFTFTFFFFFFF3 81 1 855 821 23
9 831 0 844 861 871 876 81 1 465 1220 239 449 0 0 871 462 877 84 255 32 873 4116
f4a73bffa65d38dfa3ce4dd28b6781 1 462 1222 239 455 0 0 465 360 878 84 32 877 a1d0
711106ef046a2b249404223c4ee681 1 360 1227 239 352 0 0 462 367 879 84 32 878 d1d3
382e60afbfc96165780772d9ff4681 1 367 1228 239 365 0 0 360 487 880 84 32 879 3a70
b96a34ff77b585a21006123250ad81 1 487 1229 239 377 0 0 367 495 881 84 32 880 1e12
b3be528a8f91496c999ea1b85cb081 1 495 1230 239 382 0 0 487 554 882 84 32 881 dd38
091f759c633935a06d1e26e7debd81 1 554 1232 239 552 0 0 495 535 883 84 32 882 4fcb
0f8915a0cd78762ee1cb05789c4881 1 535 1233 239 533 0 0 554 547 884 84 32 883 0588
c1f9149cd9a95a87fd657a2e2fc681 1 547 1234 239 544 0 0 535 563 885 84 32 884 4d25
6b8bbcf8a41631c869b09efadb4a81 1 563 1236 239 302 0 0 547 528 886 84 32 885 86e4
a71d7e7cc81d744111bdb961c9dd81 1 528 1237 239 526 0 0 563 538 887 84 32 886 092d
1095f380b341a6bb7d377935102c81 1 538 1238 239 536 0 0 528 515 888 84 32 887 ccbd
89c1ce9575ec97c869e54bb035eb81 1 515 1240 239 513 0 0 538 519 889 84 32 888 ffc3
09a2fec52373829515127c69bb1e81 1 519 1243 239 517 0 0 515 560 890 84 32 889 0d5e
61d77a9be15e5aa3de81ad89d42a81 1 560 1244 239 558 0 0 519 512 891 84 32 890 bf2b
4b6d524bfcf77a8c45705fe2bc1681 1 512 1245 239 357 0 0 560 522 892 84 32 891 85f3
ec52f4136c2ff444145c588658a881 1 522 1246 239 520 0 0 512 525 893 84 32 892 daa5
d7349fc5e3447e9feb7d1ceedcbf81 1 525 1247 239 523 0 0 522 566 894 84 32 893 8acc
9799f88218eea15f25eb3817636881 1 566 1248 239 322 0 0 525 364 895 84 32 894 e579
926b58ca799a1da6e6bbae618a7b81 1 364 1251 239 362 0 0 566 896 897 84 32 895 1769
696fbc982dd97715016a8af2323d81 1 896 1259 239 738 0 898 364 899 900 84 32 897 b4
9f788405fad64dc163cfa99de233a781 1 898 2641 854 738 896 740 901 902 903 81 1 899
 1260 239 904 0 905 896 906 907 84 32 900 c286898b3e5aa2cc2a8e5281ae91d5eb14 904
 505 908 ?760 662 672 4 791 +760 760 760 662 24 81 1 905 2653 854 904 899 908 90
9 910 911 81 1 906 1261 239 666 0 912 899 913 914 84 32 907 c91fc289b5fe97b60ced
0491d8f85f6881 1 912 2649 854 666 906 783 781 909 915 81 1 913 1262 239 662 0 90
9 906 916 917 84 32 914 0206cfbbcdc347fc41c08ddd9bf9212214 662 499 918 ?904 666
 661 4 793 +763 763 904 666 24 81 1 909 2651 854 662 913 918 912 905 919 81 1 91
6 1264 239 676 0 920 913 921 922 84 32 917 172fb606e9024266f65f962bd2e9ef8114 67
6 1160 923 ?655 687 673 4 924 -0 0 655 687 24 81 1 920 2671 854 676 916 923 925
 926 927 81 1 921 1266 239 640 0 928 916 427 929 84 32 922 8221ebc223f906916adca
a50a04a499d81 1 928 2667 854 640 921 807 806 925 930 81 1 427 1426 239 416 0 0 9
21 424 931 84 32 929 256d61355e90e4b1acab28e18eaa04e081 1 424 1427 239 415 0 0 4
27 551 932 84 32 931 e8e29d551bb215cc2a0813fb88c581ff81 1 551 1428 239 549 0 0 4
24 557 933 84 32 932 a9c2ebaff8b6f8246daa20ee1c9ac82181 1 557 1430 239 555 0 0 5
51 573 934 84 32 933 352be479a5c53e1b07b217615f5ab1a681 1 573 1431 239 571 0 0 5
57 577 935 84 32 934 eb8619b086c4bf8cd9c3dd29c5d230c181 1 577 1432 239 575 0 0 5
73 581 936 84 32 935 3693b83b4c5a58af8fd4091b60d337d881 1 581 1433 239 579 0 0 5
77 569 937 84 32 936 c9438e720c87fb2fa1934d06d31022b081 1 569 1434 239 561 0 0 5
81 531 938 84 32 937 fd81365f8f50bf47064f5a1fea0f317581 1 531 1435 239 529 0 0 5
69 939 940 84 32 938 11a5260597811f0c29be6ba40cf09d2681 1 939 1436 239 647 0 941
 531 942 943 84 32 940 add0d7bce83e7acdb6d6fd707b6c786881 1 941 2637 854 647 939
 732 944 901 945 81 1 942 1440 239 655 0 926 939 946 947 84 32 943 4a1832b9dc5c7
f3ac47397860911e8a414 655 1162 948 ?651 676 653 4 949 -0 0 651 676 24 81 1 926 2
673 854 655 942 948 920 950 951 81 1 946 1442 239 651 0 950 942 431 952 84 32 94
7 3bef119558ff84f5809242753d8853de14 651 1402 953 ?18 655 649 4 19 -0 0 18 655 2
4 81 1 950 2675 854 651 946 953 926 954 955 81 1 431 1591 239 422 0 0 946 468 95
6 84 32 952 155cdaf8a8dcec91a41f00ce14e6434781 1 468 1592 239 443 0 0 431 471 95
7 84 32 956 69c1bc20693bbb9bf49be115839a128a81 1 471 1593 239 454 0 0 468 419 95
8 84 32 957 328da410a67b96d598dbd51979c4fb4d81 1 419 1594 239 417 0 0 471 457 95
9 84 32 958 3fe4acbd309f190385830d6da84f2e0d81 1 457 1595 239 448 0 0 419 433 96
0 84 32 959 486ad979861d2341840de66da2b96f9181 1 433 1596 239 429 0 0 457 413 96
1 84 32 960 4da5b2657fac7d000f2060df6f9fe71781 1 413 1597 239 411 0 0 433 459 96
2 84 32 961 379c95c780c975ac235280b3575a1ef081 1 459 1598 239 407 0 0 413 601 96
3 84 32 962 4cce451439deb4e72bd7565ecf7b997c81 1 601 1599 239 599 0 0 459 604 96
4 84 32 963 68a7d604a9d717664a6842ddd459dba381 1 604 1600 239 602 0 0 601 588 96
5 84 32 964 35c880ed99900b54ca17da09bf33410081 1 588 1601 239 586 0 0 604 585 96
6 84 32 965 668752411c1c4e54cb2bb4f47c60a43e81 1 585 1602 239 583 0 0 588 592 96
7 84 32 966 fafc00dcac496f810533884ae624c0d581 1 592 1603 239 590 0 0 585 595 96
8 84 32 967 45a2a46dd4e87345d030a9f229fd79d281 1 595 1604 239 593 0 0 592 598 96
9 84 32 968 57066001b2b014405c0c86259a1f97f681 1 598 1605 239 596 0 0 595 605 97
0 84 32 969 82bfa973e41f877cc9a7a4c3f6d6dec984 32 970 61294abea9724b0c90de2d4eb5
67ec4f81 1 953 2676 712 651 950 0 948 971 972 81 1 954 2677 854 18 973 971 950 9
74 975 83 1 955 0 14 18 1549 971 ?836 651 614 4 5 +0 0 836 651 24 81 1 973 1615
 239 18 0 954 976 281 977 81 1 971 2678 712 18 954 0 953 978 979 81 1 974 2679 8
54 836 980 978 954 981 982 83 1 975 0 14 836 1877 978 ?983 18 984 4 835 -0 0 983
 18 24 81 1 980 1937 239 836 0 974 292 985 986 81 1 978 2680 712 836 974 0 971 9
87 988 81 1 981 2681 854 983 985 987 974 989 990 83 1 982 0 14 983 1849 987 ?991
 836 992 4 837 -0 0 991 836 24 81 1 985 1938 239 983 0 981 980 993 994 81 1 987
 2682 712 983 981 0 978 995 996 81 1 989 2683 854 991 993 995 981 997 998 83 1 9
90 0 14 991 1821 995 ?999 983 1000 4 1001 -0 0 999 983 24 81 1 993 1939 239 991
 0 989 985 381 1002 81 1 995 2684 712 991 989 0 987 1003 1004 81 1 997 2685 854
 999 1005 1003 989 1006 1007 83 1 998 0 14 999 2335 1003 ?216 991 1008 4 1009 +0
 0 216 991 24 81 1 1005 2371 239 999 0 997 1010 243 1011 81 1 1003 2686 712 999
 997 0 995 1012 1013 81 1 1006 2687 854 216 1014 1012 997 1015 1016 83 1 1007 0
 14 216 2516 1012 ?1017 999 214 4 1018 -0 0 1017 999 24 81 1 1014 2604 239 216 0
 1006 1019 1020 1021 81 1 1012 2688 712 216 1006 0 1003 1022 1023 81 1 1015 2689
 854 1017 1020 1022 1006 1024 1025 83 1 1016 0 14 1017 2520 1022 ?1026 216 1027
 4 1028 -0 0 1026 216 24 81 1 1020 2605 239 1017 0 1015 1014 1029 1030 81 1 1022
 2690 712 1017 1015 0 1012 1031 1032 81 1 1024 2691 854 1026 1029 1031 1015 1033
 1034 83 1 1025 0 14 1026 2524 1031 ?229 1017 38 4 1035 -0 0 229 1017 24 81 1 10
29 2606 239 1026 0 1024 1020 1036 1037 81 1 1031 2692 712 1026 1024 0 1022 828 1
038 81 1 1033 2693 854 229 1036 828 1024 827 1039 83 1 1034 0 14 229 2528 828 ?0
 1026 30 4 1040 -0 0 0 1026 24 81 1 1036 2607 239 229 0 1033 1029 0 1041 81 1 82
8 2694 712 229 1033 0 1031 823 1042 81 1 827 2695 854 822 869 823 1033 856 1043
 83 1 1039 0 81 1 869 818 239 822 0 827 1044 865 1045 81 1 856 2697 854 824 1044
 829 827 844 1046 83 1 1043 0 81 1 1044 817 239 824 0 856 1047 869 1048 83 1 104
6 0 81 1 1047 816 239 770 0 1049 1050 1044 1051 84 32 1048 f008377bbaf3d26451775
4c0190d7b3781 1 1049 2663 854 770 1047 774 772 806 1052 81 1 1050 814 239 671 0
 781 1053 1047 1054 84 32 1051 a8fb776ac79b31423a84529118ef8ede81 1 781 2647 854
 671 1050 779 787 912 1055 81 1 1053 805 239 780 0 787 1056 1050 1057 84 32 1054
 fe48aeefae47de92027813dc3e9eed7f81 1 787 2645 854 780 1053 782 902 781 1058 81
 1 1056 804 239 701 0 796 1059 1053 1060 84 32 1057 e67d1b99b10d0fb4557eb84fb09c
996981 1 796 2625 854 701 1056 794 1061 1062 1063 81 1 1059 803 239 632 0 902 33
2 1056 1064 84 32 1060 8208c704c5719314b8fbd6afd2ca8c2581 1 902 2643 854 632 105
9 788 898 787 1065 81 1 332 793 239 330 0 0 324 1059 1066 84 32 1064 e70f3c34e1d
59afba311f1728cca896781 1 324 790 239 321 0 0 328 332 1067 84 32 1066 34dd775a94
984e1dcb3d2f10a74b424381 1 328 788 239 326 0 0 319 324 1068 84 32 1067 5075a9ae0
31b209823ac61537028cab981 1 319 787 239 317 0 0 340 328 1069 84 32 1068 e1835df3
bb52b1c478a4e497844fc77881 1 340 785 239 307 0 0 305 319 1070 84 32 1069 f72a643
b0d66277f2b0d4aecf5b3e92981 1 305 784 239 303 0 0 310 340 1071 84 32 1070 15a798
ed8cf2939f023d4da0f35356f181 1 310 783 239 308 0 0 314 305 1072 84 32 1071 ec0f9
8c9a3a5dfbeed357bf59b52ca6481 1 314 782 239 312 0 0 316 310 1073 84 32 1072 5e91
5eebc06fbe3c9f471d2befefda9d81 1 316 781 239 306 0 0 336 314 1074 84 32 1073 c71
9c7bb7376b88ce03ca4eebeb5a29381 1 336 780 239 334 0 0 347 316 1075 84 32 1074 1f
80f6a122b0a1c5cc6f941ed2b62cc181 1 347 779 239 338 0 0 344 336 1076 84 32 1075 c
94a77dad129bbe1b9c81029f2aee5dc81 1 344 778 239 342 0 0 477 347 1077 84 32 1076
 762e3c11760e9e2eb1cbd3d9046d58b581 1 477 777 239 475 0 0 391 344 1078 84 32 107
7 5703b1f0d99169420e82fe7d7a0f6fa381 1 391 776 239 386 0 0 397 477 1079 84 32 10
78 aa5cca03ae88b23608933ef9a6ac117081 1 397 772 239 395 0 0 493 391 1080 84 32 1
079 f4b3da12998807133e97f2a3c519d6bd81 1 493 771 239 378 0 0 474 397 1081 84 32
 1080 833b5bbe19d6e60eb49ae2dc9700dc7a81 1 474 769 239 421 0 0 484 493 1082 84 3
2 1081 755c73cef5d3af86639f54063e7dafdf81 1 484 768 239 482 0 0 371 474 1083 84
 32 1082 7aa192d29eabcd2192d43944e7006b3c81 1 371 765 239 369 0 0 490 484 1084 8
4 32 1083 289c4cc9e89b998744dbbb1d4849d8c081 1 490 759 239 373 0 0 394 371 1085
 84 32 1084 5b310e4ac41701daab27da7bee9dff8981 1 394 757 239 392 0 0 481 490 108
6 84 32 1085 da43a616c67736e21ff42bd546e4b2d481 1 481 756 239 479 0 0 400 394 10
87 84 32 1086 c2ac6b275b92349b3c71b10d1f5837bd81 1 400 755 239 398 0 0 441 481 1
088 84 32 1087 5a3a3a6cf8fd7368b1cd13b3a3b967f081 1 441 753 239 439 0 0 452 400
 1089 84 32 1088 cb5feb23da3a0e4c1d34cd644cee179181 1 452 752 239 450 0 0 446 44
1 1090 84 32 1089 bd790aa05e468048de44cf41544a3fcb81 1 446 751 239 444 0 0 437 4
52 1091 84 32 1090 c8f0278ad9485f7d0c850790927a0a7581 1 437 750 239 435 0 0 355
 446 1092 84 32 1091 f2bee19e679b187853abaaad60ae0d8e81 1 355 733 239 353 0 0 35
0 437 1093 84 32 1092 0fab42e27cd528e3d1fb4f8a81652e9e81 1 350 732 239 311 0 0 4
05 355 1094 84 32 1093 1f2f209079825c51a9f8b89a9610490581 1 405 731 239 403 0 0
 409 350 1095 84 32 1094 5a71cd5c34bfcecb354dcc0b750caf8d81 1 409 730 239 402 0
 0 1096 405 1097 84 32 1095 29a8c634e4bd7e39a4b3c2eb67fb9d1481 1 1096 88 239 702
 0 713 1098 409 1099 84 32 1097 5089d10f2383bfb2aa1cad25d574425781 1 713 2621 85
4 702 1096 708 1100 1061 1101 81 1 1098 87 239 716 0 1102 498 1096 1103 84 32 10
99 e8e9674a10e5a50cc3fe54b966c39cbf14 716 6 1104 ?709 726 1105 4 811 -0 0 709 72
6 24 81 1 1102 2617 854 716 1098 1104 1106 1100 1107 81 1 498 86 239 485 0 0 502
 1098 1108 84 32 1103 57a906d2f14af6b129b21c46b34858b881 1 502 85 239 500 0 0 11
09 498 1110 84 32 1108 89095324de2388431501da6689a7abb781 1 1109 50 239 726 0 11
06 509 502 1111 84 32 1110 c8e4c05ee00bdb3486cc08860860012b14 726 26 1112 ?716 6
18 1113 4 1114 +0 0 716 618 24 81 1 1106 2615 854 726 1109 1112 1115 1102 1116 8
1 1 509 49 239 358 0 0 506 1109 1117 84 32 1111 3106e5a0a02d3f473860c0f2fc811028
81 1 506 48 239 504 0 0 0 509 1118 84 32 1117 90da217c60b8fa3c2ff0022c2b7ac8d884
 32 1118 b1e7aadb065abe68d2ab2a92590b982d81 1 1112 2616 712 726 1106 0 724 1104
 1119 81 1 1115 2613 854 618 976 724 723 1106 1120 83 1 1116 0 81 1 976 1614 239
 618 0 1115 1121 973 1122 81 1 724 2614 712 618 1115 0 721 1112 1123 81 1 723 26
11 854 16 695 721 0 1115 1124 83 1 1120 0 81 1 695 2259 239 16 0 723 693 1125 11
26 83 1 1124 0 81 1 1125 2260 239 768 0 772 695 1127 1128 84 32 1126 3d4dae14a60
ebe33bab2a3b452cf9b7481 1 772 2661 854 768 1125 769 1129 1049 1130 81 1 1127 226
1 239 763 0 1131 1125 1132 1133 84 32 1128 f3b63ae4549b72b45688ca7920e6c4c214 76
3 517 1134 ?765 760 690 4 793 +662 662 765 760 24 81 1 1131 2657 854 763 1127 11
34 910 1129 1135 81 1 1132 2262 239 760 0 910 1127 1136 1137 84 32 1133 32394bd8
8adbb5de0ec83b974e8ff67414 760 511 1138 ?763 904 758 4 791 +904 904 763 904 24 8
1 1 910 2655 854 760 1132 1138 905 1131 1139 81 1 1136 2263 239 765 0 1129 1132
 1140 1141 84 32 1137 f8aedc8a94775a9fe62f5e5e44574d4c81 1 1129 2659 854 765 113
6 773 1131 772 1142 81 1 1140 2264 239 687 0 925 1136 268 1143 84 32 1141 06a73c
497ef21a6da6a4fb85b0875f4b14 687 1158 1144 ?676 640 685 4 1145 -0 0 676 640 24 8
1 1 925 2669 854 687 1140 1144 928 920 1146 81 1 268 2367 239 266 0 0 1140 1147
 1148 84 32 1143 5f1a0b791ed4ab5b0b61be412b3403f081 1 1147 2368 239 20 0 0 268 1
010 1149 84 32 1148 bd44dc060a783a5516ff1122b189ed7416 20 2305 1147 ?1150 266 22
2 6 0 0 1 81 1 1010 2370 239 704 0 806 1147 1005 1151 84 32 1149 d79f650e28bf4c7
f524962702be35bf981 1 806 2665 854 704 1010 804 1049 928 1152 84 32 1151 4ae71c0
baf7ab1af27bdd2e701a2317d83 1 1152 0 17 1150 0 1153 1150 1150 0 810 20 0 0 +15 1
153 2334 0 1150 999 0 17 810 0 805 810 810 0 1150 20 0 0 -81 1 1144 2670 712 687
 925 0 807 923 1154 83 1 1146 0 81 1 807 2668 712 640 928 0 804 1144 1155 81 1 9
23 2672 712 676 920 0 1144 948 1156 83 3 1154 1 .6 0 81 1 948 2674 712 655 926 0
 923 953 1157 83 3 1156 1 .6 0 83 3 1157 1 .6 0 83 3 1155 1 .6 0 51 1145 1188 0
 687 924 19 0 +0 -.013 .004 1 0 0 .01 0 0 -1 51 924 1189 0 676 949 1145 0 +-.013
 .01999999999999615 .004 -1171455364582524e-30 -1 0 .01 1 -1171455364582524e-30
 0 51 19 1414 0 651 1145 5 0 +.053 45102810375397e-31 .004 -3469446951953615e-31
 1 0 .01 -1 -3469446951953615e-31 0 51 949 1190 0 655 809 924 0 +.03999999999999
875 .033 .004 -1 -964506252643105e-28 0 .01 964506252643105e-28 -1 0 51 809 1145
 0 640 1114 949 0 +.033 .02 .0305 3469446951953615e-31 -1 0 .01 1 34694469519536
15e-31 0 52 1114 38 0 726 718 809 0 +.01 .00999999999999585 -.008 0 0 -1 .055 .1
7364817766693 .984807753012208 1 1224646799147352e-31 0 50 718 23 0 709 811 1114
 0 +.01 .00999999999999585 -.008 0 0 -1 -1 0 0 50 811 7 0 716 703 718 0 +.01 .00
999999999999585 .047 0 0 -1 -1 0 0 81 1 773 2660 712 765 1129 0 1134 769 1158 83
 1 1142 0 81 1 1134 2658 712 763 1131 0 1138 773 1159 83 3 1158 1 .6 0 81 1 1138
 2656 712 760 910 0 908 1134 1160 83 3 1159 1 .6 0 81 1 908 2654 712 904 905 0 9
18 1138 1161 83 3 1160 1 .6 0 81 1 918 2652 712 662 909 0 783 908 1162 83 3 1161
 1 .6 0 81 1 783 2650 712 666 912 0 779 918 1163 83 3 1162 1 .6 0 83 3 1163 1 .6
 0 83 1 1139 0 83 1 1135 0 50 793 583 0 763 778 791 0 +.00900000000000251 -.0020
00000000002995 .004 -603382078600629e-30 -5819657875431e-41 1 1 0 60338207860062
9e-30 50 778 584 0 765 771 793 0 +.0205000000000025 -.00200000000000188 .004 -1
 -964506252643105e-28 0 964506252643105e-28 -1 0 83 1 1130 0 83 3 1123 1 .6 0 81
 1 1121 1613 239 629 0 901 1164 976 1165 84 32 1122 820f6291823dff4aba51086b4c58
8f1481 1 901 2639 854 629 1121 744 941 898 1166 81 1 1164 1612 239 680 0 944 116
7 1121 1168 84 32 1165 8e50bde2a27117bc23e1c0c5041ebab681 1 944 2635 854 680 116
4 748 747 941 1169 81 1 1167 1611 239 624 0 1170 1171 1164 1172 84 32 1168 0ed8f
f3387e69bfbefc8a31547ff405681 1 1170 2631 854 624 1167 737 1173 747 1174 81 1 11
71 1610 239 611 0 1062 1175 1167 1176 84 32 1172 4636ee8083d0ce94cbe750f29cf0ee2
781 1 1062 2627 854 611 1171 734 796 1173 1177 81 1 1175 1609 239 735 0 1173 606
 1171 1178 84 32 1176 d62f8d9247812753c2d2777abf2b235181 1 1173 2629 854 735 117
5 742 1062 1170 1179 81 1 606 1608 239 727 0 747 605 1175 1180 84 32 1178 687ce3
673c6c775608a167ea401e449d81 1 747 2633 854 727 606 745 1170 944 1181 84 32 1180
 75123b407f17b5579010f4fc13c218af83 1 1181 0 81 1 742 2630 712 735 1173 0 734 73
7 1182 83 1 1179 0 81 1 734 2628 712 611 1062 0 794 742 1183 81 1 737 2632 712 6
24 1170 0 742 745 1184 83 3 1182 1 .6 0 83 3 1184 1 .6 0 83 3 1183 1 .6 0 83 1 1
177 0 83 1 1174 0 81 1 748 2636 712 680 944 0 745 732 1185 83 1 1169 0 81 1 732
 2638 712 647 941 0 748 744 1186 83 3 1185 1 .6 0 81 1 744 2640 712 629 901 0 73
2 740 1187 83 3 1186 1 .6 0 81 1 740 2642 712 738 898 0 744 788 1188 83 3 1187 1
 .6 0 81 1 788 2644 712 632 902 0 740 782 1189 83 3 1188 1 .6 0 83 3 1189 1 .6 0
 83 1 1166 0 81 1 1104 2618 712 716 1102 0 1112 714 1190 83 3 1119 1 .6 0 81 1 7
14 2620 712 709 1100 0 1104 708 1191 83 3 1190 1 .6 0 81 1 1100 2619 854 709 119
2 714 1102 713 1193 83 3 1191 1 .6 0 81 1 1192 2602 239 709 0 1100 249 1019 1194
 83 1 1193 0 81 1 249 2601 239 225 0 0 246 1192 1195 81 1 1019 2603 239 233 0 10
61 1192 1014 1196 84 32 1194 61c4b664ecf6a6aa0f94e8b3d4b3c57181 1 1061 2623 854
 233 1019 700 713 796 1197 84 32 1196 917fe1adfa70ad6b0a9577cc13f4face81 1 700 2
624 712 233 1061 0 708 794 1198 83 1 1197 0 83 3 1198 1 .6 0 81 1 246 2600 239 4
2 0 0 231 249 1199 84 32 1195 e7196190712b6854111a6fba9518156581 1 231 2599 239
 226 0 0 260 246 1200 84 32 1199 fb3ebec7d800d9bf71586d8837f2417881 1 260 2598 2
39 258 0 0 263 231 1201 84 32 1200 d9155284015a6320bf2b358a2149dfa381 1 263 2597
 239 261 0 0 265 260 1202 84 32 1201 1a20bc7c2c17e964556a674aa0165bc681 1 265 25
96 239 222 0 0 257 263 1203 84 32 1202 d22b4e882d8b936937d57a26bfd7e16e81 1 257
 2595 239 254 0 0 224 265 1204 84 32 1203 6bddca85d00e6f8d7f6733d70c1e76cc81 1 2
24 2594 239 34 0 0 241 257 1205 84 32 1204 89f8f45f528aa18bd9adec94a735b1c381 1
 241 2593 239 253 0 0 237 224 1206 84 32 1205 1bde7967664adc5dfc7bf3bdcc6b1f9f84
 32 1206 2b89bde48b5312671108f0ca0a032d9715 1113 25 0 510 726 1207 17 510 0 1113
 510 510 0 1208 358 0 0 +15 1207 27 0 1209 726 0 17 1209 0 1207 1209 1209 0 507
 504 0 0 -17 507 0 1210 507 507 0 1209 504 0 0 +15 1210 20 0 507 709 0 17 1208 0
 1211 1208 1208 0 510 358 0 0 -15 1211 5 0 1208 716 0 83 1 1107 0 15 1105 55 0 5
03 716 1211 17 503 0 1105 503 503 0 719 500 0 0 +17 719 0 710 719 719 0 503 500
 0 0 -83 1 1101 0 83 1 1065 0 83 1 1063 0 83 1 1058 0 83 1 1055 0 81 1 774 2664
 712 770 1049 0 769 804 1212 83 1 1052 0 83 3 1212 1 .6 0 84 32 1045 373e4934b67
9caf0ce26c59d79d69e2a83 3 1042 1 .6 0 84 32 1041 2723f1928214561b1b56e5302b8dfc3
d50 1040 2545 0 229 0 1035 0 +-.0164285714285714 .02614285714285715 -.031 0 1 0
 0 0 1 50 1035 2544 0 1026 1040 1028 0 +-.01642857142857145 -.007 -.031 1 -13608
60657878358e-30 0 1360860657878358e-30 1 0 50 1028 2543 0 1017 1035 1018 0 +-.02
442857142857145 -.007 -.031 325260651745651e-30 -1 0 1 325260651745651e-30 0 50
 1018 2542 0 216 1028 1009 0 +-.0244285714285714 .02614285714285715 -.031 -1 167
4905425081055e-30 0 -1674905425081055e-30 -1 0 51 1009 2350 0 999 1018 1001 0 -.
01 .00999999999999585 -.025 0 0 1 .0065 1 0 0 51 1001 1902 0 991 1009 837 0 +.01
150582750330986 .0477695087809603 -.011 0 0 1 .002 1 0 0 51 837 1899 0 983 1001
 835 0 +.01150582750330986 -.0241114277445721 -.011 0 0 1 .002 1 0 0 83 3 1038 1
 .6 0 84 32 1037 307a2e03ce93b1918cd555a46564eee215 38 2527 0 205 1026 0 17 205
 0 38 40 39 203 1213 258 0 252 +17 40 0 38 36 205 208 252 250 0 235 -17 39 0 38
 205 36 206 43 225 0 1213 +17 1213 0 717 223 1214 206 205 258 0 0 -17 252 0 1027
 202 235 203 40 250 0 1214 +15 1027 2523 0 202 1017 0 17 202 0 1027 212 252 200
 1214 261 0 217 +17 235 0 1027 252 212 208 220 236 0 41 +17 1214 0 717 1213 221
 203 202 261 0 0 -15 717 2415 0 221 709 1215 17 221 0 717 1214 223 200 35 222 0
 0 -17 223 0 717 221 1213 10 31 254 0 0 -17 31 0 30 43 28 206 223 254 0 39 +15 1
215 2291 0 269 709 1216 17 269 0 1215 269 269 0 1217 266 0 0 +15 1216 1790 0 121
8 709 1219 17 1218 0 1216 1218 1218 0 301 298 0 0 -15 1219 1784 0 1220 709 1221
 17 1220 0 1219 1220 1220 0 297 294 0 0 -15 1221 1778 0 1222 709 1210 17 1222 0
 1221 1222 1222 0 293 283 0 0 -17 293 0 984 293 293 0 1222 283 0 0 +15 984 1880
 0 293 836 1223 15 1223 1881 0 290 836 0 17 290 0 1223 290 290 0 1224 278 0 0 +1
7 1224 0 1225 1224 1224 0 290 278 0 0 -15 1225 1750 0 1224 233 698 17 297 0 992
 297 297 0 1220 294 0 0 +15 992 1852 0 297 983 1226 15 1226 1853 0 287 983 0 17
 287 0 1226 287 287 0 1227 284 0 0 +17 1227 0 1228 1227 1227 0 287 284 0 0 -15 1
228 1759 0 1227 233 1225 17 301 0 1000 301 301 0 1218 298 0 0 +15 1000 1824 0 30
1 991 1229 15 1229 1825 0 282 991 0 17 282 0 1229 282 282 0 1230 279 0 0 +17 123
0 0 234 1230 1230 0 282 279 0 0 -15 234 1768 0 1230 233 1228 17 1217 0 1008 1217
 1217 0 269 266 0 0 -15 1008 2333 0 1217 999 1153 17 212 0 1027 235 202 210 217
 253 0 215 -17 41 0 230 220 228 208 36 42 0 0 -17 217 0 214 35 215 200 212 253 0
 221 +83 3 1032 1 .6 0 84 32 1030 00fe09f6b4a6c30c2ed61255779ecee983 3 1023 1 .6
 0 84 32 1021 ae0e7d5b27cee45c16625178a974cf0a83 3 1013 1 .6 0 81 1 243 2590 239
 236 0 0 1005 240 1231 84 32 1011 ff56a1374689cfc6ee584b79332723cd81 1 240 2591
 239 250 0 0 243 237 1232 84 32 1231 c8389727455ef736a8c5241379602e2f84 32 1232
 6decd99b2bb857ed5cadd39e912b716083 3 1004 1 .6 0 81 1 381 2249 239 379 0 0 993
 389 1233 84 32 1002 b328d539138dc898cd96a9e88c9c81f781 1 389 2250 239 387 0 0 3
81 376 1234 84 32 1233 603d54c78d5befc939d2f65dbbcce77b81 1 376 2251 239 374 0 0
 389 385 1235 84 32 1234 7dfed3e442d706c29fe59609d4fe8a1c81 1 385 2252 239 383 0
 0 376 542 1236 84 32 1235 7df27b181490ea8d902f75591b04ba1381 1 542 2253 239 540
 0 0 385 25 1237 84 32 1236 10aefa8335355b118ad88f84658af1bc81 1 25 2254 239 9 0
 0 542 272 1238 84 32 1237 967e82a7a25ce9f5fd63b435817cf76281 1 272 2255 239 270
 0 0 25 276 1239 84 32 1238 9203138fc86b0574057629489e2e46c081 1 276 2256 239 27
4 0 0 272 692 1240 84 32 1239 30c69455c6f75e2f8064b01c59f3433b84 32 1240 1467290
c23a89f95d9da329c8c0e9d1683 3 996 1 .6 0 84 32 994 953cce4fff54e4cd83cdf0f31faf2
20983 3 988 1 .6 0 81 1 292 1934 239 283 0 0 289 980 1241 84 32 986 0733745692d1
283b3570ccfb2b14141381 1 289 1933 239 278 0 0 300 292 1242 84 32 1241 0447b72019
afa4313afc863abd9a6b0c81 1 300 1932 239 298 0 0 286 289 1243 84 32 1242 ed459c42
2f9ffee454f0bdf69987d1b581 1 286 1931 239 284 0 0 296 300 1244 84 32 1243 3ecf4a
812a24cc624d6a984a2092551481 1 296 1930 239 294 0 0 281 286 1245 84 32 1244 bfc0
ee572c518c13a879432c79713f5c81 1 281 1929 239 279 0 0 973 296 1246 84 32 1245 e8
a6dbf29ab5de76ee6dfcb6dae463d584 32 1246 52ecfbde23a8f28d95c1c4a7dcf1393b83 3 97
9 1 .6 0 84 32 977 338b50d89704c873ec47297297ccc3d283 3 972 1 .6 0 83 1 951 0 83
 1 945 0 83 1 930 0 83 1 927 0 83 1 919 0 83 1 915 0 83 1 911 0 15 672 510 0 151
 904 0 17 151 0 672 175 491 149 1247 482 0 496 +17 175 0 672 130 151 173 496 382
 0 658 -17 491 0 672 151 130 164 670 373 0 1247 +17 1247 0 625 668 663 164 151 4
82 0 0 -17 496 0 661 157 658 149 175 382 0 663 +17 663 0 625 1247 665 149 157 47
9 0 0 -15 625 445 0 1247 624 0 17 665 0 625 663 668 155 478 475 0 0 -17 668 0 62
5 665 1247 134 166 421 0 0 -17 166 0 669 670 136 164 668 421 0 491 +83 1 903 0 8
1 1 861 820 239 819 0 857 865 855 1248 84 32 876 654804607f88ac9081eb91a54408076
e84 32 1248 82974088fb40b3165cf5a434773d39a679 255 15 875 UGS/ObjectState84 32 8
70 b84a22e37dfd1d05c17d9270001b745679 21 868 SDL/TYSA_TRANSLUCENCY83 1 863 0 83
 3 859 1 .6 0 83 1 858 0 79 15 853 SDL/TYSA_COLOUR83 3 830 1 .6 0 19 17 31 0 1 0
 23 4 S0 83 3 818 1 .6 0 83 3 808 1 .6 0 17 799 0 790 799 799 0 410 402 0 0 -15
 790 486 0 799 780 0 83 3 797 1 .6 0 17 406 0 785 406 406 0 1249 403 0 0 +17 124
9 0 633 1249 1249 0 406 403 0 0 -15 633 481 0 1249 632 0 83 3 789 1 .6 0 83 3 78
4 1 .6 0 83 3 775 1 .6 0 83 3 749 1 .6 0 83 3 725 1 .6 0 83 3 715 1 .6 0 84 32 6
96 deda3bec97be3ea41fd26c354a62338f84 32 694 f277390268ca7742cb69a73faab49c8017
 619 0 617 118 589 110 460 407 0 620 -84 32 607 b1dba675931be6929ef6ce8c92d7590a
84 32 242 6c6f1c88cd971e77b50d7bb05418421d74 4 CI16 index_map_offset0 0 1 dCCZ20
 14 6 0 0 1036 1250 12 816 812 2 0 0 0 0 0 0 0 0 0 0 0 0 0 0 81 2 1250 2589 1251
 1 0 12 0 0 1252 1253 81 1 12 2609 1254 1 1250 2 0 0 1255 80 1 1254 1256 1257 90
00 0 0 0 0 3 5 0 0 0 FFTFFFFFFFFFFF1 82 255 1 1255 -1 79 19 1257 UG2/PMARK_ATTRI
BUTE80 2 1251 1258 1259 8004 0 0 0 0 3 5 0 0 0 FFTFFFFFFFFFFF2 3 83 1 1252 7830.
64 84 8 1253 Kg/Cu M 79 16 1259 SDL/TYSA_DENSITY80 1 11 1260 1261 9000 0 0 0 0 3
 5 0 0 0 FFTFFFFFFFFFFF1 82 1 13 78 79 24 1261 UG2/BODY_COLOR_ATTRIBUTE1 0 
