**ABCDEFGHIJKLMNOPQRSTUVWXYZabcdefghijklmnopqrstuvwxyz**************************
**PARASOLID !"#$%&'()*+,-./:;<=>?@[\]^_`{|}~0123456789**************************
**PART1;
MC=x64/Windows NT;
MC_MODEL=genuineintel family 6 model 14 stepping 3, intel(r) core(tm) i7-6700 cpu @ 3.40ghz;
MC_ID=robotic-pc;
OS=windows nt (x64);
OS_RELEASE=6.1 windows 7 professional (build 7601) service pack 1;
FRU=mdc_ugii_v7.0_djl_can_vrh;
APPL=unigraphics;
SITE=unknown;
USER=Robotic;
FORMAT=text;
GUISE=transmit;
KEY=Steering_gear;
FILE=C:\Users\Robotic\Desktop\Mechanical arm\mechanical arm\Solidworks\Steering_gear.x_t;
DATE=5-oct-2017;
**PART2;
SCH=SCH_2900123_28101;
USFLD_SIZE=0;
**PART3;
**END_OF_HEADER*****************************************************************
T51 : TRANSMIT FILE created by modeller version 290012323 SCH_2900123_28101_1300
6203 0 12 33 CCCCCCI4 mesh1006 0 I8 polyline1008 0 CCCCCCCDI5 owner1040 0 CCCCCC
I13 boundary_mesh1006 0 I17 boundary_polyline1008 0 CCCA16 index_map_offset0 0 1
 dA9 index_map82 0 A17 node_id_index_map82 0 A20 schema_embedding_map82 0 A5 chi
ld12 0 A14 lowest_node_id0 0 1 dZ1 1982 2 3 0 0 0 0 0 0 1e3 1e-8 0 0 0 1 0 1 1 4
 5 6 7 0 0 8 9 10 0 0 0 0 0 0 81 255 1 2 1982 11 1 12 0 0 0 13 70 11 CI9 list_ty
pe0 0 1 uI10 notransmit0 0 1 lCCCDCCDI12 finger_index0 0 1 dI12 finger_block1012
 0 CZ3 0 4 T1 0 0 6 20 1 14 14 13 255 4 91 0 1 0 15 0 0 16 0 50 255 5 90 0 17 18
 0 0 +.04 0 .02 -1 0 0 0 0 1 30 255 6 86 0 19 20 0 0 +.04 0 .02 0 0 -1 29 255 7
 67 0 21 22 0 0 0 0 19 8 CCCCCCCA5 owner12 0 Z8 1 0 1 16 0 23 V0 16 255 9 385 24
 ?25 0 26 27 0 0 1 18 255 10 15 0 28 0 29 30 ?1 17 255 28 0 31 32 33 10 34 35 0
 36 +18 29 10 0 33 10 37 38 ?1 29 30 17 0 10 38 39 0 0 .02 29 38 12 0 29 40 30 0
 .0405 .02 29 39 70 0 41 30 42 .04 0 0 18 41 60 0 43 44 0 39 ?1 29 42 69 0 44 39
 22 .04 .0405 0 18 44 58 0 45 46 41 42 ?1 29 22 68 0 46 42 7 0 .0405 0 18 46 56
 0 47 21 44 22 ?1 17 47 0 48 49 50 46 45 51 0 52 +18 21 54 0 53 54 46 7 ?1 17 53
 0 55 36 52 21 56 57 0 58 +18 54 2 0 32 37 21 59 ?1 17 32 0 31 60 28 54 61 62 0
 63 +18 37 5 0 64 29 54 40 ?1 29 59 4 0 54 0 40 .04 0 .02 29 40 7 0 37 59 38 .04
 .0405 .02 17 64 0 48 50 49 37 33 65 0 60 -15 255 48 79 0 47 66 67 17 50 0 48 47
 64 44 68 69 0 70 +17 49 0 48 64 47 29 52 71 0 34 -17 33 0 31 28 60 29 64 65 0 4
9 +16 65 11 72 ?33 35 73 74 0 0 1 17 60 0 31 33 32 37 75 73 0 68 +15 31 23 0 60
 76 0 17 75 0 77 78 68 54 60 73 0 0 -16 73 6 79 ?60 65 80 81 0 0 1 17 68 0 77 75
 70 37 50 69 0 0 -15 77 81 0 70 17 0 17 70 0 77 68 78 44 82 83 0 0 +16 69 73 84
 ?50 26 71 20 0 0 1 81 1 84 1837 85 69 0 0 86 87 88 16 26 179 89 ?90 9 69 91 0 0
 1 16 71 72 92 ?52 69 93 94 0 0 1 30 20 85 0 69 94 6 0 +.04 .0405 .02 0 0 -1 30
 94 84 0 71 95 20 0 +0 .0405 .02 0 0 -1 30 95 83 0 93 96 94 0 +0 0 .02 0 0 -1 16
 93 71 97 ?58 71 19 95 0 0 1 30 96 63 0 80 98 95 0 +0 0 0 1 0 0 16 80 46 99 ?43
 73 57 96 0 0 1 30 98 64 0 57 100 96 0 +0 .0405 0 0 -1 0 16 57 48 101 ?53 80 51
 98 0 0 1 30 100 65 0 51 102 98 0 +.04 .0405 0 -1 0 0 16 51 50 103 ?47 57 83 100
 0 0 1 30 102 66 0 83 104 100 0 +.04 0 0 0 1 0 16 83 52 86 ?70 51 105 102 0 0 1
 30 104 22 0 62 106 102 0 +0 0 .02 1 0 0 16 62 20 87 ?32 19 35 104 0 0 1 30 106
 19 0 35 74 104 0 +0 .0405 .02 0 -1 0 16 35 16 107 ?28 62 65 106 0 0 1 30 74 14
 0 65 81 106 0 +.04 .0405 .02 -1 0 0 30 81 9 0 73 108 74 0 +.04 0 .02 0 1 0 31 2
55 108 156 0 109 110 81 0 +.03 0 .01 0 1 0 1 0 612323399573677e-31 .0065 16 109
 134 111 ?112 105 113 108 0 0 1 31 110 157 0 105 91 108 0 +.03 -.001 .01 0 1 0 1
 0 612323399573677e-31 .0065 16 105 132 114 ?115 83 109 110 0 0 1 31 91 216 0 26
 116 110 0 +.03 .0405 .01 0 1 0 1 0 612323399573677e-31 .0065 31 116 217 0 113 1
17 91 0 +.03 .0415 .01 0 1 0 1 0 612323399573677e-31 .0065 16 113 196 118 ?119 1
09 120 116 0 0 1 31 117 283 0 120 121 116 0 +.03 .0415 .01 0 -1 0 1 0 -612323399
573677e-31 .0045 16 120 261 122 ?123 113 124 117 0 0 1 31 121 284 0 124 125 117
 0 +.03 .0432 .01 0 -1 0 1 0 -612323399573677e-31 .0045 16 124 318 126 ?127 120
 128 121 0 0 1 31 125 349 0 129 130 121 0 +.03 .0432 .01 0 1 0 1 0 6123233995736
77e-31 .01 16 129 321 131 ?132 128 133 125 0 0 1 31 130 350 0 128 27 125 0 +.03
 .0452 .01 0 1 0 1 0 612323399573677e-31 .01 16 128 323 134 ?135 124 129 130 0 0
 1 31 27 424 0 9 136 130 0 +.03 -.001 .01 0 -1 0 1 0 -612323399573677e-31 .0045
 31 136 425 0 133 137 27 0 +.03 -.0045 .01 0 -1 0 1 0 -612323399573677e-31 .0045
 16 133 404 138 ?139 129 140 136 0 0 1 31 137 495 0 141 142 136 0 +.03 -.0045 .0
1 0 1 0 1 0 612323399573677e-31 .01 16 141 469 143 ?144 140 145 137 0 0 1 31 142
 496 0 140 146 137 0 +.03 -.0065 .01 0 1 0 1 0 612323399573677e-31 .01 16 140 46
4 147 ?148 133 141 142 0 0 1 31 146 624 0 149 150 142 0 +.03 -.0065 .017 0 -1 0
 1 0 -612323399573677e-31 .00147782604588 16 149 599 151 ?152 145 153 146 0 0 1
 31 150 625 0 145 154 146 0 +.03 -.0045 .017 0 -1 0 1 0 -612323399573677e-31 .00
147782604588 16 145 595 155 ?156 141 149 150 0 0 1 31 154 679 0 157 158 150 0 +.
023 -.0065 .01 0 -1 0 1224646799147352e-31 0 1 .00147782604588 16 157 654 159 ?1
60 153 161 154 0 0 1 31 158 680 0 153 162 154 0 +.023 -.0045 .01 0 -1 0 12246467
99147352e-31 0 1 .00147782604588 16 153 650 163 ?164 149 157 158 0 0 1 31 162 73
4 0 165 166 158 0 +.03 -.0065 .00299999999999993 0 -1 0 -1 0 183697019872103e-30
 .00147782604588 16 165 709 167 ?168 161 169 162 0 0 1 31 166 735 0 161 170 162
 0 +.03 -.0045 .00299999999999993 0 -1 0 -1 0 183697019872103e-30 .0014778260458
8 16 161 705 171 ?172 157 165 166 0 0 1 31 170 789 0 173 174 166 0 +.037 -.0065
 .01 0 -1 0 0 0 -1 .00147782604588 16 173 764 175 ?176 169 177 170 0 0 1 31 174
 790 0 169 178 170 0 +.037 -.0045 .01 0 -1 0 0 0 -1 .00147782604588 16 169 760 1
79 ?180 165 173 174 0 0 1 31 178 944 0 181 182 174 0 +.03 .0452 .017 0 -1 0 1 0
 -612323399573677e-31 .00147782604588 16 181 915 183 ?184 177 185 178 0 0 1 31 1
82 945 0 177 186 178 0 +.03 .0432 .017 0 -1 0 1 0 -612323399573677e-31 .00147782
604588 16 177 919 187 ?188 173 181 182 0 0 1 31 186 999 0 189 190 182 0 +.023 .0
452 .01 0 -1 0 1224646799147352e-31 0 1 .00147782604588 16 189 970 191 ?192 185
 193 186 0 0 1 31 190 1000 0 185 194 186 0 +.023 .0432 .01 0 -1 0 12246467991473
52e-31 0 1 .00147782604588 16 185 974 195 ?196 181 189 190 0 0 1 31 194 1054 0 1
97 198 190 0 +.03 .0452 .00299999999999993 0 -1 0 -1 0 183697019872103e-30 .0014
7782604588 16 197 1025 199 ?200 193 201 194 0 0 1 31 198 1055 0 193 202 194 0 +.
03 .0432 .00299999999999993 0 -1 0 -1 0 183697019872103e-30 .00147782604588 16 1
93 1029 203 ?204 189 197 198 0 0 1 31 202 1109 0 205 206 198 0 +.037 .0452 .01 0
 -1 0 0 0 -1 .00147782604588 16 205 1080 207 ?208 201 209 202 0 0 1 31 206 1110
 0 201 210 202 0 +.037 .0432 .01 0 -1 0 0 0 -1 .00147782604588 16 201 1084 211 ?
212 197 205 206 0 0 1 31 210 1266 0 213 214 206 0 +.0232 0 .002 0 -1 0 1 0 -6123
23399573677e-31 79e-5 16 213 1241 215 ?216 209 217 210 0 0 1 31 214 1267 0 209 2
18 210 0 -.0232 .005 .002 0 -1 0 1 0 -612323399573677e-31 79e-5 16 209 1239 219
 ?220 205 213 214 0 0 1 31 218 1305 0 221 222 214 0 +.0098 0 .003518253741410405
 0 -1 0 1 0 -612323399573677e-31 79e-5 16 221 1280 223 ?224 217 225 218 0 0 1 31
 222 1306 0 217 226 218 0 -.0098 .005 .003518253741410405 0 -1 0 1 0 -6123233995
73677e-31 79e-5 16 217 1278 227 ?228 213 221 222 0 0 1 31 226 1344 0 229 230 222
 0 +.0028 0 .0100430152254788 0 -1 0 1 0 -612323399573677e-31 79e-5 16 229 1319
 231 ?232 225 233 226 0 0 1 31 230 1345 0 225 234 226 0 -.0028 .005 .01004301522
54788 0 -1 0 1 0 -612323399573677e-31 79e-5 16 225 1317 235 ?236 221 229 230 0 0
 1 31 234 1383 0 237 238 230 0 +.0098 0 .0175182537414104 0 -1 0 1 0 -6123233995
73677e-31 79e-5 16 237 1358 239 ?240 233 241 234 0 0 1 31 238 1384 0 233 242 234
 0 -.0098 .005 .0175182537414104 0 -1 0 1 0 -612323399573677e-31 79e-5 16 233 13
56 243 ?244 229 237 238 0 0 1 31 242 1422 0 245 246 238 0 +.0232 0 .01721 0 -1 0
 1 0 -612323399573677e-31 79e-5 16 245 1397 247 ?248 241 249 242 0 0 1 31 246 14
23 0 241 250 242 0 -.0232 .005 .01721 0 -1 0 1 0 -612323399573677e-31 79e-5 16 2
41 1395 251 ?252 237 245 246 0 0 1 31 250 1621 0 253 254 246 0 +.0175 .0405 .002
5 0 -1 0 1 0 -612323399573677e-31 79e-5 16 253 1594 255 ?256 249 257 250 0 0 1 3
1 254 1622 0 249 258 250 0 -.0175 .0355 .0025 0 -1 0 1 0 -612323399573677e-31 79
e-5 16 249 1598 259 ?260 245 253 254 0 0 1 31 258 1660 0 261 262 254 0 +.0025 .0
405 .0025 0 -1 0 1 0 -612323399573677e-31 79e-5 16 261 1633 263 ?264 257 265 258
 0 0 1 31 262 1661 0 257 266 258 0 -.0025 .0355 .0025 0 -1 0 1 0 -61232339957367
7e-31 79e-5 16 257 1637 267 ?268 253 261 262 0 0 1 31 266 1699 0 269 270 262 0 +
.0025 .0405 .0175 0 -1 0 1 0 -612323399573677e-31 79e-5 16 269 1672 271 ?272 265
 273 266 0 0 1 31 270 1700 0 265 274 266 0 -.0025 .0355 .0175 0 -1 0 1 0 -612323
399573677e-31 79e-5 16 265 1676 275 ?276 261 269 270 0 0 1 31 274 1738 0 277 278
 270 0 +.0175 .0405 .0175 0 -1 0 1 0 -612323399573677e-31 79e-5 16 277 1711 279
 ?280 273 0 274 0 0 1 31 278 1739 0 273 0 274 0 -.0175 .0355 .0175 0 -1 0 1 0 -6
12323399573677e-31 79e-5 16 273 1715 281 ?282 269 277 278 0 0 1 81 1 281 1823 85
 273 0 0 279 255 283 17 282 0 284 282 282 0 285 273 0 0 +15 284 1727 0 282 286 0
 17 285 0 287 285 285 0 282 273 0 0 -15 287 1721 0 285 288 289 14 255 288 1717 2
90 ?286 291 287 4 292 +0 0 286 291 23 15 289 1722 0 293 288 0 17 293 0 289 293 2
93 0 280 277 0 0 -17 280 0 294 280 280 0 293 277 0 0 +15 294 1702 0 280 66 295 1
4 66 80 296 ?17 297 294 4 18 -0 0 17 297 23 15 295 1663 0 272 66 298 17 272 0 29
5 272 272 0 299 269 0 0 +15 298 1624 0 264 66 300 17 264 0 298 264 264 0 301 261
 0 0 +15 300 1585 0 256 66 48 17 256 0 300 256 256 0 302 253 0 0 +17 302 0 303 3
02 302 0 256 253 0 0 -15 303 1605 0 302 304 0 14 304 1600 305 ?306 307 308 4 309
 +0 0 306 307 23 81 1 305 1967 310 304 311 0 312 313 314 14 306 1606 313 ?315 30
4 316 4 317 -0 0 315 304 23 14 307 1407 312 ?304 318 319 4 320 +0 0 304 318 23 1
5 308 1604 0 321 304 303 51 255 309 1618 0 304 317 320 0 -.0175 .0355 .0025 0 1
 0 79e-5 0 0 1 13 23 3 0 0 0 0 0 0 8 15 14 15 76 322 ?323 0 324 4 325 -0 0 323 0
 23 81 1 322 1895 310 15 326 0 0 327 328 14 323 333 327 ?329 15 330 4 331 +0 0 3
29 15 23 15 324 1348 0 332 15 333 50 325 87 0 15 334 335 0 +0 0 .02 0 1 0 0 0 1
 50 334 62 0 336 337 325 0 +0 0 0 0 0 1 1 0 0 50 335 88 0 338 325 18 0 +0 .0405
 .02 1 0 0 0 0 -1 14 338 78 339 ?76 17 55 4 335 -0 0 76 17 23 50 18 89 0 66 335
 5 0 +.04 .0405 .02 0 -1 0 0 0 -1 81 1 339 1913 310 338 340 0 341 342 343 14 76
 24 342 ?336 338 31 4 337 +0 0 336 338 23 14 17 82 341 ?338 66 77 4 5 -0 0 338 6
6 23 15 55 77 0 53 338 0 81 1 341 1911 310 17 344 0 296 339 345 80 255 1 310 0 3
46 8001 0 0 0 0 3 5 0 0 0 FFFFTFTFFFFFFF2 81 1 344 1910 347 17 348 341 349 340 3
50 81 1 296 1909 310 66 349 0 351 341 352 83 255 3 345 1 .6 0 81 1 349 1908 347
 66 353 296 354 344 355 81 1 351 1907 310 297 354 0 356 296 357 83 3 352 1 .6 0
 14 297 204 351 ?66 358 359 4 360 +0 0 66 358 23 81 1 354 1906 347 297 361 351 3
62 349 363 81 1 356 1905 310 358 362 0 364 351 365 83 3 357 1 .6 0 14 358 144 35
6 ?297 366 367 4 368 -0 0 297 366 23 81 1 362 1904 347 358 369 356 370 354 371 8
1 1 364 1903 310 366 370 0 372 356 373 83 3 365 1 .6 0 14 366 484 364 ?358 374 3
75 4 376 +0 0 358 374 23 81 1 370 1902 347 366 377 364 378 362 379 81 1 372 1901
 310 374 378 0 380 364 381 83 3 373 1 .6 0 14 374 479 372 ?366 329 382 4 383 -0
 0 366 329 23 81 1 378 1900 347 374 384 372 385 370 386 81 1 380 1899 310 329 38
5 0 327 372 387 83 3 381 1 .6 0 14 329 338 380 ?374 323 388 4 389 -0 0 374 323 2
3 81 1 385 1898 347 329 390 380 391 378 392 81 1 327 1897 310 323 391 0 322 380
 393 83 3 387 1 .6 0 81 1 391 1896 347 323 394 327 326 385 395 83 3 393 1 .6 0 8
0 1 347 396 397 8015 0 0 0 0 3 5 0 0 0 FFFFTFFFFFFFFF2 81 1 394 1854 85 323 0 39
1 390 398 399 81 1 326 1894 347 15 400 322 0 391 401 83 1 395 0 81 1 400 1843 85
 15 0 326 402 348 403 83 1 401 0 80 1 85 404 405 9000 1 1 1 1 1 1 1 1 0 FFFFTFTF
FFFFFF3 81 1 402 1842 85 338 0 340 406 400 407 81 1 348 1844 85 17 0 344 400 408
 409 84 255 32 403 ebc07a290d1332a8d14ca480046c453581 1 408 1845 85 76 0 410 348
 353 411 84 32 409 db59ebfa17b95421003ad41a24db817b81 1 410 1914 347 76 408 342
 340 412 413 81 1 353 1846 85 66 0 349 408 369 414 84 32 411 7310dd7048f15bb8dd2
2f83d9e42a98b81 1 369 1847 85 358 0 362 353 415 416 84 32 414 e422484b283b8c2156
7a4ac49faeab4e81 1 415 1848 85 417 0 418 369 419 420 84 32 416 b7e1055c903451397
fb76e7cd2f9d3d314 417 138 421 ?422 336 423 4 424 +0 0 422 336 23 81 1 418 1918 3
47 417 415 421 412 425 426 81 1 419 1849 85 422 0 425 415 361 427 84 32 420 bc53
5cc099ccb3fcf3774ad8287b07fd14 422 198 428 ?429 417 430 4 431 -0 0 429 417 23 81
 1 425 1920 347 422 419 428 418 432 433 81 1 361 1850 85 297 0 354 419 434 435 8
4 32 427 6fdc89696983180cd44f99dd5363654381 1 434 1851 85 429 0 432 361 436 437
 84 32 435 ac472a9ec30f2e72dc1af1c9b848bcee14 429 265 438 ?439 422 440 4 441 +0
 0 439 422 23 81 1 432 1922 347 429 434 438 425 442 443 81 1 436 1852 85 439 0 4
42 434 390 444 84 32 437 3a172098cf0ee2817da79e53ef214a6414 439 327 445 ?446 429
 447 4 448 -0 0 446 429 23 81 1 442 1924 347 439 436 445 432 449 450 81 1 390 18
53 85 329 0 385 436 394 451 84 32 444 324f8173fb8e65202f24900921c1e13d84 32 451
 8bc7ddb0008eeb3955eb03347c4d75ba81 1 445 1925 310 439 442 0 438 452 453 81 1 44
9 1926 347 446 398 452 442 454 455 83 1 450 0 14 446 406 452 ?456 439 457 4 458
 -0 0 456 439 23 81 1 398 1855 85 446 0 449 394 459 460 81 1 452 1927 310 446 44
9 0 445 461 462 81 1 454 1928 347 456 459 461 449 463 464 83 1 455 0 14 456 473
 461 ?465 446 466 4 467 +0 0 465 446 23 81 1 459 1856 85 456 0 454 398 377 468 8
1 1 461 1929 310 456 454 0 452 469 470 81 1 463 1930 347 465 471 469 454 472 473
 83 1 464 0 14 465 603 469 ?474 456 475 4 476 -0 0 474 456 23 81 1 471 1862 85 4
65 0 463 477 478 479 81 1 469 1931 310 465 463 0 461 480 481 81 1 472 1932 347 4
74 482 480 463 483 484 83 1 473 0 14 474 658 480 ?485 465 486 4 487 -0 0 485 465
 23 81 1 482 1859 85 474 0 472 384 488 489 81 1 480 1933 310 474 472 0 469 490 4
91 81 1 483 1934 347 485 477 490 472 492 493 83 1 484 0 14 485 713 490 ?494 474
 495 4 496 -0 0 494 474 23 81 1 477 1861 85 485 0 483 488 471 497 81 1 490 1935
 310 485 483 0 480 498 499 81 1 492 1936 347 494 488 498 483 500 501 83 1 493 0
 14 494 768 498 ?502 485 503 4 504 -0 0 502 485 23 81 1 488 1860 85 494 0 492 48
2 477 505 81 1 498 1937 310 494 492 0 490 506 507 81 1 500 1938 347 502 478 506
 492 508 509 83 1 501 0 14 502 923 506 ?510 494 511 4 512 +0 0 510 494 23 81 1 4
78 1863 85 502 0 500 471 513 514 81 1 506 1939 310 502 500 0 498 515 516 81 1 50
8 1940 347 510 517 515 500 518 519 83 1 509 0 14 510 978 515 ?520 502 521 4 522
 +0 0 520 502 23 81 1 517 1866 85 510 0 508 523 524 525 81 1 515 1941 310 510 50
8 0 506 526 527 81 1 518 1942 347 520 523 526 508 528 529 83 1 519 0 14 520 1033
 526 ?530 510 531 4 532 +0 0 530 510 23 81 1 523 1865 85 520 0 518 513 517 533 8
1 1 526 1943 310 520 518 0 515 534 535 81 1 528 1944 347 530 513 534 518 536 537
 83 1 529 0 14 530 1088 534 ?538 520 539 4 540 +0 0 538 520 23 81 1 513 1864 85
 530 0 528 478 523 541 81 1 534 1945 310 530 528 0 526 542 543 81 1 536 1946 347
 538 544 542 528 545 546 83 1 537 0 14 538 1245 542 ?547 530 548 4 549 -0 0 547
 530 23 81 1 544 1870 85 538 0 536 550 551 552 81 1 542 1947 310 538 536 0 534 5
53 554 81 1 545 1948 347 547 555 553 536 556 557 83 1 546 0 14 547 1251 553 ?558
 538 559 4 560 +0 0 558 538 23 81 1 555 1872 85 547 0 545 551 561 562 81 1 553 1
949 310 547 545 0 542 563 564 81 1 556 1950 347 558 565 563 545 566 567 83 1 557
 0 14 558 1284 563 ?568 547 569 4 570 -0 0 568 547 23 81 1 565 1874 85 558 0 556
 561 571 572 81 1 563 1951 310 558 556 0 553 573 574 81 1 566 1952 347 568 524 5
73 556 575 576 83 1 567 0 14 568 1290 573 ?577 558 578 4 579 +0 0 577 558 23 81
 1 524 1867 85 568 0 566 517 580 581 81 1 573 1953 310 568 566 0 563 582 583 81
 1 575 1954 347 577 550 582 566 584 585 83 1 576 0 14 577 1323 582 ?586 568 587
 4 588 -0 0 586 568 23 81 1 550 1869 85 577 0 575 580 544 589 81 1 582 1955 310
 577 575 0 573 590 591 81 1 584 1956 347 586 571 590 575 592 593 83 1 585 0 14 5
86 1329 590 ?594 577 595 4 596 +0 0 594 577 23 81 1 571 1875 85 586 0 584 565 59
7 598 81 1 590 1957 310 586 584 0 582 599 600 81 1 592 1958 347 594 597 599 584
 601 602 83 1 593 0 14 594 1362 599 ?603 586 604 4 605 -0 0 603 586 23 81 1 597
 1876 85 594 0 592 571 606 607 81 1 599 1959 310 594 592 0 590 608 609 81 1 601
 1960 347 603 580 608 592 610 611 83 1 602 0 14 603 1368 608 ?318 594 612 4 613
 +0 0 318 594 23 81 1 580 1868 85 603 0 601 524 550 614 81 1 608 1961 310 603 60
1 0 599 615 616 81 1 610 1962 347 318 561 615 601 617 618 83 1 611 0 14 318 1401
 615 ?307 603 619 4 620 -0 0 307 603 23 81 1 561 1873 85 318 0 610 555 565 621 8
1 1 615 1963 310 318 610 0 608 312 622 81 1 617 1964 347 307 551 312 610 311 623
 83 1 618 0 81 1 551 1871 85 307 0 617 544 555 624 81 1 312 1965 310 307 617 0 6
15 305 625 81 1 311 1966 347 304 626 305 617 627 628 83 1 623 0 81 1 626 1880 85
 304 0 311 629 630 631 81 1 627 1968 347 306 632 313 311 633 634 83 1 628 0 81 1
 632 1878 85 306 0 627 606 629 635 81 1 313 1969 310 306 627 0 305 636 637 81 1
 633 1970 347 315 629 636 627 638 639 83 1 634 0 14 315 1639 636 ?640 306 641 4
 642 +0 0 640 306 23 81 1 629 1879 85 315 0 633 632 626 643 81 1 636 1971 310 31
5 633 0 313 644 645 81 1 638 1972 347 640 630 644 633 646 647 83 1 639 0 14 640
 1645 644 ?648 315 649 4 650 -0 0 648 315 23 81 1 630 1881 85 640 0 638 626 651
 652 81 1 644 1973 310 640 638 0 636 653 654 81 1 646 1974 347 648 655 653 638 6
56 657 83 1 647 0 14 648 1678 653 ?291 640 658 4 659 +0 0 291 640 23 81 1 655 18
83 85 648 0 646 651 660 661 81 1 653 1975 310 648 646 0 644 662 663 81 1 656 197
6 347 291 606 662 646 664 665 83 1 657 0 14 291 1684 662 ?288 648 666 4 667 -0 0
 288 648 23 81 1 606 1877 85 291 0 656 597 632 668 81 1 662 1977 310 291 656 0 6
53 290 669 81 1 664 1978 347 288 651 290 656 670 671 83 1 665 0 81 1 651 1882 85
 288 0 664 630 655 672 81 1 290 1979 310 288 664 0 662 673 674 81 1 670 1980 347
 286 660 673 664 0 675 83 1 671 0 14 286 1723 673 ?0 288 284 4 676 -0 0 0 288 23
 81 1 660 1884 85 286 0 670 655 0 677 81 1 673 1981 310 286 670 0 290 0 678 83 1
 675 0 83 3 678 1 .6 0 84 32 677 4a75d8a89ba4ef27118baa96d10e7fae50 676 1737 0 2
86 0 292 0 +.0175 .0355 .0175 0 -1 0 0 0 -1 51 292 1735 0 288 676 667 0 -.0175 .
0355 .0175 0 1 0 79e-5 0 0 1 50 667 1698 0 291 292 659 0 +.0025 .0355 .0175 0 -1
 0 0 0 -1 51 659 1696 0 648 667 650 0 -.0025 .0355 .0175 0 1 0 79e-5 0 0 1 50 65
0 1659 0 640 659 642 0 +.0025 .0355 .0025 0 -1 0 0 0 -1 51 642 1657 0 315 650 31
7 0 -.0025 .0355 .0025 0 1 0 79e-5 0 0 1 50 317 1620 0 306 642 309 0 +.0175 .035
5 .0025 0 -1 0 0 0 -1 83 3 674 1 .6 0 84 32 672 8a6e86c7985e57ebf06b7d93e6f2eeab
83 3 669 1 .6 0 84 32 668 50a69ec15e8255d43ba9829dfafe311c15 666 1688 0 276 291
 0 17 276 0 666 276 276 0 679 265 0 0 +17 679 0 658 679 679 0 276 265 0 0 -15 65
8 1682 0 679 648 680 15 680 1683 0 299 648 0 17 299 0 680 299 299 0 272 269 0 0
 -83 3 663 1 .6 0 84 32 661 b6327971ab2deabfe86deb6b4354d07e83 3 654 1 .6 0 84 3
2 652 d58d8e8ee59351c4558d36087cb7d59015 649 1649 0 268 640 0 17 268 0 649 268 2
68 0 681 257 0 0 +17 681 0 641 681 681 0 268 257 0 0 -15 641 1643 0 681 315 682
 15 682 1644 0 301 315 0 17 301 0 682 301 301 0 264 261 0 0 -83 3 645 1 .6 0 84
 32 643 1fc386a8c50e353bc4aa6b9714e66adc83 3 637 1 .6 0 84 32 635 5d811c25b87cac
a5dc41a995e9a313f284 32 631 86fd527a07f695f58c54ec1861ed7cab83 3 625 1 .6 0 84 3
2 624 03a48ee0fe395ccb00f9e7e16ac708ec83 3 622 1 .6 0 84 32 621 90750768d1abc373
da656a7ef519494615 619 1405 0 252 318 683 51 620 1419 0 318 320 613 0 +.0232 .00
5 .01721 0 -1 0 79e-5 0 0 -1 50 320 1421 0 307 309 620 0 +.0232 .005 .01721 0 -1
 0 0 0 -1 50 613 1382 0 603 620 605 0 +.0098 .005 .0175182537414104 0 -1 0 0 0 -
1 51 605 1380 0 594 613 596 0 +.0098 .005 .0175182537414104 0 -1 0 79e-5 0 0 -1
 50 596 1343 0 586 605 588 0 +.0028 .005 .0100430152254788 0 -1 0 0 0 -1 51 588
 1341 0 577 596 579 0 +.0028 .005 .0100430152254788 0 -1 0 79e-5 0 0 -1 50 579 1
304 0 568 588 570 0 +.0098 .005 .003518253741410405 0 -1 0 0 0 -1 51 570 1302 0
 558 579 560 0 +.0098 .005 .003518253741410405 0 -1 0 79e-5 0 0 -1 50 560 1265 0
 547 570 549 0 +.0232 .005 .002 0 -1 0 0 0 -1 51 549 1263 0 538 560 540 0 +.0232
 .005 .002 0 -1 0 79e-5 0 0 -1 51 540 1106 0 530 549 532 0 -.037 .0432 .01 0 1 0
 .00147782604588 0 0 1 51 532 1051 0 520 540 522 0 -.03 .0432 .00299999999999993
 0 1 0 .00147782604588 0 0 1 51 522 996 0 510 532 512 0 -.023 .0432 .01 0 1 0 .0
0147782604588 0 0 1 51 512 941 0 502 522 504 0 -.03 .0432 .017 0 1 0 .0014778260
4588 0 0 1 51 504 786 0 494 512 496 0 +.037 -.0045 .01 0 -1 0 .00147782604588 0
 0 -1 51 496 731 0 485 504 487 0 +.03 -.0045 .00299999999999993 0 -1 0 .00147782
604588 0 0 -1 51 487 676 0 474 496 476 0 +.023 -.0045 .01 0 -1 0 .00147782604588
 0 0 -1 51 476 621 0 465 487 383 0 +.03 -.0045 .017 0 -1 0 .00147782604588 0 0 -
1 50 383 494 0 374 476 376 0 +.03 -.0065 .01 0 1 0 0 0 1 50 376 493 0 366 383 46
7 0 +.03 -.0045 .01 0 1 0 0 0 1 51 467 492 0 456 376 458 0 +.03 -.0065 .01 0 1 0
 .01 0 0 1 51 458 421 0 446 467 331 0 -.03 -.0045 .01 0 1 0 .0045 0 0 1 50 331 3
48 0 323 458 389 0 +.03 .0452 .01 0 1 0 0 0 1 50 389 347 0 329 331 448 0 +.03 .0
432 .01 0 1 0 0 0 1 51 448 346 0 439 389 441 0 -.03 .0452 .01 0 -1 0 .01 0 0 -1
 51 441 280 0 429 448 360 0 +.03 .0432 .01 0 -1 0 .0045 0 0 -1 50 360 215 0 297
 441 431 0 +.03 .0415 .01 0 1 0 0 0 1 51 431 213 0 422 360 368 0 -.03 .0415 .01
 0 -1 0 .0065 0 0 -1 50 368 155 0 358 431 424 0 +.03 -.001 .01 0 1 0 0 0 1 51 42
4 153 0 417 368 337 0 +.03 -.001 .01 0 1 0 .0065 0 0 1 50 337 25 0 76 424 334 0
 +0 0 .02 0 0 1 1 0 0 17 252 0 619 252 252 0 684 241 0 0 +15 683 1406 0 248 318
 0 17 248 0 683 248 248 0 685 245 0 0 +17 685 0 686 685 685 0 248 245 0 0 -15 68
6 1387 0 685 15 0 17 684 0 319 684 684 0 252 241 0 0 -15 319 1411 0 684 307 0 83
 3 616 1 .6 0 84 32 614 bdd2d96d98486ab1135f831c7ef6b25515 612 1372 0 687 603 0
 17 687 0 612 687 687 0 244 233 0 0 -17 244 0 604 244 244 0 687 233 0 0 +15 604
 1366 0 244 594 688 15 688 1367 0 240 594 0 17 240 0 688 240 240 0 332 237 0 0 +
17 332 0 324 332 332 0 240 237 0 0 -83 3 609 1 .6 0 84 32 607 eef525e3fee8c8942b
2d194d43c8e7e283 3 600 1 .6 0 84 32 598 980ba8e6f30100856a124596f35fec0115 595 1
333 0 689 586 0 17 689 0 595 689 689 0 236 225 0 0 -17 236 0 587 236 236 0 689 2
25 0 0 +15 587 1327 0 236 577 690 15 690 1328 0 232 577 0 17 232 0 690 232 232 0
 691 229 0 0 +17 691 0 692 691 691 0 232 229 0 0 -15 692 1309 0 691 15 686 83 3
 591 1 .6 0 84 32 589 7487b5831b104419d5fefefb235d52bc83 3 583 1 .6 0 84 32 581
 0487f1516191f2c51ef079d3800534cd15 578 1294 0 693 568 0 17 693 0 578 693 693 0
 228 217 0 0 -17 228 0 569 228 228 0 693 217 0 0 +15 569 1288 0 228 558 694 15 6
94 1289 0 224 558 0 17 224 0 694 224 224 0 695 221 0 0 +17 695 0 333 695 695 0 2
24 221 0 0 -15 333 1270 0 695 15 696 15 696 75 0 43 15 697 17 43 0 696 63 58 41
 698 80 0 78 +15 697 120 0 112 15 699 17 112 0 697 112 112 0 700 109 0 0 +15 699
 1231 0 701 15 692 17 701 0 699 701 701 0 216 213 0 0 -17 216 0 702 216 216 0 70
1 213 0 0 +15 702 1250 0 216 538 0 17 700 0 703 700 700 0 112 109 0 0 -15 703 14
3 0 700 417 0 17 63 0 696 61 43 54 78 19 0 75 -17 58 0 696 43 61 21 36 93 0 698
 +17 698 0 704 56 82 21 43 80 0 0 -17 78 0 77 70 75 41 63 19 0 82 +16 19 74 705
 ?78 93 62 6 0 0 1 17 82 0 704 698 45 41 70 83 0 0 -15 704 45 0 82 336 0 17 45 0
 704 82 56 44 47 51 0 50 -17 56 0 704 45 698 46 53 57 0 0 -14 336 42 706 ?417 76
 704 4 334 -0 0 417 76 23 81 1 706 1917 310 336 412 0 342 421 707 81 1 412 1916
 347 336 406 706 410 418 708 81 1 342 1915 310 76 410 0 339 706 709 81 1 421 191
9 310 417 418 0 706 428 710 83 3 707 1 .6 0 81 1 428 1921 310 422 425 0 421 438
 711 83 3 710 1 .6 0 81 1 438 1923 310 429 432 0 428 445 712 83 3 711 1 .6 0 83
 3 712 1 .6 0 83 3 709 1 .6 0 81 1 406 1841 85 336 0 412 72 402 713 83 1 708 0 8
1 1 72 1840 85 65 0 0 107 406 714 84 32 713 ba04ac7994d47b270c9048729b5b32f181 1
 107 1839 85 35 0 0 87 72 715 84 32 714 875eb64979ae744cf54592191055919581 1 87
 1838 85 62 0 0 84 107 716 84 32 715 dc0f4fa258042ab63e28f28e75bcc9e684 32 716 5
400fcf48465e5223f4156abb5d37a1c81 1 705 1829 85 19 0 0 263 99 717 81 1 263 1828
 85 261 0 0 275 705 718 81 1 99 1830 85 80 0 0 705 97 719 84 32 717 5beccfdcc4c9
92f096bc7c070b0b2aeb81 1 97 1831 85 93 0 0 99 79 720 84 32 719 bd790aa05e468048d
e44cf41544a3fcb81 1 79 1832 85 73 0 0 97 92 721 84 32 720 d36020be1e3a19d11a9cbe
79e9090a3b81 1 92 1833 85 71 0 0 79 101 722 84 32 721 6fafea01ab426340f4f0207241
d7a70d81 1 101 1834 85 57 0 0 92 103 723 84 32 722 7551bb48d302c420b48899e1c4d61
32c81 1 103 1835 85 51 0 0 101 86 724 84 32 723 7cefa60048e643ead1a670373d85f902
81 1 86 1836 85 83 0 0 103 84 725 84 32 724 eda499229cb2bb1d4d7656c51b530dc484 3
2 725 34e19da52943b139b9de0b99c494adf681 1 275 1827 85 265 0 0 271 263 726 84 32
 718 fd4eb3eb1a48d73f08dfd6a907808de281 1 271 1826 85 269 0 0 259 275 727 84 32
 726 6b0004863185fbe25f05d3ac5f1ec1e681 1 259 1825 85 249 0 0 255 271 728 84 32
 727 8443d8cbf1ef542303a03932b37431cf81 1 255 1824 85 253 0 0 281 259 729 84 32
 728 006d747567f6a30d83ac1a9df94bd1a984 32 729 cf5ee84775ef4739126305b9b2554ebd1
7 61 0 696 58 63 10 32 62 0 0 -17 36 0 55 34 53 10 58 93 0 61 -17 34 0 55 52 36
 29 28 35 0 0 -17 52 0 55 53 34 46 49 71 0 56 +83 3 574 1 .6 0 84 32 572 1795372
0d23293e36b18e5679178d0b683 3 564 1 .6 0 84 32 562 e323940b6a14b817ce4f1d67178d2
b5d15 559 1255 0 730 547 0 17 730 0 559 730 730 0 220 209 0 0 -17 220 0 548 220
 220 0 730 209 0 0 +15 548 1249 0 220 538 702 83 3 554 1 .6 0 84 32 552 d90e7d77
3b8479be11d4e90e2362045b83 3 543 1 .6 0 84 32 541 9ce6e1f195abd778390d5db5fd2bb0
c315 539 1092 0 212 530 731 17 212 0 539 212 212 0 732 201 0 0 +15 731 1093 0 73
3 530 0 17 733 0 731 733 733 0 208 205 0 0 -17 208 0 734 208 208 0 733 205 0 0 +
15 734 1067 0 208 323 0 17 732 0 735 732 732 0 212 201 0 0 -15 735 1059 0 732 32
9 0 83 3 535 1 .6 0 84 32 533 3682f6933713a359491bda1e62dd7a8415 531 1037 0 204
 520 736 17 204 0 531 204 204 0 737 193 0 0 +15 736 1038 0 738 520 0 17 738 0 73
6 738 738 0 200 197 0 0 -17 200 0 330 200 200 0 738 197 0 0 +15 330 1012 0 200 3
23 739 15 739 902 0 184 323 740 17 184 0 739 184 184 0 741 181 0 0 +15 740 337 0
 135 323 742 17 135 0 740 135 135 0 743 128 0 0 +15 742 957 0 192 323 734 17 192
 0 742 192 192 0 744 189 0 0 +17 744 0 745 744 744 0 192 189 0 0 -15 745 983 0 7
44 510 0 17 743 0 447 743 743 0 135 128 0 0 -15 447 331 0 743 439 746 15 746 332
 0 132 439 0 17 132 0 746 132 132 0 747 129 0 0 +17 747 0 748 747 747 0 132 129
 0 0 -15 748 343 0 747 329 749 15 749 949 0 750 329 735 17 750 0 749 750 750 0 1
96 185 0 0 -17 196 0 521 196 196 0 750 185 0 0 +15 521 982 0 196 510 745 17 741
 0 751 741 741 0 184 181 0 0 -15 751 928 0 741 502 0 17 737 0 388 737 737 0 204
 193 0 0 -15 388 1004 0 737 329 752 15 752 894 0 753 329 754 17 753 0 752 753 75
3 0 188 177 0 0 -15 754 342 0 755 329 748 17 755 0 754 755 755 0 127 124 0 0 -17
 127 0 440 127 127 0 755 124 0 0 +15 440 269 0 127 429 756 15 756 270 0 757 429
 0 17 757 0 756 757 757 0 123 120 0 0 -17 123 0 758 123 123 0 757 120 0 0 +15 75
8 245 0 123 297 0 17 188 0 511 188 188 0 753 177 0 0 +15 511 927 0 188 502 751 8
3 3 527 1 .6 0 84 32 525 dc2c01e2caede03b8dbd0a7680bc6e2e83 3 516 1 .6 0 84 32 5
14 416e457d76bcbdcf94d9351119f12cff83 3 507 1 .6 0 84 32 505 202c5179c0f27145104
a3efbdd66402a15 503 772 0 759 494 760 17 759 0 503 759 759 0 180 169 0 0 -15 760
 773 0 176 494 0 17 176 0 760 176 176 0 761 173 0 0 +17 761 0 762 761 761 0 176
 173 0 0 -15 762 748 0 761 374 0 17 180 0 763 180 180 0 759 169 0 0 +15 763 738
 0 180 366 0 83 3 499 1 .6 0 84 32 497 bf0267ee198eb1567d1cd4dd26ce307015 495 71
7 0 764 485 765 17 764 0 495 764 764 0 172 161 0 0 -15 765 718 0 168 485 0 17 16
8 0 765 168 168 0 766 165 0 0 +17 766 0 382 766 766 0 168 165 0 0 -15 382 693 0
 766 374 767 15 767 583 0 768 374 769 17 768 0 767 768 768 0 152 149 0 0 -15 769
 483 0 770 374 771 17 770 0 769 770 770 0 148 140 0 0 -15 771 638 0 772 374 762
 17 772 0 771 772 772 0 160 157 0 0 -17 160 0 773 160 160 0 772 157 0 0 +15 773
 663 0 160 474 0 17 148 0 466 148 148 0 770 140 0 0 +15 466 477 0 148 456 774 15
 774 478 0 775 456 0 17 775 0 774 775 775 0 144 141 0 0 -17 144 0 776 144 144 0
 775 141 0 0 +15 776 489 0 144 366 777 15 777 628 0 164 366 763 17 164 0 777 164
 164 0 778 153 0 0 +17 778 0 486 778 778 0 164 153 0 0 -15 486 662 0 778 474 773
 17 152 0 779 152 152 0 768 149 0 0 +15 779 608 0 152 465 0 17 172 0 375 172 172
 0 764 161 0 0 +15 375 683 0 172 366 780 15 780 573 0 156 366 781 17 156 0 780 1
56 156 0 782 145 0 0 +15 781 488 0 139 366 776 17 139 0 781 139 139 0 783 133 0
 0 +17 783 0 457 783 783 0 139 133 0 0 -15 457 410 0 783 446 784 15 784 411 0 25
 446 0 17 25 0 784 25 25 0 785 9 0 0 +17 785 0 786 785 785 0 25 9 0 0 -15 786 38
7 0 785 358 0 17 782 0 475 782 782 0 156 145 0 0 -15 475 607 0 782 465 779 83 3
 491 1 .6 0 81 1 384 1858 85 374 0 378 377 482 787 84 32 489 e3a12381ac8415b01ab
c928c5b254e1481 1 377 1857 85 366 0 370 459 384 788 84 32 787 51de85eaef5dd72ca9
43beb466f9c85684 32 788 392a85954a8210a3d5e002557e9f0a2983 3 481 1 .6 0 84 32 47
9 21597c18181fb745d7f3d5ea890cec4d83 3 470 1 .6 0 84 32 468 f4dcbccb7aed98c06277
4c56b7715b7483 3 462 1 .6 0 84 32 460 5f9f4ee8ad0d1fe2351b76c208be546383 3 453 1
 .6 0 83 1 443 0 83 1 433 0 15 430 202 0 789 422 790 17 789 0 430 789 789 0 119
 113 0 0 -15 790 203 0 90 422 0 17 90 0 790 90 90 0 791 26 0 0 +17 791 0 67 791
 791 0 90 26 0 0 -15 67 181 0 791 66 0 17 119 0 359 119 119 0 789 113 0 0 +15 35
9 208 0 119 297 758 83 1 426 0 15 423 142 0 115 417 703 17 115 0 423 115 115 0 7
92 105 0 0 +17 792 0 367 792 792 0 115 105 0 0 -15 367 148 0 792 358 786 81 1 34
0 1912 347 338 402 339 344 410 793 83 1 413 0 83 1 793 0 84 32 407 c902925a852c7
95e4893851582588a7a79 255 15 405 UGS/ObjectState84 32 399 fd5d8ea300de2b88588be5
335415a0e279 21 397 SDL/TYSA_TRANSLUCENCY83 1 392 0 83 1 386 0 83 1 379 0 83 1 3
71 0 83 1 363 0 83 1 355 0 83 1 350 0 79 15 346 SDL/TYSA_COLOUR83 3 343 1 .6 0 8
3 3 328 1 .6 0 17 321 0 308 321 321 0 260 249 0 0 -17 260 0 316 260 260 0 321 24
9 0 0 +15 316 1610 0 260 306 0 83 3 314 1 .6 0 81 1 279 1822 85 277 0 0 267 281
 794 84 32 283 7cac4f15216d4335736ca5f2114ff50781 1 267 1821 85 257 0 0 235 279
 795 84 32 794 6d7852286aaf6d673b157239c20e3a4d81 1 235 1820 85 225 0 0 219 267
 796 84 32 795 44a58532c4fc521e4c2e0a251a21a29681 1 219 1819 85 209 0 0 215 235
 797 84 32 796 ea275f037f56f5a41ca17833fb0fa18281 1 215 1818 85 213 0 0 243 219
 798 84 32 797 00a9c4685e4144b0f4916d95b2532e6081 1 243 1817 85 233 0 0 231 215
 799 84 32 798 f9b0bed517c903b81690fe34c6e56c7d81 1 231 1816 85 229 0 0 239 243
 800 84 32 799 194a08f637202ef8f431044a5f21a6d581 1 239 1815 85 237 0 0 223 231
 801 84 32 800 4c3d451892720d26861062b8ba58037c81 1 223 1814 85 221 0 0 251 239
 802 84 32 801 3dc3ef410ebcefd2ac45fb2b34302ed781 1 251 1813 85 241 0 0 227 223
 803 84 32 802 5365908b7a3b29300e366c37470ee7bb81 1 227 1812 85 217 0 0 247 251
 804 84 32 803 adb6bf167895536a56bb6428816e22ce81 1 247 1811 85 245 0 0 211 227
 805 84 32 804 811df614564d55a6805abab7840898c981 1 211 1810 85 201 0 0 195 247
 806 84 32 805 875e9e238db303c83160101cf7f0839b81 1 195 1809 85 185 0 0 199 211
 807 84 32 806 248c12d406b5e593f17297f67276484d81 1 199 1808 85 197 0 0 187 195
 808 84 32 807 9b4081a9ce6d2ca202ed205c5504856381 1 187 1807 85 177 0 0 207 199
 809 84 32 808 20e40f8b692d9a13b11e79cbed5def2c81 1 207 1806 85 205 0 0 191 187
 810 84 32 809 b0d0e4dbd1760770cbb27ef076c6041f81 1 191 1805 85 189 0 0 183 207
 811 84 32 810 47f1b257619916bb812d57c61442ae8281 1 183 1804 85 181 0 0 203 191
 812 84 32 811 96ba0b8fea2e73ea32908338366b1c6781 1 203 1803 85 193 0 0 171 183
 813 84 32 812 ade29994fce5923def9a388a554e349a81 1 171 1802 85 161 0 0 179 203
 814 84 32 813 5e73c0551b63b124ce1506e7d9e3914e81 1 179 1801 85 169 0 0 163 171
 815 84 32 814 4a32c329e6e1a155fe87a88400502dcd81 1 163 1800 85 153 0 0 167 179
 816 84 32 815 3317c3bb2cf5c0a0599be17a0718374581 1 167 1799 85 165 0 0 155 163
 817 84 32 816 af83d48dad873dc33ed0bf4415e045e081 1 155 1798 85 145 0 0 175 167
 818 84 32 817 fe489968fb5957060a38222361d59a2f81 1 175 1797 85 173 0 0 159 155
 819 84 32 818 6995117a5f9e5b617de397f329b4c0fa81 1 159 1796 85 157 0 0 151 175
 820 84 32 819 f428808bc262f7d2e4039c996e55e08881 1 151 1795 85 149 0 0 147 159
 821 84 32 820 f14b553966cc5d1840444ec7d7206cc481 1 147 1794 85 140 0 0 143 151
 822 84 32 821 902252fb3417044b5ef82d0c89349fa481 1 143 1793 85 141 0 0 138 147
 823 84 32 822 66bcced83cd92a8661dac81da1a6a8fd81 1 138 1792 85 133 0 0 24 143 8
24 84 32 823 51e00d64d9e50a38caf7a8c4bf55445481 1 24 1791 85 9 0 0 131 138 825 8
4 32 824 d3c06c40ab6ef3c8368e7381ed7f3f0e81 1 131 1790 85 129 0 0 126 24 826 84
 32 825 ea10354906862a4ac29b5b7f9c30bb8881 1 126 1789 85 124 0 0 134 131 827 84
 32 826 8fec085ec6b8e67a999e9c64f993823e81 1 134 1788 85 128 0 0 122 126 828 84
 32 827 ad3b8868411b69efda166f5d09b38e7581 1 122 1787 85 120 0 0 118 134 829 84
 32 828 561d8b21f022ded2fa9f7afc97d92c7b81 1 118 1786 85 113 0 0 89 122 830 84 3
2 829 51e0b89f1187a0b40ed9bc10183399fe81 1 89 1785 85 26 0 0 114 118 831 84 32 8
30 7660b859c408474f6d786851cfe795d981 1 114 1784 85 105 0 0 111 89 832 84 32 831
 d8419f42efee90c34b1b2483c6c57b7081 1 111 1783 85 109 0 0 0 114 833 84 32 832 9e
716ca215251907a728018c807054a784 32 833 64442a4bfda5b9de9c5dd7fdb9fd864a84 32 88
 d893fea4f07c4018b496cd1269af699419 16 92 0 1 0 8 4 S0 74 4 CI16 index_map_offse
t0 0 1 dCCZ20 14 6 0 0 834 660 12 670 673 2 0 0 0 0 0 0 0 0 0 0 0 0 0 0 81 2 834
 1770 835 1 0 12 0 0 836 837 81 1 12 1892 838 1 834 2 0 0 839 80 1 838 840 841 9
000 0 0 0 0 3 5 0 0 0 FFTFFFFFFFFFFF1 82 255 1 839 -1 79 19 841 UG2/PMARK_ATTRIB
UTE80 2 835 842 843 8004 0 0 0 0 3 5 0 0 0 FFTFFFFFFFFFFF2 3 83 1 836 7830.64 84
 8 837 Kg/Cu M 79 16 843 SDL/TYSA_DENSITY80 1 11 844 845 9000 0 0 0 0 3 5 0 0 0
 FFTFFFFFFFFFFF1 82 1 13 78 79 24 845 UG2/BODY_COLOR_ATTRIBUTE1 0 
